<svg width="136" height="155" viewBox="0 0 136 155" fill="none" xmlns="http://www.w3.org/2000/svg">
<path d="M17.6621 65.3749C21.1961 66.2033 24.9419 67.1087 26.4249 69.0159C29.3619 72.7916 31.3263 71.8862 35.544 73.6007C37.8454 74.535 38.298 80.4588 40.8402 84.4175C42.9587 87.7117 46.5312 90.2835 50.7778 90.4183C52.9541 90.4954 57.3643 89.9656 61.4184 87.1723C64.0568 85.3519 65.7998 81.4701 68.756 78.908C71.3752 76.6348 73.9078 74.0245 76.5077 71.4431C79.0884 68.8714 82.7572 67.2821 85.0779 64.6525C87.6201 61.7629 89.6038 58.5361 91.5104 55.8777C94.12 52.2175 94.3993 48.3069 95.0541 45.8122C96.0074 42.1905 95.6511 39.3009 93.7445 35.8622C92.1171 32.9341 90.1527 29.8807 87.4757 27.0007C85.0394 24.3808 83.1906 20.9614 80.6291 18.3126C78.0003 15.5867 75.8337 12.7356 73.8115 9.90377C70.9612 5.91609 68.5153 3.14205 66.3486 1.56239C63.5657 -0.469978 60.1858 1.86099 55.4577 2.35222C52.6459 2.64118 48.9963 1.39865 44.5283 2.11142C40.4454 2.7664 36.6417 3.38285 33.5314 4.89509C29.9878 6.6096 26.1167 8.06404 23.3531 10.4239C20.4546 12.8993 18.808 16.7618 16.208 19.3817C13.531 22.0787 11.4414 25.4403 8.46594 27.675C5.83709 29.6495 3.45861 31.7397 2.75566 34.8605C2.09123 37.7886 2.65937 41.1213 3.09269 44.3288C3.51639 47.5267 4.36378 50.6764 5.30747 53.4504C6.67486 57.4574 9.27481 59.8654 10.2474 61.185C11.7688 63.2366 14.2051 64.5562 17.6621 65.3749Z" fill="#FFC305" fill-opacity="0.5"/>
<path d="M98.848 55.3285C97.028 57.6787 99.6665 61.0115 103.056 63.9107C105.762 66.2224 108.718 68.7364 110.606 70.5665C112.069 71.9728 114.207 75.2284 116.576 78.9175C118.492 81.8842 121.102 84.639 123.297 86.9025C126.292 90.0041 128.998 91.314 131.896 88.7712C135.767 85.3807 136.798 81.2774 135.324 77.2223C133.89 73.2635 130.384 69.6033 127.322 67.1086C125.339 65.5 122.498 62.6104 118.935 60.4143C115.883 58.536 112.088 57.5343 109.036 56.2532C104.51 54.3364 100.418 53.3058 98.848 55.3285Z" fill="#FFC305" fill-opacity="0.5"/>
<path d="M110.673 99.684C106.397 95.0703 102.218 91.7761 101.814 91.0633C98.5975 85.3708 94.2161 90.1868 92.271 94.8873C91.4428 96.8811 92.6754 100.628 95.805 105.126C97.8464 108.054 99.8397 111.647 102.266 114.758C104.847 118.091 107.832 120.923 109.623 123.629C112.397 127.81 116.008 129.129 118.771 128.455C122.007 127.675 124.655 124.053 124.51 119.979C124.424 117.426 122.199 113.082 118.925 108.902C116.46 105.762 113.369 102.583 110.673 99.684Z" fill="#FFC305" fill-opacity="0.5"/>
<path d="M95.5934 80.574C96.3542 77.9733 96.229 75.1126 95.3912 72.5794C94.226 69.0349 92.0594 66.0393 90.1913 66.6943C86.9847 67.8309 80.841 71.1635 82.9884 77.2221C84.038 80.2176 86.1565 83.9741 88.7469 85.4863C91.4046 87.0467 93.9372 86.2376 95.5934 80.574Z" fill="#FFC305" fill-opacity="0.5"/>
<path d="M97.9718 122.637C96.6525 119.709 96.017 116.232 94.5148 113.188C93.0126 110.154 90.663 107.525 89.1223 104.702C87.3794 101.524 85.6557 98.5476 84.0476 96.0722C81.3898 91.9689 78.9439 88.6459 77.4032 88.1739C73.1759 86.9025 69.7382 89.1949 69.4589 93.2885C69.2952 95.7062 69.4397 99.4916 71.0285 103.556C72.0974 106.311 75.8336 109.201 77.8751 113.352C79.5217 116.694 79.7432 121.115 81.6498 124.593C83.6239 128.205 87.4371 130.651 89.3341 133.656C92.3482 138.415 94.2548 142.055 95.8725 142.826C100.697 145.128 103.095 148.47 105.29 141.882C105.618 140.871 102.546 137.239 100.629 132.327C99.5606 129.592 99.4643 125.951 97.9718 122.637Z" fill="#FFC305" fill-opacity="0.5"/>
<path d="M61.9384 106.263C60.9658 102.554 60.4747 99.0387 59.2325 96.5247C56.9022 91.8242 53.9845 92.4022 52.1164 96.0431C50.8838 98.4415 51.8371 102.516 51.2882 105.858C50.6719 109.615 49.7283 113.101 50.4601 115.192C51.3556 117.706 52.6267 121.25 54.1963 125.103C55.477 128.243 57.4607 131.393 58.7896 134.687C60.2051 138.232 59.9355 142.267 60.9658 145.167C62.1214 148.442 64.105 150.686 65.4146 152.169C67.6679 154.712 70.8938 155.049 73.2819 153.19C74.7456 152.044 74.6204 147.758 73.6286 143.548C72.9641 140.697 72.5019 137.307 71.539 134.417C70.2679 130.632 66.9746 127.925 66.5317 126.278C66.0309 124.41 67.0902 120.2 66.185 115.808C65.5302 112.62 62.8051 109.576 61.9384 106.263Z" fill="#FFC305" fill-opacity="0.5"/>
<path d="M6.97335 118.399C10.0163 119.439 13.5695 118.698 16.3332 115.49C18.3072 113.207 19.0872 108.921 18.8946 104.047C18.7309 100.137 18.0857 95.8794 17.1805 92.1421C15.8035 86.4303 13.7717 81.9225 12.3369 81.3735C9.74663 80.3717 7.35853 83.8971 5.43265 88.9154C4.18082 92.1807 3.47787 96.1298 2.67863 99.7515C1.62902 104.529 0.0401674 108.796 0.0305379 110.722C0.0209085 113.747 3.42973 117.185 6.97335 118.399Z" fill="#FFC305" fill-opacity="0.5"/>
</svg>
