<svg width="514" height="675" viewBox="0 0 514 675" fill="none" xmlns="http://www.w3.org/2000/svg">
<path d="M288.204 468.003C272.68 514.384 262.672 563.273 267.781 611.125C268.652 619.286 269.963 627.416 271.764 635.497C271.95 636.343 272.788 636.871 273.63 636.685C274.474 636.493 275.003 635.659 274.816 634.813C273.042 626.85 271.75 618.837 270.889 610.79C263.195 538.883 290.187 464.007 318.661 398.932C332.892 366.393 347.479 336.308 358.245 310.218C363.628 297.17 368.057 285.122 371.005 274.24C373.953 263.355 375.429 253.637 374.839 245.208C374.779 244.345 374.03 243.697 373.17 243.758C372.308 243.819 371.66 244.568 371.72 245.432C372.279 253.321 370.884 262.741 367.988 273.422C362.925 292.12 353.292 314.662 341.892 339.885C324.794 377.726 303.734 421.622 288.204 468.003Z" fill="#B2B3B3"/>
<path d="M336.494 476.031C337.065 475.38 337.001 474.389 336.352 473.82C335.704 473.249 334.715 473.313 334.146 473.963C322.86 486.83 306.451 503.498 293.682 528.048C280.906 552.599 271.801 585.048 274.962 629.384C275.022 630.247 275.769 630.897 276.631 630.837C277.493 630.772 278.14 630.025 278.08 629.163C274.973 585.35 283.933 553.585 296.455 529.491C308.988 505.399 325.111 488.999 336.494 476.031Z" fill="#B2B3B3"/>
<path fill-rule="evenodd" clip-rule="evenodd" d="M467.077 348.573C470.545 355.204 473.06 362.413 474.641 369.949C475.796 375.688 476.379 381.619 476.388 387.743C476.359 393.791 475.682 400.07 474.431 406.35C471.91 418.967 466.791 431.937 458.919 444.568C454.097 452.217 448.394 459.064 442.117 464.953C438.49 468.408 434.656 471.536 430.704 474.436C426.715 477.259 422.61 479.853 418.41 482.161C414.172 484.392 409.876 486.412 405.541 488.164C401.207 489.916 396.832 491.401 392.438 492.561C388.313 493.681 384.264 494.572 380.232 495.213C376.201 495.855 372.246 496.266 368.387 496.392C364.509 496.573 360.724 496.468 357.131 496.17C353.539 495.873 350.04 495.289 346.791 494.531C344.371 493.953 342.065 493.253 339.883 492.433C340.158 501.782 337.782 511.192 335.123 506.117C332.26 500.643 327.082 507.147 323.753 503.458C320.423 499.77 325.367 498.244 322.212 494.78C319.059 491.315 314.502 495.261 312.254 491.83C310.39 488.984 317.888 485.428 324.002 482.302C319.748 478.214 315.932 473.246 312.618 467.596C309.973 463.086 307.711 458.193 305.753 452.953C303.872 447.676 302.354 442.072 301.275 436.296C299.636 427.4 298.932 417.987 299.491 408.417C299.75 403.593 300.316 398.808 301.225 393.944C302.115 389.138 303.274 384.293 304.852 379.525C307.533 371.231 311.208 363.011 316.086 355.192C331.907 329.891 353.59 314.181 376.263 308.364C397.484 302.894 419.618 306.015 438.63 317.986C444.388 321.55 449.497 325.728 454.015 330.349C456.617 333.06 459.029 335.962 461.195 339.038C463.377 342.056 465.37 345.266 467.077 348.573Z" fill="#63DE25" fill-opacity="0.6"/>
<path fill-rule="evenodd" clip-rule="evenodd" d="M410.369 77.5651C415.504 80.7878 420.202 84.7808 424.372 89.4498C437.136 103.604 444.726 124.024 444.054 148.285C443.809 155.635 442.598 162.786 440.673 169.518C439.494 173.451 438.13 177.203 436.493 180.864C434.875 184.469 433.037 188.002 431.016 191.352C426.975 198.053 422.238 204.098 417.099 209.34C412.234 214.307 407.056 218.561 401.732 221.976C399.105 223.663 396.424 225.15 393.744 226.455C391.079 227.705 388.416 228.772 385.844 229.565C383.892 230.147 381.97 230.608 380.086 230.934C384.12 237.381 386.319 244.96 382.365 242.496C378.106 239.838 377.141 246.533 373.288 245.318C369.434 244.101 372.279 240.993 368.64 239.863C365 238.731 363.422 243.377 360.433 241.897C357.95 240.667 361.771 235.068 364.783 230.348C360.119 229.235 355.405 227.337 350.77 224.772C347.078 222.697 343.424 220.147 339.932 217.286C336.406 214.351 333.059 211.05 329.931 207.457C325.086 201.893 320.804 195.543 317.197 188.623C315.421 185.171 313.826 181.537 312.451 177.794C311.094 173.994 309.992 170.158 309.074 166.138C307.547 159.176 306.787 151.92 307.013 144.443C307.741 120.2 316.47 100.251 330.047 86.7804C342.659 74.2079 359.478 67.2912 377.789 67.8117C383.264 67.9807 388.596 68.772 393.655 70.2038C399.554 71.8527 405.181 74.3248 410.369 77.5651Z" fill="#FFC305"/>
<path d="M299.355 601.034C283.582 579.407 260.216 540.773 254.526 487.475C252.448 468.016 252.725 446.596 256.591 423.318C256.734 422.466 256.159 421.659 255.307 421.516C254.455 421.377 253.649 421.954 253.508 422.807C249.593 446.37 249.309 468.08 251.416 487.811C255.264 523.842 267.078 553.256 279.25 575.337C285.337 586.38 291.513 595.591 296.831 602.881C302.145 610.169 306.609 615.55 309.227 618.875C309.764 619.551 310.747 619.666 311.424 619.131C312.103 618.597 312.219 617.611 311.683 616.931C309.023 613.55 304.616 608.243 299.355 601.034Z" fill="#B2B3B3"/>
<path fill-rule="evenodd" clip-rule="evenodd" d="M321.381 192.618C331.826 206.73 339.886 223.202 344.614 241.451C347.483 252.586 348.967 263.664 349.165 274.584C349.237 280.838 348.925 287.032 348.252 293.109C347.559 299.243 346.464 305.179 344.988 311.056C343.471 316.852 341.632 322.608 339.412 328.105C337.192 333.6 334.63 338.917 331.727 344.052C328.342 350.035 324.456 355.716 320.208 361.076C315.918 366.356 311.207 371.296 306.094 375.832C300.98 380.371 295.484 384.447 289.625 388.001C284.975 390.908 280.052 393.467 274.932 395.67C289.055 406.574 300.019 422.405 288.817 419.705C277.28 416.925 278.867 431.448 269.118 431.4C259.369 431.352 264.263 423.07 255.064 423.062C245.866 423.052 244.832 433.713 236.962 432.562C230.187 431.569 236.601 416.497 240.997 404.538C214.575 407.285 188.473 400.785 166.062 387.085C161.057 384.02 156.233 380.613 151.648 376.886C147.003 373.136 142.658 369.084 138.555 364.711C134.392 360.315 130.528 355.619 126.965 350.621C123.403 345.622 120.181 340.401 117.2 334.857C112.105 325.197 108.07 314.75 105.181 303.675C95.7446 267.115 101.388 230.459 118.008 201.054C133.808 173.321 159.499 152.079 191.616 143.752C196.033 142.534 200.468 141.657 204.945 141.064C211.872 140.141 218.799 139.822 225.608 140.067C232.456 140.391 239.246 141.299 245.915 142.771C259.194 145.694 271.933 150.851 283.673 158.021C290.909 162.427 297.705 167.558 304.02 173.334C310.334 179.111 316.168 185.532 321.381 192.618Z" fill="#FB7DEB" fill-opacity="0.6"/>
<path d="M116.591 230.487C106.652 255.057 120.414 283.921 135.869 290.18C151.324 296.439 162.622 277.724 172.561 253.155C182.5 228.587 173.71 193.294 158.255 187.035C142.798 180.775 126.53 205.919 116.591 230.487Z" fill="#CBEAE6"/>
<path d="M329.134 99.3273C320.958 110.025 324.338 126.433 331.436 131.87C338.535 137.307 346.664 129.72 354.839 119.023C363.016 108.323 362.985 89.4768 355.889 84.0354C348.789 78.5998 337.31 88.628 329.134 99.3273Z" fill="#FFEEBA"/>
<path d="M373.344 317.08C354.669 327.055 349.152 341.879 355.698 354.187C360.609 363.418 398.961 390.325 417.635 380.349C436.308 370.376 447.891 356.918 429.639 332.12C417.091 315.072 392.019 307.107 373.344 317.08Z" fill="#C0FBA3"/>
<path d="M116.591 230.487C106.652 255.057 120.414 283.921 135.869 290.18C151.324 296.439 162.622 277.724 172.561 253.155C182.5 228.587 173.71 193.294 158.255 187.035C142.798 180.775 126.53 205.919 116.591 230.487Z" fill="#FFD1F9"/>
</svg>
