<svg width="137" height="150" viewBox="0 0 137 150" fill="none" xmlns="http://www.w3.org/2000/svg">
<path d="M117.26 79.7045C113.712 79.3812 109.938 79.0147 108.239 77.3657C104.852 74.0892 103.078 75.2425 98.7345 74.1539C96.369 73.5611 95.1111 67.8489 92.0898 64.3461C89.5739 61.4253 85.7462 59.4098 81.6068 59.8625C79.4779 60.0888 75.2632 61.2205 71.7043 64.5077C69.3819 66.6417 68.2315 70.6727 65.7048 73.5719C63.4684 76.1478 61.3718 79.0363 59.1892 81.9247C57.0388 84.7809 53.6843 86.8394 51.8027 89.7171C49.7168 92.8966 48.2331 96.3024 46.7493 99.1693C44.7172 103.092 44.986 106.94 44.6957 109.462C44.2657 113.127 45.0075 115.896 47.3407 118.979C49.319 121.609 51.6522 124.314 54.6627 126.75C57.3829 128.97 59.6515 132.042 62.5115 134.273C65.4468 136.568 67.9412 139.047 70.3066 141.526C73.6289 145.007 76.3921 147.379 78.7038 148.618C81.6928 150.224 84.6603 147.476 89.1976 146.344C91.8855 145.676 95.6057 146.376 99.8526 145.061C103.734 143.865 107.347 142.744 110.174 140.836C113.378 138.67 116.937 136.73 119.303 134.046C121.786 131.223 122.851 127.235 125.023 124.314C127.248 121.318 128.807 117.761 131.399 115.164C133.689 112.879 135.71 110.518 135.968 107.382C136.205 104.429 135.194 101.26 134.334 98.1993C133.484 95.1276 132.216 92.1852 130.915 89.6093C129.044 85.891 126.184 83.9079 125.044 82.7546C123.292 80.9655 120.733 80.017 117.26 79.7045Z" fill="#FFC305" fill-opacity="0.5"/>
<path d="M39.6854 100.71C41.1369 98.1776 38.1049 95.2784 34.417 92.9288C31.4603 91.0535 28.2455 89.0057 26.1489 87.486C24.5361 86.322 22.0094 83.4335 19.1924 80.1786C16.9238 77.5488 14.01 75.2208 11.5586 73.3131C8.2148 70.7156 5.40857 69.7995 2.93565 72.688C-0.354414 76.5249 -0.795239 80.6744 1.19385 84.4143C3.13993 88.0788 7.0536 91.1612 10.3759 93.1659C12.5155 94.4593 15.6873 96.8843 19.4505 98.5333C22.676 99.9452 26.5144 100.387 29.654 101.217C34.3203 102.456 38.4382 102.898 39.6854 100.71Z" fill="#FFC305" fill-opacity="0.5"/>
<path d="M22.074 59.1187C26.8693 63.0311 31.3851 65.6501 31.8796 66.2968C35.7826 71.3947 39.3844 66.1028 40.6316 61.2527C41.1585 59.1834 39.4382 55.7021 35.7826 51.7575C33.3849 49.1815 30.955 45.959 28.1703 43.2537C25.192 40.376 21.9019 38.0265 19.7838 35.6338C16.5153 31.937 12.8274 31.161 10.2362 32.1957C7.19342 33.4028 5.11831 37.3044 5.81718 41.249C6.24725 43.728 9.01048 47.6511 12.7736 51.2724C15.6014 53.9992 19.0527 56.6614 22.074 59.1187Z" fill="#FFC305" fill-opacity="0.5"/>
<path d="M39.3736 75.6628C38.9973 78.2925 39.5026 81.0624 40.6746 83.4228C42.2981 86.71 44.814 89.3398 46.5451 88.4345C49.5019 86.8825 55.0175 82.7869 52.093 77.1824C50.6523 74.4125 48.0826 71.0391 45.3516 69.9182C42.5562 68.7757 40.2015 69.9074 39.3736 75.6628Z" fill="#FFC305" fill-opacity="0.5"/>
<path d="M31.256 34.9872C32.944 37.6709 34.0407 40.9689 35.9223 43.7172C37.8038 46.4656 40.4488 48.7074 42.3411 51.2401C44.47 54.107 46.5558 56.7692 48.4589 58.9571C51.6092 62.5892 54.4477 65.4884 56.0175 65.7363C60.3074 66.3938 63.3287 63.6777 63.0384 59.6576C62.8556 57.2757 62.1998 53.6113 60.1031 49.8606C58.6732 47.3278 54.652 45.0213 52.093 41.2599C50.0287 38.2313 49.2008 33.9525 46.8676 30.8269C44.4485 27.5828 40.4058 25.729 38.1371 23.0561C34.5568 18.8312 32.1914 15.5548 30.5248 15.0267C25.5145 13.4423 22.719 10.5215 21.4933 17.2469C21.2998 18.2816 24.7941 21.3856 27.3315 25.9123C28.7508 28.4343 29.3529 31.9694 31.256 34.9872Z" fill="#FFC305" fill-opacity="0.5"/>
<path d="M68.5649 45.9698C70.0164 49.4511 70.9841 52.803 72.5431 55.0879C75.4568 59.3452 78.2093 58.3859 79.521 54.5706C80.3919 52.0593 78.8974 48.2224 78.9727 44.8813C79.0587 41.1413 79.4995 37.617 78.4888 35.677C77.2846 33.3489 75.5536 30.0725 73.4892 26.5373C71.8119 23.6489 69.4465 20.8574 67.7155 17.8288C65.8339 14.5739 65.5436 10.6077 64.1459 7.91319C62.5654 4.88461 60.329 2.97693 58.856 1.70514C56.3078 -0.471992 53.1253 -0.342657 51.0609 1.80214C49.7922 3.11704 50.5126 7.27729 52.0501 11.2435C53.093 13.9272 54.0069 17.1714 55.3401 19.8551C57.1034 23.3686 60.673 25.5458 61.3289 27.0978C62.0815 28.8546 61.6407 33.1011 63.1137 37.2505C64.1889 40.2683 67.2639 42.855 68.5649 45.9698Z" fill="#FFC305" fill-opacity="0.5"/>
<path d="M120.346 26.5373C117.238 25.9445 113.884 27.1624 111.647 30.6652C110.035 33.1656 109.863 37.4444 110.734 42.1759C111.422 45.9589 112.637 50.0222 114.034 53.5465C116.163 58.9139 118.765 63.031 120.227 63.3652C122.894 63.9903 124.732 60.218 125.915 55.0554C126.679 51.7035 126.818 47.7588 127.087 44.1267C127.463 39.3198 128.42 34.9332 128.152 33.0579C127.743 30.1155 123.969 27.2378 120.346 26.5373Z" fill="#FFC305" fill-opacity="0.5"/>
</svg>
