<svg width="16" height="20" viewBox="0 0 16 20" fill="none" xmlns="http://www.w3.org/2000/svg">
<path fill-rule="evenodd" clip-rule="evenodd" d="M8.39804 15.803C9.88097 15.0338 15 12.0154 15 6.99902C15 3.13303 11.866 -0.000976562 8 -0.000976562C4.13401 -0.000976562 1 3.13303 1 6.99902C1 12.0154 6.11903 15.0338 7.60196 15.803C7.85483 15.9341 8.14517 15.9341 8.39804 15.803ZM8 9.99902C9.65685 9.99902 11 8.65588 11 6.99902C11 5.34217 9.65685 3.99902 8 3.99902C6.34315 3.99902 5 5.34217 5 6.99902C5 8.65588 6.34315 9.99902 8 9.99902Z" fill="white"/>
<path d="M14.0622 14.499C14.6766 14.9551 15 15.4724 15 15.999C15 16.5256 14.6766 17.043 14.0622 17.499C13.4478 17.9551 12.5641 18.3338 11.5 18.5971C10.4359 18.8604 9.22876 18.999 8 18.999C6.77124 18.999 5.56414 18.8604 4.5 18.5971C3.43587 18.3338 2.5522 17.9551 1.93782 17.499C1.32344 17.043 1 16.5256 1 15.999C1 15.4724 1.32344 14.9551 1.93782 14.499" stroke="white" stroke-width="2" stroke-linecap="round"/>
</svg>
