<svg width="24" height="24" viewBox="0 0 24 24" fill="none" xmlns="http://www.w3.org/2000/svg">
<path fill-rule="evenodd" clip-rule="evenodd" d="M3.0132 9.15032C3 9.68924 3 10.3011 3 10.999V12.999C3 15.8275 3 17.2417 3.87868 18.1203C4.75736 18.999 6.17157 18.999 9 18.999H15C17.8284 18.999 19.2426 18.999 20.1213 18.1203C21 17.2417 21 15.8275 21 12.999V10.999C21 10.3011 21 9.68924 20.9868 9.15032L12.9713 13.6034C12.3672 13.939 11.6328 13.939 11.0287 13.6034L3.0132 9.15032ZM3.24297 7.02873C3.32584 7.04954 3.4074 7.0814 3.48564 7.12487L12 11.8551L20.5144 7.12487C20.5926 7.0814 20.6742 7.04955 20.757 7.02874C20.6271 6.55522 20.4276 6.18394 20.1213 5.8777C19.2426 4.99902 17.8284 4.99902 15 4.99902H9C6.17157 4.99902 4.75736 4.99902 3.87868 5.8777C3.57245 6.18393 3.37294 6.55521 3.24297 7.02873Z" fill="white"/>
</svg>
