<svg width="32" height="31" viewBox="0 0 32 31" fill="none" xmlns="http://www.w3.org/2000/svg">
<path d="M15.9772 10.1979C12.884 10.1979 10.3765 12.5545 10.3765 15.4614C10.3765 18.3684 12.884 20.725 15.9772 20.725C19.0705 20.725 21.578 18.3684 21.578 15.4614C21.578 12.5545 19.0705 10.1979 15.9772 10.1979Z" fill="white"/>
<path fill-rule="evenodd" clip-rule="evenodd" d="M6.96348 1.01742C12.9057 0.393282 19.0488 0.393282 24.991 1.01742C28.2626 1.36105 30.9013 3.78353 31.2853 6.86886C31.9958 12.5778 31.9958 18.3451 31.2853 24.054C30.9013 27.1393 28.2626 29.5618 24.991 29.9054C19.0488 30.5296 12.9057 30.5296 6.96348 29.9054C3.69194 29.5618 1.0532 27.1393 0.669222 24.054C-0.0412706 18.3451 -0.0412706 12.5778 0.669222 6.86886C1.0532 3.78353 3.69194 1.36105 6.96348 1.01742ZM24.5938 5.74413C23.6421 5.74413 22.8705 6.46923 22.8705 7.36368C22.8705 8.25813 23.6421 8.98323 24.5938 8.98323C25.5456 8.98323 26.3172 8.25813 26.3172 7.36368C26.3172 6.46923 25.5456 5.74413 24.5938 5.74413ZM7.79147 15.4614C7.79147 11.2128 11.4564 7.76857 15.9772 7.76857C20.4981 7.76857 24.163 11.2128 24.163 15.4614C24.163 19.7101 20.4981 23.1543 15.9772 23.1543C11.4564 23.1543 7.79147 19.7101 7.79147 15.4614Z" fill="white"/>
</svg>
