<svg width="80" height="67" viewBox="0 0 80 67" fill="none" xmlns="http://www.w3.org/2000/svg">
<path fill-rule="evenodd" clip-rule="evenodd" d="M47.1082 24.6855C47.3692 25.1135 47.5108 25.6036 47.5183 26.1048C47.5183 28.7807 43.3784 30.9553 38.2685 30.9553C33.1587 30.9553 29.0252 28.7807 29.0252 26.1048C29.0324 25.5915 29.1786 25.0897 29.4483 24.6529C30.6265 26.6062 34.1286 28.0515 38.2685 28.0515C42.4085 28.0515 45.878 26.6387 47.0757 24.692C47.0757 24.6464 47.0757 24.6399 47.1147 24.692L47.1082 24.6855ZM16.345 58.0463V32.7913H27.7103C32.5468 33.6442 37.3377 36.2485 42.1546 39.2955H50.9748C54.9715 39.5364 57.061 43.586 53.1815 46.2424C50.0895 48.5146 46.0212 48.3844 41.8161 48.0133C38.9325 47.8701 38.8088 51.7439 41.8161 51.7569C42.8641 51.8416 44.0033 51.5942 44.9927 51.5942C50.2002 51.5942 54.5159 50.5915 57.1457 46.4638L58.4475 43.3777L71.603 36.8996C78.1709 34.738 82.8446 41.6068 78.0016 46.3856C68.8466 53.0726 59.0522 58.8367 48.7616 63.5934C41.5167 68.0011 34.2718 67.8514 27.0399 63.5934L16.345 58.0463ZM0 30.3889H12.9276V60.5854H0V30.3889ZM73.8812 26.541C74.0792 26.9745 74.1834 27.4448 74.1872 27.9213C74.1872 31.1767 69.1099 33.8656 62.8544 33.8656C56.5989 33.8656 51.5216 31.2027 51.5216 27.9213C51.5313 27.2926 51.7112 26.6784 52.0423 26.1439C53.4874 28.5594 57.7836 30.3107 62.8544 30.3107C67.6322 30.3107 71.6941 28.8198 73.3735 26.5931C73.738 26.1048 73.6013 25.9421 73.8812 26.541ZM73.7575 19.1124C74.0319 19.6092 74.1794 20.166 74.1872 20.7335C74.1872 23.9889 69.1099 26.6778 62.8544 26.6778C56.5989 26.6778 51.5216 24.0149 51.5216 20.7335C51.538 20.0931 51.7293 19.4694 52.0749 18.9301C53.5199 21.3455 57.8161 23.0969 62.8869 23.0969C67.8405 23.0969 72.0456 21.4367 73.5818 19.1189C73.7315 18.8975 73.6729 18.8584 73.7901 19.0863L73.7575 19.1124ZM66.9357 4.13777L66.8186 5.43991L61.2531 4.9516C61.7142 5.53996 62.0408 6.22222 62.2099 6.95039L60.869 6.82668C60.7436 6.36105 60.5388 5.92054 60.2636 5.52454C59.9913 5.07239 59.5901 4.71192 59.1115 4.48935L59.2352 3.29138L66.8706 3.94245C67.0204 3.94245 66.9748 3.94245 66.9553 4.11824L66.9357 4.13777ZM63.4662 1.66371C68.3222 1.7809 72.1693 3.37602 72.1693 5.30318C72.1693 7.328 67.9968 8.96219 62.8544 8.96219C57.712 8.96219 53.5395 7.32149 53.5395 5.30318C53.5395 3.38253 57.3279 1.80694 62.1253 1.66371C62.5745 1.66371 63.0236 1.66371 63.4662 1.66371ZM63.6225 0.439697C69.52 0.65455 74.2067 3.23929 74.2067 6.38396C74.2067 9.6393 69.1294 12.3282 62.8739 12.3282C56.6184 12.3282 51.5411 9.65883 51.5411 6.38396C51.5216 3.2458 56.1693 0.667571 62.0537 0.439697C62.5745 0.439697 63.1017 0.439697 63.6225 0.439697ZM74.2067 13.6629C74.2067 16.9182 69.1294 19.6072 62.8739 19.6072C56.6184 19.6072 51.5411 16.9443 51.5411 13.6629C51.5464 13.0615 51.7127 12.4724 52.0228 11.9571C53.3767 14.4051 57.725 16.1956 62.8544 16.1956C66.2132 16.1956 71.8698 15.1864 73.712 11.9571C74.0174 12.4741 74.1813 13.0624 74.1872 13.6629H74.2067ZM41.6599 12.4389L41.5492 13.6369L36.9927 13.2462C37.3626 13.7289 37.6225 14.2867 37.7543 14.8804L36.6412 14.7632C36.5406 14.38 36.3755 14.0167 36.153 13.6889C35.9245 13.3234 35.5973 13.03 35.2091 12.8426L35.2937 11.8725L41.6078 12.4194L41.6599 12.4389ZM39.5053 10.5899C43.1375 10.8112 45.917 12.0483 45.917 13.5327C45.917 15.1799 42.5126 16.5146 38.3141 16.5146C34.1156 16.5146 30.7177 15.1734 30.7177 13.5327C30.7177 12.0808 33.3605 10.8698 36.8625 10.6094C37.7422 10.5443 38.6256 10.5443 39.5053 10.6094V10.5899ZM39.6745 9.61326C44.0879 9.95832 47.5183 11.9766 47.5183 14.4116C47.5183 17.0875 43.3784 19.2621 38.2685 19.2621C33.1587 19.2621 29.0252 17.0875 29.0252 14.4116C29.0252 11.9701 32.4622 9.95181 36.9341 9.61326C37.831 9.54161 38.7321 9.54161 39.629 9.61326H39.6745ZM47.1668 19.0342C47.3853 19.434 47.5037 19.8808 47.5118 20.3364C47.5183 23.0318 43.3719 25.1803 38.262 25.1803C33.1522 25.1803 29.0187 23.0057 29.0187 20.3298C29.0188 19.8384 29.1539 19.3564 29.4093 18.9366C30.5484 20.9353 34.0765 22.3937 38.262 22.3937C42.4475 22.3937 45.8975 20.9679 47.0822 19.0082C47.1343 18.917 47.0822 18.9105 47.1668 19.0082V19.0342Z" fill="white"/>
</svg>
