<svg width="24" height="24" viewBox="0 0 24 24" fill="none" xmlns="http://www.w3.org/2000/svg">
<path d="M6.67962 3.3194L7.29289 2.70613C7.68342 2.31561 8.31658 2.31561 8.70711 2.70613L11.2929 5.29192C11.6834 5.68244 11.6834 6.31561 11.2929 6.70613L9.50048 8.49854C9.2016 8.79742 9.1275 9.25403 9.31653 9.63209C10.4093 11.8176 12.1814 13.5897 14.3669 14.6825C14.745 14.8715 15.2016 14.7974 15.5005 14.4985L17.2929 12.7061C17.6834 12.3156 18.3166 12.3156 18.7071 12.7061L21.2929 15.2919C21.6834 15.6824 21.6834 16.3156 21.2929 16.7061L20.6796 17.3194C18.5683 19.4308 15.2257 19.6683 12.837 17.8768L11.6286 16.9705C9.88504 15.6628 8.33622 14.114 7.02857 12.3705L6.12226 11.162C4.33072 8.77332 4.56827 5.43075 6.67962 3.3194Z" fill="white"/>
</svg>
