<svg width="80" height="66" viewBox="0 0 80 66" fill="none" xmlns="http://www.w3.org/2000/svg">
<path fill-rule="evenodd" clip-rule="evenodd" d="M19.4225 57.2688V33.8196H30.2374C34.8212 34.6199 39.405 37.0461 43.9888 39.8597H52.3881C56.1906 40.082 58.183 43.8421 54.4847 46.3127C51.5417 48.4214 47.6545 48.3007 43.6698 47.9514C40.9221 47.818 40.8049 51.4192 43.6698 51.4319C44.666 51.5081 45.7468 51.2795 46.6909 51.2795C51.6654 51.2731 55.7543 50.3458 58.2611 46.516L59.5177 43.6515L72.0125 37.6114C78.2631 35.6043 82.7037 41.9811 78.1003 46.4207C69.0499 52.8419 59.7717 58.1263 50.2785 62.3944C43.3833 66.4847 36.4881 66.3449 29.5993 62.3944L19.4225 57.2688ZM49.5363 5.34646C51.8998 2.93929 53.5536 0.862394 57.1998 0.455907C64.0364 -0.312608 70.3261 6.52146 66.8752 13.2475C65.8921 15.1657 63.8932 17.4394 61.6794 19.6751C59.2508 22.1267 56.5617 24.5339 54.6735 26.3568L49.5363 31.3299L45.291 27.3412C40.1863 22.5459 31.8587 16.5058 31.5852 9.02389C31.3899 3.78402 35.6351 0.42415 40.5054 0.487664C44.8678 0.538475 46.6974 2.65348 49.5363 5.34646ZM0 31.5649H16.167V59.6252H0V31.5649Z" fill="white"/>
</svg>
