<svg width="216" height="206" viewBox="0 0 216 206" fill="none" xmlns="http://www.w3.org/2000/svg">
<g filter="url(#filter0_d_1001_1257)">
<ellipse cx="107.681" cy="98.7624" rx="103.681" ry="98.7624" fill="white"/>
</g>
<path d="M135.841 73.9844C135.841 86.6789 125.55 96.969 112.857 96.969C100.164 96.969 89.8735 86.679 89.8735 73.9844C89.8735 61.2901 100.164 51 112.857 51C125.55 51 135.841 61.29 135.841 73.9844V73.9844Z" fill="#E31E24"/>
<path d="M122.453 64.3839C119.765 63.8085 117.269 64.3839 115.157 65.92L114.582 66.3036V62.2721C114.582 61.3188 113.81 60.5459 112.856 60.5439C111.904 60.5457 111.132 61.3186 111.132 62.2721V66.3036L110.556 65.92C108.444 64.3839 105.948 63.8085 103.261 64.3839C99.6123 64.9601 96.7327 68.2242 96.7327 72.2565C96.5409 77.0561 100.38 79.9366 103.644 79.9366C107.101 79.9366 109.404 78.016 109.404 74.9444C109.404 72.4485 107.675 70.5276 105.372 70.5276C103.261 70.5276 101.916 71.4886 101.916 73.4083C101.916 73.4083 101.952 73.8441 101.966 73.8451C102.091 74.6775 102.777 75.3262 103.643 75.3262C104.524 75.3262 105.223 74.6573 105.329 73.8047C105.341 73.8002 106.162 73.9093 106.162 74.7517C106.162 75.5576 105.332 76.4808 103.603 76.4808C102.062 76.4808 100.188 75.5365 100.188 72.4612C100.188 69.7925 102.493 67.4563 105.18 67.4563C108.252 67.4563 111.132 69.7596 111.132 73.4083V85.6968C111.132 86.4639 111.898 87.4213 112.856 87.4241C113.815 87.4211 114.581 86.4639 114.581 85.6968V73.4083C114.581 69.7594 117.462 67.4563 120.532 67.4563C123.221 67.4563 125.525 69.7925 125.525 72.4612C125.525 75.5365 123.651 76.4808 122.11 76.4808C120.382 76.4808 119.551 75.5576 119.551 74.7517C119.551 73.9093 120.373 73.8002 120.385 73.8047C120.49 74.6573 121.189 75.3262 122.07 75.3262C122.935 75.3262 123.623 74.6775 123.747 73.8451C123.761 73.8441 123.797 73.4083 123.797 73.4083C123.797 71.4886 122.453 70.5276 120.341 70.5276C118.037 70.5276 116.309 72.4484 116.309 74.9444C116.309 78.0161 118.612 79.9366 122.068 79.9366C125.333 79.9366 129.173 77.0561 128.981 72.2565C128.981 68.2242 126.101 64.9601 122.453 64.3839H122.453Z" fill="#FEFEFE"/>
<path d="M45.9365 113.668V124.033C47.8754 124.033 49.3913 123.554 50.4815 122.598C51.5717 121.641 52.1158 120.393 52.1158 118.851C52.1158 117.309 51.5717 116.06 50.4815 115.102C49.3913 114.146 47.8754 113.668 45.9365 113.668V113.668ZM39.5579 124.033V113.668C37.6179 113.668 36.103 114.146 35.014 115.102C33.9227 116.06 33.3778 117.309 33.3778 118.851C33.3778 120.392 33.9228 121.641 35.014 122.598C36.103 123.554 37.6179 124.033 39.5579 124.033V124.033ZM39.5579 134V129.615C35.6508 129.615 32.581 128.612 30.3495 126.605C28.116 124.599 27 122.014 27 118.851C27 115.688 28.116 113.104 30.3495 111.096C32.581 109.089 35.6508 108.086 39.5579 108.086V104.497H45.9365V108.086C49.8436 108.086 52.9131 109.089 55.1457 111.096C57.3785 113.104 58.4942 115.688 58.4942 118.851C58.4942 122.014 57.3785 124.599 55.1457 126.605C52.9131 128.612 49.8438 129.615 45.9365 129.615V134H39.5579Z" fill="#4E437D"/>
<path d="M69.0859 118.65H75.2653C76.1946 118.65 76.9603 118.326 77.5573 117.675C78.1556 117.023 78.4547 116.153 78.4547 115.062C78.4547 113.973 78.1556 113.103 77.5573 112.452C76.9601 111.802 76.1946 111.475 75.2653 111.475H69.0859V118.651V118.65ZM62.7073 133.203V105.295H75.6644C78.375 105.295 80.5802 106.187 82.2825 107.967C83.9818 109.748 84.8335 112.113 84.8335 115.062C84.8335 118.013 83.9818 120.379 82.2825 122.159C80.5802 123.941 78.375 124.831 75.6644 124.831H69.0861V133.203H62.7074H62.7073Z" fill="#4E437D"/>
<path d="M90.3026 133.203V127.421H94.0896C94.5678 127.421 94.9264 127.33 95.1661 127.143C95.4064 126.958 95.6442 126.652 95.8838 126.227L96.1627 125.629L85.9175 105.295H93.0933L99.0733 117.853H99.8708L105.452 105.295H112.428L101.665 128.617C100.92 130.24 100.016 131.408 98.9542 132.127C97.8906 132.844 96.2958 133.203 94.1697 133.203H90.3028H90.3026Z" fill="#4E437D"/>
<path d="M115.764 133.203V105.295H122.143V115.86H132.907V105.295H139.285V133.203H132.907V122.439H122.143V133.203H115.764Z" fill="#4E437D"/>
<path d="M143.739 124.233H150.116C150.116 125.189 150.535 125.994 151.373 126.645C152.209 127.295 153.386 127.621 154.901 127.621C156.415 127.621 157.558 127.337 158.328 126.765C159.099 126.193 159.484 125.482 159.484 124.631C159.484 123.781 159.127 123.07 158.408 122.499C157.691 121.926 156.655 121.642 155.3 121.642H152.309V116.657H155.1C156.322 116.657 157.293 116.379 158.011 115.821C158.727 115.262 159.087 114.611 159.087 113.866C159.087 113.016 158.714 112.306 157.97 111.734C157.226 111.162 156.137 110.877 154.701 110.877C153.345 110.877 152.309 111.175 151.593 111.774C150.874 112.372 150.516 113.137 150.516 114.067H144.137C144.137 111.382 145.1 109.182 147.027 107.467C148.954 105.754 151.578 104.897 154.901 104.897C158.169 104.897 160.747 105.693 162.635 107.289C164.521 108.883 165.466 110.877 165.466 113.269C165.466 115.102 164.827 116.578 163.551 117.694C162.966 118.201 162.342 118.585 161.678 118.851V119.05C162.475 119.395 163.166 119.834 163.751 120.366C165.16 121.615 165.863 123.236 165.863 125.229C165.863 127.648 164.9 129.649 162.974 131.231C161.046 132.811 158.356 133.602 154.901 133.602C151.393 133.602 148.654 132.739 146.688 131.011C144.721 129.284 143.739 127.024 143.739 124.234V124.233Z" fill="#4E437D"/>
<path d="M170.76 133.203V105.295H189.895V111.076H177.137V116.458H189.097V122.039H177.137V127.422H189.895V133.203H170.76Z" fill="#4E437D"/>
<defs>
<filter id="filter0_d_1001_1257" x="0" y="0" width="215.361" height="205.525" filterUnits="userSpaceOnUse" color-interpolation-filters="sRGB">
<feFlood flood-opacity="0" result="BackgroundImageFix"/>
<feColorMatrix in="SourceAlpha" type="matrix" values="0 0 0 0 0 0 0 0 0 0 0 0 0 0 0 0 0 0 127 0" result="hardAlpha"/>
<feOffset dy="4"/>
<feGaussianBlur stdDeviation="2"/>
<feComposite in2="hardAlpha" operator="out"/>
<feColorMatrix type="matrix" values="0 0 0 0 0 0 0 0 0 0 0 0 0 0 0 0 0 0 0.25 0"/>
<feBlend mode="normal" in2="BackgroundImageFix" result="effect1_dropShadow_1001_1257"/>
<feBlend mode="normal" in="SourceGraphic" in2="effect1_dropShadow_1001_1257" result="shape"/>
</filter>
</defs>
</svg>
