<svg width="80" height="67" viewBox="0 0 80 67" fill="none" xmlns="http://www.w3.org/2000/svg">
<path fill-rule="evenodd" clip-rule="evenodd" d="M16.345 58.0462V32.7911H27.7103C32.5468 33.644 37.3377 36.2483 42.1546 39.2953H50.9748C54.9715 39.5362 57.061 43.5859 53.1815 46.2423C50.0895 48.5145 46.0212 48.3843 41.8161 48.0132C38.9325 47.87 38.8088 51.7438 41.8161 51.7569C42.8641 51.8415 44.0033 51.5941 44.9927 51.5941C50.2002 51.5941 54.5159 50.5914 57.1457 46.4636L58.4475 43.3776L71.603 36.8994C78.1709 34.7378 82.8446 41.6066 78.0016 46.3855C68.8466 53.0726 59.0522 58.8366 48.7616 63.5934C41.5167 68.0011 34.2718 67.8514 27.0399 63.5934L16.345 58.0462ZM0 30.3887H12.9276V60.5854H0V30.3887Z" fill="white"/>
<path fill-rule="evenodd" clip-rule="evenodd" d="M73 23.5281H71.7384V25.9278C71.7384 26.762 71.0422 27.4456 70.1924 27.4456H68.6126C67.7629 27.4456 67.0666 26.762 67.0666 25.9278V23.5281H56.4238V25.9278C56.4238 26.762 55.7275 27.4456 54.8778 27.4456H53.298C52.4482 27.4456 51.752 26.762 51.752 25.9278V23.5281H50.5316V5.49543C50.5316 3.74251 51.5723 2.46732 53.6686 1.67722C57.9811 0.0271907 65.5542 0.0271907 69.863 1.67722C71.9593 2.47099 73 3.74251 73 5.4991V23.5281ZM46.9079 17.2992V24.23V25.8764V27.4456H44.4933V25.8764H30.2493V27.4456H27.8311V25.8764V24.23V17.2992H27V15.741H29.0327L30.167 12.2793C30.5002 11.2613 31.0579 10.3353 32.1473 10.3353H34.6405V8.96453C34.6405 8.35082 34.5094 8.40227 35.1009 8.40227H39.7129C40.207 8.40227 40.0985 8.3545 40.0985 8.87266V10.3353H43.0146C44.104 10.3353 44.7329 11.243 44.995 12.2793L45.8709 15.741H47.7389V17.2992H46.9079ZM33.7533 22.749H40.8883V24.4027H33.7533V22.749ZM28.6396 18.9014C30.459 18.9566 31.5708 19.7062 31.8553 21.2644H28.6396V18.9014ZM45.8709 18.9014C44.0516 18.9566 42.9398 19.7062 42.6553 21.2644H45.8709V18.9014ZM29.9012 15.741H44.8415L44.2013 12.8379C44.0254 12.0441 43.52 11.3532 42.689 11.3532H32.3569C31.5259 11.3532 31.1029 12.0588 30.8446 12.8379L29.9012 15.741ZM56.8543 19.0448H66.6772C66.7633 19.0448 66.8307 19.155 66.8307 19.2873V20.0149C66.8307 20.1509 66.7596 20.2575 66.6772 20.2575H56.8543C56.7682 20.2575 56.7008 20.1472 56.7008 20.0149V19.2873C56.6971 19.155 56.7682 19.0448 56.8543 19.0448ZM56.8543 20.8822H66.6772C66.7633 20.8822 66.8307 20.9924 66.8307 21.1247V21.8524C66.8307 21.9847 66.7596 22.0949 66.6772 22.0949H56.8543C56.7682 22.0949 56.7008 21.9847 56.7008 21.8524V21.1247C56.6971 20.9924 56.7682 20.8822 56.8543 20.8822ZM52.5568 5.59833H60.5679C60.8149 5.59833 61.0208 5.79677 61.0208 6.04299V12.5402C61.0208 12.7827 60.8187 12.9849 60.5679 12.9849H52.5568C52.3097 12.9849 52.1038 12.7864 52.1038 12.5402V6.03931C52.1038 5.79677 52.3097 5.59833 52.5568 5.59833ZM62.9263 5.59833H70.9373C71.1844 5.59833 71.3903 5.79677 71.3903 6.04299V12.5402C71.3903 12.7827 71.1882 12.9849 70.9373 12.9849H62.9263C62.6792 12.9849 62.4733 12.7864 62.4733 12.5402V6.03931C62.4771 5.79677 62.6792 5.59833 62.9263 5.59833ZM71.7235 20.772C71.7235 20.3199 71.5662 19.9414 71.248 19.6327C70.9299 19.3204 70.5405 19.166 70.0838 19.166C69.6383 19.166 69.2565 19.324 68.9308 19.6327C68.6051 19.9451 68.4479 20.3199 68.4479 20.772C68.4479 21.2093 68.6089 21.5804 68.9308 21.8891C69.2565 22.2015 69.6383 22.3558 70.0838 22.3558C70.5368 22.3558 70.9299 22.2015 71.248 21.8891C71.5662 21.5804 71.7235 21.2129 71.7235 20.772ZM55.0799 20.772C55.0799 20.3199 54.9189 19.9414 54.6045 19.6327C54.2863 19.3204 53.9007 19.166 53.4403 19.166C52.9873 19.166 52.5942 19.324 52.276 19.6327C51.9578 19.9451 51.8081 20.3199 51.8081 20.772C51.8081 21.2093 51.9578 21.5804 52.276 21.8891C52.5942 22.2015 52.9836 22.3558 53.4403 22.3558C53.9007 22.3558 54.2863 22.2015 54.6045 21.8891C54.9189 21.5804 55.0799 21.2129 55.0799 20.772Z" fill="white"/>
</svg>
