<svg width="75" height="88" viewBox="0 0 75 88" fill="none" xmlns="http://www.w3.org/2000/svg">
<path d="M19.9648 41.8576C19.9298 41.8499 19.8767 41.8164 19.8664 41.83C19.8389 41.8684 19.8233 41.9241 19.8051 41.9689C19.8397 41.9831 19.8897 42.0124 19.9031 42.0031C19.934 41.9623 19.9462 41.9089 19.9648 41.8576ZM56.4531 79.5297C56.4151 79.5178 56.3771 79.5058 56.3455 79.4959C56.3619 79.5549 56.3653 79.6166 56.3917 79.6686C56.4004 79.6882 56.4581 79.6929 56.4897 79.7029C56.4796 79.6458 56.4632 79.5868 56.4531 79.5297ZM57.7804 72.3059C57.7788 72.3391 57.7632 72.3948 57.7786 72.4097C57.8216 72.4502 57.875 72.4771 57.9247 72.5129C57.9296 72.4775 57.9418 72.4241 57.9265 72.4092C57.8868 72.3664 57.8334 72.3395 57.7804 72.3059ZM58.3282 64.1836C58.3296 64.2211 58.3111 64.2725 58.3264 64.2874C58.3695 64.3279 58.4258 64.3591 58.4725 64.3906C58.4775 64.3552 58.4927 64.3061 58.4773 64.2912C58.4346 64.244 58.3813 64.2171 58.3282 64.1836ZM57.8404 63.7035C57.8024 63.6915 57.7674 63.6839 57.7327 63.6696C57.7491 63.7286 57.7526 63.7903 57.782 63.8467C57.7907 63.8662 57.8453 63.8666 57.877 63.8766C57.8669 63.8195 57.8568 63.7625 57.8404 63.7035ZM58.8914 62.2468C58.8865 62.2823 58.8743 62.3357 58.8896 62.3506C58.9293 62.3934 58.9827 62.4203 59.0357 62.4539C59.0373 62.4207 59.0529 62.365 59.0375 62.3501C58.9945 62.3096 58.9381 62.2784 58.8914 62.2468ZM57.6205 59.6148C57.5705 59.5856 57.5175 59.552 57.4675 59.5228C57.4659 59.556 57.4503 59.6117 57.4657 59.6266C57.5087 59.6671 57.562 59.694 57.6117 59.7298C57.6167 59.6944 57.6153 59.6569 57.6205 59.6148ZM49.044 53.8982C49.0463 53.8518 49.0479 53.8186 49.0498 53.7788C48.9982 53.7828 48.9439 53.7758 48.8949 53.7906C48.8786 53.7956 48.8917 53.857 48.8868 53.8924C48.9414 53.8928 48.9927 53.8955 49.044 53.8982ZM31.0588 57.3854C31.1032 57.3993 31.1348 57.4093 31.1695 57.4236C31.1564 57.3622 31.1496 57.3029 31.1202 57.2465C31.1115 57.2269 31.0602 57.2242 31.0222 57.2123C31.0353 57.2736 31.0487 57.3284 31.0588 57.3854ZM29.2922 57.6876C29.2421 57.6584 29.1921 57.6292 29.1424 57.5933C29.1405 57.6331 29.1252 57.6822 29.1373 57.6994C29.1833 57.7442 29.2367 57.7711 29.2897 57.8046C29.2883 57.7672 29.2899 57.734 29.2922 57.6876ZM31.1331 54.9244C31.1383 54.8823 31.1369 54.8448 31.1419 54.8093C31.0902 54.8133 31.0359 54.8063 30.987 54.8211C30.9707 54.8261 30.9838 54.8875 30.9788 54.9229C31.0335 54.9233 31.0848 54.926 31.1331 54.9244ZM22.6086 42.6933C22.5934 42.7424 22.5751 42.7871 22.5565 42.8385C22.5915 42.8462 22.6446 42.8797 22.6549 42.8661C22.6888 42.8297 22.698 42.772 22.7196 42.7249C22.6846 42.7173 22.6499 42.703 22.6086 42.6933ZM41.786 24.2206C41.736 24.1914 41.6829 24.1579 41.6362 24.1263C41.6313 24.1618 41.6191 24.2152 41.6344 24.2301C41.6741 24.2729 41.7275 24.2998 41.7805 24.3334C41.7821 24.3002 41.7807 24.2627 41.786 24.2206ZM41.5485 21.823C41.5042 21.8091 41.4725 21.7991 41.4379 21.7848C41.451 21.8462 41.4577 21.9055 41.4838 21.9643C41.4958 21.9815 41.5471 21.9842 41.5851 21.9962C41.5687 21.9371 41.5586 21.8801 41.5485 21.823ZM40.0314 21.0222C39.9904 21.0059 39.9587 20.9959 39.9207 20.984C39.9371 21.043 39.9439 21.1024 39.97 21.1611C39.9787 21.1807 40.0333 21.181 40.068 21.1953C40.0549 21.134 40.0448 21.0769 40.0314 21.0222ZM19.076 34.5891C19.0744 34.6223 19.0558 34.6736 19.0712 34.6886C19.1172 34.7334 19.1706 34.7603 19.2203 34.7961C19.2222 34.7563 19.2375 34.7073 19.2221 34.6923C19.1824 34.6495 19.126 34.6183 19.076 34.5891ZM39.0655 19.4591C39.0633 19.5055 39.0617 19.5386 39.0567 19.5741C39.1114 19.5745 39.169 19.5792 39.2146 19.5666C39.2279 19.5573 39.2178 19.5003 39.2198 19.4605C39.1681 19.4644 39.1168 19.4618 39.0655 19.4591ZM38.9312 19.0465C38.8962 19.0388 38.8432 19.0053 38.8329 19.0189C38.8023 19.053 38.7897 19.113 38.7682 19.1601C38.8032 19.1677 38.8562 19.2013 38.8665 19.1877C38.8974 19.1469 38.9096 19.0935 38.9312 19.0465ZM16.2881 34.4048C16.2858 34.4512 16.2842 34.4844 16.2856 34.5218C16.3339 34.5202 16.3916 34.5249 16.4372 34.5123C16.4535 34.5074 16.4437 34.4437 16.4453 34.4105C16.3907 34.4102 16.3394 34.4075 16.2881 34.4048ZM38.6396 18.6281C38.6047 18.6205 38.5516 18.587 38.5413 18.6005C38.5137 18.639 38.4982 18.6947 38.4766 18.7418C38.5146 18.7537 38.5646 18.7829 38.5749 18.7693C38.6089 18.7329 38.6211 18.6795 38.6396 18.6281ZM13.8325 30.612C13.8826 30.6412 13.9323 30.6771 13.9823 30.7063C13.9839 30.6731 13.9994 30.6174 13.9841 30.6025C13.9444 30.5597 13.8877 30.5351 13.838 30.4993C13.8364 30.5324 13.8345 30.5722 13.8325 30.612ZM14.1352 28.4787C14.12 28.5278 14.1017 28.5726 14.0832 28.6239C14.1148 28.6339 14.1712 28.6651 14.1815 28.6515C14.2121 28.6174 14.2246 28.5574 14.2429 28.5126C14.2112 28.5027 14.1765 28.4884 14.1352 28.4787ZM13.9678 27.8201C13.9178 27.7909 13.8648 27.7573 13.8181 27.7258C13.8131 27.7613 13.8009 27.8147 13.8129 27.8319C13.856 27.8724 13.9123 27.9036 13.9623 27.9328C13.9639 27.8997 13.9656 27.8665 13.9678 27.8201ZM13.4277 26.0948C13.433 26.0527 13.4316 26.0152 13.4365 25.9797C13.3849 25.9837 13.3306 25.9767 13.2816 25.9915C13.2653 25.9965 13.2784 26.0579 13.2735 26.0933C13.3281 26.0937 13.3794 26.0964 13.4277 26.0948ZM13.1758 24.9247C13.1411 24.9105 13.0878 24.8836 13.0775 24.8971C13.0469 24.9313 13.0347 24.9847 13.0161 25.036C13.0478 25.046 13.1041 25.0772 13.1144 25.0636C13.142 25.0252 13.1576 24.9695 13.1758 24.9247ZM23.3014 44.3186C23.2365 44.1972 23.1904 44.0884 23.1206 44.0025C23.1026 43.9766 23.0213 43.9948 22.9667 43.9944C23.0132 44.0966 23.0497 44.2057 23.1092 44.3052C23.1242 44.3268 23.2084 44.3129 23.3014 44.3186ZM41.9022 23.281C41.8082 23.2312 41.7455 23.198 41.6828 23.1648C41.7163 23.2696 41.7302 23.3817 41.7867 23.4769C41.8164 23.5266 41.9087 23.5456 41.9714 23.5788C41.9442 23.476 41.9204 23.3708 41.9022 23.281ZM13.9621 30.9894C13.9793 31.0992 13.9652 31.1924 14.0015 31.2375C14.0746 31.3211 14.1717 31.3752 14.2584 31.4429C14.249 31.3726 14.2598 31.2818 14.2204 31.2323C14.1603 31.1461 14.0639 31.0787 13.9621 30.9894ZM14.7797 30.1057C14.7969 30.2154 14.7827 30.3086 14.8221 30.358C14.8889 30.4396 14.9923 30.4958 15.079 30.5635C15.0695 30.4932 15.0804 30.4023 15.041 30.3529C14.9779 30.2623 14.8845 30.1992 14.7797 30.1057ZM42.5583 24.8678C42.3972 24.743 42.3382 24.7008 42.2794 24.652C42.2849 24.7379 42.2741 24.8288 42.3059 24.9027C42.329 24.9571 42.414 24.994 42.4727 25.0428C42.5052 24.9689 42.544 24.8969 42.5583 24.8678ZM24.1389 49.5915C24.217 49.6396 24.3074 49.6984 24.3944 49.7595C24.385 49.6892 24.3991 49.596 24.3627 49.5509C24.2929 49.4649 24.1926 49.4131 24.1059 49.3454C24.1153 49.4157 24.1248 49.4861 24.1389 49.5915ZM10.6056 21.3079C10.5821 21.3948 10.5366 21.4714 10.558 21.4949C10.6274 21.5875 10.7142 21.6552 10.7973 21.7319C10.8125 21.6828 10.8607 21.6172 10.843 21.5847C10.7832 21.4918 10.7001 21.4151 10.6056 21.3079ZM14.2723 28.9663C14.2488 29.0531 14.2063 29.134 14.2214 29.1556C14.2941 29.2458 14.3809 29.3135 14.4636 29.3968C14.4792 29.3411 14.5274 29.2755 14.5097 29.243C14.4499 29.1501 14.3668 29.0734 14.2723 28.9663ZM62.2057 59.9946C62.1102 60.042 62.0189 60.0671 61.9521 60.1201C61.9351 60.1384 61.9723 60.2342 61.9823 60.2913C62.0702 60.2684 62.1642 60.2542 62.237 60.2099C62.26 60.2003 62.2232 60.0978 62.2057 59.9946ZM58.0099 60.138C57.908 60.1833 57.8201 60.2061 57.7533 60.2592C57.733 60.2797 57.7735 60.3732 57.7832 60.4369C57.8715 60.4075 57.962 60.3956 58.0382 60.3489C58.0579 60.3416 58.0244 60.2368 58.0099 60.138ZM30.426 54.0588C30.2679 53.9383 30.2058 53.8918 30.1501 53.8473C30.1556 53.9332 30.1417 54.0198 30.1765 54.098C30.1996 54.1524 30.2846 54.1893 30.3403 54.2338C30.3792 54.1618 30.4147 54.0922 30.426 54.0588ZM23.1142 47.1211C23.0735 47.0982 22.9801 47.0351 22.9765 47.0441C22.9233 47.1452 22.8606 47.2466 22.8581 47.3637C22.8592 47.4078 23.0156 47.4974 23.1023 47.5651C23.1094 47.4192 23.1101 47.2713 23.1142 47.1211ZM39.6615 20.0305C39.5642 19.983 39.4605 19.9335 39.3538 19.8797C39.4033 19.9862 39.4295 20.1089 39.4962 20.1905C39.5753 20.2828 39.695 20.3339 39.7944 20.4056C39.7609 20.3008 39.7211 20.194 39.6615 20.0305ZM15.6934 33.8069C15.7038 33.6586 15.7109 33.5127 15.7179 33.3668C15.6273 33.3787 15.4674 33.362 15.4588 33.4065C15.447 33.5172 15.5013 33.6588 15.5401 33.7855C15.5458 33.8008 15.6454 33.8018 15.6934 33.8069ZM24.301 46.7104C24.2583 46.6633 24.1205 46.5223 23.986 46.3789C23.8388 46.6289 24.1475 46.7597 24.2318 46.9445C24.2987 47.0901 24.4145 47.2208 24.5174 47.3542C24.5354 47.3801 24.6084 47.3997 24.6154 47.3884C24.6433 47.3433 24.6821 47.2714 24.6614 47.2346C24.5782 47.0939 24.4754 46.9606 24.301 46.7104ZM25.2097 48.3262C25.0728 48.1653 24.8869 47.9553 24.7043 47.7429C24.6206 48.0768 24.9394 48.2647 25.0884 48.5069C25.2311 48.747 25.4366 48.9498 25.6126 49.1668C25.6963 48.8329 25.3479 48.6592 25.2097 48.3262ZM23.6297 44.9741C23.4659 44.8383 23.3791 44.7706 23.2927 44.6963C23.3223 44.8167 23.3958 44.9577 23.372 45.0511C23.2973 45.3979 23.5592 45.6319 23.7363 45.893C23.7753 45.949 23.8477 45.9819 23.9097 46.0284C23.9009 45.9448 23.9084 45.8563 23.8836 45.7711C23.8008 45.4891 23.7021 45.2056 23.6297 44.9741ZM40.9667 20.2293C40.8569 20.1072 40.7841 20.017 40.698 19.936C40.689 19.9231 40.5922 19.997 40.5982 20.0056C40.8142 20.4574 41.0332 20.9135 41.2655 21.3603C41.292 21.4124 41.3906 21.4333 41.4533 21.4665C41.4438 21.3962 41.4477 21.3166 41.4186 21.2536C41.2687 20.8967 41.1089 20.5468 40.9667 20.2293ZM38.8294 20.6168C38.7062 20.44 38.6617 20.362 38.61 20.302C38.4881 20.1626 38.4177 19.8913 38.1958 20.0268C37.9771 20.16 38.1613 20.3391 38.2725 20.4987C39.0393 21.5918 39.5521 22.7531 39.7842 24.0011C39.8026 24.0843 39.9237 24.1729 39.9998 24.2608C40.026 24.1849 40.0908 24.1077 40.0787 24.0265C39.91 22.7985 39.4328 21.6316 38.8294 20.6168ZM10.9719 23.4364C10.8829 23.4151 10.7719 23.3835 10.7749 23.3878C10.759 23.6488 10.7045 23.911 10.7496 24.1743C11.0684 26.0218 11.472 27.9769 12.1435 29.8412C12.3645 30.4561 12.71 31.0227 12.888 31.6612C13.0607 32.2777 13.8213 32.7024 13.8915 33.4415C13.8909 33.4548 14.0932 33.5252 14.1992 33.5283C14.2345 33.5293 14.2929 33.3861 14.2715 33.3625C13.388 32.2226 13.0545 30.8787 12.5169 29.6322C11.6874 27.7114 11.2115 25.7235 11.0564 23.7491C11.0485 23.6456 10.996 23.5349 10.9719 23.4364ZM28.926 19.5287C28.3741 20.1696 27.7729 20.768 27.2855 21.473C27.0854 21.7534 26.824 21.974 26.6643 22.284C26.5076 22.5982 26.313 22.9005 26.1856 23.2071C25.9299 23.8403 25.3022 24.188 25.286 24.9875C24.6175 26.1774 24.2669 27.5752 23.7542 28.868C23.4684 29.5927 23.3159 30.4166 23.1234 31.2043C22.8424 32.3614 22.946 33.6733 22.6489 34.8286C22.5738 35.1181 22.6807 35.4985 22.684 35.8294C22.6922 36.3235 22.6877 36.8136 22.6643 37.2977C22.6575 37.437 22.2145 37.0921 22.394 37.4348C22.6975 38.005 23.0909 38.5766 23.6943 38.7969C24.6387 39.1447 25.5512 39.7518 26.5291 39.8712C27.1139 39.9442 27.7155 40.1336 28.3107 40.2571C29.571 40.5192 30.7236 40.2863 31.8903 40.1587C32.1747 40.1271 32.5136 40.0318 32.7812 39.8838C33.0654 39.7242 33.3139 39.5062 33.5891 39.3336C33.8845 39.1405 34.1592 38.8465 34.5043 38.8239C34.8297 38.8085 34.7296 38.1542 35.1929 38.4785C35.41 37.712 36.1127 37.4081 36.4503 36.7435C36.7697 36.1236 37.046 35.4633 37.4018 34.8886C38.5757 33.0195 39.0264 30.7511 39.3993 28.4279C39.5878 27.2585 39.4636 25.9738 39.2441 24.7298C38.9813 23.2534 38.4977 21.7579 37.5039 20.4385C37.2652 20.1243 36.9257 19.8996 36.6869 19.5854C35.956 18.6147 34.9981 18.1481 34.0565 17.8752C33.3812 17.6795 32.6695 17.7718 32.0188 17.8665C31.5492 17.9375 31.1496 18.2224 30.7252 18.4221C30.4193 18.5648 30.2308 18.9397 29.7782 18.7938C29.7922 19.3671 29.2327 19.3021 28.926 19.5287ZM23.7738 51.8196C24.7057 53.0219 25.5469 54.1721 26.4589 55.2537C26.7904 55.6442 27.2124 55.9589 27.4957 56.415C27.5167 56.4452 27.7069 56.4344 27.7548 56.3754C27.7957 56.3277 27.7486 56.1042 27.7266 56.0939C27.0156 55.8397 26.8578 54.9821 26.2627 54.5254C25.717 54.1112 25.3555 53.3443 24.916 52.7279C24.6208 52.3185 24.3126 51.9118 24.0507 51.4792C23.7797 51.0337 23.5847 50.5481 23.3137 50.1026C22.8202 49.2739 22.3953 48.4231 22.0196 47.5508C21.5459 46.4456 20.9974 45.3605 20.6509 44.218C20.5065 43.7483 20.3234 43.28 20.15 42.8113C20.1212 42.7417 20.0538 42.6733 20.0057 42.6043C19.9772 42.6627 19.91 42.7223 19.9267 42.7747C20.2414 43.6447 20.1331 44.5532 20.5843 45.3921C21.08 46.309 21.3815 47.2522 21.7476 48.1889C21.8192 48.3696 21.8059 48.5775 21.9011 48.7355C22.5313 49.7957 23.1811 50.8486 19.9666 42.3496C19.9577 42.4007 19.9518 42.4561 19.9426 42.5138C19.9869 42.5277 20.0346 42.5394 20.0789 42.5533C20.0752 42.4983 20.0747 42.4409 20.0616 42.3795C20.0589 42.3686 20.0016 42.3573 23.7738 51.8196ZM12.6178 27.3513C12.6089 27.4023 12.603 27.4577 12.5938 27.5154C12.6381 27.5294 12.6858 27.541 12.7301 27.555C12.7263 27.4999 12.7292 27.4402 12.7128 27.3812C12.7101 27.3702 12.6528 27.3589 12.723 27.7008C12.702 27.6707 12.6779 27.6362 12.6569 27.606C12.632 27.6554 12.5914 27.6964 12.5822 27.7541C12.5783 27.7697 12.656 27.8245 12.696 27.8607C12.7049 27.8096 12.7141 27.7519 12.6178 27.3513ZM15.4792 35.1095C15.4258 35.0826 15.3722 35.0624 15.3155 35.0378C15.3163 35.0885 15.314 35.135 15.3118 35.1814C15.3627 35.1907 15.4197 35.2086 15.4714 35.2047C15.481 35.2044 15.4776 35.1427 15.2456 35.0865C15.1975 35.0175 15.1494 34.9485 14.877 34.4015C14.9105 34.5063 14.9183 34.6098 14.9694 34.6831C15.0145 34.7478 15.1549 34.8357 15.1685 34.8198C15.2334 34.7426 15.2738 34.6375 15.3233 34.5454C15.1873 34.4992 15.0543 34.4573 15.1014 34.8795C15.0698 34.9335 15.0446 34.9895 15.0164 35.0412C15.0927 35.0585 15.169 35.0758 15.4792 35.1095ZM59.8395 58.6706C59.7861 58.6437 59.7324 58.6235 59.6758 58.5989C59.6765 58.6496 59.6743 58.696 59.672 58.7425C59.723 58.7518 59.78 58.7697 59.8346 58.7701C59.8413 58.7654 59.8379 58.7038 59.5327 58.6986C59.556 58.6824 59.5826 58.6638 59.6059 58.6476C59.5532 58.6074 59.5045 58.5517 59.4478 58.5271C59.4321 58.5188 59.3996 58.5927 59.3753 58.6288C59.4257 58.6514 59.4824 58.676 59.8395 58.6706ZM23.955 44.4975C23.7117 44.808 24.1467 44.9854 24.2278 45.2364C24.254 45.3591 24.7757 46.668 24.8308 46.7897C25.6549 48.6246 26.9991 50.1419 28.1047 51.8063C28.3863 52.2316 28.7937 52.582 29.1382 52.9699C29.3 53.1454 29.4549 53.3322 29.6132 53.5167C29.7116 53.211 29.3782 53.0589 29.2738 52.8241C29.242 52.7501 29.168 52.6864 29.1362 52.6124C29.1041 52.5451 29.0983 52.4659 29.0825 52.3936C29.1425 52.4158 29.2321 52.4238 29.2622 52.467C29.7762 53.2045 30.4102 53.7878 31.0571 54.3686C31.2817 54.5773 31.5155 54.9269 31.5603 55.1969C31.6209 55.5391 31.6678 55.5 31.8555 55.4077C31.8818 55.3957 32.0329 55.5275 32.0293 55.5364C31.9948 55.6502 31.9417 55.7512 31.8946 55.861C32.0091 55.8196 32.1249 55.7517 32.2472 55.7498C32.3564 55.7505 32.5798 55.8512 32.5822 55.8687C32.5978 56.4089 33.168 56.5177 33.3726 56.939C33.4779 57.154 33.4837 56.836 33.5385 56.7657C33.5621 56.7428 33.7228 56.8103 33.7619 56.8663C34.3174 57.7414 34.7968 58.1314 35.6143 58.51C36.1111 58.7405 36.5434 59.2401 37.0941 59.2856C38.246 60.1936 39.524 60.6229 40.7493 61.2107C41.9372 61.7732 43.1906 62.0467 44.4157 62.3718C44.603 62.4207 44.7553 62.4619 44.941 62.5439C45.2307 62.6688 45.5723 62.9177 45.854 62.6765C45.9345 62.6076 46.1081 62.6084 46.2311 62.6572C47.2525 63.0731 48.1739 62.8347 49.1441 62.9146C49.7078 62.9574 50.2553 62.8706 50.8188 62.984C51.185 63.0556 51.4707 62.9974 51.7911 62.9535C52.7297 62.8249 53.6957 62.7924 54.6392 62.6922C55.3953 62.6138 56.1403 62.4983 56.891 62.398C57.2663 62.3479 57.6634 62.3786 58.0389 62.5911C58.2737 62.7223 58.2145 62.6161 58.2659 62.4842C58.3356 62.3075 58.4799 62.1812 58.5869 62.0298C58.393 61.8509 58.2147 61.6164 58.0047 61.5064C56.7946 60.8696 55.6707 59.9805 54.4467 59.3662C53.8002 59.0415 53.1289 58.6315 52.5853 58.1069C52.266 57.7976 51.9596 57.6843 51.6412 57.4898C50.7794 56.9626 49.9001 56.467 49.0808 55.8589C48.2619 55.2442 47.377 54.7973 46.5955 54.0732C46.2355 53.7411 45.7027 53.6575 45.4695 53.0959C45.4263 52.9914 45.3628 52.8435 45.3977 52.7871C45.4329 52.7242 45.5624 52.7044 45.6581 52.721C45.8333 52.7526 46.019 52.8347 46.197 52.8772C46.2827 52.9008 46.3669 52.887 46.4505 52.8864C46.401 52.7799 46.3515 52.6734 46.2924 52.5673C46.2509 52.4936 46.1929 52.4316 46.1481 52.3602C45.9379 51.9877 45.9485 51.9675 46.3889 51.9681C46.4532 51.9682 46.5118 51.953 46.6917 51.9557C46.7566 51.9425 46.7 51.9179 46.6496 51.8954C46.6441 51.9441 46.6418 51.9905 46.6396 52.0369C46.6969 52.0483 46.7509 52.0619 46.8022 52.0646C46.8118 52.0643 46.8084 52.0026 46.6917 51.9557C46.3784 51.6551 46.5961 51.6058 46.7213 51.5443C47.12 51.3433 47.5823 51.4888 48.0231 51.6814C48.3124 51.813 48.5977 52.0307 48.8499 52.265C49.0404 52.4461 49.4215 52.4112 49.4136 52.8397C49.4123 52.8662 49.5137 52.9621 49.5397 52.9568C49.9086 52.8407 50.2615 52.9215 50.6106 53.2805C51.3579 53.1185 51.9549 53.9327 52.6506 54.1719C53.0713 54.3145 53.5634 54.5738 53.8742 54.9275C54.3068 55.4205 54.7793 55.2899 55.1905 55.5607C55.8292 55.9806 56.4956 56.2915 57.1326 56.6805C57.957 57.1825 58.8361 57.5501 59.5905 58.2354C59.7046 58.3353 59.8729 58.3782 59.9607 58.49C60.1881 58.7736 60.3593 59.1541 60.7274 58.9232C60.9408 59.2294 61.1451 59.3241 61.5024 59.3827C61.8372 59.4376 62.4353 59.5014 62.6184 60.1683C63.1307 59.9459 63.2566 60.5309 63.5087 60.8358C63.5634 60.9002 63.5543 61.0218 63.5785 61.1203C63.4891 61.0417 63.3679 60.8891 63.3223 60.9017C63.0935 60.9778 62.8819 61.0996 62.6679 61.2039C62.7009 61.2514 62.7261 61.33 62.7671 61.3463C62.9338 61.4223 63.1044 61.4828 63.2718 61.5456C63.2147 61.6622 63.1579 61.7723 63.0978 61.8847C63.1775 61.8996 63.2571 61.9146 63.3334 61.9319C63.4094 61.9558 63.4854 61.9798 63.5584 61.9994C63.4925 62.5644 63.5633 63.2263 63.2952 63.6502C63.0338 64.0695 62.7309 64.4151 62.7913 65.0266C62.1974 65.0753 62.4623 65.6468 62.4137 66.0523C62.3616 66.5308 62.1454 66.9441 62.0647 67.4169C61.9885 67.8609 61.5756 68.155 61.8199 68.7537C61.8373 68.7929 61.6493 68.9559 61.564 68.9256C61.355 68.8598 61.3086 68.9563 61.3552 69.1225C61.5593 69.8196 61.0578 70.1499 60.9832 70.6953C60.9246 71.1077 60.448 71.3246 60.7478 71.9038C60.3878 72.3021 60.5042 72.9514 60.3605 73.4617C60.2075 73.9656 60.0108 74.4423 59.8265 74.9296C59.7678 75.0794 59.7285 75.2926 59.6103 75.3429C59.2988 75.4704 59.3548 75.7068 59.448 76.0392C59.5114 76.2577 59.527 76.5993 59.4162 76.6957C59.0034 77.0539 59.0383 77.728 58.7009 78.1234C58.0275 77.8878 58.7406 78.5634 58.566 78.5185C58.1947 78.4185 58.241 78.7899 58.093 78.9251C57.9247 79.0808 57.8626 79.3676 57.7364 79.5837C57.5787 79.8538 57.5703 80.2249 57.2785 80.409C56.9734 80.6025 56.9096 80.5252 56.9026 80.1392C56.8979 80.104 56.6818 79.9855 56.5702 79.9672C56.4072 79.9462 56.2484 79.9736 55.8798 79.8845C55.7841 79.8678 55.8989 79.9545 56.0106 80.0368C55.9922 79.9535 55.994 79.8498 55.9486 79.7917C55.8327 79.661 55.6963 79.5574 55.5702 79.4403C55.6003 79.5474 55.6308 79.6479 55.8798 79.8845C56.1574 80.1267 56.3093 80.3092 56.2854 80.4027C56.2381 80.5831 56.0937 80.6453 55.8997 80.4025C55.6843 80.136 55.2747 80.5625 55.1261 79.9805C55.0835 79.7987 54.9485 79.598 54.9592 79.4432C55.0109 78.9074 55.0259 78.333 55.1996 77.866C55.7433 76.3977 56.209 74.8813 56.681 73.3669C56.9744 72.4191 57.4306 71.5629 57.5553 70.5148C57.603 70.1292 58.0935 70.0245 57.9163 69.5008C58.3547 68.9453 58.3512 68.0891 58.6786 67.5021C58.9669 66.9936 59.045 66.3753 59.3323 65.8867C59.3781 65.8035 59.3743 65.6845 59.4138 65.5993C59.5107 65.3908 60.0934 65.4396 59.7049 65.0311C59.5 64.8151 58.9109 64.7643 58.6787 64.9134C57.9057 65.4072 57.0116 65.6139 56.087 65.72C55.4146 65.7978 54.8355 66.0733 54.172 66.164C53.5183 66.2544 52.8689 66.3866 52.2553 66.5772C51.5375 66.7955 50.7402 66.7297 50.0006 66.8671C49.2936 66.9946 48.5363 66.9649 47.8093 67.0423C47.4958 67.0749 47.1402 66.9832 46.8041 66.9547C46.1764 66.9052 45.581 67.0511 44.9562 66.9419C44.3377 66.8347 43.7178 66.8246 43.1205 66.677C41.6148 66.3039 40.1061 66.1251 38.5923 65.322C37.7994 64.9006 36.9534 64.6444 36.1488 64.1992C35.0124 63.5687 33.8419 63.0453 32.8451 62.0548C31.4515 61.4241 30.3278 60.2658 29.144 59.2198C28.3209 58.4927 27.4868 57.7924 26.8249 56.8569C26.5237 56.4389 26.1748 56.0092 25.7808 55.7135C25.0673 55.1791 24.6808 54.3977 24.1709 53.7086C23.667 53.0281 23.1897 52.3291 22.7191 51.6255C22.4222 51.1853 22.1652 50.7172 21.8882 50.2631C21.6323 49.8391 21.2411 49.4197 21.1554 48.9989C21.0482 48.4905 20.5429 48.1058 20.6189 47.5979C19.7337 46.0298 19.2863 44.3808 18.9066 42.7296C18.724 41.9214 18.5929 41.1092 18.5002 40.3024C18.4384 39.788 18.2392 39.4526 17.8165 39.0873C17.1716 38.5307 16.5901 37.8595 15.9837 37.2377C14.7805 35.9937 13.9031 34.5292 12.9586 33.1242C12.2809 32.1164 11.8098 30.9581 11.3983 29.8288C11.01 28.7538 10.6669 27.6729 10.4281 26.5642C10.2396 25.6768 10.1118 24.7983 9.98401 23.9198C9.87133 23.1269 9.90624 22.34 9.92784 21.5625C10.0121 18.5626 10.6365 15.8271 11.788 13.3585C12.3436 12.1768 12.9702 11.0544 13.7739 10.0585C14.1232 9.61643 14.6726 9.42581 14.9269 8.9538C15.237 8.39164 15.6998 8.06268 16.2061 7.83158C17.439 7.26707 18.6524 6.63921 20.0669 6.44156C20.5621 6.37193 21.0607 6.29999 21.573 6.27614C21.7179 6.27126 22.0072 6.40277 22.0501 6.51389C22.1214 6.70129 22.1349 7.01863 22.0338 7.11472C21.7578 7.37118 21.5221 7.65718 21.2708 7.93489C21.0158 8.22154 20.57 8.39764 20.1623 8.38708C19.7898 8.37753 19.5058 8.46654 19.2189 8.61522C18.9121 8.77782 18.6079 8.95137 18.3038 9.12491C18.0988 9.24216 17.9244 9.52389 17.6241 9.08598C17.5875 9.11149 17.5289 9.1267 17.514 9.16913C17.3237 9.71182 17.318 9.83119 16.9512 10.0355C16.7396 10.1574 16.7511 10.4505 16.4991 10.5429C16.3256 10.6061 16.2746 10.93 16.1747 11.1342C15.942 11.6232 15.599 12.0673 15.5207 12.6216C15.4681 12.9787 14.7669 12.2564 15.0923 12.9715C15.1706 13.1476 15.0348 13.4281 14.9452 13.6187C14.752 14.0224 14.7544 14.5719 14.3094 14.7987C14.2435 14.8318 13.9256 15.1559 14.2411 15.5447C14.3078 15.6263 14.2616 15.8508 14.2229 15.9867C14.0935 16.4678 13.6692 16.7314 13.8117 17.4395C13.9243 17.9698 13.7057 18.5002 13.613 19.0197C13.5418 19.4282 13.4198 19.0262 13.3104 18.9615C13.2791 18.9449 13.1556 19.0373 13.1667 19.0744C13.4964 20.1646 13.4972 20.2154 13.3695 21.0605C13.3365 21.2757 13.2763 21.5227 13.3563 21.7296C13.53 22.1917 13.4253 22.4953 13.3014 22.8636C13.2103 23.1514 13.0811 23.5618 13.4576 23.953C13.426 24.0071 13.4008 24.0631 13.3692 24.1171C13.4489 24.1321 13.5252 24.1494 13.6018 24.16C13.6864 24.3382 13.9579 24.5078 13.7304 24.692C13.6747 24.6475 13.6159 24.5988 13.5569 24.5566C13.5627 24.6359 13.5682 24.7217 13.5707 24.8033C13.5083 25.1607 13.5683 25.5162 13.8281 25.8606C13.6005 26.0448 13.872 26.2144 13.9599 26.3903C13.7324 26.5745 14.0039 26.7441 14.0888 26.9156C13.8485 27.2304 14.2835 27.4078 14.3616 27.6546C14.1864 28.2188 14.5956 28.6641 14.9139 29.1279C14.8873 29.1464 14.8343 29.1769 14.8374 29.1812C15.1085 29.7547 15.3667 30.3309 15.6709 30.8878C15.9363 31.3821 16.4123 31.7744 16.4637 32.3729C16.4752 32.4674 16.618 32.573 16.6705 32.6838C16.8316 33.0072 17.4435 32.9844 17.2883 33.5347C17.7341 33.6212 17.8326 34.1101 18.1083 34.3921C18.3168 34.5992 18.4279 34.4961 18.4672 34.2829C18.6794 33.1547 18.8886 32.0221 19.1007 30.8938C19.1235 30.7562 19.1399 30.6167 19.1846 30.4894C19.5171 29.5336 19.8465 28.5735 20.1916 27.6218C20.3553 27.1616 20.5347 26.7098 20.7231 26.2709C20.9119 25.8254 21.1037 25.3842 21.3295 24.9705C22.056 23.644 22.7481 22.2965 23.6758 21.1309C24.3638 20.267 25.0936 19.47 25.8334 18.666C26.7796 17.6477 27.9377 16.9687 29.0507 16.2251C29.7814 15.7415 30.6777 15.4884 31.564 15.2423C32.6948 14.9284 33.8542 14.8188 35.1191 15.0521C35.527 15.1267 35.9422 15.1833 36.3472 15.3176C36.7965 15.4658 37.3144 15.5918 37.6618 15.92C38.0155 16.2502 38.3648 16.5386 38.7572 16.7328C39.1183 16.9105 38.8181 17.4657 39.2749 17.5254C39.6265 17.5687 39.7789 17.8726 39.9686 18.1376C40.1914 18.4501 40.4274 18.7534 40.6142 19.0781C40.813 19.4201 40.9496 19.7863 41.1285 20.1422C41.3076 20.4915 41.7189 20.7624 41.636 21.211C41.6308 21.2531 41.7549 21.346 41.7707 21.4183C41.8572 21.7553 42.4255 21.5706 42.3568 22.0607C41.8837 21.8714 42.1228 22.1789 42.1722 22.42C42.2649 22.8296 42.3169 23.2163 42.5771 23.618C42.7354 23.8665 42.835 24.2008 42.8474 24.474C42.8854 25.4151 42.8824 26.3399 42.8761 27.267C42.8729 27.9292 42.7654 28.5552 42.6359 29.1709C42.4566 30.02 42.4726 30.9508 42.1958 31.7524C42.102 32.0292 42.036 32.3315 41.9142 32.5894C41.5687 33.3492 41.2797 34.1402 40.9469 34.9039C40.8417 35.1502 40.9489 35.6587 40.4326 35.4995C40.3913 35.4898 40.3259 35.6443 40.2988 35.7401C40.0641 36.6021 39.4624 37.4764 39.023 38.0518C38.4707 38.7699 37.7531 39.3149 37.2802 40.1187C37.1822 40.2831 36.9854 40.3625 36.8257 40.4738C36.0269 41.037 35.2217 41.5982 34.4169 42.1527C34.0842 42.3846 33.7785 42.6553 33.3005 42.636C32.8897 42.6212 32.5769 42.8391 32.2462 43.0312C31.962 43.1909 31.6023 43.2493 31.2593 43.2962C29.586 43.5268 27.8574 43.5077 26.0875 43.2803C25.4197 43.1946 24.7219 42.8672 24.038 42.6519C23.6197 42.5269 23.5333 42.6512 23.728 43.1434C23.8746 43.5026 24.0471 43.8566 24.1936 44.2158C24.2107 44.2615 24.1432 44.3278 24.1147 44.3862C23.9944 44.2136 23.8775 44.0388 23.7536 43.8753C23.7356 43.8494 23.6629 43.8231 23.6526 43.8367C23.6251 43.8752 23.5829 43.9494 23.6006 43.9819C23.7078 44.1571 23.8347 44.3249 23.955 44.4975Z" fill="#775CA6"/>
</svg>
