<svg width="50" height="55" viewBox="0 0 50 55" fill="none" xmlns="http://www.w3.org/2000/svg">
<path d="M5.93688 34.4506C5.8979 34.4043 5.85244 34.3196 5.82646 34.3273C5.74851 34.3504 5.67707 34.4043 5.60562 34.4506C5.64459 34.4891 5.68356 34.5815 5.71604 34.5738C5.78749 34.5507 5.85893 34.4968 5.93688 34.4506ZM46.7334 33.5339C46.688 33.5878 46.649 33.6263 46.6165 33.6725C46.688 33.7187 46.7594 33.7727 46.8374 33.7958C46.8633 33.8035 46.9088 33.7187 46.9413 33.6725C46.8698 33.6263 46.7984 33.5801 46.7334 33.5339ZM9.42482 33.0331C9.47028 32.9792 9.50276 32.9407 9.54173 32.8945C9.47028 32.8482 9.39883 32.7943 9.32089 32.7712C9.29491 32.7635 9.24944 32.8482 9.21047 32.8945C9.28841 32.9407 9.35337 32.9869 9.42482 33.0331ZM46.5646 32.1703C46.5321 32.0933 46.4866 32.0086 46.4476 31.9238C46.4152 31.9624 46.3437 32.0163 46.3502 32.0471C46.3632 32.1395 46.4152 32.2243 46.4476 32.309C46.4866 32.2705 46.5256 32.2243 46.5646 32.1703ZM46.662 31.2844C46.701 31.3615 46.7399 31.4462 46.7789 31.531C46.8179 31.4847 46.8893 31.4385 46.8828 31.4C46.8633 31.3153 46.8179 31.2305 46.7789 31.1458C46.7399 31.1843 46.7075 31.2305 46.662 31.2844ZM18.07 5.23136C18.0245 5.18514 17.9206 5.0773 17.9141 5.0773C17.2905 5.83223 16.5306 6.47162 16.4397 7.64255C16.4267 7.81202 16.5241 7.9892 16.5696 8.15868C16.6865 8.03542 16.8294 7.94298 16.9138 7.79662C17.31 7.0879 17.4464 6.1943 18.0635 5.63965C18.1154 5.60113 18.07 5.39314 18.2648 4.71523C18.1999 4.77686 18.1349 4.83849 18.07 4.90012C18.1219 4.95404 18.1674 5.01567 18.2194 5.06959C18.2713 4.99256 18.3233 4.92323 18.3623 4.83849C18.3687 4.82308 18.3038 4.76145 18.07 5.23136ZM41.0371 33.8651C41.1475 33.7341 41.2579 33.6032 43.6612 28.1723C43.6612 28.049 43.6807 27.9103 43.6547 27.7871C43.6287 27.6176 43.5703 27.4481 43.5248 27.2787C43.4598 27.425 43.3754 27.556 43.3364 27.71C42.9662 29.1968 42.4271 30.5988 41.8165 31.9701C41.6607 32.3398 41.5048 32.7096 41.3684 33.0948C41.3294 33.2026 41.3684 33.349 41.3684 33.4799C41.4593 33.4337 41.5697 33.4106 41.6412 33.3413C42.3751 32.6017 42.6284 31.5387 43.0311 30.5603C43.3494 29.79 43.6807 29.0581 41.3684 33.4799C41.2579 33.6032 41.1475 33.7341 41.0371 34.0423C41.0371 33.9807 41.0371 33.9267 41.0371 33.8651C40.9527 33.9036 40.8552 33.919 40.7903 33.9807C40.7708 34.0038 40.8228 34.1347 40.8423 34.2195C40.9072 34.1578 40.9722 34.0962 41.0371 33.8651ZM21.3501 8.18179C20.8629 8.22031 21.0708 8.66711 21.0253 8.96754C20.9149 9.06769 20.7655 9.14472 20.7005 9.27568C20.4862 9.73018 21.0448 10.0537 20.8434 10.5776C20.694 10.955 20.707 11.4326 20.7005 11.864C20.694 12.7422 21.2526 14.4139 22.0126 15.685C22.9219 17.2025 23.9352 18.6046 25.4031 19.3903C26.4423 19.9527 27.5335 20.5073 28.7027 20.23C29.9368 19.9296 30.924 20.8 32.0282 21.0851C32.6388 21.2391 32.7102 22.3638 32.1646 22.7721C31.7359 23.0957 31.2943 23.3961 30.7292 23.373C29.4171 23.3345 28.0856 23.5502 26.7996 23.3191C24.3119 22.8723 21.9087 22.0172 19.9536 19.9604C19.5639 19.5521 19.0832 19.2594 18.7065 18.8434C17.1541 17.1486 15.8551 15.1919 15.251 12.7808C14.5301 9.91506 14.4911 8.4283 15.7901 5.51639C16.4721 3.98341 17.5828 2.92033 18.7974 1.93429C20.4472 0.586182 22.2074 -0.0840187 24.195 0.00842273C24.799 0.0392365 25.3966 0.0315331 26.0006 0.00842273C28.0012 -0.0455015 29.8913 0.663216 31.7749 1.31031C33.9248 2.04984 35.9059 3.29009 37.835 4.59968C39.5042 5.73209 41.1735 6.8799 42.518 8.56696C43.1935 9.42204 43.9015 10.2309 44.603 11.0475C45.8046 12.4418 46.6815 14.1134 47.37 15.9084C48.3183 18.3812 49.0847 20.9387 48.8834 23.7042C48.7989 24.9368 49.2276 26.0461 49.2276 27.2401C49.2276 27.348 49.0912 27.4558 49.0198 27.5714C48.9808 27.4558 48.9418 27.348 48.9158 27.2324C48.8963 27.1708 48.9223 27.1015 48.9093 27.0398C48.8704 26.8627 48.8249 26.6932 48.7859 26.516C48.7145 26.7163 48.6235 26.9012 48.5846 27.1092C48.5001 27.5714 48.7989 27.9257 48.8704 28.3186C48.9353 28.6807 49.2211 29.3509 48.5846 29.5897C48.5846 29.2661 48.5846 28.9426 48.5781 28.6268C48.5781 28.5805 48.5001 28.4881 48.4806 28.4958C48.3962 28.5189 48.2663 28.5728 48.2663 28.6268C48.2468 28.9426 48.2533 29.2661 48.2533 29.5897C47.6233 29.7669 48.052 30.3677 47.9286 30.7529C47.292 30.9378 47.7272 31.5387 47.5973 31.9238C47.1102 31.9546 47.318 32.4014 47.2725 32.7866C47.2725 32.8174 47.2725 32.7558 47.2725 32.7019C47.1881 32.7327 47.0907 32.7558 47.0192 32.8174C46.9997 32.8328 47.0582 32.9715 47.0777 33.0562C47.1426 32.9946 47.2076 32.933 47.2725 32.7866C47.383 32.7019 47.4869 32.7019 47.5973 32.7019C47.4804 33.4953 47.357 34.2888 46.5386 34.6432C46.5191 34.6432 46.5646 34.6432 46.6165 34.6432C46.584 34.543 46.5646 34.4275 46.5126 34.3504C46.4996 34.3273 46.3827 34.3889 46.3177 34.412C46.3697 34.4891 46.4152 34.5661 46.5386 34.6432C46.6165 34.8357 46.688 35.1131 46.6035 35.2132C45.2395 36.9696 43.973 38.7953 42.3946 40.3591C40.1018 42.6316 37.5297 44.2031 34.8666 45.6129C33.3468 46.414 31.71 46.9148 30.1056 47.4694C28.8131 47.9162 27.4491 48.0472 26.137 48.3476C24.7925 48.6557 23.487 48.5864 22.162 48.6403C20.8499 48.6943 19.5184 48.8175 18.2323 48.6172C15.5433 48.2089 12.8478 47.7159 10.3601 46.3062C9.4508 45.7901 8.56095 45.2123 7.65811 44.6653C7.54769 44.596 7.42428 44.5498 7.30737 44.4882C7.30737 44.6653 7.24891 44.8733 7.30737 45.012C8.06731 46.8454 8.24268 48.9485 9.13253 50.728C9.25594 50.9668 9.26893 51.3674 9.19748 51.6524C9.02211 52.3996 8.78179 53.1237 8.55445 53.8556C8.52847 53.9403 8.42455 53.9865 8.3531 54.0559C8.31413 53.9403 8.26217 53.8325 8.22969 53.7246C8.02834 52.8772 7.74255 52.6692 7.24891 53.1623C6.87868 53.532 6.66434 53.8556 6.30061 53.1854C6.01482 52.6692 5.84594 53.2162 5.73552 53.378C5.07301 54.3717 4.55989 54.4102 3.96882 53.4627C3.8584 53.2932 3.76747 52.962 3.66354 52.9543C2.33852 52.9235 2.59833 51.3365 1.99427 50.6124C1.72797 48.6943 1.1304 46.8685 0.805642 44.9966C0.519852 43.3249 -0.0127571 41.6918 0.000233327 39.9123C0.019719 38.025 -0.0257476 38.0943 1.18237 36.9388C2.96206 35.244 4.91063 33.8343 6.78126 32.3013C7.48924 31.7158 8.30764 31.3153 9.01562 30.7375C9.97691 29.9595 11.0161 30.5526 12.0034 30.3985C12.0944 30.3831 12.2048 31.0379 12.3607 31.0765C12.5555 31.1304 12.8023 30.8068 13.0427 30.7683C13.3479 30.7221 13.978 31.8391 13.7766 32.101C13.4454 32.5478 13.4843 33.3721 12.8218 33.4799C12.7504 33.3259 12.6919 33.1564 12.5945 33.0254C12.4386 32.8097 12.1918 32.4631 12.1788 33.1102C12.1658 33.6956 11.1006 33.3644 11.5098 34.258C11.185 34.5122 10.8538 34.7741 10.529 35.036C10.2562 34.959 10.0094 35.7447 9.73009 35.0591C9.66514 35.3134 9.60668 35.5599 9.54173 35.8141C9.3079 35.868 8.91819 35.6369 8.9052 36.1068C8.87922 36.7539 8.51548 36.5613 8.0803 36.6306C8.04783 36.569 8.13876 36.4843 8.22969 36.4072C8.15175 36.3379 8.07381 36.207 8.00236 36.2147C7.86596 36.2224 7.73605 36.3071 7.59965 36.361C7.69708 36.4535 7.80101 36.5459 8.0803 36.6306C8.22969 36.8463 8.22969 37.1083 8.22969 37.3702C7.91792 37.4164 7.60615 37.4626 7.29438 37.5011C7.45676 37.8478 7.55419 38.3408 7.80101 38.5103C9.97691 40.051 12.1009 41.7457 14.5366 42.6624C15.355 42.9629 16.2123 43.2787 17.1347 43.2248C18.4987 43.1478 19.8627 43.2248 21.2267 43.2017C22.7985 43.1709 24.3249 42.7164 25.8383 42.3158C27.1113 41.9845 28.3519 41.4145 29.5795 40.8598C30.95 40.2359 32.2685 39.504 33.5871 38.7183C35.7695 37.4318 37.5102 35.5984 39.1535 33.5647C40.6409 31.7158 41.5762 29.5358 42.0504 27.0167C42.3102 25.6378 42.4985 24.2512 42.6609 22.8646C42.7843 21.7784 42.0244 17.8573 41.7126 16.9329C40.7643 14.1289 39.5237 11.5636 37.5102 9.68396C35.3018 7.61944 32.8531 6.03252 30.1251 5.04648C27.5855 4.12977 25.3057 4.84619 23.1362 6.32526C22.5452 6.72583 22.162 7.5501 21.6813 8.18179C21.6423 8.08164 21.6099 7.97379 21.5709 7.86595C21.4995 7.97379 21.428 8.08164 21.3501 8.18179Z" fill="#FFC305"/>
</svg>
