<svg width="89" height="122" viewBox="0 0 89 122" fill="none" xmlns="http://www.w3.org/2000/svg">
<path fill-rule="evenodd" clip-rule="evenodd" d="M16.5446 93.856C13.817 94.3361 10.6034 95.1539 9.16518 97.4475C9.79997 99.2344 10.3058 98.9766 11.5258 100.275C10.9803 101.724 9.70078 102.719 8.92714 104.471C6.66572 109.538 7.28067 111.422 8.73869 116.019C9.36355 118.001 9.25445 120.099 10.5538 121.512C10.9902 120.952 10.8513 121.486 11.0497 120.463C11.1886 119.743 11.1489 119.663 11.0299 118.934C10.1967 114.152 5.56476 108.658 13.1822 101.003C19.5003 101.777 19.4507 100.817 18.9647 95.474C35.5881 95.6873 46.8258 96.0251 60.1959 89.7222C98.9872 71.4357 95.4364 18.1585 67.1686 4.37915C55.8318 -1.15037 40.4581 -1.65709 28.665 4.08578C5.01925 15.616 -4.05619 39.4498 1.65687 63.497C3.79927 72.5114 8.39154 82.5658 13.9261 90.1845C15.156 91.8736 15.6321 91.8913 16.5545 93.8649L16.5446 93.856Z" fill="#CDFBB6"/>
<path fill-rule="evenodd" clip-rule="evenodd" d="M6.07438 64.3337C16.0623 65.525 14.6936 62.6891 17.7981 56.6083C20.7935 50.7499 26.0899 50.8921 24.1162 42.7578C17.6989 35.9925 11.8767 42.3933 8.068 47.1405C4.38823 51.7277 0.3514 59.1775 6.0843 64.3337H6.07438Z" fill="#F2F3E3" fill-opacity="0.5"/>
<path fill-rule="evenodd" clip-rule="evenodd" d="M26.3281 32.0091C20.2976 35.4584 26.1198 41.059 30.7914 38.6143C35.2448 36.2851 31.6047 28.9865 26.3281 32.0091Z" fill="#EEECE1" fill-opacity="0.5"/>
</svg>
