<svg width="86" height="94" viewBox="0 0 86 94" fill="none" xmlns="http://www.w3.org/2000/svg">
<path d="M11.7484 49.7163C13.9724 49.5143 16.3379 49.2854 17.4027 48.2551C19.5256 46.2079 20.6376 46.9284 23.3603 46.2483C24.8429 45.8779 25.6314 42.3089 27.5251 40.1203C29.1021 38.2954 31.5013 37.0362 34.096 37.319C35.4304 37.4604 38.0722 38.1675 40.3029 40.2214C41.7586 41.5547 42.4797 44.0732 44.0634 45.8847C45.4652 47.4941 46.7794 49.2988 48.1474 51.1035C49.4953 52.8881 51.598 54.1743 52.7774 55.9722C54.0848 57.9588 55.0148 60.0867 55.9448 61.878C57.2186 64.3292 57.0501 66.7332 57.232 68.309C57.5016 70.5986 57.0366 72.3292 55.5742 74.2551C54.3341 75.8982 52.8717 77.5885 50.9847 79.1104C49.2797 80.4976 47.8577 82.4168 46.065 83.8107C44.2252 85.2451 42.6616 86.7939 41.179 88.3427C39.0965 90.5178 37.3645 91.9993 35.9156 92.7737C34.0421 93.7771 32.182 92.0599 29.338 91.3528C27.6532 90.9353 25.3214 91.373 22.6594 90.5515C20.2265 89.804 17.9621 89.1037 16.1896 87.9117C14.1813 86.5582 11.9506 85.3461 10.4679 83.6693C8.91116 81.905 8.24397 79.4134 6.88263 77.5885C5.48759 75.7164 4.51039 73.4942 2.88622 71.8713C1.45074 70.4437 0.18375 68.9689 0.022007 67.0093C-0.126255 65.1642 0.50724 63.1844 1.04638 61.2719C1.57879 59.3527 2.37403 57.5143 3.18949 55.9049C4.36213 53.5817 6.15479 52.3426 6.86915 51.6221C7.96766 50.5042 9.57162 49.9116 11.7484 49.7163Z" fill="#FF7272" fill-opacity="0.8"/>
<path d="M60.372 62.8403C59.4622 61.2578 61.3627 59.4464 63.6743 57.9783C65.5276 56.8066 67.5426 55.5271 68.8568 54.5776C69.8677 53.8504 71.4514 52.0456 73.2171 50.012C74.6391 48.3688 76.4655 46.9143 78.0021 45.7224C80.098 44.0995 81.8569 43.5271 83.407 45.3318C85.4692 47.7291 85.7455 50.3217 84.4988 52.6584C83.2789 54.948 80.8258 56.874 78.7434 58.1265C77.4023 58.9346 75.4142 60.4497 73.0554 61.48C71.0336 62.3622 68.6277 62.6383 66.6598 63.1568C63.7349 63.9312 61.1538 64.2073 60.372 62.8403Z" fill="#FF7272" fill-opacity="0.8"/>
<path d="M71.4105 36.8558C68.4048 39.3002 65.5743 40.9366 65.2643 41.3406C62.8179 44.5258 60.5603 41.2194 59.7785 38.1891C59.4483 36.8962 60.5266 34.7211 62.8179 32.2564C64.3208 30.647 65.8439 28.6335 67.5894 26.9433C69.4561 25.1453 71.5184 23.6773 72.846 22.1823C74.8948 19.8726 77.2063 19.3877 78.8305 20.0342C80.7377 20.7884 82.0384 23.2261 81.6004 25.6908C81.3308 27.2396 79.5988 29.6908 77.24 31.9534C75.4676 33.6571 73.3043 35.3204 71.4105 36.8558Z" fill="#FF7272" fill-opacity="0.8"/>
<path d="M60.5677 47.192C60.8035 48.8351 60.4868 50.5658 59.7522 52.0405C58.7346 54.0944 57.1575 55.7375 56.0725 55.1718C54.2192 54.2022 50.7619 51.6432 52.595 48.1415C53.4981 46.4109 55.1088 44.3032 56.8206 43.6028C58.5728 42.889 60.0487 43.5961 60.5677 47.192Z" fill="#FF7272" fill-opacity="0.8"/>
<path d="M65.6552 21.7789C64.5971 23.4557 63.9097 25.5163 62.7303 27.2335C61.5509 28.9507 59.8931 30.3513 58.7069 31.9338C57.3726 33.7251 56.0651 35.3884 54.8723 36.7554C52.8977 39.0247 51.1185 40.8362 50.1345 40.9911C47.4456 41.4018 45.5518 39.7049 45.7338 37.1931C45.8483 35.7049 46.2594 33.4153 47.5736 31.0719C48.4699 29.4894 50.9904 28.0483 52.5944 25.6981C53.8883 23.8059 54.4073 21.1325 55.8697 19.1796C57.386 17.1527 59.92 15.9944 61.342 14.3244C63.5862 11.6847 65.0689 9.63751 66.1134 9.30755C69.254 8.31765 71.0062 6.49273 71.7745 10.6948C71.8958 11.3412 69.7055 13.2806 68.115 16.1089C67.2254 17.6847 66.848 19.8934 65.6552 21.7789Z" fill="#FF7272" fill-opacity="0.8"/>
<path d="M42.2704 28.6396C41.3606 30.8147 40.754 32.9089 39.7768 34.3366C37.9505 36.9965 36.2252 36.3972 35.403 34.0133C34.8571 32.4443 35.7939 30.047 35.7467 27.9595C35.6928 25.6228 35.4165 23.4207 36.05 22.2086C36.8048 20.7541 37.8898 18.7069 39.1838 16.4982C40.2351 14.6935 41.7177 12.9493 42.8028 11.0571C43.9822 9.02342 44.1641 6.54531 45.0402 4.86181C46.0309 2.96955 47.4327 1.77763 48.356 0.983017C49.9532 -0.377252 51.948 -0.296444 53.242 1.04362C54.0372 1.86517 53.5857 4.4645 52.6219 6.94261C51.9682 8.61938 51.3954 10.6463 50.5597 12.3231C49.4545 14.5184 47.217 15.8786 46.8059 16.8483C46.3342 17.946 46.6105 20.5992 45.6872 23.1918C45.0133 25.0773 43.0858 26.6935 42.2704 28.6396Z" fill="#FF7272" fill-opacity="0.8"/>
<path d="M9.81352 16.4998C11.7612 16.1295 13.8638 16.8904 15.2656 19.079C16.2765 20.6413 16.3843 23.3147 15.8385 26.2709C15.4071 28.6345 14.6456 31.1732 13.7695 33.3753C12.4351 36.7288 10.8042 39.3012 9.88765 39.5099C8.2163 39.9005 7.06388 37.5436 6.32255 34.318C5.84406 32.2237 5.75645 29.7591 5.58797 27.4897C5.35209 24.4864 4.7523 21.7456 4.92078 20.5739C5.17687 18.7355 7.54237 16.9375 9.81352 16.4998Z" fill="#FF7272" fill-opacity="0.8"/>
</svg>
