<svg width="85" height="80" viewBox="0 0 85 80" fill="none" xmlns="http://www.w3.org/2000/svg">
<path d="M73.0022 42.4122C70.7933 42.2399 68.4437 42.0446 67.3861 41.1657C65.2776 39.4193 64.1731 40.034 61.4689 39.4538C59.9962 39.1379 59.2131 36.0933 57.3321 34.2263C55.7658 32.6695 53.3828 31.5953 50.8057 31.8366C49.4803 31.9572 46.8564 32.5604 44.6408 34.3125C43.1949 35.4499 42.4787 37.5983 40.9057 39.1436C39.5134 40.5165 38.2081 42.0561 36.8492 43.5956C35.5105 45.1179 33.422 46.2151 32.2506 47.7489C30.952 49.4435 30.0283 51.2587 29.1046 52.7868C27.8394 54.8778 28.0068 56.9286 27.8261 58.2728C27.5583 60.2259 28.0202 61.7022 29.4727 63.3452C30.7044 64.7468 32.1569 66.1887 34.0312 67.4869C35.7247 68.6703 37.1371 70.3075 38.9176 71.4966C40.745 72.7202 42.298 74.0414 43.7706 75.3627C45.8389 77.2181 47.5592 78.4819 48.9984 79.1425C50.8593 79.9985 52.7067 78.5336 55.5315 77.9305C57.2049 77.5743 59.521 77.9477 62.165 77.2469C64.5815 76.6092 66.8306 76.0118 68.591 74.995C70.5857 73.8404 72.8014 72.8064 74.274 71.376C75.8203 69.8709 76.4829 67.7455 77.8351 66.1887C79.2207 64.5917 80.1913 62.696 81.8045 61.3116C83.2302 60.0938 84.4887 58.8357 84.6493 57.1641C84.7966 55.5901 84.1674 53.9012 83.6319 52.2698C83.1031 50.6326 82.3132 49.0643 81.5033 47.6914C80.3385 45.7096 78.558 44.6526 77.8485 44.0379C76.7574 43.0843 75.1643 42.5788 73.0022 42.4122Z" fill="#FFC305" fill-opacity="0.5"/>
<path d="M24.7069 53.6076C25.6105 52.2577 23.7229 50.7124 21.4269 49.4601C19.5862 48.4605 17.5847 47.3691 16.2794 46.5591C15.2754 45.9387 13.7023 44.3991 11.9486 42.6643C10.5362 41.2626 8.7222 40.0218 7.19603 39.005C5.11427 37.6206 3.3672 37.1323 1.82764 38.6719C-0.220647 40.7169 -0.49509 42.9285 0.743253 44.9219C1.95482 46.875 4.39135 48.518 6.45971 49.5865C7.79177 50.2758 9.76643 51.5683 12.1092 52.4472C14.1174 53.1998 16.507 53.4353 18.4616 53.8776C21.3667 54.5382 23.9304 54.7738 24.7069 53.6076Z" fill="#FFC305" fill-opacity="0.5"/>
<path d="M13.7427 31.4391C16.7281 33.5244 19.5395 34.9203 19.8474 35.2649C22.2772 37.9821 24.5196 35.1615 25.2961 32.5765C25.6241 31.4736 24.5531 29.6181 22.2772 27.5156C20.7845 26.1427 19.2717 24.4251 17.538 22.9832C15.6839 21.4494 13.6356 20.1971 12.3169 18.9218C10.282 16.9515 7.98605 16.5379 6.37285 17.0893C4.47852 17.7327 3.18663 19.8122 3.62172 21.9147C3.88947 23.2359 5.60977 25.327 7.95258 27.2571C9.71304 28.7105 11.8617 30.1294 13.7427 31.4391Z" fill="#FFC305" fill-opacity="0.5"/>
<path d="M24.5129 40.2569C24.2786 41.6586 24.5932 43.1349 25.3228 44.3929C26.3336 46.145 27.8999 47.5466 28.9776 47.0641C30.8184 46.2369 34.2523 44.054 32.4316 41.0669C31.5346 39.5905 29.9348 37.7925 28.2346 37.1951C26.4942 36.5862 25.0283 37.1893 24.5129 40.2569Z" fill="#FFC305" fill-opacity="0.5"/>
<path d="M19.4597 18.5781C20.5106 20.0085 21.1934 21.7663 22.3648 23.2311C23.5362 24.696 25.1828 25.8908 26.3609 27.2408C27.6863 28.7688 28.9849 30.1877 30.1697 31.3538C32.131 33.2897 33.8981 34.835 34.8754 34.9671C37.5462 35.3175 39.4271 33.8699 39.2464 31.7272C39.1326 30.4577 38.7243 28.5046 37.419 26.5055C36.5287 25.1555 34.0253 23.9262 32.4322 21.9214C31.147 20.3072 30.6316 18.0266 29.179 16.3607C27.6729 14.6316 25.1561 13.6436 23.7437 12.2189C21.5147 9.96708 20.042 8.22076 19.0045 7.93928C15.8852 7.09484 14.1448 5.53808 13.3817 9.12264C13.2613 9.67412 15.4367 11.3285 17.0165 13.7412C17.9 15.0854 18.2749 16.9696 19.4597 18.5781Z" fill="#FFC305" fill-opacity="0.5"/>
<path d="M42.6859 24.4313C43.5896 26.2868 44.192 28.0733 45.1626 29.2912C46.9766 31.5602 48.6902 31.049 49.5068 29.0154C50.049 27.6769 49.1186 25.6319 49.1655 23.8511C49.219 21.8578 49.4934 19.9793 48.8642 18.9453C48.1145 17.7045 47.0368 15.9581 45.7516 14.0739C44.7074 12.5344 43.2348 11.0466 42.1571 9.43237C40.9857 7.69752 40.805 5.58354 39.9348 4.14741C38.9508 2.5332 37.5585 1.51643 36.6414 0.838573C35.055 -0.321819 33.0737 -0.252885 31.7885 0.890274C30.9986 1.5911 31.4471 3.80849 32.4043 5.92247C33.0536 7.35285 33.6226 9.08195 34.4526 10.5123C35.5504 12.385 37.7727 13.5454 38.181 14.3726C38.6496 15.309 38.3751 17.5723 39.2922 19.784C39.9615 21.3924 41.876 22.7711 42.6859 24.4313Z" fill="#FFC305" fill-opacity="0.5"/>
<path d="M74.9229 14.0745C72.9884 13.7586 70.8999 14.4077 69.5076 16.2747C68.5035 17.6074 68.3964 19.888 68.9386 22.4098C69.367 24.4261 70.1234 26.5918 70.9936 28.4703C72.319 31.331 73.9389 33.5254 74.8492 33.7035C76.5093 34.0367 77.6539 32.0261 78.3902 29.2745C78.8655 27.488 78.9525 25.3855 79.1198 23.4496C79.3541 20.8875 79.9499 18.5495 79.7825 17.55C79.5282 15.9817 77.1786 14.4479 74.9229 14.0745Z" fill="#FFC305" fill-opacity="0.5"/>
</svg>
