<svg width="88" height="82" viewBox="0 0 88 82" fill="none" xmlns="http://www.w3.org/2000/svg">
<path d="M44.8126 66.3075C44.7471 64.4078 44.6772 62.3786 45.4954 61.3192C47.1315 59.1859 46.3417 58.3656 46.6476 55.9687C46.8203 54.6672 49.9782 53.4004 51.7606 51.4555C53.2426 49.8133 54.1141 47.5938 53.5584 45.4517C53.2719 44.3527 52.329 42.2474 50.2091 40.7157C48.8227 39.7209 46.4382 39.5282 44.5996 38.4897C42.9828 37.5745 41.1836 36.7777 39.3824 35.9233C37.5972 35.0818 36.1759 33.5272 34.4117 32.8426C32.4426 32.0763 30.3914 31.6355 28.6651 31.1494C26.2802 30.4947 24.0919 31.0343 22.6348 31.1436C20.5265 31.3001 18.9953 31.9651 17.4014 33.5168C16.0484 34.8435 14.6858 36.3443 13.5061 38.1888C12.4288 39.8504 10.8494 41.3718 9.79015 43.1038C8.68638 44.8978 7.45074 46.4732 6.21263 47.9768C4.46667 50.0771 3.31345 51.7891 2.76945 53.1402C2.06795 54.8816 3.85255 56.1563 4.81691 58.4328C5.39172 59.7789 5.2598 61.8128 6.31165 63.9223C7.27909 65.8375 8.1801 67.6292 9.46799 68.9221C10.9327 70.3859 12.296 72.0615 13.9922 73.0269C15.7834 74.0411 18.1199 74.195 19.9516 75.032C21.8153 75.895 23.9603 76.3558 25.6146 77.4551C27.0929 78.4123 28.5823 79.2385 30.3943 79.0523C32.0823 78.8778 33.8239 78.0052 35.5071 77.2392C37.1903 76.4732 38.773 75.5001 40.1544 74.5461C42.1431 73.1736 43.0629 71.4548 43.6442 70.7355C44.523 69.6271 44.8926 68.177 44.8126 66.3075Z" fill="#E3ECFF"/>
<path d="M26.6047 27.1251C28.1692 27.6297 29.6036 25.7238 30.6844 23.5321C31.5454 21.7676 32.4794 19.851 33.2012 18.5784C33.7612 17.5968 35.2206 15.9641 36.8922 14.1373C38.232 12.661 39.3579 10.8714 40.2752 9.37711C41.5172 7.3298 41.8376 5.74703 40.0055 4.73094C37.5685 3.39495 35.1688 3.59332 33.1713 5.03033C31.2044 6.44993 29.7241 8.839 28.8077 10.8119C28.2266 12.0857 27.0741 14.0085 26.3993 16.1907C25.8226 18.0444 25.8316 20.1182 25.5951 21.8671C25.2161 24.4711 25.2618 26.701 26.6047 27.1251Z" fill="#E3ECFF"/>
<path d="M48.7864 13.7965C46.897 16.7355 45.7293 19.4039 45.3982 19.7243C42.7659 22.3147 46.0473 23.6654 48.9139 23.8126C50.114 23.8867 51.983 22.6113 53.9707 20.2698C55.2712 18.7448 56.9262 17.1285 58.2657 15.3831C59.7098 13.5122 60.8078 11.5296 62.0203 10.1575C63.8914 8.04378 64.0705 6.01827 63.2962 4.76229C62.39 3.28761 60.0175 2.58776 57.8051 3.37552C56.4219 3.85346 54.3868 5.72261 52.6021 8.08821C51.2481 9.86388 49.9669 11.9505 48.7864 13.7965Z" fill="#E3ECFF"/>
<path d="M40.9946 24.6475C39.4793 24.7192 37.9341 25.2674 36.6781 26.1186C34.9386 27.317 33.6307 28.9052 34.2629 29.7212C35.3486 31.1116 38.0668 33.5823 41.0444 31.4627C42.5265 30.4322 44.2488 28.733 44.6908 27.1836C45.1467 25.5898 44.3184 24.4765 40.9946 24.6475Z" fill="#E3ECFF"/>
<path d="M63.2353 16.4218C61.8322 17.5926 60.0324 18.5127 58.6018 19.787C57.1712 21.0613 56.0944 22.6913 54.787 23.9395C53.2995 25.3634 51.9343 26.7324 50.8281 27.9615C48.9891 29.9953 47.5454 31.7897 47.5128 32.6433C47.4533 34.9696 49.2062 36.2881 51.4835 35.712C52.822 35.3689 54.8613 34.6423 56.8429 33.1428C58.1896 32.1359 59.2103 29.7761 61.168 28.0338C62.7343 26.6457 65.1095 25.7576 66.7323 24.2056C68.3996 22.5917 69.1732 20.2698 70.5199 18.816C72.6749 16.4929 74.3741 14.9049 74.5435 13.9663C75.0831 11.162 76.5588 9.39336 72.6337 9.44825C72.0438 9.4465 70.5197 11.6089 68.1298 13.421C66.7831 14.4279 64.8196 15.1041 63.2353 16.4218Z" fill="#E3ECFF"/>
<path d="M59.7763 37.496C57.8981 38.617 56.0722 39.4614 54.887 40.5026C52.6826 42.4692 53.425 43.8143 55.6767 44.102C57.1674 44.29 59.2295 43.1231 61.1359 42.8144C63.258 42.4852 65.2941 42.3501 66.3202 41.6241C67.5576 40.7496 69.2926 39.5135 71.144 38.0663C72.6647 36.8933 74.0807 35.3728 75.6616 34.1513C77.3788 32.8454 79.6008 32.2781 81.0346 31.2707C82.6344 30.1474 83.5607 28.7733 84.1787 27.8714C85.2228 26.3289 84.9333 24.6694 83.5585 23.8128C82.721 23.2915 80.4144 24.0955 78.2763 25.2982C76.8361 26.1204 75.0554 26.9319 73.6361 27.9095C71.7633 29.1872 70.7847 31.281 69.9515 31.7743C69.0129 32.349 66.5772 32.5505 64.3307 33.7492C62.6917 34.6331 61.4422 36.4952 59.7763 37.496Z" fill="#E3ECFF"/>
<path d="M74.939 63.2006C75.0504 61.5276 74.1146 59.9247 71.9718 59.1175C70.4389 58.5371 68.0121 58.8792 65.4057 59.8209C63.3015 60.5589 61.1 61.6046 59.1933 62.6935C56.3034 64.3582 54.1733 66.1218 54.0774 66.9124C53.9274 68.3617 56.1853 68.9307 59.1981 69.0166C61.1444 69.0607 63.3866 68.7359 65.4625 68.5121C68.2147 68.2104 70.763 68.2547 71.8012 67.9296C73.435 67.4205 74.8068 65.1599 74.939 63.2006Z" fill="#E3ECFF"/>
</svg>
