<svg width="216" height="206" viewBox="0 0 216 206" fill="none" xmlns="http://www.w3.org/2000/svg">
<g filter="url(#filter0_d_1001_1256)">
<ellipse cx="107.681" cy="98.7624" rx="103.681" ry="98.7624" fill="white"/>
</g>
<path d="M162.854 107.364C162.854 107.364 161.35 107.659 159.756 107.659C157.68 107.659 157.56 106.837 157.56 106.078C157.56 104.94 158.221 104.708 160.207 104.708C161.17 104.708 162.042 104.792 162.854 104.919V107.343V107.364ZM168.179 101.968V101.947C168.179 101.799 168.179 101.63 168.149 101.483C167.908 98.1312 165.411 97.0562 160.327 97.0562C157.68 97.0562 154.702 97.3513 152.656 97.7307L152.626 100.808C154.13 100.492 156.838 100.26 158.883 100.26C161.651 100.26 162.493 100.492 162.764 101.483C162.794 101.588 162.824 101.715 162.824 101.862V101.883C162.824 102.01 162.854 102.157 162.854 102.326C161.44 102.136 160.117 102.031 158.913 102.031C154.431 102.031 151.814 102.706 151.814 106.205C151.814 108.249 152.506 109.346 154.281 109.915C156.386 110.61 161.47 110.062 162.824 109.746V110.231H168.149V102.01C168.149 101.989 168.149 101.968 168.149 101.968H168.179Z" fill="#06459A"/>
<path d="M144.083 100.555V106.268C144.083 106.732 142.91 107.069 141.345 107.069C138.879 107.069 138.217 106.373 138.217 103.801C138.217 100.555 139.119 100.239 141.496 100.239C142.218 100.239 143.271 100.323 144.113 100.555H144.083ZM141.466 97.0981C134.968 97.0981 132.561 98.9321 132.561 103.886C132.561 108.523 134.667 110.399 139.871 110.399C141.766 110.399 143.271 110.02 144.083 109.746C144.023 111.243 142.699 111.854 139.601 111.854C137.946 111.854 136.201 111.685 134.156 111.285L134.035 111.264L133.043 114.362L133.133 114.383C134.878 114.826 137.525 115.121 139.691 115.121C144.895 115.121 149.678 114.383 149.678 109.05V98.0046L149.588 97.9835C147.602 97.4565 144.263 97.0981 141.436 97.0981H141.466Z" fill="#06459A"/>
<path d="M73.9912 97.4566L80.1881 97.4355H80.2784L84.3094 104.539L88.1298 97.4777L88.1599 97.4355L94.4471 97.4566L87.4981 110.189L87.468 110.231H81.1207L73.9912 97.4566Z" fill="#06459A"/>
<path d="M105.126 107.364C105.126 107.364 103.622 107.659 102.028 107.659C99.9522 107.659 99.8319 106.837 99.8319 106.078C99.8319 104.94 100.494 104.708 102.479 104.708C103.442 104.708 104.314 104.792 105.126 104.919V107.343V107.364ZM102.479 97.0772C100.825 97.0772 98.9294 97.1826 97.1245 97.4145H97.0643L95.3496 100.534L95.1691 100.935L95.3797 100.893C96.9139 100.619 99.3205 100.281 101.186 100.281C104.555 100.281 105.096 100.724 105.126 102.326C103.712 102.136 102.389 102.031 101.186 102.031C96.7033 102.031 94.0862 102.706 94.0862 106.205C94.0862 108.249 94.7781 109.325 96.5529 109.915C98.6587 110.61 103.743 110.062 105.096 109.746V110.231H110.421V102.01C110.421 98.4474 108.195 97.0562 102.449 97.0562L102.479 97.0772Z" fill="#06459A"/>
<path d="M183.731 97.2878L181.866 100.682L181.234 100.618C180.963 100.618 180.693 100.597 180.452 100.597C178.767 100.597 176.963 100.977 176.963 101.778V110.21H171.337V97.3932H176.963V98.2786C177.985 97.604 178.948 97.1403 181.174 97.056C182.287 97.0138 183.25 97.1614 183.731 97.2668V97.2878Z" fill="#06459A"/>
<path d="M158.943 89.3408L158.522 90.1418H98.448L98.8691 89.3408H158.943Z" fill="#06459A"/>
<path d="M166.584 87.4438C164.96 87.4438 164.087 87.9497 163.756 88.835L163.726 88.9193C163.456 89.6571 163.696 89.9944 164.719 90.2474L165.591 90.4582C165.892 90.5214 165.952 90.6268 165.892 90.7954L165.832 90.9219C165.742 91.1327 165.501 91.2592 164.779 91.2592C164.388 91.2592 163.696 91.1749 163.155 91.0906L162.734 92.1656C163.335 92.2499 164.117 92.3343 164.569 92.3343C166.283 92.3343 167.186 91.8494 167.517 90.943L167.577 90.7744C167.848 90.0366 167.607 89.6782 166.614 89.4463L165.802 89.2355C165.441 89.1723 165.381 89.0669 165.441 88.8983L165.471 88.7929C165.561 88.5821 165.772 88.4556 166.283 88.4556C166.674 88.4556 167.336 88.5188 167.908 88.5821L168.329 87.5281C167.727 87.4649 167.126 87.4016 166.614 87.4016L166.584 87.4438ZM174.526 88.6032L174.917 87.5492H169.592L169.201 88.6032H171.006L169.653 92.2078H171.337L172.691 88.6032H174.496H174.526ZM178.497 90.5846L181.685 87.5492H179.85L178.076 89.5728L177.805 87.5492H175.94L176.842 90.5846L176.241 92.1867H177.925L178.527 90.5846H178.497ZM183.25 91.1327L184.603 87.5281H182.919L181.174 92.1867H185.355L185.747 91.1327H183.25ZM192.214 88.5821L192.605 87.5281H188.424L186.679 92.1867H190.861L191.252 91.1327H188.755L189.056 90.3528H191.342L191.733 89.3199H189.447L189.717 88.5821H192.214Z" fill="#06459A"/>
<path d="M68.6065 95.201L77.0295 110.252H61.116L56.9948 100.344L38.3739 108.629L15 119L47.6994 78H58.9501L59.1005 78.253L65.7788 90.163L53.9565 93.0509L52.0914 88.5398L46.7668 96.3183L54.5581 94.4422L66.5308 91.5332L89.273 86.0314L68.6065 95.201Z" fill="#06459A"/>
<path d="M125.191 97.4355C118.663 96.7821 113.489 98.1312 113.489 98.1312H113.459V110.231H119.084V101.061C119.084 101.061 119.084 101.061 119.114 101.04C119.114 101.04 120.408 100.555 122.604 100.766C123.176 100.808 123.928 101.251 124.168 101.609C124.469 102.031 124.559 102.684 124.559 103.654V110.231H130.155V103.106C130.155 99.9018 128.981 97.815 125.221 97.4355H125.191Z" fill="#06459A"/>
<path d="M192.395 100.429C193.959 100.429 195.463 100.85 195.463 101.398V105.867C195.463 106.099 195.283 106.458 194.982 106.542C194.47 106.71 193.598 106.921 192.545 106.9C189.988 106.858 189.507 105.973 189.356 103.654C189.236 101.483 189.868 100.408 192.395 100.408V100.429ZM200.848 92.3763H195.463V98.0889C195.463 98.0889 193.026 97.4354 191.282 97.4354C186.86 97.4354 183.942 98.6791 183.942 103.717C183.942 105.783 184.453 107.216 185.325 108.27C186.168 109.261 188.334 110.273 191.583 110.21C193.267 110.189 194.801 109.915 195.463 109.746V110.231H200.788V92.3552L200.848 92.3763Z" fill="#06459A"/>
<defs>
<filter id="filter0_d_1001_1256" x="0" y="0" width="215.361" height="205.525" filterUnits="userSpaceOnUse" color-interpolation-filters="sRGB">
<feFlood flood-opacity="0" result="BackgroundImageFix"/>
<feColorMatrix in="SourceAlpha" type="matrix" values="0 0 0 0 0 0 0 0 0 0 0 0 0 0 0 0 0 0 127 0" result="hardAlpha"/>
<feOffset dy="4"/>
<feGaussianBlur stdDeviation="2"/>
<feComposite in2="hardAlpha" operator="out"/>
<feColorMatrix type="matrix" values="0 0 0 0 0 0 0 0 0 0 0 0 0 0 0 0 0 0 0.25 0"/>
<feBlend mode="normal" in2="BackgroundImageFix" result="effect1_dropShadow_1001_1256"/>
<feBlend mode="normal" in="SourceGraphic" in2="effect1_dropShadow_1001_1256" result="shape"/>
</filter>
</defs>
</svg>
