<svg width="216" height="206" viewBox="0 0 216 206" fill="none" xmlns="http://www.w3.org/2000/svg">
<g filter="url(#filter0_d_1002_893)">
<ellipse cx="107.681" cy="98.7624" rx="103.681" ry="98.7624" fill="white"/>
</g>
<path d="M35.9972 89C46.4707 89 54.9389 97.4694 54.9944 108C54.9944 118.532 46.4707 127 35.9972 127C25.5236 127 17 118.475 17 108C17 97.5249 25.5236 89 35.9972 89ZM35.9972 125.775C45.8032 125.775 53.8248 117.807 53.8248 107.945C53.8248 98.0825 45.8578 90.1143 35.9972 90.1143C26.1366 90.1143 18.1696 98.0834 18.1696 107.945C18.1696 117.806 26.1366 125.775 35.9972 125.775" fill="#78BE20"/>
<path d="M19.6184 107.833C26.0812 109.895 32.2092 116.191 34.0473 124.269C24.9671 123.1 19.6739 115.633 19.6184 107.833" fill="#78BE20"/>
<path d="M52.2651 107.833C45.8023 109.895 39.6188 116.191 37.8362 124.269C46.9164 123.1 52.2651 115.633 52.2651 107.833" fill="#78BE20"/>
<path d="M35.9971 124.27C29.0887 113.628 30.593 98.974 35.9971 91.1177C41.1229 98.974 42.7382 113.628 35.9971 124.27Z" fill="#78BE20"/>
<path d="M60.1201 91.2285H64.2983V96.9118H71.9861V91.2285H76.1652V106.106H71.9861V99.6425H64.2983V106.106H60.1201V91.2285Z" fill="#231F20"/>
<path d="M79.5076 91.2285H93.7136V93.9592H83.6866V97.1337H92.8787V99.697H83.6866V103.319H93.8819V106.105H79.5076V91.2285Z" fill="#231F20"/>
<path d="M100.567 93.7363H105.135C107.028 93.7363 108.031 94.3494 108.031 95.7975C108.031 97.302 107.028 97.9151 105.135 97.9151H100.566L100.567 93.7363ZM96.3875 106.106H100.567V100.311H104.745C106.862 100.311 107.641 100.98 107.92 102.54C108.142 103.71 108.087 105.158 108.588 106.106H112.767C111.987 105.326 112.043 103.543 111.987 102.595C111.819 101.091 111.263 99.586 109.201 99.1413V99.0848C111.318 98.4172 112.21 97.0792 112.21 95.3518C112.21 93.0668 110.038 91.2285 106.638 91.2285H96.3884L96.3875 106.106Z" fill="#231F20"/>
<path d="M119.396 103.543V99.4751H123.965C125.803 99.4751 126.973 100.088 126.973 101.593C126.973 103.153 125.525 103.543 123.908 103.543H119.396ZM123.686 97.1911H119.452V93.7364H123.352C124.856 93.7364 126.249 94.0702 126.249 95.4637C126.249 96.7454 125.191 97.2466 123.686 97.2466V97.1911ZM115.329 91.2295V106.105H124.522C127.92 106.105 131.207 104.825 131.207 101.816C131.207 99.9208 130.037 98.5282 127.697 98.0261C129.369 97.3585 130.26 96.4106 130.26 94.9061C130.26 92.12 127.809 91.2295 124.187 91.2295H115.329Z" fill="#231F20"/>
<path d="M137.948 100.311L140.399 94.8506H140.455L142.851 100.311H137.948ZM131.096 106.106H135.33L136.834 102.818H143.91L145.357 106.106H149.703L142.628 91.2285H138.338L131.096 106.106Z" fill="#231F20"/>
<path d="M151.041 91.2285H155.219V103.321H164.466V106.107H151.041V91.2285Z" fill="#231F20"/>
<path d="M165.971 106.106V91.2285H170.149V106.106H165.971Z" fill="#231F20"/>
<path d="M173.492 91.2285H186.861V93.9592H177.67V97.4139H185.636V99.9208H177.67V106.106H173.491L173.492 91.2285Z" fill="#231F20"/>
<path d="M188.923 91.2285H203.129V93.9592H193.101V97.1337H202.295V99.697H193.101V103.319H203.352V106.105H188.923V91.2285Z" fill="#231F20"/>
<path d="M60.1201 109.504H64.2428L72.1534 119.478H72.2098V109.504H76.1652V124.381H71.9861L64.0754 114.408H64.019V124.381H60.1201V109.504Z" fill="#78BE20"/>
<path d="M95.6645 118.754C95.6645 122.766 92.656 124.716 87.5301 124.716C82.4043 124.716 79.4521 122.821 79.4521 118.754V109.504H83.6303V118.754C83.6303 120.37 84.1869 121.985 87.5301 121.985C90.4823 121.985 91.4855 120.983 91.4855 118.754V109.504H95.6636L95.6645 118.754Z" fill="#78BE20"/>
<path d="M103.408 112.235H97.7253V109.504H113.268V112.235H107.586V124.381H103.408V112.235Z" fill="#78BE20"/>
<path d="M119.507 112.068H124.077C125.97 112.068 126.972 112.681 126.972 114.129C126.972 115.633 125.97 116.246 124.077 116.246H119.507V112.068ZM115.329 124.381H119.508V118.587H123.687C125.803 118.587 126.583 119.255 126.862 120.815C127.084 121.985 127.029 123.434 127.53 124.381H131.709C130.929 123.601 130.985 121.819 130.929 120.871C130.761 119.366 130.205 117.862 128.143 117.416V117.361C130.26 116.693 131.152 115.355 131.152 113.628C131.152 111.343 128.98 109.504 125.58 109.504H115.329V124.381Z" fill="#78BE20"/>
<path d="M135.107 124.381V109.505H139.285V124.381H135.107Z" fill="#78BE20"/>
<path d="M147.419 112.235H141.68V109.504H157.28V112.235H151.597V124.381H147.419V112.235Z" fill="#78BE20"/>
<path d="M159.731 124.381V109.505H163.909V124.381H159.731Z" fill="#78BE20"/>
<path d="M175.553 121.986C171.764 121.986 170.373 119.479 170.373 117.027C170.373 114.408 171.821 111.901 175.553 111.901C179.342 111.901 180.733 114.408 180.733 117.027C180.733 119.479 179.286 121.986 175.553 121.986V121.986ZM175.553 109.171C169.703 109.171 166.194 112.569 166.194 117.027C166.194 121.317 169.703 124.772 175.553 124.772C181.403 124.772 184.913 121.317 184.913 117.027C184.913 112.625 181.403 109.171 175.553 109.171Z" fill="#78BE20"/>
<path d="M187.308 109.504H191.486L199.397 119.478H199.453V109.504H203.353V124.381H199.174L191.263 114.408H191.207V124.381H187.308V109.504Z" fill="#78BE20"/>
<defs>
<filter id="filter0_d_1002_893" x="0" y="0" width="215.361" height="205.525" filterUnits="userSpaceOnUse" color-interpolation-filters="sRGB">
<feFlood flood-opacity="0" result="BackgroundImageFix"/>
<feColorMatrix in="SourceAlpha" type="matrix" values="0 0 0 0 0 0 0 0 0 0 0 0 0 0 0 0 0 0 127 0" result="hardAlpha"/>
<feOffset dy="4"/>
<feGaussianBlur stdDeviation="2"/>
<feComposite in2="hardAlpha" operator="out"/>
<feColorMatrix type="matrix" values="0 0 0 0 0 0 0 0 0 0 0 0 0 0 0 0 0 0 0.25 0"/>
<feBlend mode="normal" in2="BackgroundImageFix" result="effect1_dropShadow_1002_893"/>
<feBlend mode="normal" in="SourceGraphic" in2="effect1_dropShadow_1002_893" result="shape"/>
</filter>
</defs>
</svg>
