<svg width="41" height="41" viewBox="0 0 41 41" fill="none" xmlns="http://www.w3.org/2000/svg">
<path fill-rule="evenodd" clip-rule="evenodd" d="M31.5754 33.8071L31.5765 33.8042L31.6063 33.7299L36.7292 7.90148V7.81759C36.7292 7.17406 36.4914 6.61226 35.974 6.27527C35.5211 5.98031 35.0005 5.9593 34.6354 5.98701C34.2493 6.01632 33.8852 6.11269 33.6332 6.19292C33.5035 6.23419 33.395 6.27396 33.3173 6.30404C33.2784 6.31913 33.2468 6.33194 33.2239 6.34148L33.2013 6.35098L4.63829 17.5558L4.63043 17.5586C4.615 17.5643 4.5946 17.5719 4.56996 17.5815C4.52084 17.6006 4.45397 17.6279 4.37542 17.6635C4.22119 17.7334 4.0081 17.8413 3.792 17.9893C3.42495 18.2407 2.72605 18.8357 2.84407 19.7791C2.94182 20.5605 3.48046 21.0568 3.8436 21.3137C4.03826 21.4514 4.22449 21.5508 4.36087 21.6157C4.42996 21.6486 4.48866 21.6738 4.53237 21.6916C4.55429 21.7005 4.57261 21.7076 4.58679 21.713L4.60494 21.7198L4.61654 21.7241L9.61383 23.4065C9.59696 23.72 9.62806 24.0397 9.71121 24.3551L12.2144 33.8507C12.5112 34.9766 13.5298 35.7609 14.6941 35.76C15.7378 35.7593 16.6634 35.1279 17.0566 34.1859L20.9648 30.0072L27.6768 35.1531L27.7722 35.1947C28.382 35.4608 28.9518 35.5451 29.4727 35.474C29.9928 35.4029 30.4062 35.1848 30.7167 34.9364C31.0223 34.6919 31.2317 34.416 31.3634 34.2083C31.4303 34.1028 31.4802 34.01 31.5148 33.9402C31.5321 33.9051 31.5458 33.8755 31.5561 33.8523L31.569 33.8226L31.5735 33.8116L31.5754 33.8071ZM12.189 23.7019C12.1321 23.4861 12.2214 23.2583 12.4098 23.1386L29.3599 12.3746C29.3599 12.3746 30.3569 11.7693 30.3212 12.3746C30.3212 12.3746 30.4992 12.4815 29.9649 12.9798C29.4582 13.4532 17.8842 24.6275 16.713 25.7582C16.6454 25.8235 16.6051 25.8983 16.5813 25.9892L14.6922 33.1975L12.189 23.7019Z" fill="white"/>
</svg>
