<svg width="42" height="41" viewBox="0 0 42 41" fill="none" xmlns="http://www.w3.org/2000/svg">
<path fill-rule="evenodd" clip-rule="evenodd" d="M12.2575 8.3539C17.9559 7.90808 23.6805 7.90808 29.3789 8.3539L33.2068 8.65337C35.3389 8.82018 37.0832 10.4181 37.4356 12.5275C38.3175 17.8054 38.3175 23.1931 37.4356 28.471C37.0832 30.5804 35.3389 32.1783 33.2068 32.3451L29.3789 32.6446C23.6805 33.0904 17.9559 33.0904 12.2575 32.6446L8.42964 32.3451C6.29751 32.1783 4.55327 30.5804 4.20082 28.471C3.31897 23.1931 3.31897 17.8054 4.20082 12.5275C4.55327 10.4181 6.29751 8.82018 8.42964 8.65337L12.2575 8.3539ZM17.4015 24.7191V16.2794C17.4015 15.8811 17.8361 15.635 18.1777 15.84L25.2107 20.0598C25.5425 20.2588 25.5425 20.7397 25.2107 20.9387L18.1777 25.1586C17.8361 25.3635 17.4015 25.1174 17.4015 24.7191Z" fill="white"/>
</svg>
