<svg width="184" height="352" viewBox="0 0 184 352" fill="none" xmlns="http://www.w3.org/2000/svg">
<path fill-rule="evenodd" clip-rule="evenodd" d="M54.0535 228.601C45.7171 230.677 34.8398 236.864 46.494 242.443C37.4226 264.925 28.2883 258.004 44.3941 296.886C48.1529 305.967 50.4627 317.292 48.4259 327.904C45.864 341.117 36.7297 345.164 34.1469 351.603C40.8664 350.177 47.7749 339.481 50.4417 330.924C57.7072 307.834 39.3755 284.953 38.5355 272.768C37.5906 259.032 45.2551 253.16 48.2159 244.666C53.3815 245.526 56.9723 248.126 62.6419 246.931C63.9438 240.975 62.0959 236.571 61.508 230.656C117.301 235.354 165.283 195.067 179.184 144.23C187.163 115.037 183.006 84.334 171.561 59.3142C165.787 46.668 158.185 37.4193 151.487 28.4433C148.022 23.7875 143.066 19.5721 138.321 16.1536C131.853 11.4768 129.102 9.77809 121.417 6.4645C94.1817 -5.32184 61.739 2.83632 41.6223 16.8457C21.9677 30.5405 9.05358 49.688 2.64902 80.7058C-3.44056 110.193 1.4101 142.574 12.6863 167.069C18.3979 179.484 24.0675 189.656 30.9131 199.744C37.3386 209.202 53.2555 227.238 54.0535 228.622V228.601Z" fill="#FFA6AB"/>
<path fill-rule="evenodd" clip-rule="evenodd" d="M44.5623 41.467C26.2096 50.4641 22.5978 80.1187 40.0266 72.7994C43.7853 71.2265 43.7224 67.9129 46.2842 63.5088C47.6491 61.1809 46.2212 63.4668 47.6281 61.5584C47.8171 61.3067 49.308 59.3982 49.5599 59.0836C51.4498 56.8187 51.5338 57.1542 53.4027 55.1409C60.5422 47.4021 53.2977 37.1677 44.5413 41.467H44.5623Z" fill="#FFD8DA"/>
<path fill-rule="evenodd" clip-rule="evenodd" d="M59.0094 29.471C49.266 34.5463 57.7495 45.3049 65.12 41.4251C72.4695 37.5662 67.5768 24.983 59.0094 29.471Z" fill="#FFD8DA"/>
</svg>
