<svg width="121" height="132" viewBox="0 0 121 132" fill="none" xmlns="http://www.w3.org/2000/svg">
<path d="M103.464 70.1083C100.334 69.8234 97.0038 69.5005 95.5049 68.0477C92.5165 65.1609 90.9511 66.177 87.1184 65.2179C85.0313 64.6956 83.9213 59.6627 81.2555 56.5766C79.0356 54.0032 75.6582 52.2274 72.0058 52.6263C70.1274 52.8257 66.4085 53.8227 63.2683 56.719C61.2192 58.5992 60.2041 62.1507 57.9746 64.7051C56.0014 66.9746 54.1514 69.5195 52.2256 72.0645C50.3282 74.5809 47.3683 76.3946 45.7081 78.93C43.8676 81.7313 42.5584 84.732 41.2492 87.258C39.4562 90.7145 39.6934 94.1045 39.4372 96.3266C39.0577 99.5552 39.7123 101.996 41.771 104.712C43.5166 107.029 45.5753 109.412 48.2316 111.558C50.6318 113.514 52.6335 116.221 55.157 118.186C57.747 120.209 59.9479 122.393 62.035 124.577C64.9665 127.644 67.4046 129.733 69.4443 130.825C72.0817 132.24 74.7001 129.819 78.7035 128.822C81.0753 128.233 84.3577 128.85 88.1051 127.692C91.5299 126.638 94.7175 125.65 97.2125 123.969C100.04 122.061 103.18 120.351 105.267 117.987C107.458 115.499 108.398 111.985 110.314 109.412C112.278 106.772 113.653 103.638 115.94 101.35C117.96 99.3368 119.744 97.2572 119.972 94.4939C120.18 91.892 119.289 89.1002 118.53 86.4033C117.78 83.697 116.661 81.1046 115.513 78.8351C113.862 75.559 111.339 73.8117 110.333 72.7956C108.787 71.2193 106.529 70.3837 103.464 70.1083Z" fill="#FFC305" fill-opacity="0.5"/>
<path d="M35.0165 88.6159C36.2973 86.3844 33.622 83.83 30.368 81.7598C27.7591 80.1075 24.9225 78.3033 23.0725 76.9644C21.6495 75.9388 19.4201 73.3939 16.9345 70.5261C14.9327 68.2091 12.3618 66.158 10.1988 64.4772C7.24835 62.1887 4.77227 61.3815 2.59028 63.9265C-0.312718 67.307 -0.701681 70.9629 1.0534 74.258C2.77053 77.4867 6.22376 80.2025 9.15522 81.9687C11.0431 83.1083 13.8418 85.2449 17.1622 86.6977C20.0082 87.9417 23.3951 88.331 26.1653 89.0622C30.2826 90.1543 33.9161 90.5436 35.0165 88.6159Z" fill="#FFC305" fill-opacity="0.5"/>
<path d="M19.4768 51.9711C23.708 55.4181 27.6925 57.7256 28.1289 58.2954C31.5727 62.787 34.7508 58.1244 35.8513 53.8513C36.3161 52.028 34.7982 48.9609 31.5727 45.4853C29.4571 43.2158 27.313 40.3765 24.8559 37.993C22.228 35.4576 19.325 33.3875 17.4561 31.2794C14.5721 28.0223 11.3181 27.3386 9.03174 28.2502C6.34694 29.3137 4.51596 32.7513 5.13261 36.2268C5.51209 38.4109 7.95023 41.8674 11.2706 45.058C13.7657 47.4605 16.811 49.806 19.4768 51.9711Z" fill="#FFC305" fill-opacity="0.5"/>
<path d="M34.7415 66.5474C34.4095 68.8644 34.8554 71.3048 35.8894 73.3844C37.322 76.2807 39.5419 78.5977 41.0693 77.8C43.6782 76.4326 48.545 72.8242 45.9646 67.8863C44.6933 65.4458 42.4259 62.4736 40.0162 61.486C37.5496 60.4795 35.472 61.4765 34.7415 66.5474Z" fill="#FFC305" fill-opacity="0.5"/>
<path d="M27.5789 30.7096C29.0684 33.0741 30.036 35.9799 31.6962 38.4014C33.3565 40.8228 35.6902 42.798 37.3599 45.0295C39.2383 47.5554 41.0788 49.9009 42.758 51.8286C45.5377 55.0287 48.0422 57.5832 49.4273 57.8016C53.2126 58.3808 55.8784 55.9878 55.6223 52.4459C55.461 50.3472 54.8823 47.1186 53.0323 43.814C51.7706 41.5825 48.2225 39.5504 45.9646 36.2363C44.1431 33.5679 43.4126 29.798 41.3539 27.0442C39.2194 24.1859 35.6523 22.5526 33.6506 20.1976C30.4914 16.4752 28.4043 13.5884 26.9338 13.1231C22.5129 11.7272 20.0463 9.15384 18.9648 15.0793C18.794 15.9909 21.8773 18.7258 24.1162 22.714C25.3685 24.9361 25.8997 28.0508 27.5789 30.7096Z" fill="#FFC305" fill-opacity="0.5"/>
<path d="M60.4987 40.386C61.7794 43.4532 62.6332 46.4064 64.0088 48.4196C66.5798 52.1705 69.0084 51.3253 70.1658 47.9638C70.9343 45.7512 69.6156 42.3707 69.682 39.4269C69.7579 36.1318 70.1469 33.0267 69.2551 31.3174C68.1925 29.2663 66.6652 26.3795 64.8437 23.2648C63.3637 20.7199 61.2766 18.2605 59.7492 15.5921C58.089 12.7243 57.8328 9.22984 56.5995 6.85586C55.2049 4.1875 53.2317 2.50672 51.932 1.3862C49.6836 -0.531981 46.8754 -0.41803 45.0539 1.47166C43.9345 2.63017 44.5701 6.2956 45.9267 9.7901C46.847 12.1546 47.6534 15.0129 48.8297 17.3774C50.3856 20.473 53.5353 22.3912 54.114 23.7586C54.778 25.3065 54.3891 29.0479 55.6888 32.7038C56.6375 35.3627 59.3507 37.6417 60.4987 40.386Z" fill="#FFC305" fill-opacity="0.5"/>
<path d="M106.187 23.2648C103.446 22.7426 100.486 23.8156 98.5123 26.9018C97.0893 29.1048 96.9375 32.8747 97.7059 37.0434C98.3131 40.3765 99.3851 43.9565 100.618 47.0617C102.497 51.7907 104.793 55.4181 106.083 55.7125C108.436 56.2632 110.058 52.9397 111.101 48.3911C111.775 45.4379 111.898 41.9623 112.136 38.7622C112.468 34.527 113.312 30.6622 113.075 29.0099C112.714 26.4175 109.384 23.8821 106.187 23.2648Z" fill="#FFC305" fill-opacity="0.5"/>
</svg>
