<svg width="121" height="114" viewBox="0 0 121 114" fill="none" xmlns="http://www.w3.org/2000/svg">
<path d="M60.6231 96.493C60.6231 93.5692 60.6231 90.4461 61.8431 88.9399C64.283 85.9054 63.1961 84.5322 63.7506 80.8996C64.0612 78.9283 68.6305 77.4443 71.2701 74.7199C73.466 72.4163 74.819 69.1382 74.1314 65.7714C73.7765 64.0438 72.5344 60.677 69.5843 58.019C67.6545 56.2914 64.2608 55.649 61.6878 53.7885C59.4253 52.1494 56.8967 50.6654 54.368 49.0927C51.8615 47.5423 49.9096 44.9508 47.4253 43.6439C44.6527 42.1821 41.7469 41.2075 39.307 40.2107C35.9355 38.8596 32.7857 39.369 30.7007 39.3248C27.6841 39.2583 25.466 40.0557 23.1148 42.2042C21.1185 44.0426 19.1 46.1468 17.3255 48.8048C15.7062 51.197 13.3772 53.3012 11.7802 55.8041C10.1166 58.3956 8.27555 60.6327 6.43452 62.7591C3.83932 65.7271 2.10919 68.1857 1.26631 70.1792C0.17943 72.7486 2.66372 74.9635 3.92805 78.5961C4.68221 80.7446 4.39385 83.8455 5.79126 87.2344C7.07777 90.3132 8.27555 93.1927 10.05 95.3633C12.0685 97.822 13.9318 100.591 16.3051 102.318C18.8116 104.135 22.1388 104.71 24.7118 106.261C27.3292 107.856 30.368 108.875 32.6748 110.802C34.7377 112.485 36.8227 113.969 39.4179 113.947C41.8357 113.925 44.3643 112.839 46.8042 111.909C49.2442 110.979 51.551 109.716 53.5695 108.454C56.4752 106.638 57.8726 104.135 58.7377 103.116C60.0464 101.543 60.6453 99.3724 60.6231 96.493Z" fill="#B199F9" fill-opacity="0.5"/>
<path d="M37.4879 34.5403C39.6838 35.537 41.8132 32.8348 43.4546 29.6452C44.7633 27.0759 46.1829 24.285 47.2697 22.4466C48.1126 21.029 50.2642 18.7476 52.7263 16.2004C54.7004 14.1405 56.3862 11.5711 57.7614 9.42262C59.6246 6.47672 60.157 4.10671 57.6061 2.29044C54.2124 -0.101722 50.7965 -0.146021 47.8908 1.75885C45.0295 3.64156 42.8113 7.07476 41.4139 9.95421C40.5267 11.8148 38.7966 14.5835 37.7319 17.8173C36.8224 20.5639 36.7337 23.7313 36.3123 26.3671C35.6468 30.2876 35.6025 33.6986 37.4879 34.5403Z" fill="#B199F9" fill-opacity="0.5"/>
<path d="M70.1833 16.9314C67.3441 21.162 65.5474 25.0825 65.0594 25.5255C61.1777 29.1137 65.7914 31.6609 69.8727 32.3033C71.5807 32.5912 74.309 30.9078 77.2591 27.6076C79.1888 25.459 81.6288 23.2219 83.6251 20.7412C85.7766 18.0832 87.4402 15.2037 89.2369 13.2767C92.0095 10.3087 92.3644 7.22987 91.3219 5.19211C90.102 2.79994 86.7526 1.38237 83.5585 2.26835C81.5622 2.79994 78.5678 5.3693 75.906 8.73605C73.8875 11.2611 71.9578 14.2735 70.1833 16.9314Z" fill="#B199F9" fill-opacity="0.5"/>
<path d="M57.9613 32.3917C55.7875 32.281 53.5472 32.9012 51.7062 34.0308C49.1553 35.6256 47.2034 37.8849 48.0684 39.236C49.5546 41.5396 53.3254 45.7481 57.6951 42.9129C59.8689 41.5396 62.4197 39.1696 63.1295 36.8438C63.8615 34.4517 62.7302 32.6132 57.9613 32.3917Z" fill="#B199F9" fill-opacity="0.5"/>
<path d="M90.6339 22.6239C88.5711 24.2187 85.9537 25.3705 83.8465 27.1203C81.7393 28.8701 80.1201 31.218 78.1903 32.9456C75.9944 34.9169 73.9759 36.8218 72.3345 38.5495C69.6062 41.4068 67.4546 43.954 67.3659 45.2608C67.1663 48.8269 69.6062 51.1083 72.889 50.5546C74.8188 50.2223 77.7689 49.4028 80.6746 47.3872C82.6487 46.0361 84.2236 42.5586 87.1071 40.1664C89.414 38.2615 92.852 37.2427 95.2476 35.0941C97.7097 32.857 98.9297 29.4017 100.926 27.3639C104.12 24.1079 106.627 21.9151 106.915 20.4975C107.824 16.267 110.02 13.7641 104.408 13.2768C103.566 13.1882 101.281 16.2891 97.7763 18.7256C95.8021 20.0767 92.9629 20.8298 90.6339 22.6239Z" fill="#B199F9" fill-opacity="0.5"/>
<path d="M84.5121 54.032C81.7616 55.4939 79.0999 56.5349 77.3476 57.9747C74.0869 60.6991 75.0851 62.8919 78.3013 63.6671C80.4307 64.1766 83.4474 62.6704 86.1978 62.471C89.2588 62.2717 92.1867 62.3603 93.695 61.3857C95.5139 60.2118 98.0647 58.5506 100.793 56.5792C103.033 54.9845 105.14 52.8359 107.47 51.1747C109.998 49.4028 113.214 48.849 115.322 47.4979C117.673 45.9917 119.07 43.9982 120.002 42.6914C121.577 40.4543 121.244 37.8406 119.314 36.3123C118.139 35.382 114.789 36.2902 111.662 37.8406C109.555 38.9038 106.959 39.9006 104.874 41.2074C102.124 42.9129 100.616 46.0139 99.3956 46.6562C98.0204 47.4093 94.5157 47.365 91.2329 48.8933C88.8374 50.0229 86.952 52.7252 84.5121 54.032Z" fill="#B199F9" fill-opacity="0.5"/>
<path d="M104.386 94.9646C104.63 92.3731 103.366 89.7373 100.327 88.1647C98.1535 87.0351 94.6489 87.2123 90.8559 88.2976C87.795 89.1393 84.5787 90.4461 81.7839 91.8637C77.5473 94.0343 74.3976 96.4708 74.2201 97.689C73.9318 99.9261 77.148 101.144 81.4733 101.72C84.2682 102.075 87.5066 101.897 90.5011 101.853C94.4715 101.787 98.1314 102.23 99.6397 101.875C102.013 101.322 104.098 97.9991 104.386 94.9646Z" fill="#B199F9" fill-opacity="0.5"/>
</svg>
