<svg width="17" height="3" viewBox="0 0 17 3" fill="none" xmlns="http://www.w3.org/2000/svg">
<path d="M1.25 3C1.08333 3 0.941667 2.95 0.825 2.85C0.725 2.73333 0.675 2.59167 0.675 2.425V0.625C0.675 0.458333 0.725 0.325 0.825 0.225C0.941667 0.108333 1.08333 0.0499998 1.25 0.0499998H3.05C3.21667 0.0499998 3.35 0.108333 3.45 0.225C3.56667 0.325 3.625 0.458333 3.625 0.625V2.425C3.625 2.59167 3.56667 2.73333 3.45 2.85C3.35 2.95 3.21667 3 3.05 3H1.25ZM7.54883 3C7.38216 3 7.24049 2.95 7.12383 2.85C7.02383 2.73333 6.97383 2.59167 6.97383 2.425V0.625C6.97383 0.458333 7.02383 0.325 7.12383 0.225C7.24049 0.108333 7.38216 0.0499998 7.54883 0.0499998H9.34883C9.51549 0.0499998 9.64883 0.108333 9.74883 0.225C9.86549 0.325 9.92383 0.458333 9.92383 0.625V2.425C9.92383 2.59167 9.86549 2.73333 9.74883 2.85C9.64883 2.95 9.51549 3 9.34883 3H7.54883ZM13.8477 3C13.681 3 13.5393 2.95 13.4227 2.85C13.3227 2.73333 13.2727 2.59167 13.2727 2.425V0.625C13.2727 0.458333 13.3227 0.325 13.4227 0.225C13.5393 0.108333 13.681 0.0499998 13.8477 0.0499998H15.6477C15.8143 0.0499998 15.9477 0.108333 16.0477 0.225C16.1643 0.325 16.2227 0.458333 16.2227 0.625V2.425C16.2227 2.59167 16.1643 2.73333 16.0477 2.85C15.9477 2.95 15.8143 3 15.6477 3H13.8477Z" fill="black"/>
</svg>
