<svg width="555" height="480" viewBox="0 0 555 480" fill="none" xmlns="http://www.w3.org/2000/svg">
<path d="M478.099 479.509C474.661 479.509 471.205 479.367 467.709 479.022C454.353 477.701 440.815 477.041 427.525 475.156C397.024 470.831 366.511 470.577 335.789 470.577C323.585 470.577 311.387 470.455 299.187 470.455C281.433 470.455 263.683 470.71 245.966 471.967C218.32 473.927 190.63 474.24 162.933 474.24C158.753 474.24 154.571 474.232 150.391 474.223C150.124 474.222 149.856 474.222 149.591 474.222C134.252 474.222 118.973 475.222 103.66 475.93C88.2802 476.639 73.3221 477.808 58.0305 477.808C56.6524 477.808 55.2674 477.797 53.8825 477.777C38.6028 477.554 15.3369 472.839 4.43708 460.818C-2.03545 453.678 -1.15845 436.496 5.32423 429.61C8.15501 426.603 12.7195 424.246 16.4492 422.814C27.0697 418.73 37.8798 418.72 48.9795 418.636C49.1149 418.634 49.2504 418.634 49.3858 418.634C57.0451 418.634 65.0092 420.269 72.3503 422.541C79.0277 424.609 85.8524 425.333 92.6449 426.62C98.2014 427.673 104.149 428.178 110.029 428.178C113.857 428.178 117.656 427.964 121.301 427.548C131.163 426.427 141.095 425.906 150.987 425.02C163.269 423.921 175.288 421.541 187.527 420.263C193.654 419.624 199.639 418.04 205.752 417.32C221.967 415.41 238.208 414.996 254.451 414.945C255.753 414.941 257.055 414.938 258.357 414.938C266.104 414.938 273.852 415.001 281.594 415.001C287.882 415.001 294.162 414.98 300.446 414.98C321.944 414.98 343.426 415.214 364.865 417.279C371.508 417.919 378.11 417.532 384.662 419.055C391.239 420.584 397.879 421.979 404.618 422.252C410.384 422.486 416.168 422.562 421.958 422.562C432.255 422.562 442.571 422.32 452.836 422.281C453.865 422.276 455.299 422.269 457.075 422.269C480.055 422.269 560.077 423.388 554.336 446.012C552.131 454.708 539.305 466.022 532.111 469.664C523.021 474.266 513.083 476.986 503.079 477.906C494.647 478.68 486.426 479.509 478.099 479.509Z" fill="#EBB044"/>
<path d="M315.561 442.581L316.394 449.077L304.238 457.242L296.907 451.583L302.569 444.252L314.725 436.084L315.561 442.581Z" fill="#3B455A"/>
<path d="M315.971 440.4L306.597 357.556L317.876 264.812L315.34 245.085L264.958 243.17L263.14 275.28L271.598 357.683L303.417 444.634L315.971 440.4Z" fill="#475174"/>
<path d="M227.99 252.454L227.857 336.054L244.684 443.676L256.796 443.555L263.455 344.03L279.036 244.417L227.99 252.454Z" fill="#475174"/>
<path d="M256.779 448.662L243.746 455.343L237.131 448.86L243.614 442.245L256.713 442.113L256.779 448.662Z" fill="#3B455A"/>
<path d="M323.091 280.886C322.974 277.264 322.774 274.241 322.744 273.161C322.485 263.442 321.619 253.746 320.402 244.096C319.312 235.45 317.935 213.983 316.456 205.39C315.235 198.294 310.977 180.583 307.901 174.002C300.25 157.635 302.613 156.124 269.01 151.263C254.28 149.133 250.799 158.313 238.76 168.867C237.571 169.908 237.637 176.107 237.362 177.749C236.877 180.639 236.356 183.524 235.76 186.395C235.293 188.654 234.776 190.904 234.197 193.139C228.204 216.279 221.313 238.526 219.906 262.513C219.507 269.28 217.426 275.847 217.61 282.675C217.631 283.459 217.695 284.301 218.184 284.917C220.218 287.48 231.443 283.564 234.854 283.229C243.526 282.376 252.375 281.839 261.095 281.903C270.042 281.971 279.027 282.877 287.823 284.394C293.706 285.378 299.71 286.807 304.972 289.554C309.992 292.177 313.616 296.035 318.711 298.751C319.192 299.008 319.722 299.274 320.27 299.198C323.196 298.792 323.333 288.511 323.091 280.886Z" fill="#8EC3CB"/>
<path d="M268.971 155.878C270.666 156.716 274.668 157.017 278.843 155.382C279.684 155.052 280.252 154.241 280.24 153.338C280.208 150.802 280.003 148.268 279.63 145.76C282.761 144.658 286.379 143.008 286.926 139.735C287.097 138.702 286.919 137.649 286.739 136.62C286.005 132.36 285.268 128.102 284.533 123.844C284.278 122.369 284.007 120.854 283.208 119.593C281.801 117.378 279.073 116.408 276.49 115.959C269.894 114.815 262.708 116.244 257.595 120.563C256.234 121.712 255.003 123.094 254.404 124.772C253.478 127.357 254.17 130.211 254.868 132.866C255.511 135.319 256.156 137.771 256.8 140.222C257.539 143.043 258.609 146.25 261.327 147.306C262.769 147.868 264.472 147.704 265.779 148.535C268.082 150.002 267.772 153.427 268.971 155.878Z" fill="#D5C6AB"/>
<path d="M232.599 113.22C231.47 102.646 236.088 91.5104 244.787 93.7249C250.056 95.0658 254.771 97.2871 260.074 95.3062C265.058 93.4439 268.657 94.2024 273.865 96.0613C279.503 98.0727 287.069 98.5467 292.172 101.386C294.302 102.571 296.002 104.425 297.328 106.47C301.919 113.562 301.944 123.34 297.39 130.454C296.369 132.05 295.145 133.51 293.86 134.903C291.202 137.786 288.021 141.349 284.362 142.417C284.276 139.144 287.257 128.827 284.743 126.143C280.754 121.887 271.737 123.374 266.79 124.422C261.393 125.564 256.583 129.386 251.233 130.202C239.419 132.005 233.627 122.845 232.599 113.22Z" fill="#3B3631"/>
<path d="M331.261 5.22752C308.962 2.55758 280.37 13.6521 272.934 32.8056C266.937 13.1594 233.066 -0.0361696 210.63 0.994896C151.426 3.71562 128.966 69.8444 152.323 115.724C164.894 140.417 183.467 162.286 203.878 182.06C220.971 198.618 265.331 234.033 265.475 233.923C265.61 234.043 312.474 201.972 330.747 186.71C352.568 168.485 372.709 148.036 387.076 124.33C413.769 80.2837 390.103 12.2757 331.261 5.22752Z" fill="#E45353"/>
<path d="M230.833 205.854C229.514 204.746 228.194 203.636 226.882 202.527C226.932 202.542 226.983 202.556 227.032 202.569C228.3 203.641 229.575 204.713 230.852 205.784C230.845 205.806 230.84 205.83 230.833 205.854Z" fill="#E0E0E0"/>
<path d="M265.16 233.743H265.158C264.984 233.743 247.872 220.133 230.833 205.854C230.84 205.83 230.845 205.806 230.852 205.784C246.795 219.154 262.891 232.004 265.195 233.728C265.175 233.738 265.163 233.743 265.16 233.743Z" fill="#7DABB2"/>
<path d="M265.195 233.728C262.891 232.005 246.795 219.154 230.852 205.784C229.575 204.713 228.3 203.641 227.032 202.569C233.567 204.335 240.373 205.236 247.359 205.236C251.204 205.236 255.106 204.963 259.048 204.411C282.261 201.161 303.67 189.67 322.075 176.254C341.106 162.381 358.77 146.06 374.15 128.547C382.212 119.368 389.687 109.658 396.198 99.4067C394.525 108.082 391.407 116.479 386.759 124.149C372.392 147.855 352.252 168.305 330.43 186.531C312.424 201.569 266.66 232.927 265.195 233.728Z" fill="#F03838"/>
<path d="M119.176 303.087L74.6899 286.725L83.8595 364.659L78.5467 431.897L78.4028 432.344L78.5095 432.358L78.1184 437.318H86.311L107.196 373.463L117.57 309.652L119.176 303.087Z" fill="#E2BDAA"/>
<path d="M86.8175 436.404L77.7157 436.174L75.3911 443.853L75.6214 443.923L75.5638 443.928L90.6099 452.845L97.7647 453.639L98.6739 445.464L96.7421 444.048L86.8175 436.404Z" fill="#3B455A"/>
<path d="M149.481 304.424L135.704 442.113H127.796L118.477 366.212L103.14 294.454L149.481 304.424Z" fill="#E2BDAA"/>
<path d="M136.107 440.96L147.77 447.575L146.677 453.079L125.837 449.937L127.063 442.008L136.107 440.96Z" fill="#3B455A"/>
<path d="M170.339 337.936C173.154 335.981 173.214 332.578 173.209 329.17C173.2 322.768 172.049 316.226 170.581 310.006C167.787 298.336 164.621 284.282 163.228 269.163C159.629 230.084 147.288 203.859 147.288 203.859L143.306 193.24C142.515 191.86 141.694 190.496 140.836 189.15C135.863 181.345 127.227 168.083 117.991 165.911C117.798 165.865 117.605 165.821 117.409 165.779C107.699 163.647 95.2572 164.636 86.4805 169.358C84.8162 170.254 83.3348 171.445 81.8669 172.632C77.5751 176.093 74.0755 177.967 72.225 183.243C70.6183 187.822 70.2459 192.818 69.3604 197.566C67.5607 207.208 66.4873 216.965 65.0516 226.662C62.3579 244.849 60.0689 263.097 57.1874 281.255C55.7043 290.6 54.211 299.963 53.5101 309.407C52.8904 317.757 45.358 326.236 41.1254 333.717C39.6525 336.321 60.8071 343.07 62.7016 343.51C71.4767 345.553 80.8122 345.032 89.8581 345.073C109.68 345.162 129.508 344.551 149.289 343.241C155.862 342.804 163.961 341.549 169.794 338.277C169.987 338.168 170.168 338.055 170.339 337.936Z" fill="#474EBB"/>
<path d="M122.095 144.748C123.785 149.822 121.34 155.231 119.193 159.855C117.29 163.954 116.627 166.652 121.46 167.758C124.183 168.381 129.015 169.544 131.402 167.46C133.21 165.88 132.194 161.004 131.314 159.066C130.642 157.586 128.864 156.836 128.233 155.339C127.972 154.721 127.935 154.036 127.924 153.367C127.887 150.631 128.266 147.89 129.044 145.267C129.57 143.486 130.286 141.737 130.445 139.887C130.677 137.204 128.779 134.076 127.782 131.611C125.927 127.023 119.469 120.871 114.064 124.472C112.833 125.291 112.115 126.678 111.515 128.031C111.158 128.838 110.818 129.681 110.808 130.563C110.765 134.085 113.981 134.679 116.202 136.355C118.941 138.422 121.017 141.511 122.095 144.748Z" fill="#292949"/>
<path d="M111.812 164.545C116.502 163.44 120.169 159.503 121.931 155.018C123.692 150.534 123.785 145.561 123.298 140.768C121.676 124.816 101.833 125.842 95.1152 138.066C89.2589 148.72 98.1762 167.757 111.812 164.545Z" fill="#E2BDAA"/>
<path d="M111.807 162.826C111.729 164.643 111.649 166.46 111.571 168.276C111.56 168.542 111.538 168.835 111.351 169.025C111.14 169.241 110.798 169.247 110.495 169.235C109.015 169.184 107.534 169.133 106.052 169.082C105.319 169.057 104.555 169.023 103.909 168.676C102.492 167.916 102.199 165.996 102.426 164.404C102.653 162.813 103.223 161.21 102.884 159.638C105.942 161.145 108.846 157.741 111.903 159.247L111.807 162.826Z" fill="#E2BDAA"/>
<path d="M105.409 113.113C100.197 114.884 96.8571 120.153 91.7729 122.258C88.8558 123.465 85.4053 123.619 83.0266 125.693C77.6952 130.338 81.9803 140.089 77.6004 145.642C76.6895 146.797 75.4621 147.669 74.5478 148.82C72.5754 151.303 72.3181 154.693 72.1403 157.861C72.1014 158.573 72.0946 159.349 72.2182 160.065C72.9039 167.379 83.5193 166.913 87.7367 166.444C92.3655 165.931 90.8214 163.36 90.8214 163.36L90.6538 163.155C90.2102 160.185 91.4309 157.019 93.7639 155.128C94.6291 154.425 95.6534 153.867 96.2645 152.934C97.6342 150.841 96.3255 148.068 96.527 145.574C97.3379 135.533 114.192 137.686 118.948 130.537C124.781 121.768 115.247 109.771 105.409 113.113Z" fill="#292949"/>
<path d="M75.3909 178.829L20.9763 227.326L30.1509 242.823L81.965 209.294L75.3909 178.829Z" fill="#A0A1A3"/>
<path d="M4.54717 135.008C3.15718 129.084 6.81586 123.148 12.7381 121.733C18.6757 120.314 24.6403 123.978 26.0573 129.915L26.059 129.927L44.2424 174.349C48.5241 184.807 56.9318 193.036 67.4794 197.087L106.098 211.923L75.7347 183.543C75.2404 183.16 74.7799 182.732 74.3634 182.259L74.3481 182.246L74.3498 182.244C73.2866 181.039 72.4909 179.564 72.0896 177.891C70.7877 172.435 74.1534 166.954 79.6101 165.651C82.0854 165.06 84.5623 165.437 86.6549 166.528L86.66 166.521L125.898 188.307C142.856 197.72 155.079 213.825 159.585 232.688L164.606 253.706C168.006 267.938 159.226 282.23 144.994 285.63C139.493 286.944 133.989 286.422 129.103 284.486C127.765 283.956 126.475 283.324 125.245 282.588L45.2548 243.25C34.5971 238.008 26.8294 228.287 24.0697 216.733L4.54548 135.008H4.54717Z" fill="white"/>
<path d="M167.635 262.853L163.138 272.026L159.134 270.275L160.822 263.312L158.543 263.363L163.348 255.981L167.755 257.239L167.635 262.853Z" fill="#E2BDAA"/>
<path d="M131.862 169.924L117.979 165.81L124.664 183.807L157.058 220.829L156.777 217.806L160.489 256.147L169.081 260.707L179.224 213.259L131.862 169.924Z" fill="#474EBB"/>
<path d="M29.1792 237.898L36.4085 236.805L34.4395 224.995L23.0064 220.292L18.1846 229.801L29.1792 237.898Z" fill="#E2BDAA"/>
<path d="M181.068 169.804L182.168 162.574L193.977 164.557L198.667 175.995L189.152 180.805L181.068 169.804Z" fill="#E2BDAA"/>
<path d="M356.071 171.035L356.481 163.734L344.516 163.243L337.574 173.471L345.894 180.138L356.071 171.035Z" fill="#E2BDAA"/>
<path d="M460.509 160.378L512.235 216.454L472.92 249.834L467.106 242.823L482.503 210.826L452.346 184.239L460.509 160.378Z" fill="#EBB044"/>
<path d="M473.383 300.119L475.716 354.268L468.872 446.341L458.633 447.067L446.191 363.444L428.977 292.683L473.383 300.119Z" fill="#775CA6"/>
<path d="M458.997 451.383L470.465 456.132L475.609 450.201L469.678 445.058L458.604 445.845L458.997 451.383Z" fill="#3B455A"/>
<path d="M400.888 280.957L398.639 321.888L405.308 443.589L415.563 444.102L430.931 364.282L444.485 276.748L400.888 280.957Z" fill="#775CA6"/>
<path d="M415.287 448.423L403.924 453.414L398.655 447.592L404.477 442.325L415.565 442.878L415.287 448.423Z" fill="#3B455A"/>
<path d="M460.508 160.379L428.511 156.95C428.511 156.95 410.711 158.853 398.633 201.127C391.913 224.645 389.868 261.701 389.375 289.951C390.13 293.98 394.52 311.632 413.084 308.639C444.965 303.497 461.934 298.354 475.817 300.925C487.643 303.497 486.644 287.213 485.344 274.788L480.63 236.341L460.508 160.379Z" fill="#EBB044"/>
<path d="M454.329 120.549C446.263 118.772 437.964 117.179 429.89 118.777C428.122 119.127 426.224 119.744 425.264 121.269C424.892 121.862 424.697 122.542 424.514 123.216C422.478 130.791 419.892 142.017 424.878 148.994C425.83 150.325 427.106 151.381 428.478 152.24C430.313 153.386 432.343 154.165 434.444 154.58C434.009 156.462 433.405 158.306 432.638 160.08C434.485 162.864 443.097 163.197 444.689 160.529C444.778 158.22 444.868 155.91 444.958 153.601C446.004 153.176 447.018 152.661 447.968 152.035C451.651 149.612 454.077 145.933 455.484 141.816C457.017 137.336 459.176 133.075 460.578 128.507C461.089 126.842 461.49 124.943 460.615 123.439C459.684 121.838 457.673 121.293 455.864 120.89C455.353 120.776 454.842 120.663 454.329 120.549Z" fill="#B77858"/>
<path d="M427.486 124.88C431.471 122.315 437.453 121.213 441.201 121.484C452.533 122.305 456.684 130.626 457.288 141.045C460.41 137.077 466.27 132.087 466.622 126.981C466.913 122.802 466.334 117.104 463.993 113.494C461.802 110.118 456.2 108.263 452.869 106.305C449.729 104.462 446.588 102.616 443.448 100.771C442.796 100.388 442.124 99.9971 441.377 99.8684C440.495 99.7143 439.594 99.9412 438.727 100.165C431.305 102.083 423.884 104.001 416.462 105.919C415.037 106.287 413.411 106.825 412.886 108.202C412.566 109.038 412.754 109.974 412.946 110.848C413.789 114.701 415.406 118.641 415.807 122.543C416.259 124.81 417.612 136.433 421.628 135.091C422.806 133.164 422.982 130.789 423.901 128.725C424.58 127.199 425.869 125.919 427.486 124.88Z" fill="#292949"/>
<path d="M428.512 156.95L416.684 160.55L373.493 205.8L370.921 220.712L391.569 254.803L397.145 242.307L388.403 217.113L402.286 207.342L420.798 165.691L428.512 156.95Z" fill="#E0E0E1"/>
<path d="M503.783 131.539C504.709 125.525 500.6 119.892 494.585 118.941C488.556 117.988 482.896 122.103 481.943 128.134V128.146L467.267 173.848C463.812 184.607 456.07 193.464 445.867 198.323L408.52 216.115L436.586 185.461C437.046 185.039 437.473 184.579 437.852 184.076L437.866 184.061L437.864 184.059C438.833 182.774 439.51 181.242 439.779 179.544C440.654 174.002 436.872 168.799 431.331 167.924C428.817 167.528 426.377 168.097 424.376 169.346L424.369 169.341L386.944 194.111C370.77 204.814 359.835 221.819 356.81 240.976L353.437 262.32C351.153 276.774 361.018 290.34 375.472 292.624C381.059 293.506 386.504 292.558 391.226 290.247C392.518 289.614 393.755 288.884 394.925 288.054L471.613 242.618C481.833 236.564 488.822 226.268 490.674 214.535L503.786 131.539H503.783Z" fill="white"/>
<path d="M354.163 234.364L360.515 230.745L366.285 241.235L360.224 252.008L350.548 247.531L354.163 234.364Z" fill="#B77858"/>
<path d="M484.31 242.305L485.777 235.141L474.011 232.918L465.657 242.029L472.92 249.834L484.31 242.305Z" fill="#B77858"/>
</svg>
