<svg width="574" height="536" viewBox="0 0 574 536" fill="none" xmlns="http://www.w3.org/2000/svg">
<path d="M144.42 520.95C144.42 529.18 240.41 535.84 358.83 535.84C477.24 535.84 573.24 529.18 573.24 520.95C573.24 512.73 477.24 506.07 358.83 506.07C240.41 506.07 144.42 512.73 144.42 520.95Z" fill="#009DAA"/>
<path d="M176.98 177.28L158.6 211.8C158.6 211.8 148.12 196.43 148.9 184.15C149.69 171.56 156.47 164.63 166.33 166.63C174.89 168.36 176.98 177.28 176.98 177.28Z" fill="#E45353"/>
<path d="M176.98 177.28L158.6 211.8C158.6 211.8 177.2 211.91 186.95 204.42C196.96 196.73 198.93 187.24 191.76 180.17C185.55 174.04 176.98 177.28 176.98 177.28Z" fill="#D73131"/>
<path d="M42.1901 138.37L56.0601 167.89C56.0601 167.89 40.5701 167.2 32.7601 160.56C24.7401 153.74 23.5001 145.75 29.7601 140.16C35.1901 135.32 42.1901 138.37 42.1901 138.37Z" fill="#E45353"/>
<path d="M42.1899 138.37L56.0599 167.89C56.0599 167.89 65.4299 155.52 65.2999 145.27C65.1599 134.75 59.7999 128.69 51.4999 129.95C44.3099 131.03 42.1899 138.37 42.1899 138.37Z" fill="#D73131"/>
<path d="M150.69 34.1602L164.56 63.6702C164.56 63.6702 149.07 62.9902 141.25 56.3402C133.24 49.5302 132 41.5402 138.26 35.9502C143.69 31.1102 150.69 34.1602 150.69 34.1602Z" fill="#E45353"/>
<path d="M150.69 34.1602L164.56 63.6702C164.56 63.6702 173.92 51.3102 173.79 41.0502C173.66 30.5302 168.3 24.4802 160 25.7302C152.81 26.8202 150.69 34.1602 150.69 34.1602Z" fill="#D73131"/>
<path d="M112.47 123.68L106.45 141.48C106.45 141.48 100.29 135.01 99.7 129.13C99.09 123.1 101.76 119.29 106.6 119.47C110.78 119.62 112.47 123.68 112.47 123.68Z" fill="#E45353"/>
<path d="M112.47 123.68L106.45 141.48C106.45 141.48 115.27 140.08 119.32 135.76C123.46 131.34 123.65 126.69 119.7 123.9C116.28 121.48 112.47 123.68 112.47 123.68Z" fill="#D73131"/>
<path d="M240.52 81.8301L254.4 111.35C254.4 111.35 238.9 110.66 231.09 104.01C223.08 97.2001 221.84 89.2101 228.1 83.6201C233.52 78.7801 240.52 81.8301 240.52 81.8301Z" fill="#E45353"/>
<path d="M240.52 81.8301L254.4 111.35C254.4 111.35 263.76 98.9801 263.63 88.7201C263.49 78.2001 258.13 72.1501 249.83 73.4001C242.64 74.4901 240.52 81.8301 240.52 81.8301Z" fill="#D73131"/>
<path d="M327.19 11.2099L308.78 38.1299C308.78 38.1299 301.51 24.4299 303.28 14.3299C305.1 3.95994 311.35 -1.16006 319.35 1.40994C326.27 3.62994 327.19 11.2099 327.19 11.2099Z" fill="#E45353"/>
<path d="M327.19 11.2099L308.78 38.1299C308.78 38.1299 324.18 39.9299 332.96 34.6199C341.96 29.1699 344.46 21.4899 339.17 14.9699C334.59 9.31993 327.19 11.2099 327.19 11.2099Z" fill="#D73131"/>
<path d="M239.2 13.7498L233.18 31.5498C233.18 31.5498 227.02 25.0798 226.43 19.2098C225.82 13.1798 228.49 9.35979 233.32 9.53979C237.51 9.69979 239.2 13.7498 239.2 13.7498Z" fill="#E45353"/>
<path d="M239.2 13.7501L233.18 31.5501C233.18 31.5501 242 30.1501 246.04 25.8401C250.18 21.4101 250.37 16.7601 246.43 13.9701C243.01 11.5601 239.2 13.7501 239.2 13.7501Z" fill="#D73131"/>
<path d="M10.6899 227.53L16.7099 245.32C16.7099 245.32 22.8699 238.86 23.4599 232.98C24.0699 226.95 21.3899 223.14 16.5599 223.32C12.3799 223.47 10.6899 227.53 10.6899 227.53Z" fill="#E45353"/>
<path d="M10.6901 227.53L16.7101 245.32C16.7101 245.32 7.88006 243.92 3.84006 239.61C-0.299937 235.19 -0.489937 230.54 3.46006 227.75C6.88006 225.33 10.6901 227.53 10.6901 227.53Z" fill="#D73131"/>
<path d="M376.9 53.54L377.79 86.15C377.79 86.15 391.32 78.57 395.31 69.12C399.4 59.42 396.92 51.73 388.81 49.56C381.78 47.67 376.9 53.54 376.9 53.54Z" fill="#E45353"/>
<path d="M376.9 53.54L377.79 86.15C377.79 86.15 363.87 79.32 359.37 70.1C354.76 60.64 356.82 52.82 364.8 50.21C371.71 47.95 376.9 53.54 376.9 53.54Z" fill="#D73131"/>
<path d="M283.08 159.78L289.1 177.57C289.1 177.57 295.26 171.11 295.85 165.23C296.46 159.2 293.79 155.38 288.96 155.56C284.77 155.71 283.08 159.78 283.08 159.78Z" fill="#D73131"/>
<path d="M283.08 159.78L289.1 177.57C289.1 177.57 280.28 176.17 276.24 171.86C272.09 167.43 271.9 162.78 275.85 159.99C279.27 157.57 283.08 159.78 283.08 159.78Z" fill="#D73131"/>
<path d="M215.71 518.15H550.36V324.71H215.71V518.15Z" fill="#D3845A"/>
<path d="M215.71 349.56H550.36V324.71H215.71V349.56Z" fill="#BB7652"/>
<path d="M206.15 332.23H559.92V307.67H206.15V332.23Z" fill="#D3845A"/>
<path d="M559.92 307.67H206.15L281.35 230.15H489.85L559.92 307.67Z" fill="#D69C60"/>
<path d="M334.69 261.4L323.41 273.03H442.66L432.15 261.4H334.69Z" fill="#B06245"/>
<path d="M338.52 265.85H436.19L432.15 261.4H334.69L323.41 273.03H331.56L338.52 265.85Z" fill="#7F4637"/>
<path d="M403.37 383.4C383.39 377.46 368.95 393.9 368.95 393.9C368.95 393.9 354.52 377.46 334.54 383.4C311.49 390.27 304.98 412.49 317.45 439.94C329.61 466.69 368.95 487.34 368.95 487.34C368.95 487.34 408.3 466.69 420.46 439.94C432.93 412.49 426.41 390.27 403.37 383.4Z" fill="#7F4637"/>
<path d="M377.1 388.45V481.9C377.1 481.9 337.75 461.25 325.6 434.49C313.12 407.05 319.64 384.82 342.69 377.96C362.66 372.01 377.1 388.45 377.1 388.45Z" fill="#E45353"/>
<path d="M377.1 388.45V481.9C377.1 481.9 416.44 461.25 428.6 434.49C441.07 407.05 434.56 384.82 411.51 377.96C391.53 372.01 377.1 388.45 377.1 388.45Z" fill="#F03838"/>
<path d="M441.01 210.8C424.8 220.19 393.43 213.93 393.43 213.93L394.1 187.18L442.69 175.98C442.69 175.98 457.21 201.42 441.01 210.8Z" fill="#C3886C"/>
<path d="M463.79 184.71C450.63 196.07 419.82 198.27 419.82 198.27L416.78 171.69L458.56 154.44C458.56 154.44 476.95 173.36 463.79 184.71Z" fill="#C3886C"/>
<path d="M476.14 163.57C462.98 174.92 432.17 177.13 432.17 177.13L429.13 150.55L470.91 133.29C470.91 133.29 489.3 152.21 476.14 163.57Z" fill="#C3886C"/>
<path d="M493.79 56.3398L529.26 93.1998L451.53 140.03L409.69 167.71C409.69 167.71 407.8 191.19 417.47 197.49C433.45 207.92 417.7 233.67 397.28 225.84C376.86 218.02 344.06 192.28 347.97 174.76C351.88 157.23 385.15 108.66 394.13 100.51C410.52 85.6298 493.79 56.3398 493.79 56.3398Z" fill="#F7B995"/>
<path d="M507.32 98.0702C489.72 98.8002 472.21 99.7502 454.7 101.71C451.64 102.05 449.52 100.54 448.44 98.4402C438.52 102.47 430.57 109.04 423.83 118.17C415.48 129.47 407.85 140.45 397.69 150.23C389.72 157.9 379.07 166.86 378.39 178.79C378.33 179.88 377.97 186.59 379.91 186.86C382.92 187.28 386.05 185.85 388.72 184.62C395.62 181.42 401.82 176.97 408.61 173.55C408.93 173.39 409.24 173.27 409.54 173.16C409.51 169.92 409.69 167.71 409.69 167.71L451.53 140.03L521.63 97.7902C520.68 97.6802 519.73 97.5602 518.78 97.4302C514.87 97.6402 511.02 97.9202 507.32 98.0702Z" fill="#DCA786"/>
<path d="M405.98 123.7L427.44 155.27L433.51 151.95L405.98 123.7Z" fill="#C3886C"/>
<path d="M357.52 180.31L395.61 182.84L396.73 176.02L357.52 180.31Z" fill="#C3886C"/>
<path d="M366.39 186.66L421.55 260.24C421.55 260.24 378.38 267.2 353.01 253.3C326.99 239.06 319.01 217.71 333.1 198.71C345.32 182.23 366.39 186.66 366.39 186.66Z" fill="#F16565"/>
<path d="M366.39 186.66L421.55 260.24C421.55 260.24 440.34 220.75 434.12 192.51C427.74 163.54 409.49 149.88 387.29 158.08C368.05 165.19 366.39 186.66 366.39 186.66Z" fill="#D73131"/>
<path d="M447.95 94.3602L529.26 93.2002C529.26 93.2002 499.14 112.1 494.9 120.11C488.35 132.44 492.01 140.85 472.22 156.02C453.95 170.02 426.97 187.57 404.29 198.31C386.55 206.71 369.86 192.85 383.37 178.83C394.01 167.78 408.46 156.85 417.4 148.94C426.34 141.04 424.81 110.38 447.95 94.3602Z" fill="#F7B995"/>
<path d="M532.1 20.6001L475.54 55.0301L516.2 111.11L532.1 103.28V20.6001Z" fill="#00AFA9"/>
</svg>
