<svg width="573" height="536" viewBox="0 0 573 536" fill="none" xmlns="http://www.w3.org/2000/svg">
<path d="M143.807 520.196C143.807 528.426 239.797 535.086 358.217 535.086C476.627 535.086 572.627 528.426 572.627 520.196C572.627 511.976 476.627 505.316 358.217 505.316C239.797 505.316 143.807 511.976 143.807 520.196Z" fill="#775CA6"/>
<path d="M176.367 176.526L157.987 211.046C157.987 211.046 147.507 195.676 148.287 183.396C149.077 170.806 155.857 163.876 165.717 165.876C174.277 167.606 176.367 176.526 176.367 176.526Z" fill="#E45353"/>
<path d="M176.368 176.526L157.988 211.046C157.988 211.046 176.588 211.156 186.338 203.666C196.348 195.976 198.318 186.486 191.148 179.416C184.938 173.286 176.368 176.526 176.368 176.526Z" fill="#D73131"/>
<path d="M41.5775 137.616L55.4475 167.136C55.4475 167.136 39.9575 166.446 32.1475 159.806C24.1275 152.986 22.8875 144.996 29.1475 139.406C34.5775 134.566 41.5775 137.616 41.5775 137.616Z" fill="#E45353"/>
<path d="M41.5774 137.616L55.4474 167.136C55.4474 167.136 64.8174 154.766 64.6874 144.516C64.5474 133.996 59.1874 127.936 50.8874 129.196C43.6974 130.276 41.5774 137.616 41.5774 137.616Z" fill="#D73131"/>
<path d="M150.078 33.4063L163.948 62.9163C163.948 62.9163 148.458 62.2363 140.638 55.5863C132.628 48.7763 131.388 40.7863 137.648 35.1963C143.078 30.3563 150.078 33.4063 150.078 33.4063Z" fill="#E45353"/>
<path d="M150.077 33.4063L163.947 62.9163C163.947 62.9163 173.307 50.5563 173.177 40.2963C173.047 29.7763 167.687 23.7263 159.387 24.9763C152.197 26.0663 150.077 33.4063 150.077 33.4063Z" fill="#D73131"/>
<path d="M111.857 122.926L105.837 140.726C105.837 140.726 99.6775 134.256 99.0875 128.376C98.4775 122.346 101.147 118.536 105.987 118.716C110.167 118.866 111.857 122.926 111.857 122.926Z" fill="#E45353"/>
<path d="M111.857 122.926L105.837 140.726C105.837 140.726 114.657 139.326 118.707 135.006C122.847 130.586 123.037 125.936 119.087 123.146C115.667 120.726 111.857 122.926 111.857 122.926Z" fill="#D73131"/>
<path d="M239.907 81.0762L253.787 110.596C253.787 110.596 238.287 109.906 230.477 103.256C222.467 96.4462 221.227 88.4562 227.487 82.8662C232.907 78.0262 239.907 81.0762 239.907 81.0762Z" fill="#E45353"/>
<path d="M239.907 81.0762L253.787 110.596C253.787 110.596 263.147 98.2262 263.017 87.9662C262.877 77.4462 257.517 71.3962 249.217 72.6462C242.027 73.7362 239.907 81.0762 239.907 81.0762Z" fill="#D73131"/>
<path d="M326.577 10.456L308.167 37.376C308.167 37.376 300.897 23.676 302.667 13.576C304.487 3.20603 310.737 -1.91397 318.737 0.656034C325.657 2.87603 326.577 10.456 326.577 10.456Z" fill="#E45353"/>
<path d="M326.577 10.456L308.167 37.376C308.167 37.376 323.567 39.176 332.347 33.866C341.347 28.416 343.847 20.736 338.557 14.216C333.977 8.56603 326.577 10.456 326.577 10.456Z" fill="#D73131"/>
<path d="M238.587 12.9959L232.567 30.7959C232.567 30.7959 226.407 24.3259 225.817 18.4559C225.207 12.4259 227.877 8.60588 232.707 8.78588C236.897 8.94588 238.587 12.9959 238.587 12.9959Z" fill="#E45353"/>
<path d="M238.587 12.9962L232.567 30.7962C232.567 30.7962 241.387 29.3962 245.427 25.0862C249.567 20.6562 249.757 16.0062 245.817 13.2162C242.397 10.8062 238.587 12.9962 238.587 12.9962Z" fill="#D73131"/>
<path d="M10.0774 226.776L16.0974 244.566C16.0974 244.566 22.2574 238.106 22.8474 232.226C23.4574 226.196 20.7774 222.386 15.9474 222.566C11.7674 222.716 10.0774 226.776 10.0774 226.776Z" fill="#E45353"/>
<path d="M10.0775 226.776L16.0975 244.566C16.0975 244.566 7.26751 243.166 3.22751 238.856C-0.912486 234.436 -1.10249 229.786 2.84751 226.996C6.26751 224.576 10.0775 226.776 10.0775 226.776Z" fill="#D73131"/>
<path d="M376.287 52.7861L377.177 85.3961C377.177 85.3961 390.707 77.8161 394.697 68.3661C398.787 58.6661 396.307 50.9761 388.197 48.8061C381.167 46.9161 376.287 52.7861 376.287 52.7861Z" fill="#E45353"/>
<path d="M376.287 52.7861L377.177 85.3961C377.177 85.3961 363.257 78.5661 358.757 69.3461C354.147 59.8861 356.207 52.0661 364.187 49.4561C371.097 47.1961 376.287 52.7861 376.287 52.7861Z" fill="#D73131"/>
<path d="M282.468 159.026L288.488 176.816C288.488 176.816 294.648 170.356 295.238 164.476C295.848 158.446 293.178 154.626 288.348 154.806C284.158 154.956 282.468 159.026 282.468 159.026Z" fill="#D73131"/>
<path d="M282.468 159.026L288.488 176.816C288.488 176.816 279.668 175.416 275.628 171.106C271.478 166.676 271.288 162.026 275.238 159.236C278.658 156.816 282.468 159.026 282.468 159.026Z" fill="#D73131"/>
<path d="M215.097 517.396H549.747V323.956H215.097V517.396Z" fill="#D3845A"/>
<path d="M215.097 348.806H549.747V323.956H215.097V348.806Z" fill="#BB7652"/>
<path d="M205.537 331.476H559.307V306.916H205.537V331.476Z" fill="#D3845A"/>
<path d="M559.307 306.916H205.537L280.737 229.396H489.237L559.307 306.916Z" fill="#D69C60"/>
<path d="M334.077 260.646L322.797 272.276H442.047L431.537 260.646H334.077Z" fill="#B06245"/>
<path d="M337.907 265.096H435.577L431.537 260.646H334.077L322.797 272.276H330.947L337.907 265.096Z" fill="#7F4637"/>
<path d="M402.758 382.646C382.778 376.706 368.338 393.146 368.338 393.146C368.338 393.146 353.908 376.706 333.928 382.646C310.878 389.516 304.368 411.736 316.838 439.186C328.998 465.936 368.338 486.586 368.338 486.586C368.338 486.586 407.688 465.936 419.848 439.186C432.318 411.736 425.798 389.516 402.758 382.646Z" fill="#7F4637"/>
<path d="M376.487 387.696V481.146C376.487 481.146 337.137 460.496 324.987 433.736C312.507 406.296 319.027 384.066 342.077 377.206C362.047 371.256 376.487 387.696 376.487 387.696Z" fill="#E45353"/>
<path d="M376.488 387.696V481.146C376.488 481.146 415.828 460.496 427.988 433.736C440.458 406.296 433.948 384.066 410.898 377.206C390.918 371.256 376.488 387.696 376.488 387.696Z" fill="#F03838"/>
<path d="M440.397 210.046C424.187 219.436 392.817 213.176 392.817 213.176L393.487 186.426L442.077 175.226C442.077 175.226 456.597 200.666 440.397 210.046Z" fill="#C3886C"/>
<path d="M463.177 183.956C450.017 195.316 419.207 197.516 419.207 197.516L416.167 170.936L457.947 153.686C457.947 153.686 476.337 172.606 463.177 183.956Z" fill="#C3886C"/>
<path d="M475.527 162.816C462.367 174.166 431.557 176.376 431.557 176.376L428.517 149.796L470.297 132.536C470.297 132.536 488.687 151.456 475.527 162.816Z" fill="#C3886C"/>
<path d="M493.178 55.5859L528.648 92.4459L450.918 139.276L409.078 166.956C409.078 166.956 407.188 190.436 416.858 196.736C432.838 207.166 417.088 232.916 396.668 225.086C376.248 217.266 343.448 191.526 347.358 174.006C351.268 156.476 384.538 107.906 393.518 99.7559C409.908 84.8759 493.178 55.5859 493.178 55.5859Z" fill="#F7B995"/>
<path d="M506.707 97.3163C489.107 98.0463 471.597 98.9963 454.087 100.956C451.027 101.296 448.907 99.7863 447.827 97.6863C437.907 101.716 429.957 108.286 423.217 117.416C414.867 128.716 407.238 139.696 397.078 149.476C389.108 157.146 378.458 166.106 377.778 178.036C377.718 179.126 377.358 185.836 379.298 186.106C382.308 186.526 385.438 185.096 388.108 183.866C395.008 180.666 401.208 176.216 407.998 172.796C408.318 172.636 408.628 172.516 408.928 172.406C408.898 169.166 409.078 166.956 409.078 166.956L450.917 139.276L521.017 97.0363C520.067 96.9263 519.117 96.8063 518.167 96.6763C514.257 96.8863 510.407 97.1663 506.707 97.3163Z" fill="#DCA786"/>
<path d="M405.367 122.946L426.827 154.516L432.897 151.196L405.367 122.946Z" fill="#C3886C"/>
<path d="M356.907 179.556L394.997 182.086L396.117 175.266L356.907 179.556Z" fill="#C3886C"/>
<path d="M365.777 185.906L420.937 259.486C420.937 259.486 377.767 266.446 352.397 252.546C326.377 238.306 318.397 216.956 332.487 197.956C344.707 181.476 365.777 185.906 365.777 185.906Z" fill="#F16565"/>
<path d="M365.778 185.906L420.938 259.486C420.938 259.486 439.728 219.996 433.508 191.756C427.128 162.786 408.878 149.126 386.678 157.326C367.438 164.436 365.778 185.906 365.778 185.906Z" fill="#D73131"/>
<path d="M447.338 93.6063L528.648 92.4463C528.648 92.4463 498.528 111.346 494.288 119.356C487.738 131.686 491.398 140.096 471.608 155.266C453.338 169.266 426.358 186.816 403.678 197.556C385.938 205.956 369.248 192.096 382.758 178.076C393.398 167.026 407.848 156.096 416.788 148.186C425.728 140.286 424.198 109.626 447.338 93.6063Z" fill="#F7B995"/>
<path d="M531.487 19.8462L474.927 54.2762L515.587 110.356L531.487 102.526V19.8462Z" fill="#775CA6"/>
</svg>
