<svg width="204" height="60" viewBox="0 0 204 60" fill="none" xmlns="http://www.w3.org/2000/svg">
<path d="M10.3641 21.8008C10.2155 21.7186 10.061 21.6332 9.90658 21.5494C9.98544 21.4706 10.0816 21.3145 10.1399 21.3276C10.305 21.3646 10.4578 21.4706 10.6155 21.5494C10.5366 21.6283 10.4578 21.7055 10.3641 21.8008ZM7.77982 18.0048C7.8595 17.9276 7.95479 17.7707 8.01311 17.7838C8.18069 17.82 8.33102 17.9276 8.48874 18.0048C8.40988 18.0829 8.31377 18.2398 8.25544 18.2266C8.08951 18.1905 7.93754 18.0829 7.77982 18.0048ZM18.6626 16.3364C18.8104 16.4177 18.9657 16.504 19.1193 16.5886C19.0404 16.6667 18.9443 16.8236 18.886 16.8104C18.7184 16.7734 18.5681 16.6667 18.4104 16.5886C18.4892 16.5089 18.5681 16.4301 18.6626 16.3364ZM12.3874 13.3989C12.4671 13.4786 12.6223 13.5738 12.61 13.633C12.5722 13.7981 12.4671 13.9501 12.3874 14.1078C12.3085 14.0298 12.1525 13.9328 12.1656 13.8745C12.2034 13.7069 12.3085 13.5566 12.3874 13.3989ZM17.7014 11.6278C17.7803 11.5481 17.8764 11.3929 17.9347 11.4052C18.1023 11.4438 18.2526 11.5489 18.4104 11.6278C18.3315 11.7058 18.2354 11.8627 18.1771 11.8496C18.0095 11.811 17.8592 11.7058 17.7014 11.6278ZM11.934 23.7394C12.2124 23.5546 12.4022 23.3254 12.5681 23.3443C12.8712 23.3755 13.1563 23.5546 13.4504 23.6729C13.2713 23.7912 13.0889 24.0089 12.914 24.0064C12.6092 23.9966 12.3085 23.8503 11.934 23.7394ZM13.5941 21.2217C13.8537 21.3835 14.1396 21.487 14.1338 21.5716C14.1133 21.8838 13.9966 22.1902 13.9161 22.4982C13.7617 22.4103 13.4799 22.3298 13.4734 22.2312C13.4545 21.9207 13.5391 21.6053 13.5941 21.2217ZM14.4485 14.0084C14.6308 14.2861 14.86 14.4783 14.8436 14.6417C14.8091 14.9449 14.6308 15.2324 14.5125 15.5256C14.3959 15.3457 14.1757 15.1626 14.1815 14.9876C14.1889 14.6828 14.3376 14.3838 14.4485 14.0084ZM22.5177 4.52133C22.7428 3.97999 22.8241 3.78448 22.9046 3.59061C23.059 3.79434 23.2866 3.97834 23.3465 4.20589C23.3901 4.36772 23.2093 4.58951 23.1288 4.78338C22.8791 4.67659 22.6269 4.56815 22.5177 4.52133ZM15.2083 19.0431C15.3438 19.2534 15.5993 19.504 15.5509 19.5993C15.3857 19.9246 15.1336 20.2187 14.8592 20.461C14.8198 20.4955 14.4715 20.1792 14.2669 20.0248C14.5791 19.6995 14.8912 19.3742 15.2091 19.0431H15.2083ZM10.2237 24.0294C10.1185 24.0294 10.0134 24.0294 9.9074 24.0294C9.97312 23.8446 10.0093 23.64 10.1218 23.4914C10.1563 23.4478 10.4019 23.5645 10.5506 23.6072C10.4414 23.7485 10.3329 23.8881 9.9074 24.0286C9.46381 24.5001 9.09498 25.1031 8.55692 25.4087C8.02461 25.7118 7.33869 24.1806 6.69713 25.4234C6.36279 25.0908 5.74916 24.7507 5.75655 24.4254C5.76805 23.8167 6.14018 23.2145 5.93317 20.907C6.16071 21.4574 6.29215 21.6965 6.35294 21.9528C6.40222 22.1614 6.36444 22.3906 6.36444 22.6099C6.12703 22.4465 5.76066 22.329 5.68919 22.1105C5.60869 21.864 5.79105 21.5297 6.36444 22.6099C6.59937 22.9007 6.81624 23.2104 7.08075 23.47C7.23354 23.6203 7.62209 23.7986 7.63688 23.7789C8.5561 22.4662 9.14509 24.073 10.2228 24.0286L10.2237 24.0294ZM0.695523 28.9902C0.616663 30.2019 1.33709 31.0965 1.95318 32.005C4.51615 35.7837 7.098 39.5526 9.70204 43.3042C11.9323 46.5161 14.0887 49.788 16.507 52.8521C17.4583 54.0572 18.472 55.3485 20.1157 56.0139C20.8846 56.326 21.1573 56.4895 21.6707 55.8594C22.4043 54.955 22.7083 55.1908 22.6902 56.2735C22.6861 56.3885 23.0286 56.5306 23.2282 56.6234C25.1201 57.4827 27.4391 57.4301 28.8413 59.4139C29.0647 59.7294 30.3717 59.6719 30.8136 59.3236C31.1972 59.0213 31.0905 58.0675 31.1521 57.3964C31.171 57.1976 31.0905 56.9142 30.9492 56.7877C30.2123 56.1199 30.2986 55.3888 30.7052 54.6084C31.2055 55.0372 31.7148 55.4561 32.1994 55.9005C32.3596 56.0467 32.5453 56.2521 32.5683 56.4476C32.6767 57.3759 33.1811 57.9739 34.0855 58.0158C34.7739 58.047 35.9699 56.3433 36.1433 55.5128C36.4218 54.1779 35.91 52.9934 35.2931 51.9698C34.479 50.6226 33.407 49.4052 32.3259 48.2428C28.3525 43.9745 24.3323 39.753 20.3277 35.5151C20.0024 35.1726 19.6039 34.8842 19.3477 34.499C19.1842 34.2525 19.1571 33.8673 19.1916 33.5567C19.2047 33.4327 19.5432 33.2692 19.7428 33.2553C20.3293 33.2158 20.9347 33.321 21.5065 33.2241C22.5012 33.0532 23.4624 34.9721 24.453 33.261C25.4626 34.5006 26.8451 33.8286 28.0634 33.9289C29.2348 34.0266 30.4193 33.951 31.5981 33.951C32.8977 33.951 34.1948 33.951 35.4927 33.951C36.6715 33.951 37.8511 33.951 39.0299 33.951C40.327 33.951 41.6249 33.951 42.922 33.951C44.1032 33.951 45.2837 33.9124 46.4617 33.9609C47.684 34.0118 48.8275 33.6808 50.1361 33.8352C54.3896 34.3371 58.6053 32.9135 62.9271 33.1394C64.3055 33.2134 65.6387 31.844 67.1789 31.5286C67.5363 31.4546 67.9084 30.6611 67.9856 30.1551C68.2863 28.1885 66.9415 26.5365 64.6086 26.1833C62.2485 25.8243 59.8589 25.5573 57.4742 25.4809C54.7198 25.3922 52.0829 24.45 49.2719 24.6891C46.5775 24.9182 43.7591 25.1737 41.1599 24.6307C37.8076 23.9276 34.4995 24.1124 31.1677 24.0442C27.8654 23.9785 24.5615 24.0311 21.26 24.0311C20.6694 24.0311 20.0673 24.0984 19.498 23.9892C19.323 23.9547 19.0585 23.2523 19.1505 23.1562C20.3277 21.9289 21.2337 20.7066 19.8496 19.0407C19.7855 18.9651 20.0278 18.4763 20.0845 18.4854C20.4796 18.5404 21.1918 18.6644 21.1959 18.7885C21.2485 20.2269 21.9574 19.7545 22.2638 19.067C23.5388 16.1886 25.7091 13.8737 27.1852 11.1826C28.3188 9.11659 29.7745 7.09661 30.2879 4.70123C30.4588 3.8962 31.1052 2.80776 29.4245 2.68125C29.349 2.6755 29.5371 1.32913 29.0499 0.689207C28.9234 0.525736 28.8988 0.283405 28.8273 0.076396C28.6622 0.270261 28.5341 0.538879 28.3254 0.640741C27.4078 1.08351 28.2802 2.92194 26.6406 2.80119C26.6258 2.79954 26.4697 3.35075 26.5658 3.44111C26.8205 3.67604 27.1787 3.79844 27.4949 3.96356C27.0554 4.03913 26.6053 4.19521 26.1748 4.15742C25.9358 4.13689 25.5563 3.81323 25.53 3.58979C25.4454 2.89155 25.5505 2.17277 25.4807 1.47206C25.4314 0.973433 25.2186 0.490413 25.0798 0C24.7471 0.334335 24.1516 0.652241 24.1302 1.00383C24.0661 2.10952 23.9758 1.97644 23.0319 1.51313C22.2951 1.15169 21.1228 -0.412374 20.1773 1.38334C19.7395 2.22041 17.938 1.71932 18.3364 3.437C18.4358 3.8617 17.584 4.48601 17.2077 5.04707C16.6869 5.82663 16.3296 5.35511 15.9517 4.91892C16.0117 5.92028 14.4756 6.26529 14.9882 7.56238C15.3627 8.50871 15.1442 8.63275 14.4148 8.32388C14.1117 8.19902 13.8225 7.72914 13.6106 7.77925C13.2836 7.85565 12.7579 8.43888 12.7809 8.47092C13.4298 9.36056 13.1793 9.64068 12.2017 10.1648C11.2562 10.6708 10.6582 11.8233 9.76693 12.9438C9.99859 12.8896 10.1218 12.7047 10.2368 12.7088C10.5432 12.7203 10.848 12.8124 11.1527 12.874C11.1108 13.0284 11.0698 13.32 11.0303 13.32C10.6508 13.3143 10.2688 13.2617 9.76693 12.9438C9.43588 13.3693 8.99394 14.07 8.48052 14.7116C8.05747 15.2406 7.41591 15.6275 7.10375 16.205C6.67495 16.9985 5.6128 17.9013 7.05118 18.8098C7.12265 18.855 6.88031 19.4021 6.7842 19.7143C6.40797 19.5804 5.71384 19.4695 5.7048 19.3118C5.59801 17.7321 5.01642 18.6234 4.59747 19.0941C4.39621 19.3216 4.22288 19.7077 4.26067 19.9928C4.44386 21.4237 3.96002 22.1433 2.42388 21.984C2.35241 21.9774 2.17416 22.5582 2.13801 22.8736C2.12487 22.9804 2.39924 23.1217 2.54217 23.2466C2.95044 22.6502 3.39403 22.5631 3.77929 23.2351C3.99205 23.6072 4.16456 24.0376 4.2122 24.4574C4.24588 24.7548 4.04134 25.0776 3.94276 25.3906C3.80558 25.1351 3.59857 24.8928 3.54271 24.6176C3.35213 23.7132 2.65307 24.0762 2.1454 24.0442C1.19908 23.9875 1.42087 24.7285 1.4102 25.2608C1.38966 26.318 1.44059 27.381 1.37323 28.4333C1.36009 28.6345 0.931283 28.8079 0.696345 28.9935L0.695523 28.9902Z" fill="#775CA6"/>
<path d="M179.974 30.4063C184.931 30.4063 189.896 30.2502 194.841 30.4704C197.445 30.587 199.687 29.5848 202.03 28.9301C204.095 28.3526 204.533 26.4723 203.361 24.6076C202.694 23.5438 201.316 23.5282 200.473 23.4436C197.747 23.1676 195.013 22.7462 192.297 22.4603C187.658 21.9732 182.972 22.4373 178.436 21.7538C174.714 21.1911 171.059 21.3349 167.376 21.2199C163.722 21.1065 160.038 20.9488 156.409 21.2815C153.938 21.509 151.442 21.9132 149.073 23.2012C147.43 24.0925 148.24 25.1226 148.186 26.0254C148.158 26.5101 149.092 27.4597 149.643 27.5016C151.71 27.6552 153.649 27.9337 155.268 29.3926C155.556 29.6505 156.11 29.6579 156.546 29.6892C159.99 29.9413 163.428 30.2609 166.876 30.3808C170.294 30.4975 173.721 30.4055 177.143 30.4055C178.087 30.4055 179.03 30.4055 179.975 30.4055L179.974 30.4063Z" fill="#775CA6"/>
<path d="M92.5652 29.5957C92.4165 29.5144 92.2621 29.4281 92.1085 29.3435C92.1873 29.2646 92.2835 29.1086 92.3418 29.1217C92.5094 29.1587 92.6597 29.2646 92.8174 29.3435C92.7377 29.4232 92.6589 29.5012 92.5652 29.5957ZM91.6082 31.6461C92.8478 32.1931 92.7254 30.5157 93.0934 30.5699C93.767 30.6693 94.2952 31.5278 94.9885 31.775C95.5603 31.982 96.2092 32.0124 96.4483 30.901C96.6454 29.9908 98.2555 30.1674 98.3302 30.7318C98.511 32.0625 99.2856 31.8909 100.041 31.8071C102.537 31.536 105.151 32.5497 107.535 31.1154C109.272 33.0688 111.645 29.7969 113.375 31.8243C114.396 31.4908 116.068 32.7575 116.35 30.6118C116.517 30.6414 116.773 30.6151 116.834 30.7129C117.052 31.0612 117.184 31.7578 117.389 31.7734C118.679 31.8736 120.17 32.2277 121.231 31.7266C122.71 31.0275 124.125 31.1688 125.584 31.1335C126.379 31.1154 126.996 31.0735 126.866 30.0335C126.862 29.9966 127.202 29.8323 127.342 29.8717C129.092 30.3638 129.085 30.3564 130.514 29.9226C130.94 29.7928 131.397 29.7025 131.836 29.7107C133.06 29.7345 133.711 29.2104 133.941 27.9749C134.129 26.9555 133.435 26.2712 133.249 25.4227C133.042 24.4936 132.397 24.9092 131.935 24.7187C130.883 24.2866 129.772 23.5645 128.71 24.0837C127.602 24.625 126.714 22.6206 125.731 24.0295C124.516 23.2137 123.108 23.4971 121.788 23.268C120.293 23.0092 118.99 23.9728 117.377 23.4265C115.895 22.9262 114.111 23.3214 112.459 23.3214C110.69 23.3214 108.92 23.3214 107.151 23.3214C105.5 23.3214 103.849 23.3214 102.199 23.3214C100.547 23.3214 98.8962 23.3214 97.2451 23.3214C95.7122 23.3214 93.9091 22.8178 92.7172 23.4544C91.3683 24.1765 89.8544 22.1573 88.9245 24.0245C86.9973 21.9807 85.1655 24.7918 83.1028 24.1683C82.1515 23.8808 80.7337 25.0481 79.568 25.6371C79.3832 25.7291 79.3347 26.2647 79.3684 26.5809C79.5072 27.9166 80.9612 29.5924 82.2304 29.6696C83.6236 29.7518 85.0792 29.456 85.9524 30.9725C85.9976 31.0513 86.1381 31.1022 86.2416 31.1137C88.0299 31.2961 89.8199 31.4711 91.6082 31.6477V31.6461Z" fill="#775CA6"/>
<path d="M0.266169 27.2842C0.121592 27.9085 -0.0607726 28.2412 0.0197307 28.4901C0.091198 28.7061 0.45757 28.8261 0.694151 28.9904C0.694151 28.771 0.731117 28.541 0.684294 28.3324C0.624327 28.0769 0.490429 27.8354 0.265348 27.2842H0.266169Z" fill="#775CA6"/>
</svg>
