<svg width="121" height="132" viewBox="0 0 121 132" fill="none" xmlns="http://www.w3.org/2000/svg">
<path d="M16.5385 70.1968C19.6692 69.9116 22.9991 69.5883 24.498 68.1336C27.4864 65.2432 29.0518 66.2606 32.8845 65.3003C34.9716 64.7773 36.0816 59.7381 38.7474 56.6481C40.9673 54.0714 44.3447 52.2934 47.9971 52.6928C49.8755 52.8924 53.5944 53.8908 56.7346 56.7907C58.7838 58.6732 59.7988 62.2292 62.0283 64.7868C64.0016 67.0592 65.8515 69.6074 67.7773 72.1555C69.6747 74.6751 72.6346 76.4911 74.2949 79.0297C76.1353 81.8345 77.4445 84.8391 78.7537 87.3682C80.5467 90.829 80.3096 94.2234 80.5657 96.4482C80.9452 99.6809 80.2906 102.124 78.2319 104.844C76.4863 107.164 74.4277 109.55 71.7713 111.699C69.3711 113.658 67.3694 116.367 64.8459 118.335C62.256 120.361 60.055 122.547 57.9679 124.734C55.0364 127.805 52.5983 129.897 50.5586 130.991C47.9212 132.407 45.3028 129.983 41.2994 128.984C38.9276 128.395 35.6452 129.013 31.8978 127.853C28.4731 126.798 25.2855 125.809 22.7904 124.126C19.9633 122.215 16.8231 120.503 14.736 118.136C12.5445 115.645 11.6053 112.127 9.68896 109.55C7.72517 106.907 6.34957 103.769 4.06322 101.478C2.04251 99.4622 0.258972 97.38 0.0312881 94.6132C-0.177422 92.008 0.714348 89.2127 1.4733 86.5124C2.22276 83.8027 3.34222 81.207 4.49014 78.9346C6.14086 75.6544 8.66438 73.9049 9.66999 72.8876C11.2164 71.3093 13.4742 70.4726 16.5385 70.1968Z" fill="#FFEFAB"/>
<path d="M84.9864 88.7275C83.7056 86.4931 86.3809 83.9355 89.635 81.8628C92.2439 80.2084 95.0805 78.4019 96.9304 77.0613C98.3534 76.0344 100.583 73.4863 103.068 70.6149C105.07 68.295 107.641 66.2413 109.804 64.5584C112.755 62.2669 115.231 61.4588 117.413 64.0069C120.316 67.3917 120.705 71.0523 118.95 74.3515C117.232 77.5842 113.779 80.3035 110.848 82.072C108.96 83.2129 106.161 85.3522 102.841 86.8069C99.9947 88.0524 96.6078 88.4423 93.8377 89.1744C89.7203 90.2678 86.0869 90.6576 84.9864 88.7275Z" fill="#FFEFAB"/>
<path d="M100.526 52.0367C96.2949 55.4881 92.3104 57.7985 91.874 58.369C88.4303 62.8662 85.2522 58.1979 84.1517 53.9193C83.6868 52.0938 85.2047 49.0227 88.4303 45.5428C90.5459 43.2704 92.6899 40.4276 95.147 38.0411C97.7749 35.5025 100.678 33.4297 102.547 31.319C105.431 28.0578 108.685 27.3732 110.971 28.2859C113.656 29.3508 115.487 32.7927 114.87 36.2726C114.491 38.4594 112.053 41.9203 108.732 45.115C106.237 47.5205 103.192 49.8689 100.526 52.0367Z" fill="#FFEFAB"/>
<path d="M85.2619 66.6311C85.5939 68.9511 85.1481 71.3946 84.114 73.4768C82.6815 76.3768 80.4615 78.6967 78.9341 77.898C76.3252 76.5289 71.4584 72.9159 74.0389 67.9718C75.3101 65.5282 77.5775 62.5522 79.9872 61.5634C82.4538 60.5556 84.5314 61.5539 85.2619 66.6311Z" fill="#FFEFAB"/>
<path d="M92.424 30.7484C90.9346 33.1158 89.9669 36.0253 88.3067 38.4498C86.6465 40.8743 84.3127 42.8519 82.643 45.0863C80.7646 47.6154 78.9241 49.9639 77.2449 51.894C74.4653 55.0981 71.9607 57.6558 70.5756 57.8745C66.7904 58.4544 64.1245 56.0584 64.3807 52.512C64.542 50.4107 65.1207 47.1781 66.9706 43.8693C68.2324 41.6349 71.7805 39.6002 74.0384 36.282C75.8598 33.6102 76.5903 29.8356 78.649 27.0783C80.7836 24.2164 84.3506 22.5811 86.3524 20.2231C89.5115 16.496 91.5986 13.6056 93.0691 13.1397C97.49 11.742 99.9566 9.16538 101.038 15.0983C101.209 16.0111 98.1256 18.7494 95.8867 22.7427C94.6345 24.9675 94.1032 28.0861 92.424 30.7484Z" fill="#FFEFAB"/>
<path d="M59.5048 40.437C58.224 43.508 57.3702 46.465 55.9946 48.4807C53.4237 52.2363 50.995 51.3901 49.8376 48.0243C49.0692 45.809 50.3879 42.4241 50.3214 39.4767C50.2455 36.1774 49.8566 33.0683 50.7484 31.3569C51.8109 29.3032 53.3383 26.4128 55.1598 23.2942C56.6397 20.7461 58.7269 18.2835 60.2542 15.6118C61.9145 12.7404 62.1706 9.24149 63.4039 6.86451C64.7985 4.19278 66.7718 2.50988 68.0715 1.38795C70.3199 -0.532652 73.128 -0.418557 74.9495 1.47352C76.0689 2.63349 75.4333 6.30354 74.0767 9.80246C73.1564 12.1699 72.3501 15.0318 71.1737 17.3993C69.6178 20.4989 66.4682 22.4195 65.8895 23.7886C65.2254 25.3384 65.6144 29.0845 64.3146 32.7451C63.366 35.4073 60.6527 37.6892 59.5048 40.437Z" fill="#FFEFAB"/>
<path d="M13.8152 23.2941C16.5569 22.7712 19.5169 23.8456 21.4901 26.9356C22.9132 29.1415 23.065 32.9161 22.2965 37.0901C21.6894 40.4274 20.6173 44.0119 19.384 47.121C17.5056 51.8559 15.2098 55.4879 13.9196 55.7827C11.5668 56.3341 9.94456 53.0064 8.90099 48.4521C8.22742 45.4951 8.10409 42.0152 7.86692 38.811C7.53488 34.5705 6.69054 30.7008 6.92771 29.0464C7.28822 26.4507 10.6181 23.9121 13.8152 23.2941Z" fill="#FFEFAB"/>
</svg>
