<svg width="121" height="132" viewBox="0 0 121 132" fill="none" xmlns="http://www.w3.org/2000/svg">
<path d="M103.464 70.1968C100.334 69.9116 97.0038 69.5883 95.5049 68.1336C92.5165 65.2432 90.9512 66.2606 87.1185 65.3003C85.0313 64.7773 83.9214 59.7381 81.2555 56.6481C79.0356 54.0714 75.6583 52.2934 72.0058 52.6928C70.1274 52.8924 66.4085 53.8908 63.2684 56.7907C61.2192 58.6732 60.2041 62.2292 57.9747 64.7868C56.0014 67.0592 54.1514 69.6074 52.2256 72.1555C50.3282 74.6751 47.3683 76.4911 45.7081 79.0297C43.8676 81.8345 42.5584 84.8391 41.2492 87.3682C39.4562 90.829 39.6934 94.2234 39.4372 96.4482C39.0577 99.6809 39.7123 102.124 41.771 104.844C43.5166 107.164 45.5753 109.55 48.2316 111.699C50.6318 113.658 52.6335 116.367 55.157 118.335C57.747 120.361 59.9479 122.547 62.0351 124.734C64.9665 127.805 67.4046 129.897 69.4443 130.991C72.0817 132.407 74.7001 129.983 78.7036 128.984C81.0753 128.395 84.3578 129.013 88.1051 127.853C91.5299 126.798 94.7175 125.809 97.2125 124.126C100.04 122.215 103.18 120.503 105.267 118.136C107.458 115.645 108.398 112.127 110.314 109.55C112.278 106.907 113.653 103.769 115.94 101.478C117.96 99.4622 119.744 97.38 119.972 94.6132C120.18 92.008 119.289 89.2127 118.53 86.5124C117.78 83.8027 116.661 81.207 115.513 78.9346C113.862 75.6544 111.339 73.9049 110.333 72.8876C108.787 71.3093 106.529 70.4726 103.464 70.1968Z" fill="#FDB1F3"/>
<path d="M35.0166 88.7275C36.2973 86.4931 33.622 83.9355 30.368 81.8628C27.7591 80.2084 24.9225 78.4019 23.0725 77.0613C21.6495 76.0344 19.4201 73.4863 16.9345 70.6149C14.9328 68.295 12.3618 66.2413 10.1988 64.5584C7.24835 62.2669 4.77227 61.4588 2.59028 64.0069C-0.312718 67.3917 -0.701682 71.0523 1.0534 74.3515C2.77053 77.5842 6.22377 80.3035 9.15522 82.072C11.0431 83.2129 13.8418 85.3522 17.1622 86.8069C20.0083 88.0524 23.3951 88.4423 26.1653 89.1744C30.2826 90.2678 33.9161 90.6576 35.0166 88.7275Z" fill="#FDB1F3"/>
<path d="M19.4768 52.0367C23.708 55.4881 27.6925 57.7985 28.1289 58.369C31.5726 62.8663 34.7508 58.1979 35.8512 53.9193C36.3161 52.0938 34.7982 49.0227 31.5726 45.5428C29.4571 43.2704 27.313 40.4276 24.8559 38.0411C22.228 35.5025 19.325 33.4297 17.4561 31.319C14.5721 28.0578 11.3181 27.3732 9.03174 28.2859C6.34694 29.3508 4.51596 32.7927 5.13261 36.2726C5.51209 38.4594 7.95023 41.9203 11.2706 45.115C13.7657 47.5205 16.811 49.8689 19.4768 52.0367Z" fill="#FDB1F3"/>
<path d="M34.741 66.6311C34.409 68.9511 34.8549 71.3946 35.8889 73.4768C37.3215 76.3768 39.5414 78.6967 41.0688 77.898C43.6777 76.5289 48.5445 72.9159 45.964 67.9718C44.6928 65.5282 42.4254 62.5522 40.0158 61.5634C37.5492 60.5556 35.4715 61.5539 34.741 66.6311Z" fill="#FDB1F3"/>
<path d="M27.5789 30.7484C29.0684 33.1158 30.036 36.0253 31.6962 38.4498C33.3565 40.8743 35.6902 42.8519 37.3599 45.0863C39.2383 47.6154 41.0788 49.9639 42.758 51.894C45.5377 55.0981 48.0422 57.6558 49.4273 57.8745C53.2126 58.4544 55.8784 56.0584 55.6222 52.512C55.461 50.4107 54.8823 47.178 53.0323 43.8693C51.7706 41.6349 48.2225 39.6002 45.9646 36.282C44.1431 33.6102 43.4126 29.8356 41.3539 27.0783C39.2194 24.2164 35.6523 22.5811 33.6505 20.2231C30.4914 16.496 28.4043 13.6056 26.9338 13.1397C22.5129 11.742 20.0463 9.16538 18.9648 15.0983C18.794 16.0111 21.8773 18.7494 24.1162 22.7427C25.3685 24.9675 25.8997 28.0861 27.5789 30.7484Z" fill="#FDB1F3"/>
<path d="M60.4982 40.437C61.7789 43.508 62.6327 46.465 64.0083 48.4807C66.5793 52.2363 69.0079 51.3901 70.1653 48.0243C70.9338 45.809 69.6151 42.4241 69.6815 39.4767C69.7574 36.1774 70.1463 33.0683 69.2546 31.3569C68.192 29.3032 66.6646 26.4128 64.8432 23.2942C63.3632 20.7461 61.2761 18.2835 59.7487 15.6118C58.0885 12.7404 57.8323 9.24149 56.599 6.86451C55.2045 4.19278 53.2312 2.50988 51.9315 1.38795C49.6831 -0.532652 46.8749 -0.418557 45.0535 1.47352C43.934 2.63349 44.5696 6.30354 45.9263 9.80246C46.8465 12.1699 47.6529 15.0318 48.8292 17.3993C50.3851 20.4989 53.5348 22.4195 54.1135 23.7886C54.7775 25.3384 54.3886 29.0845 55.6883 32.7451C56.637 35.4073 59.3502 37.6892 60.4982 40.437Z" fill="#FDB1F3"/>
<path d="M106.188 23.2941C103.446 22.7712 100.486 23.8456 98.5128 26.9356C97.0898 29.1415 96.938 32.9161 97.7064 37.0901C98.3136 40.4274 99.3856 44.0119 100.619 47.121C102.497 51.8559 104.793 55.4879 106.083 55.7827C108.436 56.3341 110.058 53.0064 111.102 48.4521C111.776 45.4951 111.899 42.0152 112.136 38.811C112.468 34.5705 113.312 30.7008 113.075 29.0464C112.715 26.4507 109.385 23.9121 106.188 23.2941Z" fill="#FDB1F3"/>
</svg>
