<svg width="174" height="177" viewBox="0 0 174 177" fill="none" xmlns="http://www.w3.org/2000/svg">
<path d="M127.754 106.965C124.711 105.644 121.46 104.232 120.442 102.283C118.384 98.3741 116.464 98.8835 112.933 96.665C111.021 95.4511 111.538 90.0293 109.893 86.0533C108.486 82.7289 105.685 79.8403 101.87 79.0335C99.911 78.6217 95.8458 78.3915 91.7478 80.2575C89.0786 81.4832 86.8785 84.7216 83.7807 86.556C81.0536 88.1676 78.3677 90.1261 75.5896 92.0445C72.8446 93.9499 69.2662 94.8081 66.7848 96.8006C64.0119 99.0227 61.6862 101.604 59.5477 103.69C56.6198 106.585 55.7288 110.09 54.7419 112.238C53.3115 115.345 53.1406 118.012 54.3162 121.427C55.3291 124.334 56.6087 127.384 58.5748 130.43C60.3343 133.195 61.4738 136.568 63.3586 139.36C65.3056 142.261 66.8036 145.186 68.1863 148.062C70.1049 152.102 71.8835 155.012 73.5783 156.789C75.7625 159.081 79.1892 157.499 83.541 157.826C86.1179 158.013 89.2157 159.714 93.374 159.793C97.1594 159.847 100.697 159.903 103.758 159.039C107.228 158.052 110.951 157.366 113.82 155.679C116.842 153.894 118.943 150.694 121.718 148.72C124.559 146.719 126.991 144.02 130.038 142.492C132.721 141.108 135.206 139.611 136.354 136.903C137.422 134.379 137.434 131.259 137.566 128.301C137.699 125.344 137.425 122.375 137.022 119.705C136.443 115.863 134.468 113.279 133.797 111.919C132.751 109.847 130.762 108.243 127.754 106.965Z" fill="#E3ECFF"/>
<path d="M52.8272 103.02C54.8556 101.187 53.0035 97.752 50.424 94.6037C48.34 92.0817 46.0754 89.3442 44.6521 87.3832C43.5568 85.8661 42.1528 82.5978 40.6123 78.8865C39.3588 75.9028 37.4449 72.9887 35.8289 70.5877C33.6031 67.3189 31.3763 65.6941 28.3346 67.5255C24.3131 69.9729 22.7256 73.5046 23.3973 77.3869C24.066 81.213 26.6389 85.0711 29.0057 87.8255C30.5421 89.589 32.6435 92.6393 35.5294 95.208C37.9781 97.395 41.2352 98.9189 43.7887 100.548C47.5695 103.012 51.1002 104.6 52.8272 103.02Z" fill="#E3ECFF"/>
<path d="M49.2518 61.0645C52.3746 65.9288 55.6449 69.5689 55.8859 70.2765C57.8695 75.9345 62.6029 72.2886 65.1132 68.3353C66.1837 66.6895 65.6625 63.0919 63.5582 58.5328C62.1924 55.5551 60.9647 52.007 59.2831 48.81C57.4871 45.3715 55.2404 42.3403 54.0452 39.6012C52.2067 35.3767 49.1619 33.6162 46.5702 33.7791C43.5296 33.9663 40.5426 36.8082 40.0236 40.5298C39.6761 42.8457 40.9995 47.1206 43.3031 51.4099C45.0208 54.65 47.2857 58.0181 49.2518 61.0645Z" fill="#E3ECFF"/>
<path d="M59.8285 80.7604C58.7323 82.9706 58.367 85.5803 58.7122 88.0052C59.2212 91.3784 60.6923 94.4291 62.4891 94.1404C65.5577 93.6363 71.6401 91.6176 70.6606 85.7926C70.2119 82.9116 68.8958 79.1881 66.7951 77.3988C64.6352 75.5565 62.211 75.9018 59.8285 80.7604Z" fill="#E3ECFF"/>
<path d="M64.4054 42.3718C65.1347 45.2375 65.1526 48.4796 66.0232 51.4616C66.8939 54.4435 68.6072 57.1884 69.5349 59.9758C70.5961 63.1501 71.6682 66.1099 72.726 68.5975C74.4692 72.7258 76.1499 76.1143 77.4702 76.7972C81.0923 78.6166 84.5682 77.1108 85.4731 73.4471C85.9981 71.2904 86.4762 67.8525 85.6892 63.9201C85.1735 61.2568 82.2642 58.0475 81.0752 53.968C80.1332 50.7084 80.624 46.673 79.4684 43.211C78.2507 39.6398 75.2043 36.8095 73.9838 33.8127C72.0357 29.0199 70.8841 25.4226 69.5386 24.482C65.545 21.6242 63.9305 18.2096 60.8909 23.8245C60.4184 24.6608 62.6154 28.438 63.5703 33.1833C64.0859 35.8467 63.5887 39.1392 64.4054 42.3718Z" fill="#E3ECFF"/>
<path d="M94.3374 62.9325C94.6181 66.4532 94.5007 69.6914 95.2087 72.1642C96.5734 76.7859 99.3065 76.7392 101.565 73.7454C103.056 71.7615 102.849 67.9441 103.883 64.994C105.057 61.7211 106.47 58.7168 106.136 56.7079C105.735 54.2861 105.157 50.8829 104.336 47.155C103.687 44.1047 102.401 40.9426 101.723 37.77C101.019 34.3398 101.894 30.7453 101.438 27.9435C100.931 24.818 99.4868 22.4639 98.5468 20.9046C96.9286 18.2559 94.0577 17.4205 91.5959 18.7362C90.097 19.5381 89.531 23.4312 89.7337 27.384C89.8896 30.0556 89.7561 33.2046 90.1756 35.9633C90.7099 39.5941 93.2573 42.564 93.3755 44.1229C93.5389 45.8932 91.9113 49.5173 92.0209 53.6215C92.1158 56.623 94.0781 59.8048 94.3374 62.9325Z" fill="#E3ECFF"/>
<path d="M145.913 60.7667C143.325 59.3416 140.011 59.4649 137.002 61.9138C134.845 63.6635 133.448 67.3877 132.867 71.8222C132.362 75.3854 132.271 79.3204 132.485 82.8671C132.833 88.2535 133.948 92.6298 135.136 93.365C137.335 94.676 140.054 91.8824 142.606 87.6452C144.236 84.8993 145.513 81.4519 146.818 78.3183C148.54 74.1598 150.653 70.5545 150.965 68.826C151.459 66.1078 148.941 62.4381 145.913 60.7667Z" fill="#E3ECFF"/>
</svg>
