<svg width="73" height="139" viewBox="0 0 73 139" fill="none" xmlns="http://www.w3.org/2000/svg">
<path d="M7.22012 50.3964C7.16755 50.3527 7.11497 50.2568 7.07992 50.2655C6.98354 50.2917 6.88715 50.3527 6.79953 50.3964C6.84334 50.4487 6.89591 50.536 6.93096 50.536C7.03611 50.5098 7.12373 50.4487 7.22012 50.3964ZM25.3581 136.328C25.3056 136.275 25.253 136.223 25.2092 136.179C25.1654 136.275 25.0953 136.363 25.0777 136.458C25.069 136.493 25.1654 136.554 25.2092 136.598C25.2617 136.511 25.3056 136.415 25.3581 136.328ZM36.6352 127.75C36.5914 127.794 36.495 127.855 36.5038 127.89C36.5301 127.986 36.5914 128.073 36.6352 128.169C36.6878 128.125 36.7754 128.064 36.7667 128.029C36.7492 127.933 36.6878 127.846 36.6352 127.75ZM47.6407 117.209C47.5969 117.262 47.5005 117.314 47.5093 117.349C47.5356 117.445 47.5969 117.541 47.6407 117.628C47.6933 117.585 47.7809 117.532 47.7722 117.497C47.7546 117.393 47.6933 117.305 47.6407 117.209ZM47.3691 116.093C47.3165 116.04 47.2639 115.997 47.2201 115.944C47.1763 116.04 47.1062 116.127 47.0887 116.232C47.0799 116.267 47.1763 116.319 47.2201 116.363C47.2727 116.276 47.3253 116.189 47.3691 116.093ZM51.0317 115.107C50.9792 115.15 50.8916 115.211 50.9003 115.246C50.9178 115.342 50.9792 115.429 51.0317 115.525C51.0756 115.482 51.1719 115.421 51.1632 115.386C51.1369 115.29 51.0756 115.194 51.0317 115.107ZM52.0307 110.316C51.9781 110.229 51.9255 110.133 51.8729 110.046C51.8291 110.089 51.7327 110.15 51.7415 110.185C51.7678 110.281 51.8291 110.368 51.8729 110.464C51.9255 110.421 51.9693 110.368 52.0307 110.316ZM43.8905 94.3916C43.9518 94.3305 43.9956 94.2869 44.0482 94.2346C43.9518 94.1909 43.8642 94.1299 43.759 94.1037C43.724 94.0949 43.6714 94.1909 43.6188 94.2346C43.7152 94.2869 43.8028 94.3393 43.8905 94.3916ZM7.70205 82.0709C7.76338 82.1319 7.8072 82.1756 7.85101 82.2279C7.90358 82.1319 7.96492 82.0447 7.98244 81.94C7.9912 81.9051 7.90358 81.8527 7.85101 81.8004C7.79843 81.8963 7.75462 81.9836 7.70205 82.0709ZM4.19712 80.8056C4.14454 80.7184 4.09197 80.6311 4.04816 80.5351C3.99558 80.5875 3.90796 80.6398 3.90796 80.6747C3.93425 80.7794 3.99558 80.8667 4.04816 80.9627C4.09197 80.9103 4.13578 80.8667 4.19712 80.8056ZM10.874 78.79C10.9353 78.7376 10.9792 78.6853 11.0317 78.6416C10.9353 78.598 10.8477 78.5369 10.7426 78.5107C10.7075 78.502 10.655 78.598 10.6024 78.6416C10.6988 78.694 10.7864 78.7463 10.874 78.79ZM10.874 54.0437C10.7864 54.0961 10.6988 54.1397 10.6024 54.1921C10.655 54.2357 10.7075 54.3317 10.7426 54.323C10.8477 54.3055 10.9353 54.2357 11.0317 54.1921C10.9792 54.1484 10.9353 54.0961 10.874 54.0437ZM67.6889 47.0893C67.6364 47.0021 67.5838 46.9061 67.54 46.8188C67.4874 46.8624 67.3998 46.9235 67.4085 46.9584C67.4261 47.0544 67.4874 47.1417 67.54 47.2377C67.5838 47.194 67.6276 47.1417 67.6889 47.0893ZM70.23 43.599C70.1687 43.5379 70.1249 43.4943 70.081 43.4419C70.0285 43.5379 69.9671 43.6252 69.9408 43.7299C69.9408 43.7648 70.0285 43.8172 70.081 43.8695C70.1249 43.7735 70.1774 43.6863 70.23 43.599ZM68.5301 41.0685C68.4775 41.0075 68.4337 40.9638 68.3812 40.9115C68.3373 41.0075 68.276 41.0947 68.2497 41.1994C68.241 41.2343 68.3373 41.2867 68.3812 41.339C68.4337 41.2431 68.4863 41.1558 68.5301 41.0685ZM14.6243 39.655C14.5805 39.6986 14.4841 39.751 14.4928 39.7859C14.5191 39.8906 14.5805 39.9778 14.6243 40.0738C14.6769 40.0215 14.7645 39.9691 14.7557 39.9342C14.7382 39.8382 14.6769 39.7422 14.6243 39.655ZM68.7492 38.0233C68.6878 38.0843 68.644 38.128 68.5915 38.1716C68.6878 38.2239 68.7842 38.285 68.8806 38.3112C68.9157 38.3112 68.9682 38.2239 69.0208 38.1716C68.9244 38.128 68.8368 38.0756 68.7492 38.0233ZM69.0208 37.3339C68.9682 37.2903 68.9157 37.1943 68.8806 37.203C68.7842 37.2205 68.6878 37.2903 68.5915 37.3339C68.644 37.3775 68.6966 37.4735 68.7316 37.4648C68.8368 37.4386 68.9244 37.3775 69.0208 37.3339ZM9.91015 36.758C9.84882 36.8191 9.80501 36.8627 9.76119 36.9151C9.84882 36.9587 9.9452 37.0198 10.0416 37.046C10.0766 37.0547 10.138 36.9587 10.1818 36.9151C10.0854 36.8627 9.99778 36.8104 9.91015 36.758ZM69.0208 36.4875C68.9682 36.4439 68.9157 36.3479 68.8806 36.3566C68.7842 36.3828 68.6878 36.4439 68.5915 36.4875C68.644 36.5399 68.6966 36.6271 68.7316 36.6184C68.8368 36.601 68.9244 36.5399 69.0208 36.4875ZM10.2431 29.2626C10.2957 29.3499 10.3395 29.4458 10.3921 29.5331C10.4359 29.4895 10.5323 29.4284 10.5235 29.3935C10.506 29.2975 10.4359 29.2102 10.3921 29.1143C10.3483 29.1579 10.2957 29.2102 10.2431 29.2626ZM13.4151 26.6449C13.3275 26.6972 13.2398 26.7409 13.1435 26.7932C13.1873 26.8368 13.2486 26.9328 13.2836 26.9241C13.38 26.9066 13.4764 26.8368 13.564 26.7932C13.5202 26.7496 13.4764 26.6972 13.4151 26.6449ZM13.9321 25.5891C13.8795 25.5018 13.8269 25.4058 13.7831 25.3186C13.7305 25.3622 13.6429 25.4233 13.6429 25.4582C13.6692 25.5541 13.7305 25.6501 13.7831 25.7374C13.8269 25.6938 13.8707 25.6501 13.9321 25.5891ZM15.1062 22.727C15.1675 22.6747 15.2114 22.6223 15.2639 22.5787C15.1675 22.535 15.0799 22.474 14.9748 22.4478C14.9397 22.4391 14.8872 22.535 14.8346 22.5787C14.931 22.631 15.0186 22.6834 15.1062 22.727ZM16.1051 20.8946C16.0613 20.8422 16 20.755 15.9649 20.7637C15.8685 20.7812 15.7809 20.8422 15.6845 20.8946C15.7283 20.9382 15.7897 21.0342 15.8247 21.0255C15.9211 20.9993 16.0175 20.9382 16.1051 20.8946ZM10.0942 56.9145C10.1292 56.6876 10.1818 56.4957 10.1643 56.3124C10.1643 56.2601 9.99778 56.2077 9.90139 56.1554C9.85758 56.3386 9.78748 56.5219 9.76996 56.7138C9.76996 56.7574 9.93644 56.8185 10.0942 56.9145ZM69.0559 45.9201C68.9507 45.763 68.8806 45.6583 68.8105 45.5536C68.7404 45.7281 68.6265 45.8939 68.609 46.0771C68.6002 46.1731 68.7404 46.2865 68.8105 46.3913C68.8894 46.2255 68.977 46.0597 69.0559 45.9201ZM10.0065 29.8996C9.90139 30.0654 9.76119 30.1788 9.76996 30.2748C9.79624 30.458 9.90139 30.6238 9.97149 30.7983C10.0416 30.6936 10.173 30.5802 10.1643 30.4755C10.1643 30.301 10.0766 30.1177 10.0065 29.8996ZM12.5476 29.472C12.4425 29.6378 12.3023 29.7512 12.311 29.8559C12.3286 30.0305 12.4425 30.205 12.5126 30.3795C12.5827 30.2748 12.7141 30.1613 12.7053 30.0566C12.7053 29.8734 12.6177 29.6989 12.5476 29.472ZM68.2585 48.7036C68.127 48.3807 68.0745 48.2673 68.0307 48.1451C67.9343 48.2673 67.8028 48.3807 67.7678 48.5116C67.7415 48.6076 67.8466 48.7385 67.8905 48.8606C68.0394 48.7908 68.1971 48.7298 68.2585 48.7036ZM5.06459 64.8898C5.14345 65.0295 5.23107 65.1953 5.30993 65.361C5.38003 65.2563 5.52023 65.1429 5.51147 65.0469C5.49394 64.8637 5.38003 64.6979 5.30993 64.5234C5.23983 64.6281 5.16974 64.7328 5.06459 64.8898ZM16.0175 13.5301C15.8685 13.626 15.6933 13.6871 15.7021 13.7395C15.7108 13.9314 15.7809 14.106 15.8335 14.2892C15.9211 14.2368 16.0876 14.1932 16.0964 14.1321C16.1051 13.9489 16.0525 13.7657 16.0175 13.5301ZM13.0558 27.4389C12.9069 27.5349 12.7316 27.6047 12.7316 27.6483C12.7491 27.8403 12.8192 28.0148 12.8631 28.2068C12.9594 28.1457 13.1259 28.1021 13.1347 28.041C13.1435 27.8577 13.0909 27.6745 13.0558 27.4389ZM59.6889 115.185C59.4611 115.159 59.2683 115.107 59.0843 115.115C59.0318 115.124 58.9792 115.29 58.9266 115.377C59.1106 115.429 59.2946 115.499 59.4786 115.508C59.5312 115.517 59.5925 115.342 59.6889 115.185ZM52.0745 111.398C51.8379 111.363 51.6539 111.311 51.4699 111.32C51.4085 111.328 51.3647 111.494 51.3034 111.59C51.4962 111.634 51.6714 111.704 51.8642 111.712C51.908 111.721 51.9781 111.546 52.0745 111.398ZM10.69 76.9401C10.5586 76.626 10.506 76.5038 10.4622 76.3904C10.3658 76.5126 10.2344 76.6173 10.1993 76.7569C10.173 76.8529 10.2782 76.9837 10.322 77.0972C10.4797 77.0361 10.6287 76.975 10.69 76.9401ZM6.30008 60.5532C6.25626 60.4833 6.16864 60.3088 6.15112 60.3176C5.93206 60.4048 5.69548 60.4833 5.54652 60.6404C5.49394 60.7015 5.66043 60.972 5.73052 61.1465C5.9233 60.9545 6.1073 60.7538 6.30008 60.5532ZM69.0997 39.367C68.9858 39.21 68.8631 39.0442 68.7404 38.8697C68.6966 39.0616 68.5915 39.2536 68.609 39.4281C68.6353 39.6288 68.7842 39.812 68.8718 40.004C68.9419 39.8295 69.0033 39.6462 69.0997 39.367ZM9.59471 35.3793C9.79624 35.1874 9.98901 34.9954 10.1818 34.8034C10.0065 34.7336 9.74367 34.5591 9.67357 34.6115C9.51585 34.7511 9.43699 34.9954 9.34936 35.2048C9.3406 35.231 9.51585 35.327 9.59471 35.3793ZM8.91125 61.1203C8.89372 61.0156 8.82363 60.6928 8.76229 60.3699C8.19274 60.5706 8.57828 61.0418 8.49942 61.3734C8.43808 61.6351 8.48189 61.9231 8.49942 62.2023C8.49942 62.2547 8.60457 62.3507 8.63085 62.3419C8.736 62.307 8.89372 62.2459 8.90249 62.1761C8.92877 61.9056 8.91125 61.6264 8.91125 61.1203ZM8.52571 64.1831C8.48189 63.834 8.4118 63.3716 8.35046 62.9091C7.78967 63.2843 8.12264 63.8428 8.08759 64.3139C8.04378 64.7764 8.15769 65.2476 8.2015 65.7101C8.76229 65.3349 8.35922 64.7677 8.52571 64.1831ZM9.86634 58.1187C9.74367 57.7784 9.67357 57.6038 9.61223 57.4206C9.51585 57.6126 9.47204 57.8743 9.31431 57.9791C8.75353 58.3804 8.92877 58.9476 8.92001 59.4712C8.92001 59.5846 9.00763 59.698 9.06021 59.8202C9.14783 59.698 9.2705 59.5846 9.33184 59.445C9.53337 58.9825 9.70862 58.5026 9.86634 58.1187ZM71.1676 40.8766C71.1238 40.6061 71.1062 40.4141 71.0537 40.2221C71.0537 40.196 70.7908 40.2047 70.7908 40.2221C70.6155 41.0424 70.4403 41.8713 70.3001 42.7003C70.2826 42.7962 70.4315 42.9184 70.5016 43.0231C70.5717 42.9184 70.6769 42.8137 70.7032 42.7003C70.8784 42.072 71.0274 41.4437 71.1676 40.8766ZM66.9003 39.3757C66.9003 39.018 66.9178 38.8697 66.9003 38.7388C66.8565 38.4334 67.0668 37.9971 66.506 37.9709C65.954 37.9447 66.0591 38.3636 66.0591 38.6864C66.0679 40.9028 65.5422 42.9708 64.4118 44.8904C64.3417 45.0213 64.4469 45.2569 64.4732 45.4489C64.6134 45.3703 64.8236 45.3267 64.9025 45.2045C66.1205 43.3721 66.7163 41.3303 66.9003 39.3757ZM14.0372 16.776C13.9058 16.6626 13.7481 16.5143 13.7481 16.523C13.3976 16.8633 12.977 17.1687 12.7316 17.5701C11.0142 20.3885 9.31432 23.4338 8.2015 26.61C7.83348 27.6571 7.74586 28.7565 7.27269 29.7949C6.81705 30.7983 7.64071 32.0985 6.8521 33.1717C6.83458 33.1892 7.10621 33.4771 7.29022 33.5818C7.35155 33.6167 7.63195 33.4771 7.62319 33.4248C7.46546 31.0339 8.53447 28.8874 9.12154 26.6798C10.0241 23.2767 11.6363 20.118 13.8006 17.2821C13.9145 17.1338 13.9583 16.9331 14.0372 16.776ZM50.69 28.4947C48.92 28.8438 47.115 29.0881 45.38 29.5854C44.6791 29.7774 43.943 29.8298 43.2771 30.1003C42.6112 30.3795 41.8926 30.6064 41.288 30.903C40.0526 31.5226 38.5104 31.4004 37.494 32.4737C34.839 33.4597 32.4907 35.0303 29.9846 36.3043C28.5827 37.0198 27.2946 37.9971 25.9803 38.8871C24.0525 40.196 22.6155 42.0807 20.6615 43.3721C20.1708 43.695 19.8904 44.3145 19.4874 44.7683C18.8915 45.4489 18.2782 46.112 17.6385 46.749C17.4545 46.9322 17.0953 46.0422 16.9901 46.6792C16.8236 47.7437 16.8149 48.8955 17.6122 49.7681C18.8565 51.1381 19.724 52.8309 21.3099 53.9216C22.2563 54.576 23.0887 55.405 23.9912 56.1379C25.9014 57.6911 28.2322 58.4677 30.4578 59.4014C31.0011 59.6282 31.7196 59.8202 32.3768 59.8725C33.0777 59.9249 33.7875 59.8638 34.4885 59.89C35.2508 59.9074 36.1007 59.7678 36.7404 60.0645C37.3362 60.3525 37.9671 59.3664 38.3877 60.2477C39.7196 59.4101 41.3406 59.6631 42.7601 59.0785C44.092 58.5375 45.3976 57.9005 46.7382 57.4555C51.1281 56.0245 54.7295 53.3631 58.2607 50.5534C60.0394 49.1399 61.4063 47.2726 62.5542 45.3703C63.9124 43.1104 64.9025 40.6148 64.7711 37.8749C64.736 37.2205 64.4118 36.5922 64.3768 35.9378C64.2804 33.9221 63.1588 32.3777 61.8269 31.1125C60.8718 30.205 59.4962 29.6553 58.2256 29.1666C57.3056 28.8176 56.2453 28.8263 55.2464 28.6954C54.5279 28.5994 53.7305 28.931 53.1084 28.3028C52.425 29.0968 51.5137 28.4773 50.69 28.4947ZM1.6648 67.5774C1.83129 70.0991 1.90139 72.4638 2.18178 74.8023C2.28693 75.6487 2.64619 76.4777 2.58485 77.3677C2.58485 77.4288 2.93534 77.5946 3.09306 77.5596C3.2245 77.5335 3.41727 77.1844 3.39098 77.1495C2.44465 76.1286 3.2245 74.811 2.73381 73.6243C2.27817 72.5423 2.58485 71.1549 2.56732 69.8984C2.5498 69.0608 2.50599 68.2144 2.57609 67.3767C2.64619 66.5128 2.90029 65.6664 2.97039 64.8026C3.11935 63.2058 3.41727 61.6439 3.8291 60.0994C4.35484 58.1448 4.72286 56.1466 5.52023 54.2619C5.84443 53.4853 6.09854 52.6738 6.37017 51.871C6.40522 51.7489 6.37017 51.5918 6.37017 51.4522C6.2475 51.5045 6.05473 51.522 6.01968 51.6093C5.5027 53.0926 4.18835 54.227 3.95177 55.7976C3.69766 57.5166 3.06678 59.0872 2.55856 60.7102C2.46218 61.0243 2.18178 61.2948 2.1555 61.6002C1.96272 63.6421 1.81376 65.6926 6.61552 51.0683C6.53666 51.1293 6.4578 51.1991 6.37017 51.2689C6.43151 51.33 6.50161 51.3911 6.56295 51.4522C6.62428 51.3737 6.69438 51.2951 6.74695 51.1991C6.75572 51.1817 6.66809 51.1119 1.6648 67.5774ZM12.1183 23.6694C12.0394 23.7305 11.9605 23.8003 11.8729 23.8701C11.9343 23.9312 12.0043 23.9922 12.0657 24.0533C12.127 23.9748 12.2059 23.8963 12.2497 23.8003C12.2585 23.7828 12.1708 23.713 11.8729 24.2453C11.8729 24.1842 11.8729 24.1144 11.8729 24.0533C11.7678 24.0969 11.6451 24.1144 11.5575 24.1842C11.5312 24.2017 11.6013 24.35 11.6276 24.4373C11.7064 24.3762 11.7941 24.3064 12.1183 23.6694ZM7.60566 36.95C7.54433 36.8627 7.47423 36.7842 7.40413 36.6969C7.34279 36.7667 7.28146 36.8278 7.22012 36.8889C7.29898 36.95 7.37784 37.0285 7.47423 37.0721C7.49175 37.0809 7.56185 36.9936 7.22012 36.6969C7.22012 36.5573 7.22012 36.4177 7.41289 35.4142C7.34279 35.5888 7.22888 35.7371 7.22888 35.8854C7.22888 36.0163 7.36908 36.2694 7.41289 36.2607C7.62319 36.217 7.82472 36.1123 8.02625 36.0338C7.84224 35.8418 7.65824 35.6586 7.22012 36.2781C7.09745 36.3217 6.98354 36.3741 6.86963 36.4177C6.98354 36.5137 7.09745 36.6097 7.60566 36.95ZM57.1303 111.136C57.069 111.049 56.9989 110.971 56.9288 110.883C56.8675 110.953 56.8061 111.014 56.7448 111.075C56.8236 111.136 56.9025 111.215 56.9989 111.267C57.0164 111.267 57.0865 111.18 56.552 110.883C56.6133 110.883 56.6834 110.883 56.7448 110.883C56.701 110.779 56.6834 110.656 56.6133 110.569C56.5958 110.543 56.4469 110.613 56.3592 110.639C56.4206 110.718 56.4907 110.805 57.1303 111.136ZM11.0317 57.7784C10.2168 57.9703 10.7689 58.6248 10.6024 59.0436C10.4972 59.2356 9.80501 61.513 9.75243 61.7311C8.9463 65.012 9.45451 68.354 9.35813 71.6698C9.33184 72.5162 9.621 73.38 9.75243 74.2351C9.82253 74.6278 9.86634 75.0292 9.91892 75.4306C10.4709 75.1077 10.0679 74.5842 10.173 74.1653C10.2081 74.0344 10.1555 73.8774 10.1905 73.7465C10.2168 73.6243 10.3045 73.5109 10.3658 73.3975C10.4447 73.4847 10.5936 73.5807 10.5936 73.668C10.5936 75.1601 10.9967 76.5562 11.426 77.961C11.5662 78.4584 11.5487 79.1565 11.2946 79.5666C10.9792 80.0901 11.1106 80.0814 11.5575 80.1337C11.6188 80.1425 11.724 80.4653 11.7064 80.474C11.5049 80.5962 11.2858 80.6835 11.0668 80.7882C11.3209 80.8405 11.61 80.858 11.8291 80.9714C12.0219 81.0761 12.2935 81.4252 12.276 81.4513C11.6363 82.2017 12.5126 82.8911 12.3548 83.659C12.276 84.0516 12.679 83.624 12.8631 83.5804C12.9332 83.5717 13.1347 83.816 13.1347 83.9294C13.0383 85.6484 13.4063 86.6344 14.3877 87.9258C14.9835 88.7112 15.1325 89.8019 16.0525 90.3865C16.9726 92.7163 18.7075 94.5138 20.1533 96.4771C21.564 98.3706 23.4479 99.9325 25.2179 101.538C25.4896 101.782 25.7086 101.983 25.9364 102.271C26.2957 102.716 26.5936 103.379 27.391 103.318C27.6188 103.301 27.9255 103.466 28.0832 103.65C29.38 105.185 31.3078 105.735 32.9288 106.765C33.8751 107.358 34.9529 107.759 35.8116 108.449C36.3724 108.894 36.9507 109.086 37.5728 109.33C39.3954 110.046 41.1478 110.918 42.9441 111.677C44.3811 112.288 45.8445 112.838 47.299 113.414C48.0263 113.702 48.6922 114.121 49.0953 114.766C49.3494 115.168 49.3757 114.967 49.6298 114.836C49.9715 114.662 50.3833 114.627 50.7601 114.522C50.6374 114.094 50.6112 113.606 50.3746 113.257C49.0164 111.241 48.1227 108.964 46.7119 106.965C45.9671 105.91 45.2837 104.714 44.9682 103.484C44.7842 102.76 44.3811 102.315 44.0569 101.747C43.1807 100.212 42.2344 98.7021 41.5334 97.0966C40.8412 95.4823 39.8247 94.0339 39.334 92.3062C39.1062 91.5121 38.265 90.8926 38.5454 89.9066C38.598 89.7233 38.6681 89.4616 38.7995 89.4179C38.9397 89.3656 39.1938 89.4616 39.3428 89.575C39.6144 89.7844 39.8423 90.0724 40.1051 90.2992C40.2278 90.4127 40.3943 90.4738 40.5432 90.5523C40.5871 90.3603 40.6309 90.1684 40.6572 89.9677C40.6747 89.8281 40.6484 89.6884 40.6572 89.5488C40.7448 88.842 40.7886 88.8246 41.5684 89.2434C41.6823 89.3045 41.805 89.3394 42.1205 89.5139C42.2519 89.5576 42.1818 89.4703 42.1205 89.3918C42.0504 89.4529 41.989 89.5139 41.9277 89.575C42.0153 89.6448 42.0942 89.7146 42.1818 89.767C42.1993 89.7757 42.2694 89.6884 42.1205 89.5139C41.9365 88.8071 42.3833 88.9468 42.6813 88.9817C43.6363 89.0864 44.276 89.7233 44.8193 90.404C45.1698 90.8577 45.4063 91.4249 45.5641 91.9833C45.678 92.4109 46.3965 92.725 45.8532 93.3009C45.8182 93.3358 45.8795 93.5627 45.9321 93.5801C46.7294 93.7721 47.2552 94.2171 47.4304 95.0373C48.9551 95.526 49.0077 97.2013 49.9452 98.1873C50.5148 98.7807 51.0668 99.6009 51.1807 100.377C51.3384 101.459 52.3373 101.73 52.7316 102.489C53.345 103.667 54.1424 104.723 54.7908 105.857C55.632 107.323 56.736 108.658 57.2267 110.307C57.3056 110.552 57.5509 110.77 57.5684 111.005C57.621 111.608 57.4545 112.288 58.3921 112.323C58.3921 112.943 58.6374 113.265 59.1982 113.684C59.724 114.077 60.7054 114.731 60.2059 115.813C61.3888 115.997 60.8894 116.913 60.9595 117.567C60.977 117.707 60.8105 117.864 60.7316 118.021C60.6703 117.829 60.644 117.506 60.5476 117.48C60.0482 117.367 59.5224 117.332 59.0142 117.271C59.0142 117.367 58.9617 117.497 59.0142 117.559C59.2158 117.82 59.4436 118.065 59.6626 118.309C59.4173 118.414 59.1807 118.51 58.9354 118.606C59.058 118.702 59.1807 118.798 59.2946 118.894C59.3998 118.998 59.5049 119.103 59.6101 119.199C58.7952 119.906 58.1029 120.874 57.104 121.197C56.1227 121.52 55.1588 121.703 54.5104 122.593C53.3976 122.096 53.161 123.126 52.5739 123.632C51.8905 124.234 50.9967 124.591 50.2694 125.159C49.586 125.691 48.4907 125.7 48.184 126.747C48.1665 126.817 47.632 126.86 47.5181 126.738C47.2289 126.45 47.0274 126.537 46.9047 126.808C46.4052 127.951 45.1084 127.925 44.3023 128.597C43.6889 129.103 42.5761 128.946 42.3921 130.019C41.2618 130.22 40.6659 131.214 39.7809 131.773C38.8872 132.314 37.9496 132.776 37.0208 133.265C36.7316 133.413 36.3987 133.666 36.127 133.623C35.4173 133.5 35.2245 133.876 34.9792 134.417C34.8214 134.774 34.4271 135.254 34.1117 135.281C32.9375 135.376 32.1665 136.328 31.0799 136.546C30.1774 135.586 30.6068 137.183 30.3527 136.956C29.8182 136.467 29.4414 137.017 29.012 137.061C28.5213 137.113 28.0569 137.444 27.5662 137.619C26.9529 137.837 26.4797 138.335 25.7349 138.308C24.9551 138.282 24.9375 138.116 25.4019 137.584C25.437 137.532 25.2004 137.165 25.0252 137.034C24.7623 136.851 24.4469 136.738 23.9036 136.267C23.7546 136.153 23.851 136.38 23.9474 136.598C24.0175 136.467 24.1489 136.328 24.1402 136.205C24.0964 135.917 23.9825 135.647 23.9036 135.368C23.8247 135.542 23.7546 135.708 23.9036 136.267C24.0964 136.86 24.1402 137.253 23.9825 137.357C23.6758 137.558 23.3428 137.506 23.299 136.991C23.2464 136.424 21.9934 136.616 22.449 135.682C22.598 135.394 22.6068 134.993 22.8171 134.792C23.5706 134.111 24.3067 133.343 25.1917 132.872C27.9693 131.389 30.6681 129.766 33.3757 128.152C35.0668 127.139 36.9332 126.406 38.449 125.098C39.0098 124.618 40.0087 124.94 40.3417 124.059C41.805 123.719 42.8565 122.55 44.1621 122.061C45.3012 121.642 46.2037 120.874 47.3165 120.482C47.5005 120.412 47.6407 120.246 47.816 120.168C48.2453 119.976 49.2179 120.595 49.0339 119.67C48.9376 119.181 47.9562 118.553 47.3603 118.536C45.38 118.475 43.54 117.908 41.77 117.175C40.4819 116.642 39.115 116.468 37.8269 115.962C36.5564 115.464 35.242 115.028 33.9189 114.705C32.3768 114.321 31.0449 113.475 29.5641 112.96C28.1533 112.463 26.8477 111.704 25.4633 111.119C24.8674 110.866 24.3505 110.403 23.7897 110.046C22.7382 109.382 21.5027 109.016 20.5301 108.274C19.5662 107.541 18.4797 106.939 17.6035 106.171C15.3954 104.234 12.9419 102.559 11.2508 100.028C10.3658 98.7021 9.18288 97.5503 8.30665 96.1804C7.07116 94.2433 5.6429 92.4196 5.09964 90.1247C3.40851 87.9433 2.84772 85.2994 2.04158 82.7515C1.4808 80.9801 0.867433 79.235 0.849908 77.3328C0.832384 76.4777 0.74476 75.5614 0.411792 74.7849C-0.192808 73.38 0.087586 71.949 0.0350121 70.5267C-0.0175619 69.1218 -3.72328e-05 67.717 0.0350121 66.3121C0.0525367 65.4308 0.175209 64.5495 0.245308 63.6682C0.315407 62.848 0.14016 61.9056 0.508178 61.2512C0.946294 60.4572 0.525702 59.4537 1.28802 58.8342C1.65604 55.8587 2.90029 53.1886 4.26722 50.5796C4.94191 49.3057 5.713 48.0753 6.54542 46.8886C7.07116 46.1295 7.1325 45.4838 6.83458 44.585C6.37894 43.2151 6.1774 41.7491 5.87072 40.3269C5.27488 37.491 5.52899 34.6638 5.59033 31.8541C5.63414 29.8385 6.22998 27.8141 6.89591 25.8857C7.53556 24.0533 8.26284 22.2558 9.20917 20.5194C9.97149 19.132 10.8302 17.8144 11.6889 16.4968C12.4688 15.3101 13.5027 14.2717 14.5016 13.2334C18.357 9.22826 22.8433 6.09572 27.9343 3.82702C30.3789 2.74503 32.8762 1.81137 35.5312 1.21802C36.6966 0.947523 37.9058 1.2093 38.9397 0.807911C40.184 0.33672 41.4107 0.327995 42.5936 0.493784C45.4764 0.895169 48.403 1.19184 51.1544 2.26511C52.1183 2.64032 53.0909 3.01553 54.0285 3.46927C54.2913 3.60015 54.6418 4.05389 54.5805 4.24586C54.4753 4.56871 54.1073 5.01372 53.8094 5.04863C53.0033 5.13588 52.2322 5.30167 51.4436 5.44129C50.6374 5.58962 49.6298 5.40638 48.92 5.005C48.2716 4.63852 47.6583 4.49018 46.966 4.42037C46.2212 4.35057 45.4677 4.29821 44.7141 4.24586C44.2059 4.21096 43.5487 4.4291 43.5575 3.5478C43.4611 3.5478 43.3384 3.51289 43.2596 3.55652C42.2519 4.11497 42.0942 4.27204 41.1917 4.20223C40.6659 4.16733 40.3242 4.57744 39.7634 4.464C39.3779 4.38547 38.8872 4.77813 38.4578 4.96137C37.4414 5.40638 36.2848 5.68561 35.4611 6.36622C34.9266 6.8025 34.5761 5.15334 34.2694 6.43602C34.1906 6.75015 33.6035 7.0032 33.2092 7.17771C32.368 7.54419 31.6933 8.29461 30.6243 8.18117C30.4666 8.16372 29.5027 8.30333 29.5816 9.13228C29.5991 9.3068 29.2398 9.56857 29.0033 9.71691C28.1796 10.2492 27.1018 10.2055 26.4797 11.305C26.0241 12.1339 24.9814 12.6488 24.1752 13.2683C23.5443 13.7569 23.8247 13.0938 23.7108 12.9018C23.6758 12.8495 23.3428 12.8582 23.3165 12.9193C22.5542 14.7168 22.4929 14.7866 21.2223 15.8162C20.8981 16.078 20.4863 16.3572 20.3724 16.715C20.1095 17.509 19.5487 17.8231 18.874 18.2071C18.357 18.5125 17.621 18.9488 17.805 19.8388C17.6823 19.8824 17.5684 19.9348 17.4458 19.9784C17.5684 20.0744 17.6823 20.1704 17.805 20.2576C17.7349 20.5805 18.0065 21.0691 17.3757 21.104C17.3318 20.9906 17.288 20.8684 17.2355 20.755C17.1478 20.8684 17.0514 20.9906 16.9551 21.104C16.403 21.5316 16.0701 22.0726 16.1051 22.7881C15.4742 22.823 15.7459 23.3116 15.6845 23.6345C15.0536 23.6694 15.3253 24.158 15.2639 24.4722C14.449 24.6728 15.0011 25.3273 14.8346 25.7374C13.8269 26.3395 14.0022 27.3342 13.9934 28.2679C13.9233 28.2679 13.7919 28.2591 13.7919 28.2679C13.564 29.3062 13.3099 30.3359 13.161 31.383C13.0208 32.3079 13.38 33.2939 12.7316 34.1577C12.6352 34.2974 12.7579 34.5766 12.7141 34.7773C12.6002 35.3706 13.713 35.9203 12.7579 36.5224C13.4414 37.0634 13.012 37.8226 13.1522 38.4683C13.2661 38.9482 13.5903 38.9133 13.9233 38.6602C15.6933 37.3252 17.4633 35.9814 19.2333 34.6464C19.4436 34.4806 19.6451 34.3061 19.8817 34.1752C21.6517 33.1892 23.4217 32.1944 25.2092 31.2259C26.0679 30.7547 26.9441 30.3097 27.8203 29.8908C28.7053 29.4633 29.5903 29.0445 30.5016 28.6954C33.4282 27.5785 36.3198 26.4005 39.4041 25.6938C41.6911 25.1702 43.9693 24.7776 46.2738 24.3849C49.2092 23.8963 52.1008 24.0708 54.9923 24.1144C56.885 24.1493 58.7864 24.6554 60.6615 25.1615C63.0537 25.8072 65.2442 26.7583 67.1982 28.2766C67.8291 28.7652 68.4951 29.2364 69.0471 29.8036C69.6605 30.4318 70.4228 31.095 70.6331 31.8716C70.8521 32.6569 71.115 33.3811 71.5706 34.0181C71.9912 34.6028 70.7733 35.0739 71.5093 35.5888C72.0789 35.9814 71.9737 36.5399 71.9825 37.0809C71.9912 37.7179 72.035 38.3548 71.965 38.9744C71.8949 39.6288 71.6845 40.257 71.5619 40.9115C71.448 41.5572 71.8423 42.3163 71.1413 42.8486C71.0799 42.901 71.1851 43.1453 71.1238 43.2587C70.8609 43.7997 72.0964 44.0877 71.3691 44.6897C70.7645 43.9829 70.8083 44.6287 70.598 45.0039C70.2563 45.6496 69.8708 46.2255 69.8357 47.0195C69.8094 47.5081 69.5728 48.0579 69.2574 48.4418C68.1621 49.7594 67.0142 51.0159 65.8576 52.2724C65.0339 53.1712 64.0701 53.9216 63.0799 54.6371C61.713 55.6231 60.5914 56.9058 59.1106 57.7347C58.6024 58.0227 58.1117 58.3717 57.5772 58.6073C56.0263 59.3141 54.5367 60.1169 53.0033 60.8411C52.5126 61.0767 52.0745 61.8707 51.356 61.164C51.2946 61.1116 50.9879 61.2599 50.8215 61.3646C49.3406 62.3158 47.1939 62.9353 45.7043 63.3018C43.8379 63.7555 41.8926 63.8166 40.0613 64.4623C39.6845 64.5932 39.2377 64.5146 38.8171 64.5146C36.7053 64.5234 34.5849 64.5234 32.4731 64.5146C31.5969 64.5146 30.7207 64.5932 29.897 64.1133C29.1873 63.7031 28.3636 63.7031 27.54 63.6508C26.839 63.5984 26.1292 63.3367 25.4633 63.0749C22.2125 61.8009 19.1719 60.1343 16.3154 58.1448C15.2376 57.3944 14.4052 56.2863 13.4589 55.3439C12.8718 54.7767 12.5651 54.864 12.3023 55.7191C12.1183 56.3473 11.9868 56.993 11.8028 57.6213C11.7765 57.6998 11.575 57.726 11.4523 57.7784C11.4523 57.4293 11.4611 57.0803 11.4436 56.74C11.4436 56.6876 11.3472 56.5829 11.3121 56.5917C11.2157 56.6178 11.0493 56.6789 11.0405 56.74C11.0142 57.0803 11.0317 57.4293 11.0317 57.7784Z" fill="#775CA6"/>
</svg>
