<svg width="187" height="193" viewBox="0 0 187 193" fill="none" xmlns="http://www.w3.org/2000/svg">
<path d="M38.8887 125.831C42.4503 123.093 46.1219 121.666 50.1166 119.839C54.2035 117.977 58.0401 115.31 62.2933 114.299C66.4596 113.326 70.8085 112.677 74.9717 112.563C79.2368 112.451 83.3298 114.52 87.443 115.213C91.5089 115.956 95.5367 116.396 99.3685 117.756C100.81 118.291 100.9 118.043 102.325 118.615C103.03 118.895 102.824 119.377 103.52 119.678C104.224 119.99 104.797 118.75 105.489 119.075C106.868 119.722 106.341 120.816 107.708 121.502C109.074 122.194 109.056 122.206 110.402 122.941C113.989 124.913 117.421 127.079 120.75 129.493C124.054 131.889 127.999 133.586 131.059 136.334C133.922 138.906 136.934 140.057 140.488 139.866C144.049 139.672 147.217 138.476 149.786 135.618C152.351 132.752 153.853 129.436 153.661 125.883C153.469 122.329 152.491 118.217 149.633 115.648C148.746 114.854 146.749 115.752 145.739 115.223C145.551 115.128 146.366 113.555 146.179 113.46C141.749 111.172 136.712 110.07 132.033 108.247C127.375 106.432 122.638 104.94 117.771 103.716C115.944 103.26 116.115 102.525 114.276 102.128C112.428 101.733 112.541 101.087 110.68 100.738C109.76 100.567 109.445 102.38 108.516 102.231C107.585 102.087 107.827 100.339 106.889 100.224C105.023 99.987 105.012 99.8544 103.14 99.6593C98.1276 99.2253 92.9161 99.156 87.9511 99.54C83.0376 99.9659 78.3711 102.159 73.7123 103.481C68.9583 104.832 64.6798 107.056 60.4026 109.306C56.2378 111.504 52.0565 113.522 48.4603 116.411C44.7838 119.366 41.7276 122.187 38.8887 125.831Z" fill="#775CA6" fill-opacity="0.5"/>
<path d="M55.1072 21.8515C55.0973 21.7005 54.7307 21.9531 54.7569 22.0093C54.7849 22.0472 54.2257 22.2594 54.2531 22.3417C54.3128 22.4956 54.8534 22.4409 54.9066 22.6239C55.0302 22.9654 55.8338 23.1098 55.9438 23.4963C56.1685 24.2588 56.1376 25.138 56.3234 25.9598C56.6903 27.614 57.7531 29.2376 57.9833 30.9846C58.4622 34.4803 57.007 38.1679 56.9176 41.7953C56.8116 45.4601 56.8277 49.1086 56.1271 52.7914C55.4304 56.393 54.365 59.8765 53.0373 63.3908C51.7197 66.9542 51.3704 71.0982 49.396 74.4737C48.4735 76.2027 46.26 77.1576 45.1993 78.8384C44.3549 80.0726 43.9917 79.7975 43.1199 81.0069C42.5374 81.821 42.8273 83.2883 42.1771 84.0534C39.6335 87.2158 36.1288 89.5647 33.1111 92.4285C30.1561 95.237 27.6103 98.2454 24.2841 100.724C28.2604 99.2722 32.2905 98.233 36.1327 96.2753C39.8987 94.3606 42.9878 91.1904 46.548 88.7447C47.4676 88.1495 48.3534 87.5586 49.2224 86.89C50.5324 85.8869 51.1666 86.6899 52.4517 85.6566C54.1196 84.2184 55.0506 81.9064 56.6311 80.334C59.9059 77.2777 63.1024 74.1676 65.8681 70.5166C68.6876 66.8447 71.9494 63.3554 74.1385 59.1755C76.284 55.0657 77.21 50.3664 78.7141 45.9033C80.2188 41.3957 81.9491 36.9113 82.7345 32.1116C83.1417 29.715 83.057 27.2479 83.2637 24.7564C83.3606 23.511 84.1636 22.284 84.1898 20.9818C84.2136 20.3355 83.7083 19.6596 83.7012 18.9677C83.6885 18.4328 83.2739 18.4474 83.2535 17.9155C83.2445 17.6181 84.326 17.5664 84.3092 17.272C84.2968 17.0688 82.964 17.0543 82.9078 16.6468C82.1635 12.6832 80.1507 9.98966 77.0715 7.87749C73.9868 5.76296 70.4296 3.21653 66.4716 3.96239C62.5106 4.70056 59.1848 7.72797 57.0787 10.8093C54.9673 13.8883 54.3605 17.8932 55.1072 21.8515Z" fill="#FFC305" fill-opacity="0.5"/>
<path d="M77.1332 84.1876C79.9904 82.9877 82.6454 82.1449 85.5637 81.616C88.4819 81.0871 91.4431 80.9088 94.2592 80.9725C97.0747 81.0232 99.7451 81.7495 102.315 82.3867C104.885 82.935 107.289 83.8308 109.518 84.8342C114.642 87.141 120.781 84.7757 123.081 79.6503C125.387 74.5273 122.912 68.7476 117.787 66.4461C116.059 65.6642 114.353 65.2104 112.592 65.4148C112.282 65.4505 112.308 65.653 111.999 65.6887C108.264 66.1313 104.521 66.1877 101.108 67.3333C97.692 68.3823 94.6808 70.2922 91.7212 71.9698C88.7579 73.6267 86.0951 75.5565 83.6318 77.6701C81.1708 79.7784 79.0038 81.6975 77.1332 84.1876Z" fill="#63DE25" fill-opacity="0.5"/>
<path d="M44.7842 132.991C47.4102 134.642 49.1358 136.743 51.2499 138.83C53.3665 140.913 55.3674 142.982 56.9349 145.326C58.5072 147.659 60.2562 149.866 61.2133 152.336C62.2385 154.753 62.6452 157.4 63.1029 159.802C64.1568 165.318 69.3396 169.137 74.8603 168.087C80.3781 167.028 83.8289 161.55 82.7749 156.034C82.4187 154.168 81.4778 152.688 80.3015 151.365C80.0972 151.134 80.4275 150.834 80.2231 150.603C77.7114 147.798 74.7383 145.662 71.8409 143.529C69.0139 141.337 66.1486 139.434 63.0724 137.98C60.0133 136.501 56.9215 135.43 53.777 134.621C50.6356 133.821 47.9001 133.098 44.7842 132.991Z" fill="#FF6196" fill-opacity="0.5"/>
</svg>
