<svg width="166" height="154" viewBox="0 0 166 154" fill="none" xmlns="http://www.w3.org/2000/svg">
<path d="M138.47 102.49C138.54 102.554 138.612 102.619 138.684 102.686C138.712 102.63 138.777 102.552 138.76 102.523C138.71 102.442 138.628 102.381 138.558 102.311C138.53 102.367 138.502 102.423 138.47 102.49ZM145.624 99.256C145.557 99.222 145.501 99.195 145.445 99.1672C145.431 99.2642 145.402 99.3631 145.411 99.4583C145.416 99.4913 145.515 99.5148 145.571 99.5426C145.59 99.445 145.606 99.3492 145.624 99.256ZM145.015 97.7036C144.95 97.7728 144.885 97.8464 144.817 97.9186C144.873 97.9464 144.952 98.0105 144.981 97.9937C145.062 97.9447 145.124 97.8625 145.194 97.7924C145.138 97.7646 145.081 97.7367 145.015 97.7036ZM146.944 94.9108C146.916 94.9668 146.85 95.0456 146.867 95.0744C146.917 95.156 146.999 95.2165 147.07 95.2862C147.098 95.2302 147.163 95.1518 147.145 95.123C147.096 95.0413 147.014 94.9806 146.944 94.9108ZM147.23 94.3377C147.263 94.2719 147.291 94.2159 147.318 94.1602C147.221 94.1462 147.122 94.1179 147.028 94.1268C146.994 94.131 146.971 94.2301 146.943 94.2861C147.04 94.3031 147.136 94.3207 147.23 94.3377ZM146.942 92.4109C146.913 92.466 146.848 92.5444 146.865 92.5735C146.915 92.6549 146.997 92.7156 147.067 92.7854C147.095 92.7293 147.16 92.6509 147.144 92.6218C147.093 92.5405 147.011 92.4797 146.942 92.4109ZM147.066 91.5351C147.037 91.5902 146.972 91.6686 146.99 91.6974C147.039 91.7791 147.121 91.8398 147.191 91.9096C147.219 91.8535 147.284 91.7751 147.268 91.7469C147.219 91.6661 147.135 91.6039 147.066 91.5351ZM141.74 80.4554C141.675 80.5258 141.609 80.5977 141.542 80.6707C141.598 80.6976 141.676 80.7626 141.705 80.7458C141.787 80.6974 141.848 80.6137 141.918 80.5445C141.862 80.5167 141.806 80.4897 141.74 80.4554ZM141.578 79.973C141.611 79.9066 141.639 79.8506 141.667 79.7946C141.569 79.7809 141.47 79.7523 141.375 79.7615C141.342 79.7657 141.318 79.8649 141.29 79.9208C141.388 79.9378 141.484 79.9551 141.578 79.973ZM137.73 79.0908C137.797 79.1239 137.852 79.1512 137.908 79.179C137.921 79.0823 137.951 78.9828 137.941 78.8883C137.936 78.855 137.837 78.8317 137.782 78.8045C137.764 78.9009 137.746 78.9971 137.73 79.0908ZM137.458 78.0185C137.522 77.9493 137.588 77.8766 137.656 77.8044C137.6 77.7766 137.521 77.7108 137.493 77.7281C137.41 77.7777 137.349 77.8606 137.279 77.9307C137.335 77.9585 137.391 77.9854 137.458 78.0185ZM83.6014 88.791C83.5338 88.7581 83.4795 88.7297 83.4234 88.7019C83.4095 88.7998 83.3801 88.8989 83.3898 88.9929C83.3931 89.0265 83.4932 89.0494 83.5493 89.0773C83.5665 88.9802 83.584 88.8841 83.6014 88.791ZM81.0074 89.7813C80.9373 89.7175 80.8651 89.6505 80.7932 89.5843C80.7653 89.6403 80.7001 89.7187 80.7165 89.7469C80.767 89.8292 80.849 89.89 80.9191 89.9597C80.9471 89.9037 80.975 89.8477 81.0074 89.7813ZM85.1015 86.4119C85.1664 86.3415 85.2325 86.2688 85.2985 86.196C85.2437 86.1688 85.1652 86.1039 85.1363 86.1215C85.055 86.1696 84.9934 86.2528 84.9232 86.322C84.9792 86.3498 85.0353 86.3776 85.1015 86.4119ZM84.1346 85.3962C84.0653 85.3322 83.9923 85.2654 83.9204 85.1993C83.8924 85.2553 83.8263 85.334 83.8437 85.3619C83.8929 85.4436 83.9764 85.5058 84.0459 85.5738C84.0742 85.5187 84.1015 85.4638 84.1346 85.3962ZM84.4193 83.5737C84.3641 83.5456 84.2854 83.4798 84.2565 83.4974C84.1752 83.5455 84.1139 83.6296 84.0439 83.6997C84.0994 83.7257 84.1781 83.7915 84.2061 83.7742C84.2892 83.7255 84.3505 83.6414 84.4193 83.5737ZM79.1218 82.9089C79.0517 82.8452 78.9795 82.7781 78.9067 82.7123C78.8793 82.7671 78.8133 82.8458 78.8309 82.8746C78.8801 82.9563 78.9633 83.0176 79.0323 83.0868C79.0611 83.0305 79.0876 82.976 79.1218 82.9089ZM99.533 75.2267C99.4638 75.1626 99.3907 75.0959 99.3179 75.03C99.2896 75.0851 99.2253 75.1632 99.2421 75.1923C99.2913 75.274 99.3733 75.3348 99.4434 75.4045C99.4714 75.3485 99.4994 75.2925 99.533 75.2267ZM91.7344 60.9554C91.6701 61.0246 91.6031 61.0977 91.5367 61.1695C91.5928 61.1973 91.6715 61.2632 91.6995 61.2458C91.7814 61.1965 91.843 61.1134 91.913 61.0433C91.8572 61.0164 91.8012 60.9886 91.7344 60.9554ZM34.4966 72.8612C34.5634 72.8944 34.6186 72.9225 34.6746 72.9503C34.6885 72.8524 34.7182 72.7542 34.7083 72.6593C34.7041 72.626 34.6048 72.6027 34.5487 72.5749C34.5307 72.6723 34.5132 72.7684 34.4966 72.8612ZM50.1445 62.1904C50.2113 62.2235 50.2665 62.2516 50.3225 62.2794C50.3364 62.1815 50.3661 62.0833 50.3562 61.9884C50.352 61.9551 50.2527 61.9319 50.1966 61.9041C50.1786 62.0014 50.1611 62.0975 50.1445 62.1904ZM47.8525 62.2134C47.8861 62.1476 47.9141 62.0916 47.942 62.0356C47.844 62.0219 47.7459 61.9933 47.6506 62.0024C47.6172 62.0067 47.5937 62.1058 47.5658 62.1618C47.663 62.1788 47.7592 62.1961 47.8525 62.2134ZM6.40846 48.9261C6.47555 48.9601 6.5313 48.9871 6.58736 49.0149C6.60156 48.9179 6.63006 48.819 6.62013 48.7242C6.61682 48.6905 6.51755 48.6673 6.4615 48.6395C6.44432 48.7365 6.42684 48.8326 6.40846 48.9261ZM102.774 74.4845C102.559 74.2373 102.482 74.15 102.403 74.0613C102.357 74.1959 102.27 74.3332 102.277 74.4647C102.283 74.5581 102.419 74.6434 102.496 74.7316C102.61 74.6298 102.724 74.5281 102.774 74.4845ZM84.0012 92.0413C83.7864 91.795 83.7076 91.7053 83.6316 91.6178C83.5843 91.7527 83.4975 91.8909 83.5047 92.0224C83.5108 92.1146 83.6459 92.2002 83.7232 92.2883C83.8372 92.1866 83.9515 92.0858 84.0012 92.0413ZM8.53825 47.7225C8.32342 47.4762 8.24614 47.388 8.16797 47.3002C8.12162 47.4348 8.03445 47.5721 8.04264 47.7033C8.049 47.7964 8.18379 47.8811 8.26136 47.9702C8.3748 47.8696 8.48883 47.7679 8.53825 47.7225ZM34.7823 74.1492C34.7436 73.936 34.7324 73.7542 34.6675 73.5935C34.6466 73.543 34.483 73.5502 34.385 73.5306C34.3968 73.7081 34.3895 73.8911 34.4332 74.0599C34.4455 74.1054 34.6159 74.1097 34.7823 74.1492ZM139.29 101.633C139.252 101.42 139.241 101.238 139.175 101.077C139.155 101.026 138.992 101.034 138.893 101.015C138.904 101.192 138.897 101.375 138.942 101.543C138.954 101.59 139.124 101.594 139.29 101.633ZM129.113 103.48C128.899 103.52 128.717 103.532 128.556 103.596C128.505 103.617 128.513 103.781 128.492 103.878C128.67 103.866 128.854 103.873 129.023 103.828C129.069 103.816 129.073 103.647 129.113 103.48ZM99.6401 72.6166C99.4244 72.3706 99.3472 72.2825 99.2696 72.1934C99.2232 72.328 99.1364 72.4663 99.1436 72.5977C99.1491 72.6911 99.2848 72.7755 99.3612 72.864C99.4761 72.7619 99.5895 72.6614 99.6401 72.6166ZM103.821 76.8711C103.712 77.0037 103.578 77.1091 103.597 77.1525C103.663 77.3138 103.779 77.4554 103.877 77.6042C103.944 77.5299 104.079 77.4371 104.064 77.3845C104.02 77.2168 103.918 77.0645 103.821 76.8711ZM83.8747 90.4153C83.6586 90.1684 83.5817 90.0811 83.5044 89.993C83.4577 90.1267 83.3706 90.2641 83.3779 90.3955C83.3836 90.4898 83.5184 90.5745 83.596 90.6636C83.7109 90.5615 83.8243 90.461 83.8747 90.4153ZM142.118 83.8828C142.263 83.986 142.425 84.1009 142.587 84.2162C142.574 84.0372 142.612 83.8339 142.538 83.6833C142.453 83.5143 142.271 83.3919 142.132 83.2471C142.128 83.4262 142.125 83.6056 142.118 83.8828ZM144.958 82.1324C144.999 82.2554 145.019 82.3907 145.086 82.497C145.182 82.6464 145.313 82.774 145.428 82.9111C145.437 82.7323 145.482 82.5457 145.449 82.3753C145.399 82.1244 145.31 81.8753 145.202 81.6427C145.156 81.544 145.02 81.4876 144.925 81.4114C144.896 81.5293 144.835 81.6478 144.842 81.7644C144.848 81.8884 144.917 82.0093 144.958 82.1324ZM102.509 72.7045C102.447 72.52 102.404 72.327 102.314 72.1589C102.286 72.106 102.125 72.1261 102.026 72.1117C102.182 72.5674 102.336 73.0236 102.491 73.4795C102.559 73.4049 102.691 73.3201 102.683 73.2583C102.654 73.0694 102.571 72.8882 102.509 72.7045ZM137.217 76.4955C137.018 76.1655 137.153 75.63 136.61 75.5128C136.686 75.8782 136.753 76.2463 136.84 76.6089C136.885 76.7983 136.941 76.9897 137.034 77.1579C137.065 77.2149 137.221 77.2172 137.319 77.2151C137.348 77.2133 137.409 77.0977 137.396 77.0504C137.349 76.8628 137.279 76.6801 137.217 76.4955ZM4.64966 47.5799C5.0014 47.3836 5.1664 46.1676 4.8661 45.9748C4.8166 45.9428 4.72029 45.8928 4.70481 45.9089C4.46012 46.1695 4.11915 46.4069 4.02084 46.7186C3.94718 46.9497 4.17641 47.2864 4.30812 47.5576C4.33231 47.609 4.53105 47.5761 4.64966 47.5799ZM144.611 78.6052C144.446 78.1113 144.295 77.6113 144.103 77.1272C144.057 77.0116 143.875 76.9508 143.755 76.8631C143.747 76.9827 143.716 77.1062 143.733 77.2225C143.889 78.3406 144.895 79.2789 144.427 80.5289C144.542 80.5628 144.685 80.6555 144.765 80.6161C144.92 80.5413 145.169 80.3574 145.149 80.2777C145.002 79.712 144.798 79.1616 144.611 78.6052ZM28.7937 74.9224C28.9507 75.1534 29.0913 75.3562 29.2307 75.5614C29.3592 75.3546 29.5408 75.1638 29.6007 74.9393C29.6954 74.5901 29.6995 74.2168 29.7542 73.8552C29.8845 73.01 30.0302 72.1666 30.1491 71.3202C30.1648 71.2069 30.0925 71.0565 30.0134 70.963C29.9725 70.9152 29.7592 70.9194 29.7369 70.9596C29.0781 72.1974 28.7794 73.5186 28.7937 74.9224ZM96.7184 72.8519C96.4429 72.1221 96.4229 71.5584 95.8037 71.3634C95.7468 71.3448 95.7294 70.9965 95.7933 70.8432C95.9271 70.5215 95.909 70.349 95.5253 70.4798C95.3907 70.5259 95.1919 70.7841 95.2239 70.8587C95.9543 72.5687 95.6583 74.4525 96.1468 76.203C96.4116 77.1498 95.7311 78.1538 96.2676 79.1343C96.3614 79.3042 96.0331 79.704 95.8999 79.9977C95.8732 80.0573 95.8154 80.1223 95.8253 80.1725C95.849 80.2995 95.9036 80.421 95.9467 80.5434C96.0751 80.4904 96.2777 80.4721 96.3229 80.3785C97.1766 78.5893 97.0625 76.6894 96.9338 74.7933C96.8851 74.0548 96.772 73.32 96.7184 72.8519ZM139.572 97.7748C139.601 97.7156 139.645 97.6601 139.658 97.5982C139.812 96.8791 140.123 96.1489 140.081 95.4398C139.976 93.6677 140.521 91.9344 140.278 90.1502C140.173 89.38 140.044 88.437 140.269 87.8073C140.597 86.8798 139.564 86.2138 140.109 85.394C140.172 85.2995 139.512 83.2037 139.464 83.0739C139.178 82.2753 138.92 81.4651 138.599 80.68C138.538 80.5308 138.236 80.4793 138.047 80.384C137.977 80.5347 137.818 80.7109 137.851 80.8346C138.006 81.4035 138.262 81.9475 138.387 82.5228C138.516 83.1222 138.497 83.7526 138.611 84.3559C138.696 84.8036 138.963 85.2218 139.018 85.6679C139.076 86.1422 139.109 86.6957 138.918 87.1058C138.625 87.7349 139.486 87.569 139.428 88.129C139.295 89.3948 139.659 90.7018 139.447 91.9586C139.171 93.5925 139.902 95.2784 139.108 96.8753C139.022 97.049 139.197 97.368 139.29 97.6045C139.323 97.686 139.474 97.7195 139.572 97.7748ZM93.7035 72.6166C93.5268 72.0896 93.4185 71.7074 93.267 71.3446C93.1992 71.1838 93.0417 71.0611 92.9251 70.9207C92.8659 71.0377 92.8225 71.1664 92.7455 71.2716C92.563 71.5222 92.3264 71.7415 92.1827 72.0099C91.8151 72.6957 90.9973 72.9552 90.7151 73.774C90.4382 74.582 89.8429 75.2767 89.4363 76.045C88.8513 77.1529 88.3272 78.2909 87.7418 79.3979C87.5774 79.711 87.0449 80.0354 87.1032 80.2272C87.5063 81.5659 86.1562 82.5684 86.4669 83.8569C85.7933 85.1036 85.9089 86.5011 85.7646 87.8351C85.6117 89.2354 85.3989 90.6409 85.941 92.0829C86.1467 92.6338 85.8328 93.4206 86.4347 93.9467C86.8739 93.5217 87.3139 93.0993 87.7488 92.6706C88.1391 92.2838 88.6161 91.9452 88.8913 91.4878C89.8546 89.8801 90.7933 88.2528 91.6579 86.5909C93.2683 83.4973 94.0757 80.1733 94.069 76.7018C94.0672 75.2968 94.3768 73.8151 93.7035 72.6166ZM78.8286 84.3504C78.7616 84.1507 78.7407 84.0882 78.7197 84.0258C78.628 84.1052 78.4842 84.1683 78.4527 84.2672C78.1117 85.3378 77.7284 86.4008 77.4855 87.4941C77.3556 88.0733 77.6308 88.7607 77.4439 89.3035C77.2413 89.8912 77.8826 90.7364 76.927 91.0918C76.918 91.0948 76.9762 91.4254 77.0331 91.4351C77.8001 91.5696 77.2788 92.1174 77.3465 92.4528C77.443 92.9273 77.389 93.4305 77.4539 93.9146C77.4749 94.0692 77.6548 94.2945 77.7887 94.3141C77.9264 94.3364 78.1432 94.1793 78.2431 94.0416C78.4794 93.7173 78.5804 93.375 78.3865 92.954C78.2285 92.6132 78.0746 92.2016 78.1207 91.8469C78.4198 89.4918 78.2134 87.0882 78.8162 84.7612C78.8601 84.5898 78.8283 84.3971 78.8239 83.607C78.7706 83.6913 78.718 83.7745 78.6635 83.8582C78.7387 83.8955 78.8129 83.9331 78.8869 83.9698C78.9198 83.8754 78.9621 83.7848 78.9793 83.6878C78.9819 83.672 78.8814 83.6363 78.8286 84.3504ZM45.6862 61.3154C45.5131 61.0809 45.3675 60.8837 45.2216 60.6857C45.0952 60.9642 44.8333 61.2594 44.8666 61.516C45.0106 62.6273 45.0209 63.7139 44.7035 64.8015C44.6584 64.9575 44.8145 65.1709 44.8773 65.3582C44.9191 65.483 44.9607 65.6069 45.0025 65.7318C45.0942 65.6524 45.2065 65.5869 45.2738 65.491C46.2153 64.1653 45.5506 62.7109 45.0468 65.8816C44.9878 65.8597 44.8303 65.7935 44.8283 65.7992C44.6234 66.2587 44.4198 66.7188 44.2483 67.192C44.2249 67.2584 44.3672 67.4665 44.4411 67.4705C44.7648 67.4899 45.2409 66.2767 45.6862 61.3154ZM84.8656 89.8865C84.7886 90.075 84.6273 90.2789 84.6549 90.4502C84.7137 90.8123 84.8735 91.1585 85.2956 92.4174C85.2349 92.2364 85.1963 92.0441 85.1058 91.878C85.0428 91.7583 84.9116 91.6724 84.8104 91.5724C84.7975 91.7474 84.7387 91.9337 84.78 92.0955C84.8722 92.4653 85.0025 92.8273 85.1415 93.1824C85.1818 93.2819 85.3073 93.3479 85.3932 93.4292C85.4214 93.273 85.4871 93.113 85.4687 92.9635C85.4468 92.7764 85.3566 92.5993 84.9919 91.5115C85.0677 91.3224 85.2305 91.12 85.2026 90.9479C85.1426 90.5851 84.9837 90.2387 84.79 88.908C84.768 89.2397 84.7402 89.3909 84.7535 89.5372C84.7646 89.6565 84.8267 89.7706 84.8656 89.8865C84.9608 89.7583 85.1344 89.6296 85.1337 89.5029C85.1323 89.3566 84.976 89.2136 84.8656 89.8865ZM145.781 84.5879C145.721 84.4078 145.677 84.2191 145.594 84.0518C145.545 83.9532 145.429 83.8868 145.344 83.807C145.295 83.9009 145.185 84.0112 145.206 84.0864C145.305 84.4533 145.429 84.8114 145.566 85.1659C145.59 85.2265 145.719 85.2476 145.798 85.2885C145.833 85.1747 145.898 85.0606 145.893 84.9482C145.889 84.8265 145.821 84.7074 145.893 85.8629C145.727 85.6962 145.584 85.5529 145.44 85.4087C145.424 85.5807 145.354 85.7698 145.406 85.9172C145.48 86.1323 145.642 86.3181 145.766 86.5153C145.807 86.3103 145.846 86.1046 145.781 84.5879ZM139.402 99.0253C139.252 98.8276 139.112 98.6414 138.972 98.4544C138.94 98.6068 138.846 98.7831 138.894 98.9041C138.986 99.14 139.158 99.3451 139.297 99.5613C139.33 99.3946 139.362 99.2262 139.306 99.9343C139.167 99.8362 139.055 99.7586 138.944 99.6798C138.907 99.7884 138.811 99.9208 138.842 100.002C138.902 100.154 139.036 100.278 139.14 100.413C139.189 100.271 139.238 100.13 139.402 99.0253ZM43.5244 62.373C43.3676 62.3502 43.1804 62.2662 43.1223 62.3214C42.6787 62.7391 42.2301 63.1594 41.8396 63.6257C41.1262 64.481 40.5918 65.562 39.7241 66.1914C38.6119 66.999 38.4293 68.2367 37.787 69.2477C36.8575 70.7132 36.3467 72.3268 36.3044 74.0719C36.2996 74.2799 36.3034 74.4869 36.3045 74.6949C36.5297 74.6609 36.8815 74.7076 36.9606 74.5819C37.5711 73.6301 38.5975 73.13 39.3205 72.2675C41.5158 69.6492 43.1125 66.8202 43.372 63.3536L43.5244 62.373ZM36.1164 74.134C35.9909 73.7595 35.8653 73.385 35.8421 72.5923C35.7895 72.6755 35.7359 72.7589 35.6836 72.8429C35.7584 72.8793 35.8326 72.9169 35.9066 72.9536C35.9399 72.8601 35.9818 72.7687 35.9981 72.6719C36.0013 72.655 35.9003 72.6204 35.7395 73.0097C35.0747 73.4291 35.7597 73.844 35.9277 74.5733C35.7884 74.4752 35.6769 74.3976 35.5659 74.3187C35.527 74.428 35.4318 74.5591 35.464 74.6406C35.5241 74.793 35.658 74.9167 35.761 75.0518C35.81 74.9103 35.8599 74.7686 35.7402 74.2603L36.1164 74.134ZM147.253 90.2215C147.918 89.803 147.231 89.3874 147.533 88.3746C147.384 88.1766 147.244 87.9905 147.102 87.804C147.073 87.9558 146.979 88.1322 147.026 88.254C147.118 88.49 147.29 88.6942 147.429 88.9104C147.462 88.7437 147.494 88.5761 147.251 88.9703C146.586 89.3898 147.272 89.8044 147.439 90.534C147.3 90.4359 147.188 90.3582 147.077 90.2803C147.038 90.3887 146.943 90.5198 146.976 90.6009C147.036 90.7534 147.169 90.8774 147.272 91.0124C147.322 90.8707 147.371 90.7293 147.253 90.2215ZM85.1754 88.0734C85.0352 87.9756 84.9246 87.8977 84.8127 87.8192C84.7756 87.9278 84.6795 88.0593 84.7105 88.1401C84.7718 88.2931 84.9054 88.4159 85.0087 88.5519C85.0577 88.4105 85.1067 88.2691 84.9135 86.7825C84.8906 87.1145 84.8634 87.2645 84.8767 87.4108C84.8878 87.5301 84.9496 87.6433 84.9888 87.7601C85.0843 87.6328 85.2576 87.5032 85.2569 87.3765C85.2558 87.2311 85.1001 87.0869 85.1754 88.0734ZM145.934 88.5371C145.794 88.4393 145.683 88.3614 145.572 88.2837C145.534 88.3915 145.438 88.523 145.471 88.6044C145.53 88.7571 145.664 88.8796 145.767 89.0156C145.816 88.8742 145.866 88.7328 145.672 87.2462C145.649 87.5782 145.622 87.7291 145.635 87.8745C145.647 87.9938 145.708 88.1082 145.747 88.225C145.843 88.0965 146.016 87.9669 146.016 87.8402C146.015 87.6948 145.859 87.5515 145.934 88.5371ZM102.576 76.3969C102.437 76.2988 102.325 76.2212 102.214 76.1435C102.175 76.2516 102.08 76.3836 102.112 76.4642C102.172 76.6166 102.306 76.7403 102.41 76.8763C102.459 76.7349 102.507 76.5925 102.314 75.106C102.292 75.4377 102.264 75.5889 102.278 75.7352C102.289 75.8545 102.35 75.9688 102.389 76.0848C102.485 75.9563 102.658 75.8279 102.658 75.7009C102.656 75.5545 102.501 75.4113 102.576 76.3969ZM85.4632 84.7154C85.4115 84.7982 85.3582 84.8825 85.3047 84.966C85.3798 85.0032 85.4538 85.0399 85.5286 85.0763C85.5613 84.984 85.6029 84.8917 85.6201 84.7947C85.6228 84.7789 85.5217 84.7444 85.4168 85.3003C85.398 85.2441 85.3794 85.1889 85.3606 85.1327C85.2757 85.1998 85.1724 85.2563 85.1147 85.3422C85.0965 85.3681 85.2036 85.477 85.2523 85.548C85.307 85.4651 85.362 85.3832 85.4632 84.7154ZM140.701 76.1915C140.648 76.2746 140.596 76.3577 140.543 76.4421C140.617 76.4785 140.692 76.516 140.766 76.5527C140.799 76.4583 140.84 76.3669 140.857 76.2711C140.86 76.2541 140.759 76.2196 140.654 76.7755C140.636 76.7203 140.617 76.665 140.598 76.6088C140.512 76.6754 140.41 76.7316 140.351 76.8177C140.334 76.8424 140.44 76.9516 140.49 77.0241C140.545 76.9412 140.599 76.8587 140.701 76.1915ZM103.89 74.3301C104.7 73.7628 103.352 73.012 104.054 72.4342C103.661 71.6127 103.758 70.7114 103.634 69.8455C103.484 68.8133 102.668 67.9394 102.905 66.8105C103.297 67.8426 103.703 68.8678 104.073 69.9074C104.399 70.8227 104.687 74.5339 104.566 75.7946C104.468 76.8256 104.333 77.8546 104.282 78.8876C104.167 81.1639 103.26 83.229 102.604 85.3625C102.274 86.4363 102.041 87.5085 101.156 88.3788C100.606 88.9184 101.005 90.2051 99.789 90.3987C99.7693 90.4024 99.8047 90.6325 99.7804 90.7498C99.4765 92.174 98.4774 93.1589 97.56 94.1888C97.4228 94.343 97.0835 94.5203 96.9625 94.4558C96.0435 93.9656 96.031 95.0966 95.4849 95.2412C95.6341 96.8784 94.0373 97.0858 93.1996 97.8638C92.845 98.1941 92.2736 98.6278 91.4879 98.5769C90.9187 98.5398 90.2709 99.1341 89.7152 99.5288C87.868 100.84 85.4139 101.616 83.291 101.257C82.1432 101.062 80.9392 101.024 79.8606 100.639C78.3473 100.099 77.0336 99.1909 76.5476 97.495C76.4746 97.2418 76.4533 96.8551 76.2854 96.7696C75.563 96.4029 75.4507 95.8901 75.747 95.2054C74.9716 94.9359 75.6796 94.2569 75.3593 93.7762C75.0898 93.3726 75.2208 92.7018 75.1758 92.1495C75.129 91.5978 75.017 91.0412 75.0533 90.4943C75.1108 89.5833 75.249 88.6759 75.3866 87.7727C75.4408 87.4124 75.4828 86.8557 75.7041 86.7507C76.3981 86.4186 76.0794 86.3311 75.6831 86.0772C75.5817 86.0121 75.6445 85.6121 75.7041 85.3838C76.1122 83.8135 76.5937 82.2633 77.0536 80.7083C77.861 77.9804 79.4827 75.6588 80.5838 73.0863C82.0326 71.8533 82.7432 70.0436 84.0337 68.6911C85.3003 67.3625 86.5857 66.0514 87.8792 64.7495C88.4376 64.1882 89.0388 63.6681 89.6205 63.1287C89.1547 62.5073 88.6814 61.8904 88.2253 61.2598C86.8808 59.3967 83.2677 55.9984 81.553 54.9588C81.0181 54.6354 80.5209 54.2467 80.0073 53.8863C79.4932 53.5272 79.0141 53.0947 78.4548 52.8261C77.7168 52.4726 76.9146 52.2477 76.1398 51.968C75.3644 51.6866 74.6094 51.318 73.8109 51.1425C70.6232 50.4364 67.4218 50.2765 64.1335 50.4801C61.229 50.66 58.6134 51.6069 55.9415 52.4925C55.3037 52.7045 54.6493 53.051 54.1715 53.5119C53.3397 54.3137 52.2467 54.6328 51.3223 55.2504C51.034 55.4433 50.9627 55.5655 50.8653 55.9186C50.5542 57.0456 50.5235 57.0311 50.6604 57.7153C50.8569 58.6928 51.1539 59.7032 51.0622 60.6664C50.9989 61.3284 51.3328 61.7788 51.3874 62.3388C50.836 62.5595 51.2247 62.9122 51.3566 63.3708C51.3107 63.4298 51.1992 63.3522 51.0877 63.2746C51.049 63.3817 50.9541 63.5138 50.9864 63.5952C51.0464 63.7477 51.1801 63.8705 51.2833 64.0064C51.3324 63.865 51.3823 63.7233 51.3566 63.3708C51.3888 63.1735 51.514 63.1315 51.6391 63.0896C51.8838 63.7187 52.1515 64.351 51.306 64.8687C51.2783 64.878 51.3346 64.8592 51.39 64.8406C51.3223 64.7542 51.2673 64.6526 51.1808 64.5933C51.1555 64.577 51.0459 64.6832 50.9751 64.7328C51.0571 64.7876 51.14 64.8421 51.306 64.8687C51.5931 65.2148 51.3682 65.5879 51.3804 65.9329C51.4133 66.8047 50.7344 67.342 50.5698 68.0816C50.4054 68.8163 50.2532 69.4417 49.665 70.0626C48.8467 70.9283 48.4063 72.1325 47.7935 73.1752C47.289 74.0339 46.4211 74.4342 45.9246 75.2902C45.5111 76.0023 44.8218 76.8227 43.7923 76.9816C43.728 76.9913 43.6296 77.0035 43.61 77.0458C43.3674 77.5468 43.0724 77.9096 42.462 78.0787C41.9525 78.2198 41.543 78.6856 41.0554 78.9454C40.4937 79.245 39.9033 79.4946 39.3102 79.7273C38.7579 79.9453 38.1853 80.1117 37.6223 80.3006C36.9958 80.5108 36.3837 80.8173 35.7413 80.9118C34.2524 81.1296 32.7969 80.8571 31.382 80.3766C30.798 80.1768 30.1625 80.0547 29.6505 79.7374C27.06 78.1347 26.6128 74.8556 27.0814 72.4278C27.5564 69.9632 28.7426 67.8283 29.896 65.6817C30.5096 64.5404 31.3695 63.508 32.2333 62.5288C33.6108 60.9675 35.0435 59.4493 36.5311 57.994C37.6609 56.8858 38.9157 55.9044 40.1111 54.8616C40.3403 54.6617 40.5203 54.386 40.7767 54.2375C41.2342 53.9739 41.0008 53.6158 40.8507 53.4142C40.2377 52.5823 39.602 51.757 38.8997 50.9997C37.5216 49.5139 36.1421 48.0296 34.4425 46.8807C34.0527 46.6167 33.8607 45.9848 33.457 45.8306C32.591 45.4982 31.6048 45.4512 31.0207 44.5778C29.9402 44.73 29.2607 43.8272 28.3402 43.5667C27.5064 43.3306 26.6652 43.1109 25.8154 42.9427C24.9167 42.7651 24.0046 42.6456 23.0953 42.5221C19.775 42.0728 16.5318 42.3843 13.4802 43.8068C11.6823 44.6451 10.3559 46.1485 8.93764 47.4963C8.87512 47.5559 9.06354 47.9074 9.17014 48.1037C9.28032 48.3078 9.57926 48.6241 9.54503 48.6614C9.28338 48.9456 8.94383 49.3948 8.66129 49.3735C7.95823 49.3197 7.44125 49.385 6.98805 50.0083C6.82974 50.227 6.28656 50.321 5.97387 50.2454C5.02506 50.0162 4.15055 49.5934 3.36405 48.9883C2.72997 48.4998 2.60901 47.9729 2.7825 47.1738C3.11821 45.6308 3.78433 44.2933 4.84433 43.1521C5.06907 42.909 5.51941 42.6746 5.80348 42.7331C6.22764 42.8209 6.33651 42.9113 6.27127 42.3787C6.2382 42.1051 6.45279 41.562 6.60714 41.5419C7.62589 41.4104 8.21798 40.5164 9.13644 40.2311C10.208 39.8984 11.2443 39.389 12.3366 39.2011C13.5564 38.9902 14.7792 38.7585 16.0268 38.6454C17.3171 38.529 18.5917 38.2829 19.9119 38.2645C23.6775 38.2152 28.0578 38.6472 31.3541 39.7781C33.3619 40.4673 35.5919 40.722 37.2044 42.3345C38.2643 42.2517 38.8562 43.1006 39.6663 43.5271C41.6906 44.5888 43.1375 46.3362 44.913 47.6818C45.35 48.0123 45.4135 48.4006 45.5892 48.797C46.0035 49.7243 46.7815 50.1289 47.7323 49.792C48.5602 49.4974 49.5361 49.4576 50.0842 48.5983C52.5883 47.7581 55.0925 46.9179 57.5976 46.0775C58.4654 46.3438 59.2129 45.8897 60.012 45.6989C60.8015 45.5094 61.6135 45.3928 62.421 45.3014C63.5247 45.1771 64.6362 45.1206 65.7408 45.0109C68.8052 44.7088 71.8502 44.9569 74.8924 45.2823C76.8127 45.4881 78.6383 46.1086 80.4809 46.6341C81.273 46.8584 82.0347 47.1851 82.8095 47.4647C83.5841 47.7465 84.3901 47.9651 85.1254 48.3254C85.7915 48.6515 86.3657 49.1572 87.0053 49.5407C88.2181 50.2696 89.4285 51.0062 90.6779 51.6692C91.8557 52.2938 92.8373 53.125 93.772 54.0652C94.7624 55.0621 95.8431 55.9663 96.6406 57.141C96.9985 57.6686 97.4091 57.8553 98.0554 57.5382C99.1965 56.9768 100.539 56.9331 101.562 55.9838C101.927 55.6461 102.978 55.9947 103.28 55.6503C103.732 55.1347 104.31 54.8604 104.778 54.899C106.008 55.0011 107.026 54.4353 108.131 54.1438C109.59 53.7595 111.11 53.7893 112.591 53.5709C113.384 53.4549 114.287 53.3493 115.151 53.4452C116.059 53.5484 116.975 53.5691 117.889 53.6217C118.742 53.6727 119.611 53.6261 120.443 53.7816C122.849 54.2271 125.242 54.7276 127.46 55.8533C128.424 56.3422 129.555 56.5344 130.466 57.0936C131.675 57.8364 132.714 58.8537 133.884 59.6684C134.963 60.4176 135.735 61.4591 136.681 62.318C138.381 63.8646 139.722 65.6601 140.953 67.5664C141.2 67.9489 141.498 66.5333 141.77 67.5898C141.86 67.9367 142.13 68.2359 142.317 68.5569C142.365 68.6389 142.457 68.7223 142.454 68.8026C142.424 69.9473 142.411 69.9617 143.397 70.6426C143.709 70.8584 143.853 71.3506 143.653 71.3434C143.239 71.3255 142.905 71.0051 143.144 71.7562C143.472 72.784 143.454 72.79 144.478 73.2213C144.064 73.372 143.435 73.4846 144.028 74.0753C144.968 75.009 145.161 76.2436 145.291 77.415C145.345 77.9108 145.408 78.4056 145.548 78.8782C145.81 79.7604 146.321 80.6167 146.361 81.501C146.399 82.3442 146.501 83.2138 146.534 84.0538C146.567 84.8789 146.747 85.7824 146.903 86.6438C146.944 86.868 147.154 87.0617 147.285 87.2687C147.284 87.0387 147.256 86.8041 147.292 86.5788C147.327 86.3708 147.427 86.1724 147.498 85.969C148.32 87.8172 147.998 89.7819 147.886 91.6685C147.737 94.2171 147.588 96.7856 146.979 99.2982C146.83 99.9135 147.097 100.631 146.382 101.049C146.628 101.78 146.417 102.432 146.012 103.036C145.632 103.604 146.325 104.284 145.751 104.862C145.315 105.302 145.532 105.923 145.484 106.478C145.436 107.007 145.596 107.785 144.849 108.149C144.725 108.209 144.743 108.557 144.695 108.772C144.92 108.754 145.248 108.824 145.353 108.703C146.038 107.909 146.893 107.303 147.636 106.591C149.489 104.815 151.467 103.188 153.364 101.47C153.818 101.06 154.283 100.284 154.705 100.308C155.415 100.351 155.741 99.8482 156.272 99.6927C157.158 99.4352 158.023 99.1015 158.905 98.8255C159.668 98.5872 161.433 99.2855 161.797 99.9449C162.187 100.65 162.165 101.087 161.576 101.669C160.709 102.525 159.786 103.324 158.904 104.166C156.39 106.569 153.821 108.922 151.227 111.226C149.185 113.039 147.157 114.908 144.952 116.556C144.587 116.829 144.215 117.008 143.84 117.226C143.418 117.473 143.02 117.994 142.617 117.991C142.098 117.984 142.215 118.94 141.599 118.518C141.562 118.492 141.4 118.575 141.359 118.645C140.745 119.69 139.905 119.847 138.85 119.344C138.645 119.246 138.362 119.33 138.127 119.276C137.642 119.164 137.156 119.046 136.69 118.875C135.563 118.462 135.112 117.337 134.388 116.526C133.781 115.848 133.506 114.874 133.084 114.032C133 113.863 132.949 113.66 132.823 113.535C131.235 111.957 130.263 109.948 128.979 108.16C127.979 106.767 127.068 105.316 126.081 103.916C125.055 102.46 124.117 100.94 123.186 99.4187C122.966 99.0572 122.928 98.6373 123.067 98.1277C123.182 97.7049 122.728 96.905 123.245 96.7555C123.743 96.6123 124.471 96.9266 124.686 97.6748C124.732 97.8338 124.909 97.955 125.025 98.0924C125.033 97.9103 125.079 97.7192 125.042 97.5474C124.945 97.1184 124.609 96.6918 125.008 96.2672C125.163 96.1019 125.415 95.8746 125.579 95.9051C125.806 95.9488 125.98 96.314 126.2 96.3393C126.351 96.3561 126.515 95.966 126.724 95.8741C127.116 95.7017 129.074 96.262 129.326 96.6088C129.945 97.4577 130.72 98.141 131.507 98.8282C132.005 99.2623 132.438 99.7865 132.433 100.521C133.46 100.148 133.189 101.569 133.929 101.612C133.978 101.616 134.01 101.848 134.056 101.971C134.215 102.39 135.045 103.361 135.36 103.542C135.826 103.809 136.104 103.622 136.241 103.175C136.31 102.947 136.272 102.689 136.309 102.45C136.476 101.301 136.662 100.157 136.821 99.0065C136.986 97.7992 137.311 96.5755 137.226 95.3819C137.144 94.2003 137.421 93.0688 137.378 91.9076C137.333 90.7502 137.358 89.5903 137.356 88.4293C137.355 87.6192 136.946 86.9025 136.979 86.0293C137.004 85.3534 136.856 84.5521 136.75 83.8129C136.642 83.0703 135.897 82.4316 136.39 81.5938C135.258 81.313 136.188 80.3996 135.86 79.8293C135.506 79.2139 135.46 78.426 135.126 77.7942C134.004 75.6788 133.509 73.2301 131.767 71.4448C131.4 69.7041 129.806 68.7858 128.961 67.3295C128.197 66.0114 126.698 65.1315 125.59 63.9945C123.575 61.928 121.08 60.551 118.447 59.6174C116.655 58.9826 114.572 58.8123 112.66 58.9589C110.675 59.1129 108.608 59.2549 106.71 60.0495C105.659 60.4896 104.546 60.8828 103.649 61.5506C103.18 61.9005 102.719 62.1593 102.203 62.3918C101.28 62.8096 101.038 63.365 101.358 64.2694C101.44 64.5056 101.572 64.7254 101.68 64.9539C101.892 64.8501 102.103 64.7475 102.314 64.644C102.397 64.8928 102.483 65.1428 102.565 65.3939C102.63 65.5924 102.628 65.5782 102.158 65.5149C102.06 65.502 101.944 65.6401 101.836 65.7082C102.194 65.9779 101.312 66.6059 102.134 66.7408C102.466 68.028 103.2 69.1586 103.15 70.6157C103.108 71.845 103.622 73.091 103.89 74.3301C103.225 74.7487 103.911 75.1633 103.985 75.7366C103.939 75.7948 103.828 75.7171 103.717 75.6392C103.679 75.7473 103.584 75.8793 103.615 75.9601C103.675 76.1126 103.809 76.2363 103.913 76.3719C103.962 76.2305 104.011 76.0882 103.985 75.7366C104.556 75.1622 103.87 74.7475 103.89 74.3301Z" fill="#FF7272"/>
</svg>
