<svg width="142" height="216" viewBox="0 0 142 216" fill="none" xmlns="http://www.w3.org/2000/svg">
<path fill-rule="evenodd" clip-rule="evenodd" d="M26.2837 166.099C21.9505 166.949 16.8452 168.396 14.5604 172.455C15.5688 175.617 16.3725 175.161 18.3106 177.458C17.4439 180.023 15.4113 181.785 14.1822 184.884C10.5896 193.852 11.5665 197.187 13.8828 205.321C14.8755 208.829 14.7022 212.542 16.7664 215.044C17.4597 214.052 17.2391 214.996 17.5542 213.187C17.7748 211.913 17.7118 211.771 17.5227 210.481C16.1991 202.017 8.84053 192.294 20.942 178.748C30.9793 180.117 30.9006 178.418 30.1285 168.963C56.5375 169.34 74.3903 169.938 95.631 158.784C157.257 126.421 151.616 32.1354 106.708 7.74977C88.6978 -2.03596 64.2742 -2.93272 45.539 7.23059C7.97389 27.6359 -6.44392 69.8152 2.63221 112.372C6.03575 128.325 13.3313 146.119 22.1238 159.602C24.0777 162.591 24.8341 162.622 26.2995 166.115L26.2837 166.099Z" fill="#CDFBB6"/>
<path fill-rule="evenodd" clip-rule="evenodd" d="M9.64992 113.853C25.5174 115.961 23.3429 110.942 28.2749 100.181C33.0336 89.8132 41.4479 90.065 38.3122 75.6695C28.1173 63.6968 18.8679 75.0244 12.8171 83.4257C6.9712 91.5438 0.558031 104.728 9.66567 113.853H9.64992Z" fill="#F2F3E3" fill-opacity="0.5"/>
<path fill-rule="evenodd" clip-rule="evenodd" d="M41.8261 56.6488C32.2458 62.7531 41.4952 72.6647 48.9168 68.3382C55.9918 64.2162 50.2089 51.2997 41.8261 56.6488Z" fill="#EEECE1" fill-opacity="0.5"/>
</svg>
