<svg width="90" height="85" viewBox="0 0 90 85" fill="none" xmlns="http://www.w3.org/2000/svg">
<path d="M10.8536 53.9311C10.7824 53.8594 10.6992 53.728 10.6517 53.7399C10.5092 53.7758 10.3786 53.8594 10.248 53.9311C10.3192 53.9908 10.3905 54.1342 10.4499 54.1222C10.5805 54.0864 10.7111 54.0028 10.8536 53.9311ZM85.44 52.5095C85.3569 52.5931 85.2857 52.6529 85.2263 52.7245C85.3569 52.7962 85.4875 52.8798 85.63 52.9157C85.6775 52.9276 85.7607 52.7962 85.82 52.7245C85.6894 52.6529 85.5588 52.5812 85.44 52.5095ZM17.2305 51.733C17.3136 51.6494 17.373 51.5897 17.4442 51.518C17.3136 51.4463 17.183 51.3627 17.0405 51.3269C16.993 51.3149 16.9098 51.4463 16.8386 51.518C16.9811 51.5897 17.0998 51.6613 17.2305 51.733ZM85.1313 50.3951C85.0719 50.2756 84.9888 50.1442 84.9175 50.0128C84.8582 50.0725 84.7275 50.1561 84.7394 50.2039C84.7632 50.3473 84.8582 50.4787 84.9175 50.6101C84.9888 50.5504 85.06 50.4787 85.1313 50.3951ZM85.3094 49.0213C85.3807 49.1407 85.4519 49.2721 85.5232 49.4035C85.5944 49.3319 85.725 49.2602 85.7132 49.2005C85.6775 49.0691 85.5944 48.9377 85.5232 48.8063C85.4519 48.866 85.3925 48.9377 85.3094 49.0213ZM33.036 8.6199C32.9529 8.54822 32.7629 8.38098 32.751 8.38098C31.611 9.55169 30.2216 10.5432 30.0554 12.359C30.0316 12.6218 30.2097 12.8966 30.2929 13.1594C30.5066 12.9682 30.7679 12.8249 30.9222 12.5979C31.6466 11.4989 31.896 10.1131 33.0241 9.25304C33.1191 9.19331 33.036 8.87076 33.3922 7.81952C33.2735 7.91508 33.1547 8.01065 33.036 8.10622C33.131 8.18984 33.2141 8.28541 33.3091 8.36903C33.4041 8.24957 33.4991 8.14206 33.5704 8.01065C33.5822 7.98676 33.4635 7.89119 33.036 8.6199ZM75.0257 53.0232C75.2276 52.8201 75.4295 52.617 79.8232 44.1951C79.8232 44.004 79.8588 43.7889 79.8113 43.5978C79.7638 43.335 79.6569 43.0722 79.5738 42.8094C79.4551 43.0363 79.3007 43.2394 79.2294 43.4783C78.5526 45.7839 77.567 47.9581 76.4507 50.0845C76.1657 50.6579 75.8807 51.2313 75.6313 51.8286C75.5601 51.9958 75.6313 52.2228 75.6313 52.4259C75.7976 52.3542 75.9995 52.3184 76.1301 52.2109C77.472 51.064 77.9351 49.4155 78.6713 47.8984C79.2532 46.7038 79.8588 45.5689 75.6313 52.4259C75.4295 52.617 75.2276 52.8201 75.0257 53.2979C75.0257 53.2024 75.0257 53.1188 75.0257 53.0232C74.8713 53.0829 74.6932 53.1068 74.5745 53.2024C74.5388 53.2382 74.6339 53.4413 74.6695 53.5727C74.7882 53.4771 74.907 53.3816 75.0257 53.0232ZM39.0328 13.1952C38.1422 13.2549 38.5222 13.9478 38.4391 14.4137C38.2372 14.569 37.9641 14.6885 37.8453 14.8915C37.4535 15.5964 38.4747 16.0981 38.1066 16.9104C37.8335 17.4958 37.8572 18.2364 37.8453 18.9054C37.8335 20.2673 38.8547 22.8595 40.2441 24.8306C41.9065 27.184 43.759 29.3582 46.4428 30.5767C48.3428 31.4487 50.3377 32.3088 52.4752 31.8788C54.7315 31.4129 56.5365 32.7628 58.5552 33.2048C59.6714 33.4437 59.8021 35.1878 58.8046 35.8209C58.0208 36.3227 57.2133 36.7886 56.1802 36.7527C53.7815 36.693 51.3471 37.0275 48.9959 36.6691C44.4478 35.9762 40.0541 34.6502 36.4797 31.4607C35.7672 30.8275 34.8885 30.3736 34.1997 29.7285C31.3616 27.1004 28.9866 24.0661 27.8823 20.327C26.5641 15.8831 26.4929 13.5775 28.8679 9.0619C30.1147 6.68465 32.1454 5.0361 34.366 3.50701C37.3822 1.41646 40.6003 0.377156 44.234 0.520508C45.3384 0.568292 46.4309 0.556346 47.5353 0.520508C51.1927 0.436886 54.6483 1.53592 58.0921 2.53938C62.0227 3.6862 65.6445 5.60951 69.1714 7.64033C72.2232 9.39639 75.2751 11.1763 77.7332 13.7925C78.9682 15.1185 80.2626 16.3729 81.5451 17.6391C83.7419 19.8014 85.345 22.3936 86.6038 25.1771C88.3375 29.0117 89.7388 32.9778 89.3706 37.2664C89.2163 39.1778 90 40.898 90 42.7496C90 42.9169 89.7506 43.0841 89.62 43.2633C89.5488 43.0841 89.4775 42.9169 89.43 42.7377C89.3944 42.6421 89.4419 42.5346 89.4181 42.439C89.3469 42.1643 89.2638 41.9015 89.1925 41.6267C89.0619 41.9373 88.8956 42.224 88.8244 42.5465C88.67 43.2633 89.2163 43.8128 89.3469 44.4221C89.4656 44.9835 89.9881 46.0228 88.8244 46.3932C88.8244 45.8914 88.8244 45.3897 88.8125 44.8999C88.8125 44.8282 88.67 44.6849 88.6344 44.6968C88.48 44.7327 88.2425 44.8163 88.2425 44.8999C88.2069 45.3897 88.2188 45.8914 88.2188 46.3932C87.0669 46.6679 87.8506 47.5997 87.625 48.197C86.4613 48.4837 87.2569 49.4155 87.0194 50.0128C86.1288 50.0606 86.5088 50.7534 86.4256 51.3507C86.4256 51.3985 86.4256 51.303 86.4256 51.2193C86.2713 51.2671 86.0931 51.303 85.9625 51.3985C85.9269 51.4224 86.0338 51.6375 86.0694 51.7689C86.1881 51.6733 86.3069 51.5777 86.4256 51.3507C86.6275 51.2193 86.8175 51.2193 87.0194 51.2193C86.8056 52.4498 86.58 53.6802 85.0838 54.2297C85.0482 54.2297 85.1313 54.2297 85.2263 54.2297C85.1669 54.0744 85.1313 53.8952 85.0363 53.7758C85.0125 53.7399 84.7988 53.8355 84.68 53.8714C84.775 53.9908 84.8582 54.1103 85.0838 54.2297C85.2263 54.5284 85.3569 54.9584 85.2025 55.1137C82.7088 57.8374 80.3932 60.6686 77.5076 63.0937C73.3157 66.6177 68.6133 69.0547 63.7445 71.2408C60.9658 72.4832 57.9733 73.2597 55.0402 74.1198C52.6771 74.8127 50.1834 75.0158 47.7846 75.4817C45.3265 75.9595 42.9397 75.852 40.5172 75.9356C38.1184 76.0192 35.6841 76.2104 33.3329 75.8998C28.4166 75.2666 23.4885 74.5021 18.9404 72.316C17.278 71.5156 15.6511 70.6197 14.0005 69.7715C13.7986 69.664 13.573 69.5923 13.3592 69.4967C13.3592 69.7715 13.2524 70.094 13.3592 70.3091C14.7486 73.1522 15.0692 76.4135 16.6961 79.173C16.9217 79.5433 16.9455 80.1645 16.8148 80.6065C16.4942 81.7653 16.0548 82.8882 15.6392 84.0231C15.5917 84.1545 15.4017 84.2262 15.2711 84.3337C15.1998 84.1545 15.1048 83.9872 15.0455 83.82C14.6773 82.5059 14.1548 82.1834 13.2524 82.9479C12.5755 83.5213 12.1836 84.0231 11.5186 82.9838C10.9961 82.1834 10.6874 83.0315 10.4855 83.2824C9.27426 84.8234 8.33614 84.8832 7.25552 83.4138C7.05364 83.151 6.8874 82.6373 6.6974 82.6254C4.27491 82.5776 4.74991 80.1167 3.64554 78.9938C3.15867 76.0192 2.06618 73.188 1.47243 70.2852C0.949932 67.6929 -0.0238116 65.1603 -6.17002e-05 62.4008C0.0355631 59.474 -0.0475614 59.5815 2.16117 57.7896C5.4149 55.1615 8.97738 52.9754 12.3974 50.5982C13.6917 49.6903 15.188 49.0691 16.4823 48.1731C18.2398 46.9666 20.1398 47.8864 21.9448 47.6475C22.111 47.6236 22.3129 48.639 22.5979 48.6987C22.9542 48.7824 23.4054 48.2806 23.8448 48.2209C24.4029 48.1492 25.5548 49.8814 25.1867 50.2876C24.581 50.9804 24.6523 52.2586 23.441 52.4259C23.3104 52.187 23.2035 51.9242 23.0254 51.7211C22.7404 51.3866 22.2892 50.849 22.2654 51.8525C22.2417 52.7604 20.2942 52.2467 21.0423 53.6324C20.4486 54.0267 19.8429 54.4328 19.2492 54.839C18.7504 54.7195 18.2992 55.938 17.7886 54.8748C17.6698 55.269 17.563 55.6513 17.4442 56.0455C17.0167 56.1292 16.3042 55.7708 16.2805 56.4995C16.233 57.5029 15.568 57.2043 14.7723 57.3118C14.713 57.2162 14.8792 57.0848 15.0455 56.9654C14.903 56.8579 14.7605 56.6548 14.6298 56.6667C14.3805 56.6787 14.143 56.8101 13.8936 56.8937C14.0717 57.037 14.2617 57.1804 14.7723 57.3118C15.0455 57.6463 15.0455 58.0525 15.0455 58.4586C14.4755 58.5303 13.9055 58.602 13.3355 58.6617C13.6324 59.1993 13.8105 59.9638 14.2617 60.2266C18.2398 62.6158 22.1229 65.2439 26.576 66.6655C28.0723 67.1314 29.6398 67.6212 31.326 67.5376C33.8197 67.4181 36.3135 67.5376 38.8072 67.5017C41.6809 67.454 44.4715 66.7491 47.2384 66.128C49.5659 65.6143 51.834 64.7303 54.0784 63.8702C56.584 62.9025 58.9946 61.7677 61.4052 60.5492C65.3952 58.5542 68.5776 55.711 71.582 52.5573C74.3013 49.6903 76.0113 46.3095 76.8782 42.4032C77.3532 40.2649 77.6976 38.1146 77.9945 35.9643C78.2201 34.2799 76.8307 28.1994 76.2607 26.7659C74.527 22.4175 72.2589 18.4395 68.5776 15.5247C64.5402 12.3232 60.0633 9.86228 55.0758 8.33319C50.4327 6.91162 46.2646 8.0226 42.2984 10.3162C41.2178 10.9374 40.5172 12.2156 39.6384 13.1952C39.5672 13.0399 39.5078 12.8727 39.4366 12.7054C39.3059 12.8727 39.1753 13.0399 39.0328 13.1952Z" fill="#FFC305"/>
</svg>
