<svg width="107" height="71" viewBox="0 0 107 71" fill="none" xmlns="http://www.w3.org/2000/svg">
<path d="M14.0535 64.8819C14.0701 64.8049 14.0861 64.7247 14.0996 64.6451C14.1377 64.6767 14.2042 64.7087 14.2056 64.7384C14.2107 64.8206 14.1867 64.8993 14.1738 64.9821C14.1358 64.9505 14.1003 64.9183 14.0535 64.8819ZM8.28376 63.9322C8.26954 64.0087 8.25356 64.0888 8.23757 64.169C8.20273 64.14 8.133 64.1054 8.13163 64.0757C8.12895 63.9929 8.15303 63.9143 8.16337 63.832C8.20139 63.8636 8.23941 63.8953 8.28376 63.9322ZM6.32813 60.6559C6.28308 60.6158 6.24576 60.5874 6.21022 60.5552C6.25858 60.5045 6.30414 60.4412 6.36233 60.4117C6.38068 60.401 6.4338 60.4659 6.47181 60.4976C6.42415 60.5514 6.37332 60.6026 6.32813 60.6559ZM5.92042 59.6856C5.85704 59.6562 5.79187 59.6306 5.72601 59.6017C5.74476 59.5576 5.76567 59.4763 5.78682 59.4783C5.85201 59.4806 5.91997 59.519 5.98761 59.5441C5.96639 59.5888 5.94517 59.6335 5.92042 59.6856ZM4.61767 55.3788C4.57332 55.3419 4.53531 55.3103 4.50046 55.2813C4.54882 55.2306 4.59438 55.1673 4.65188 55.1346C4.67022 55.1239 4.72404 55.1921 4.76205 55.2237C4.71369 55.2743 4.66356 55.3287 4.61767 55.3788ZM3.14153 52.2236C3.17954 52.2553 3.24611 52.2873 3.24747 52.317C3.25016 52.3997 3.22855 52.4778 3.21574 52.5607C3.17772 52.529 3.11116 52.497 3.10979 52.4673C3.10463 52.3851 3.12872 52.3065 3.14153 52.2236ZM2.84944 51.7079C2.83523 51.7844 2.81924 51.8646 2.80573 51.9442C2.76772 51.9126 2.70116 51.8806 2.69979 51.8509C2.69462 51.7687 2.71871 51.69 2.73152 51.6072C2.76954 51.6388 2.80509 51.671 2.84944 51.7079ZM1.73261 49.127C1.7184 49.2035 1.70559 49.2863 1.6889 49.3633C1.65159 49.3348 1.58433 49.2996 1.58366 49.2731C1.5785 49.1909 1.60189 49.1091 1.6154 49.0295C1.65272 49.0579 1.68826 49.0901 1.73261 49.127ZM5.40213 59.1297C5.34179 58.9496 5.2768 58.8072 5.252 58.6594C5.24397 58.6111 5.33922 58.5502 5.38688 58.4963C5.4487 58.6361 5.52532 58.7725 5.56563 58.9203C5.5765 58.9579 5.48158 59.0322 5.40213 59.1297ZM4.96898 55.6582C5.06432 55.7738 5.16852 55.8476 5.18039 55.925C5.20025 56.0739 5.16372 56.2253 5.1494 56.3718C5.08924 56.2984 4.9882 56.2273 4.97247 56.1441C4.94343 56.0005 4.96623 55.8454 4.96898 55.6582ZM103.632 15.12C103.717 15.0081 103.764 14.8843 103.826 14.8808C103.943 14.8717 104.064 14.9315 104.186 14.9648C104.132 15.0367 104.087 15.1531 104.023 15.1673C103.908 15.1859 103.784 15.1399 103.632 15.12ZM96.0098 10.1613C96.0435 10.0205 96.0511 9.87884 96.0839 9.87495C96.1995 9.8595 96.3249 9.88855 96.4493 9.90116C96.4315 9.98508 96.4313 10.1251 96.3943 10.1333C96.2829 10.1678 96.1585 10.1552 96.0098 10.1613ZM105.539 14.5169C105.508 14.8105 105.486 15.0084 105.468 15.2059C105.309 15.0741 105.109 14.985 105.007 14.8072C104.654 14.1884 104.355 13.5242 103.997 12.9096C103.852 12.6615 103.476 12.5744 103.658 12.1341C103.85 12.322 104.044 12.5093 104.236 12.7004C104.412 12.8782 104.609 13.0348 104.754 13.2462C105.034 13.658 105.284 14.1029 105.539 14.5169ZM12.7867 61.4673C12.7553 61.7242 12.7335 61.919 12.7085 62.1112C12.6369 61.9737 12.5772 61.8201 12.4892 61.7028C12.395 61.5802 12.2252 61.5143 12.1722 61.3793C11.7175 60.2426 11.0631 59.28 10.4394 58.2806C9.81778 57.2907 9.2255 56.2577 8.70729 55.1851C8.16273 54.0516 7.41383 53.1064 6.84703 52.0011C6.78238 51.872 6.77312 51.7007 6.73775 51.5518C6.87972 51.5972 7.04342 51.7179 7.15907 51.6791C7.57305 51.5379 7.534 51.9599 7.67984 52.2345C8.42132 53.6513 9.11302 55.1358 9.98898 56.423C10.879 57.7271 11.3886 59.3483 12.4223 60.5175C12.4779 60.5819 12.3407 60.8755 12.3955 61.0067C12.4675 61.1809 12.6393 61.3031 12.7867 61.4673ZM4.72049 57.5263C4.18028 57.4819 4.4085 56.885 4.23628 56.5729C3.69606 56.5285 3.9243 55.9315 3.75277 55.6226C3.21186 55.575 3.44009 54.9781 2.92965 53.8937C3.07342 54.1354 3.14551 54.2396 3.19432 54.3555C3.2333 54.4502 3.24547 54.5642 3.26857 54.6691C3.16222 54.6092 3.01635 54.5813 2.96681 54.4856C2.91129 54.3745 2.94292 54.2008 3.26857 54.6691C3.80631 54.7141 3.57809 55.311 3.75277 55.6226C4.29052 55.6675 4.06229 56.2645 4.23628 56.5729C4.77474 56.621 4.5465 57.2179 4.73587 57.8429C4.7766 57.7106 4.80812 57.607 4.84142 57.4997C4.90511 57.5657 5.00969 57.6293 5.02331 57.703C5.04918 57.844 5.02006 57.9937 5.01561 58.138C4.93151 58.0499 4.84811 57.9649 4.72049 57.5263ZM101.981 14.4235C102.123 14.669 102.197 14.7694 102.246 14.8885C102.285 14.9832 102.294 15.0946 102.317 15.1995C102.214 15.1422 102.066 15.1149 102.018 15.0154C101.963 14.9043 101.995 14.7338 102.335 15.5156C102.376 15.3833 102.407 15.2765 102.441 15.1723C102.504 15.2383 102.609 15.302 102.623 15.3756C102.649 15.5166 102.619 15.6664 102.615 15.8107C102.531 15.7225 102.449 15.6338 101.981 14.4235ZM6.6542 60.8441C6.79551 61.0863 6.87007 61.1899 6.91888 61.3059C6.95786 61.4006 6.96756 61.5152 6.99066 61.6201C6.88678 61.5596 6.73844 61.5323 6.69137 61.436C6.63585 61.3248 6.66748 61.1512 7.00533 61.9335C7.04606 61.8012 7.08006 61.6971 7.11405 61.5929C7.17774 61.6589 7.28161 61.7194 7.29595 61.7962C7.31864 61.9346 7.29198 62.0838 7.28507 62.2286C7.20414 62.1431 7.12004 62.055 6.6542 60.8441ZM86.8934 5.88148C86.9287 6.12374 86.8411 6.46637 87.1913 6.52927C88.5443 6.77473 89.8964 6.93373 91.1661 7.94091C91.699 8.36359 92.4131 8.36305 92.9979 8.7043C94.2747 9.4499 95.5526 10.2119 96.7303 11.236C97.2002 11.6426 97.6973 11.9965 98.1474 12.4308C98.5243 12.7912 98.9795 12.8843 99.3594 13.3407C99.5986 13.628 100.248 14.3217 100.667 13.4993C100.747 13.5886 100.854 13.665 100.899 13.7751C100.929 13.8518 100.908 14.0164 100.86 14.0671C100.57 14.3609 101.396 14.659 100.921 14.9336C101.144 15.0778 101.362 15.2899 101.588 15.3434C101.937 15.4232 101.853 15.7584 101.943 15.9887C102.025 16.0106 102.104 16.0298 102.184 16.0522C102.13 16.1443 102.074 16.2331 102.017 16.3258C101.817 17.2499 102.789 17.0957 102.892 17.7398C102.979 17.7006 103.07 17.6672 103.157 17.6249C103.463 17.4774 103.996 17.3934 104.022 17.1609C104.07 16.7304 104.242 16.5624 104.458 16.3682C104.535 16.3047 104.632 16.2766 104.719 16.2342C104.735 16.3906 104.809 16.6109 104.756 16.686C104.612 16.891 104.209 16.8666 104.446 17.3677C104.525 17.5403 104.667 17.8223 104.748 17.8144C104.942 17.7986 105.113 17.6375 105.292 17.5347C104.658 17.051 105.155 16.8882 105.438 16.6326C105.458 16.6282 105.418 16.6369 105.379 16.6456C105.384 16.5512 105.375 16.4531 105.402 16.3739C105.409 16.3489 105.512 16.3829 105.571 16.3932C105.547 16.4686 105.522 16.5441 105.438 16.6326C105.898 17.0047 105.902 17.0036 105.893 16.5024C105.889 16.2233 105.49 15.4843 106.219 16.0805C106.266 16.1169 106.51 15.9097 106.545 15.7621C106.805 14.5814 106.224 13.0693 105.265 11.9937C103.623 10.1518 101.841 8.58391 100.016 7.07564C98.2135 5.58583 96.2784 4.54181 94.3256 3.55835C92.6775 2.7245 90.9786 2.16519 89.263 1.65954C87.9704 1.27742 86.674 0.912826 85.3868 0.742879C84.2882 0.594762 83.1706 0.560803 82.0648 0.520947C80.2498 0.457202 78.61 1.11828 76.8777 1.38302C75.5959 1.57856 74.4878 2.31591 73.3036 2.81334C71.1537 3.72005 68.226 6.51146 66.9854 8.17471C66.2208 9.20311 65.6596 10.4734 65.0259 11.6497C64.2865 13.0159 63.5777 14.4387 63.2091 16.0433C62.7379 18.0871 62.0678 20.0148 61.6016 22.0575C61.2259 23.7003 60.754 25.2943 60.3494 26.9235C60.1196 27.8542 60.0846 28.8586 59.7562 29.7643C59.1138 31.5592 58.727 33.5044 58.0592 35.3016C57.3869 37.113 56.5938 38.8111 55.7563 40.4722C54.7061 42.5536 53.4109 44.3922 51.815 45.8403C50.6831 46.8696 49.4558 47.6998 48.126 48.3826C46.7497 49.089 45.2672 49.1954 43.8428 49.6124C43.201 49.8004 42.5473 50.0043 41.8829 50.0306C40.4414 50.088 39.0105 50.323 37.536 50.031C36.9786 49.9204 36.4826 50.2296 35.8711 50.0142C35.2645 49.7977 34.5919 50.1158 33.9532 49.9998C33.3679 49.892 32.768 50.1407 32.1921 49.7108C30.7345 50.1418 29.2011 49.606 27.7132 49.5469C26.3459 49.4946 24.9401 49.6675 23.5442 49.1448C22.59 49.4882 21.5793 49.1641 20.605 49.0519C18.8287 48.8463 17.0515 48.7543 15.2842 48.6367C13.5884 48.5267 11.8836 48.1053 10.1964 48.1868C9.99937 48.1969 9.78531 48.0473 9.57712 47.9831C9.45277 47.9472 9.32591 47.9351 9.20119 47.9092C9.27793 47.729 9.31362 47.4445 9.43601 47.3775C10.6441 46.7182 11.4552 45.4428 12.491 44.5181C14.5973 42.6376 16.6416 40.664 18.6071 38.5678C19.2778 37.8534 19.9278 37.1036 20.5134 36.2847C20.7257 35.9912 20.8777 35.401 20.7803 35.0291C20.6538 34.5603 20.2572 34.1576 19.9477 33.7624C19.8893 33.6852 19.6974 33.8008 19.573 33.7649C19.2169 33.6633 19.1061 34.2177 18.7277 34.121C18.4349 34.0488 18.1265 34.1167 17.8304 34.1586C17.0139 34.2817 16.3811 34.851 15.7101 35.3288C14.254 36.3661 12.9909 37.7509 11.5063 38.7412C11.1927 38.9503 10.9613 39.3212 10.6887 39.6112C9.90013 40.4483 9.00815 41.1213 8.17349 41.8785C7.37694 42.5972 6.65555 43.4928 5.68602 43.9429C5.40211 44.0755 5.22386 44.4881 4.98415 44.7508C3.94165 45.9038 2.61893 46.6184 1.67136 47.9204C1.48065 48.1824 1.26883 48.4191 1.08058 48.6805C0.836537 49.0176 0.948386 49.3963 1.15299 49.738C1.61913 50.5154 1.81334 51.4327 2.18391 52.2578C2.25099 52.4097 2.26305 52.5937 2.32197 53.0141C2.37582 53.0589 2.39968 52.897 2.42354 52.7351C2.49984 52.8583 2.61068 52.9739 2.64008 53.1074C2.68278 53.3014 2.66132 53.5094 2.667 53.7115C2.56607 53.5704 2.46267 53.4298 2.32197 53.0141C2.17911 52.6356 2.04676 52.528 1.94689 52.38C1.83752 52.2241 1.7652 52.0367 1.67524 51.8631C1.68055 52.0753 1.62591 52.3207 1.70282 52.4937C2.08743 53.3591 2.49038 54.2138 2.91167 55.0577C4.57224 58.369 6.35032 61.5911 8.03102 64.8879C8.77667 66.3471 9.41986 67.9756 10.5554 69.1257C10.8639 70.1978 11.7983 69.9521 12.3136 70.5887C12.368 70.5067 12.4672 70.4282 12.4655 70.3385C12.4633 70.1757 12.3815 70.0037 12.368 69.8367C12.3452 69.545 12.3509 69.2537 12.3436 68.962C12.4331 69.2156 12.4749 69.5464 12.6254 69.7133C12.9456 70.0628 13.3082 70.3697 13.6825 70.6006C13.8589 70.7085 14.125 70.6599 14.307 70.5698C14.3719 70.5355 14.3133 70.175 14.3111 69.9655C14.3109 69.8589 14.3033 69.7539 14.3 69.6446C14.3845 69.6993 14.4778 69.7355 14.5478 69.8067C14.7586 70.0237 14.9443 70.2794 15.1664 70.4772C15.7693 71.0179 15.9519 70.9776 16.3538 70.2525C16.482 70.0242 16.5232 69.8351 16.3454 69.5209C15.9105 68.7566 15.5287 67.9507 15.1401 67.1495C15.1152 67.095 15.1965 66.9237 15.2628 66.8725C15.3164 66.834 15.4679 66.864 15.5017 66.9232C15.8532 67.5559 16.2477 68.1724 16.511 68.8511C16.6774 69.2778 16.8821 69.5261 17.1904 69.5982C17.4395 69.6601 17.8669 68.7692 17.7854 68.3405C17.5788 67.2492 17.3362 66.1826 16.7752 65.2094C15.5674 63.1085 14.3924 60.9804 13.1688 58.8897C11.9483 56.8016 10.6463 54.7782 9.53875 52.5919C9.45126 52.4178 9.39058 52.2245 9.3165 52.0408C9.45599 52.0867 9.60002 52.165 9.74308 52.1802C11.6358 52.3502 13.5234 52.5679 15.4214 52.9967C16.0728 53.1467 16.7691 53.2067 17.4394 53.2658C18.0761 53.3256 18.7012 53.438 19.3344 53.5286C20.0049 53.6243 20.7088 53.8127 21.3463 53.8056C22.7981 53.7827 24.2133 54.3344 25.6483 54.4585C27.2051 54.5958 28.7646 54.8624 30.3206 55.0665C31.2481 55.189 32.1769 55.3412 33.1023 55.4075C34.1676 55.4863 35.2288 55.4293 36.2937 55.5415C37.0115 55.6168 37.7081 55.4901 38.4497 55.6968C39.0225 55.854 39.6024 55.303 40.2379 55.7098C41.1342 55.2558 42.1444 55.6134 43.0814 55.4504C43.9296 55.307 44.7186 54.9066 45.6638 55.1685C46.0468 55.2742 46.5861 55.1854 46.9756 54.6863C47.2299 54.3603 47.7919 54.4099 48.2199 54.309C48.9138 54.1462 49.6136 53.9988 50.3095 53.8456C50.6503 52.9605 51.7065 53.668 52.0465 52.7797C54.7366 51.9174 56.766 49.7705 58.82 47.7115C60.1796 46.342 61.4233 44.7981 62.3629 42.9078C62.6221 42.3807 62.9643 41.9254 63.2818 41.4521C63.5531 41.039 63.4552 40.3239 63.9292 40.0795C64.4667 38.2077 65.2066 36.468 65.766 34.6014C66.3597 32.6206 66.7431 30.5427 67.2829 28.5404C67.5555 27.5337 67.6608 26.4371 67.8629 25.3925C68.5485 21.8314 69.207 18.2529 70.1772 14.8324C70.9446 12.1366 71.9853 9.64732 73.8189 7.85684C74.4063 7.28083 75.1139 7.05167 75.7293 6.5795C76.881 5.69921 78.2722 5.61291 79.6015 5.41022C80.5812 5.26453 81.6279 5.49408 82.6442 5.57366C83.1919 5.61643 83.7433 5.68836 84.292 5.74756C84.5016 5.7714 84.7336 5.72033 84.9206 5.82917C85.5917 6.22142 86.2119 6.06487 86.8934 5.88148C86.9132 5.87713 86.8762 5.88528 86.8367 5.89398C86.8425 5.8027 86.8331 5.70142 86.8597 5.62224C86.8671 5.59726 86.971 5.63439 87.0295 5.64151C87.0047 5.71697 86.9775 5.79297 86.8934 5.88148Z" fill="#FF7272"/>
</svg>
