<svg width="201" height="78" viewBox="0 0 201 78" fill="none" xmlns="http://www.w3.org/2000/svg">
<path d="M183.777 68.9612C183.717 68.8604 183.658 68.755 183.603 68.6496C183.548 68.7046 183.442 68.7687 183.451 68.81C183.474 68.9245 183.548 69.0254 183.603 69.1353C183.658 69.0803 183.708 69.0254 183.777 68.9612ZM193.637 65.9093C193.693 66.0102 193.752 66.1156 193.812 66.2209C193.862 66.1705 193.972 66.1018 193.963 66.0606C193.936 65.946 193.862 65.8452 193.812 65.7352C193.757 65.7902 193.702 65.8452 193.637 65.9093ZM195.826 60.8137C195.89 60.745 195.945 60.6946 195.996 60.6396C195.89 60.5846 195.785 60.5113 195.67 60.4884C195.633 60.4792 195.565 60.5846 195.51 60.6396C195.615 60.6992 195.725 60.7542 195.826 60.8137ZM196.17 59.3566C196.271 59.297 196.377 59.242 196.482 59.1824C196.432 59.1274 196.363 59.022 196.326 59.0312C196.212 59.0541 196.106 59.1274 195.996 59.1824C196.051 59.2374 196.106 59.2924 196.17 59.3566ZM196.799 53.042C196.863 52.9779 196.918 52.9229 196.969 52.8725C196.863 52.8175 196.758 52.7442 196.643 52.7167C196.606 52.7075 196.537 52.8175 196.482 52.8725C196.588 52.9275 196.698 52.9871 196.799 53.042ZM198.185 48.258C198.13 48.313 198.024 48.3772 198.033 48.4184C198.061 48.533 198.13 48.6338 198.185 48.7438C198.24 48.6888 198.345 48.6246 198.336 48.5834C198.313 48.4688 198.24 48.368 198.185 48.258ZM198.501 47.4607C198.556 47.5615 198.616 47.6669 198.671 47.7723C198.726 47.7173 198.832 47.6532 198.822 47.6119C198.799 47.4974 198.726 47.3966 198.671 47.2866C198.616 47.3416 198.565 47.3966 198.501 47.4607ZM199.474 43.5749C199.529 43.6757 199.584 43.7857 199.644 43.8865C199.699 43.8361 199.804 43.7673 199.795 43.7307C199.772 43.6161 199.699 43.5107 199.644 43.4053C199.589 43.4557 199.538 43.5107 199.474 43.5749ZM196.872 58.4355C196.909 58.1697 196.969 57.9543 196.955 57.7436C196.95 57.6748 196.758 57.6198 196.652 57.5603C196.597 57.7711 196.514 57.9818 196.501 58.1972C196.496 58.2522 196.693 58.3255 196.872 58.4355ZM196.285 53.5324C196.161 53.7202 196.005 53.8531 196.014 53.9631C196.037 54.1739 196.161 54.3709 196.244 54.568C196.322 54.4488 196.473 54.3205 196.469 54.2014C196.464 53.9952 196.363 53.789 196.285 53.5324ZM5.49968 27.6694C5.30697 27.5411 5.1739 27.3853 5.06378 27.3991C4.85272 27.422 4.66001 27.5411 4.45812 27.6236C4.582 27.7061 4.70589 27.8527 4.82519 27.8527C5.03625 27.8436 5.23814 27.7428 5.49968 27.6694ZM17.0808 18.5459C16.9661 18.3626 16.8972 18.1702 16.8376 18.1748C16.6265 18.1885 16.4155 18.2664 16.1998 18.3214C16.264 18.4314 16.3191 18.6238 16.3879 18.6238C16.599 18.6376 16.8147 18.5826 17.0808 18.5459ZM1.88403 27.4174C2.0538 27.8115 2.16851 28.0773 2.27863 28.3431C2.50805 28.1139 2.82924 27.9306 2.93936 27.6557C3.32478 26.698 3.5955 25.6944 3.9901 24.7413C4.15069 24.3564 4.78389 24.1227 4.28835 23.5728C4.02222 23.889 3.7515 24.2052 3.48538 24.5259C3.24219 24.8238 2.95312 25.0987 2.77876 25.4332C2.44381 26.0839 2.1731 26.7713 1.88403 27.4174ZM184.69 63.8839C184.846 64.2276 184.961 64.4888 185.08 64.7454C185.154 64.5346 185.199 64.3055 185.31 64.1176C185.429 63.9206 185.704 63.7785 185.745 63.5769C186.108 61.8769 186.893 60.3555 187.608 58.7929C188.324 57.2441 188.971 55.6448 189.471 54.0135C189.994 52.2905 190.953 50.7646 191.527 49.0737C191.591 48.8767 191.541 48.6384 191.545 48.423C191.311 48.5284 191.068 48.7438 190.848 48.7254C190.059 48.6567 190.293 49.2249 190.141 49.6465C189.379 51.8186 188.732 54.0685 187.682 56.1031C186.613 58.1651 186.342 60.548 184.965 62.468C184.892 62.5734 185.25 62.9354 185.204 63.1324C185.144 63.3936 184.887 63.6136 184.69 63.8839ZM197.455 56.0252C198.396 55.8006 197.758 55.0491 197.941 54.568C198.882 54.3434 198.244 53.5919 198.428 53.1154C199.368 52.8862 198.731 52.1347 199.212 50.4897C199.052 50.8654 198.965 51.0304 198.923 51.2045C198.891 51.3466 198.914 51.5069 198.914 51.6582C199.079 51.5436 199.327 51.4611 199.378 51.3145C199.433 51.1449 199.309 50.9158 198.914 51.6582C197.978 51.8827 198.616 52.6342 198.428 53.1154C197.492 53.3399 198.13 54.0914 197.941 54.568C197.005 54.7971 197.643 55.5486 197.551 56.4651C197.428 56.2955 197.331 56.1626 197.23 56.0252C197.143 56.1351 196.982 56.2543 196.987 56.3597C196.996 56.5613 197.106 56.7583 197.171 56.9554C197.285 56.8088 197.4 56.6667 197.455 56.0252ZM8.15636 26.2122C8.00035 26.5926 7.90859 26.753 7.86729 26.9317C7.83517 27.0737 7.8627 27.2295 7.8627 27.3808C8.0233 27.2708 8.27566 27.1883 8.32154 27.0371C8.3766 26.8675 8.25272 26.643 7.95447 27.8207C7.83058 27.6511 7.73423 27.5136 7.63328 27.3808C7.5461 27.4907 7.38551 27.6099 7.3901 27.7153C7.39927 27.9169 7.5094 28.1139 7.57363 28.311C7.68834 28.1643 7.79846 28.0177 8.15636 26.2122ZM195.321 61.1712C195.165 61.5469 195.074 61.7119 195.032 61.886C195 62.0281 195.028 62.1885 195.028 62.3397C195.188 62.2251 195.441 62.1426 195.487 61.996C195.542 61.8265 195.418 61.5973 195.124 62.775C195 62.6055 194.899 62.4726 194.798 62.3397C194.711 62.4497 194.551 62.5642 194.555 62.6742C194.569 62.8712 194.674 63.0683 194.743 63.2653C194.853 63.1233 194.968 62.9766 195.321 61.1712ZM31.5755 9.90359C31.6076 10.2473 31.8967 10.6918 31.3002 10.8842C28.9968 11.6311 26.6613 12.2589 24.803 14.0277C24.023 14.7701 22.7566 14.9854 21.8527 15.6316C19.8797 17.0429 17.9113 18.4772 16.2227 20.2414C15.5483 20.9425 14.8049 21.5795 14.1763 22.3127C13.6487 22.9221 12.8778 23.1879 12.3823 23.9302C12.0703 24.3976 11.1893 25.5478 10.1248 24.5443C10.0192 24.6909 9.85865 24.8284 9.82194 24.9933C9.799 25.1079 9.89995 25.3279 10.0055 25.3828C10.6341 25.699 9.2851 26.3589 10.2349 26.5926C9.89536 26.8584 9.59253 27.2158 9.21169 27.3578C8.62438 27.5732 8.90427 28.0085 8.83544 28.3522C8.69779 28.4072 8.56473 28.4576 8.43166 28.5126C8.56473 28.6226 8.69779 28.728 8.83544 28.8379C9.55123 30.0477 7.76635 30.1302 7.83517 31.0467C7.6654 31.0192 7.49104 31.0008 7.32127 30.9688C6.72019 30.8588 5.74287 30.9046 5.60521 30.593C5.35285 30.0156 4.98119 29.8369 4.52235 29.6353C4.36176 29.5711 4.17822 29.562 4.00845 29.5299C4.04057 29.7498 3.99469 30.0752 4.11857 30.1623C4.45353 30.4005 5.16014 30.2447 4.93531 31.0054C4.86189 31.2666 4.71965 31.6973 4.57283 31.7111C4.22411 31.7478 3.85704 31.5782 3.49914 31.4911C4.43517 30.6342 3.48997 30.5609 2.88889 30.2951C2.85218 30.2951 2.92559 30.2951 2.99901 30.2951C2.95312 30.1668 2.93018 30.0294 2.85218 29.9286C2.82924 29.8965 2.65947 29.9744 2.55852 30.0065C2.63194 30.1027 2.70535 30.1989 2.88889 30.2951C2.21898 30.9458 2.2098 30.9458 2.03086 30.2539C1.92991 29.869 2.34746 28.7326 1.28754 29.7728C1.21871 29.8369 0.704812 29.6261 0.585514 29.4337C-0.336753 27.8894 0.103732 25.6349 1.38389 23.8661C3.57714 20.8371 6.1237 18.1427 8.7712 15.517C11.3866 12.9234 14.4103 10.9025 17.4891 8.95962C20.0862 7.31455 22.8805 6.03148 25.7253 4.81715C27.8681 3.90068 30.0246 3.00712 32.2408 2.38391C34.1312 1.84778 36.0997 1.46286 38.0451 1.07336C41.2387 0.436405 44.4047 0.848819 47.5798 0.688436C49.9291 0.569294 52.182 1.24749 54.4762 1.57283C58.6424 2.16854 64.9239 5.11959 67.7733 7.03044C69.5307 8.21269 71.0219 9.78903 72.6049 11.2141C74.4494 12.8684 76.2618 14.6097 77.542 16.7038C79.1755 19.3708 81.1164 21.8178 82.7407 24.4847C84.0483 26.6292 85.5075 28.6776 86.861 30.7946C87.6319 32.0044 88.0861 33.3745 89.0222 34.5201C90.8621 36.7929 92.3074 39.3499 94.1933 41.6182C96.0929 43.9048 98.1622 45.9989 100.296 48.0289C102.971 50.5721 105.985 52.7075 109.381 54.2151C111.79 55.2874 114.29 56.0572 116.915 56.5934C119.631 57.1479 122.302 56.8454 124.991 56.9875C126.202 57.0516 127.441 57.1341 128.629 56.9691C131.208 56.6117 133.837 56.5017 136.338 55.654C137.283 55.3332 138.283 55.6082 139.283 55.127C140.274 54.6459 141.591 54.8796 142.679 54.5267C143.674 54.2014 144.835 54.3618 145.689 53.5965C148.442 53.7477 150.952 52.5471 153.567 52.0156C155.971 51.5299 158.532 51.342 160.803 50.201C162.629 50.3843 164.295 49.6328 165.979 49.1837C169.048 48.3634 172.164 47.699 175.252 47.0025C178.216 46.338 181.074 45.2428 184.098 44.8442C184.452 44.7984 184.773 44.528 185.117 44.3768C185.323 44.2897 185.544 44.2347 185.755 44.1614C185.548 43.9369 185.374 43.5565 185.131 43.5015C182.731 42.9608 180.795 41.4532 178.597 40.4955C174.128 38.548 169.732 36.4539 165.428 34.1672C163.96 33.3882 162.514 32.5543 161.156 31.6057C160.665 31.2666 160.165 30.5014 160.193 29.9606C160.234 29.2779 160.78 28.6042 161.175 27.9673C161.248 27.8436 161.633 27.9444 161.84 27.8573C162.432 27.6099 162.845 28.3385 163.478 28.091C163.969 27.9031 164.542 27.9031 165.084 27.8711C166.58 27.7932 167.924 28.3843 169.301 28.8379C172.288 29.8232 175.068 31.3445 178.087 32.2564C178.725 32.4489 179.28 32.8888 179.877 33.205C181.602 34.1168 183.447 34.7721 185.222 35.5603C186.915 36.3072 188.544 37.3199 190.439 37.6453C190.995 37.7415 191.472 38.2547 191.999 38.5434C194.298 39.8127 196.923 40.3947 199.111 41.8977C199.552 42.2001 200.02 42.4613 200.456 42.7638C201.02 43.1533 200.97 43.7078 200.74 44.2393C200.217 45.4491 200.231 46.7688 199.896 48.0152C199.836 48.2443 199.887 48.5009 199.947 49.0966C199.869 49.1745 199.763 48.9591 199.657 48.7438C199.57 48.9362 199.419 49.1287 199.419 49.3212C199.419 49.6007 199.538 49.8802 199.607 50.1597C199.731 49.9352 199.859 49.7107 199.947 49.0966C200.052 48.533 200.245 48.3451 200.364 48.1114C200.497 47.864 200.552 47.5844 200.644 47.3187C200.717 47.6119 200.91 47.9327 200.841 48.1939C200.497 49.4999 200.116 50.7967 199.699 52.0843C198.047 57.1387 196.152 62.106 194.459 67.1466C193.706 69.3782 193.202 71.8114 191.637 73.736C191.508 75.3032 189.756 75.2482 189.09 76.2793C188.962 76.183 188.755 76.1051 188.723 75.9814C188.664 75.7569 188.742 75.4957 188.7 75.262C188.627 74.8541 188.503 74.4555 188.402 74.0522C188.342 74.428 188.398 74.8954 188.196 75.1703C187.764 75.7477 187.241 76.2793 186.668 76.71C186.397 76.9116 185.906 76.9254 185.548 76.8566C185.42 76.8291 185.383 76.3159 185.305 76.0272C185.264 75.8806 185.236 75.734 185.199 75.5827C185.071 75.6835 184.92 75.7614 184.823 75.8806C184.534 76.2426 184.305 76.6504 183.988 76.9895C183.13 77.9152 182.791 77.9152 181.795 77.0399C181.478 76.765 181.331 76.5175 181.524 76.0318C181.997 74.8495 182.359 73.6261 182.735 72.4072C182.758 72.3247 182.547 72.1139 182.41 72.0635C182.3 72.0268 182.043 72.1139 182.006 72.2055C181.63 73.1816 181.171 74.1485 180.969 75.1612C180.84 75.7981 180.574 76.2013 180.056 76.3938C179.638 76.5542 178.533 75.459 178.51 74.845C178.45 73.2824 178.464 71.7427 179.079 70.2351C180.4 66.9816 181.653 63.7006 183.006 60.4563C184.355 57.2166 185.874 54.041 186.984 50.7005C187.072 50.4347 187.104 50.1506 187.163 49.8756C186.934 49.981 186.709 50.1322 186.461 50.1964C183.171 51.0029 179.909 51.8735 176.711 53.0375C175.614 53.4407 174.403 53.734 173.238 54.0181C172.132 54.293 171.067 54.6367 169.98 54.9529C168.828 55.2874 167.653 55.7594 166.52 55.9427C163.937 56.3505 161.643 57.5373 159.147 58.1422C156.439 58.8021 153.778 59.6407 151.099 60.3922C149.502 60.8412 147.914 61.3316 146.299 61.7027C144.441 62.1335 142.537 62.3763 140.692 62.8529C139.449 63.1737 138.164 63.2103 136.93 63.719C135.975 64.1085 134.732 63.5265 133.764 64.278C131.997 63.9252 130.345 64.7225 128.62 64.7821C127.06 64.8417 125.504 64.5301 123.931 65.1762C123.293 65.4374 122.302 65.4786 121.416 64.9104C120.838 64.5392 119.861 64.7775 119.062 64.7683C117.768 64.7546 116.47 64.7638 115.176 64.7638C114.226 63.6502 112.629 64.9425 111.68 63.8244C106.573 63.4532 102.136 61.1162 97.6896 58.9075C94.7439 57.4365 91.9358 55.6907 89.5315 53.3766C88.8662 52.7304 88.0815 52.208 87.3336 51.6536C86.6913 51.1679 86.5857 50.1551 85.6497 49.9627C83.9658 47.5524 81.9744 45.3849 80.2537 42.9883C78.4276 40.4451 76.9363 37.7048 75.1973 35.1158C74.321 33.8144 73.7061 32.3389 72.9399 30.9642C70.3336 26.2764 67.7687 21.5566 64.7129 17.1483C62.2994 13.6749 59.4821 10.568 55.5315 8.66176C54.2651 8.04773 52.9207 7.94691 51.6451 7.48409C49.2592 6.62261 46.7585 6.92504 44.3221 7.04877C42.528 7.145 40.7615 7.77737 38.9903 8.19436C38.036 8.4189 37.0862 8.68468 36.1364 8.93212C35.7739 9.02835 35.3426 9.02835 35.0535 9.23456C34.0165 9.9769 32.8557 9.94941 31.5755 9.90359C31.5388 9.90359 31.6076 9.90359 31.681 9.90359C31.6352 9.77986 31.6122 9.63781 31.5342 9.537C31.5113 9.50492 31.3415 9.5874 31.2406 9.6149C31.314 9.71113 31.392 9.80736 31.5755 9.90359Z" fill="#FF7272"/>
</svg>
