<svg width="145" height="138" viewBox="0 0 145 138" fill="none" xmlns="http://www.w3.org/2000/svg">
<path d="M75.1496 113.758C74.9457 110.446 74.7278 106.908 76.0028 105.117C78.5512 101.509 77.2259 100.029 77.5998 95.8756C77.8136 93.6208 82.8789 91.6212 85.6748 88.3509C87.9981 85.5883 89.3 81.7803 88.2874 78.0143C87.7654 76.0819 86.1255 72.3545 82.6029 69.5491C80.2994 67.7265 76.4157 67.2354 73.3753 65.307C70.7016 63.6079 67.7377 62.103 64.7676 60.4977C61.8241 58.916 59.4353 56.1163 56.5339 54.8091C53.2955 53.3463 49.9406 52.4448 47.111 51.4857C43.2029 50.1901 39.6754 50.9868 37.3138 51.0819C33.8967 51.2169 31.4432 52.2748 28.9333 54.8726C26.8034 57.0944 24.6668 59.6188 22.8449 62.7536C21.1801 65.5763 18.6923 68.1224 17.0603 71.0691C15.3592 74.1208 13.4326 76.7834 11.4984 79.3206C8.7697 82.8638 6.98406 85.7696 6.16964 88.0866C5.11938 91.073 8.08411 93.409 9.7677 97.436C10.7707 99.8173 10.6608 103.35 12.4779 107.092C14.148 110.49 15.7037 113.668 17.8625 116.004C20.3173 118.648 22.6181 121.655 25.4234 123.447C28.3854 125.329 32.1892 125.75 35.208 127.327C38.28 128.951 41.7886 129.894 44.5325 131.916C46.9834 133.679 49.4455 135.215 52.3797 135.009C55.1131 134.815 57.8978 133.409 60.593 132.185C63.2881 130.962 65.8096 129.371 68.0048 127.8C71.1651 125.54 72.5713 122.607 73.4788 121.392C74.8495 119.519 75.3755 117.019 75.1496 113.758Z" fill="#E3ECFF"/>
<path d="M44.6571 45.1884C47.2107 46.1645 49.431 42.9549 51.0653 39.2272C52.3665 36.2253 53.7776 32.9648 54.8789 30.8064C55.7335 29.1417 58.0082 26.4073 60.6157 23.3501C62.7052 20.879 64.4329 17.8508 65.8387 15.321C67.7409 11.8539 68.1778 9.13195 65.1656 7.25222C61.1597 4.77884 57.2926 4.96676 54.1384 7.32721C51.033 9.65948 48.7633 13.7033 47.3834 17.0627C46.5095 19.2323 44.7455 22.4894 43.7666 26.227C42.9295 29.4018 43.05 32.9961 42.7572 36.0114C42.2779 40.4991 42.4656 44.3664 44.6571 45.1884Z" fill="#E3ECFF"/>
<path d="M80.4132 22.9618C77.4966 27.9522 75.7376 32.5187 75.2165 33.0546C71.0758 37.39 76.4725 39.954 81.1341 40.3971C83.0862 40.6043 86.0551 38.5071 89.162 34.5628C91.1951 31.9944 93.7991 29.2901 95.8843 26.3406C98.1328 23.1797 99.8138 19.8018 101.712 17.4935C104.641 13.938 104.828 10.4255 103.506 8.18972C101.96 5.56484 98.0719 4.19243 94.5205 5.41874C92.2994 6.1601 89.0913 9.27947 86.3151 13.279C84.2079 16.2801 82.2351 19.8271 80.4132 22.9618Z" fill="#E3ECFF"/>
<path d="M67.6667 41.3281C65.2001 41.3542 62.7091 42.2129 60.7053 43.6209C57.9311 45.6053 55.8806 48.3007 56.9534 49.7711C58.7952 52.277 63.3543 56.7816 68.0995 53.2653C70.4627 51.5581 73.1829 48.6954 73.8236 46.0113C74.4847 43.2504 73.0768 41.2466 67.6667 41.3281Z" fill="#E3ECFF"/>
<path d="M103.944 27.9855C101.722 29.9359 98.8418 31.4231 96.5801 33.5523C94.3185 35.6814 92.6506 38.454 90.5882 40.5457C88.2416 42.9319 86.0912 45.2305 84.3549 47.3021C81.468 50.7291 79.2118 53.7647 79.2026 55.2513C79.2255 59.305 82.1447 61.7194 85.8196 60.8632C87.9794 60.3524 91.2594 59.2183 94.4057 56.7324C96.5446 55.0642 98.0835 51.015 101.179 48.1041C103.655 45.7854 107.473 44.3915 110.033 41.7906C112.662 39.0847 113.801 35.0854 115.917 32.6378C119.304 28.7266 121.986 26.0678 122.213 24.4419C122.947 19.5859 125.256 16.5975 118.874 16.4366C117.915 16.395 115.546 20.0671 111.752 23.0715C109.613 24.7397 106.454 25.7907 103.944 27.9855Z" fill="#E3ECFF"/>
<path d="M99.2102 63.9927C96.2008 65.8405 93.2625 67.2053 91.3807 68.9584C87.8823 72.272 89.1644 74.6865 92.8567 75.3405C95.301 75.7692 98.6083 73.8527 101.706 73.4351C105.154 72.9959 108.473 72.8922 110.111 71.6831C112.086 70.2264 114.856 68.1668 117.805 65.7434C120.228 63.7807 122.462 61.1999 124.98 59.1557C127.717 56.9721 131.317 56.1207 133.606 54.4432C136.161 52.5731 137.602 50.2174 138.565 48.6721C140.191 46.0281 139.632 43.0904 137.342 41.4936C135.948 40.5217 132.222 41.784 128.793 43.7584C126.483 45.1096 123.617 46.4197 121.349 48.0454C118.357 50.1692 116.867 53.7871 115.532 54.5998C114.029 55.5488 110.061 55.7429 106.454 57.703C103.823 59.1497 101.879 62.3423 99.2102 63.9927Z" fill="#E3ECFF"/>
<path d="M124.548 108.978C124.643 106.025 123.029 103.127 119.482 101.558C116.944 100.43 112.992 100.875 108.777 102.369C105.373 103.535 101.826 105.24 98.7635 107.041C94.1225 109.795 90.7295 112.774 90.6137 114.167C90.4436 116.721 94.1668 117.877 99.0998 118.228C102.286 118.435 105.937 118.008 109.321 117.749C113.808 117.397 117.979 117.644 119.66 117.137C122.306 116.345 124.433 112.436 124.548 108.978Z" fill="#E3ECFF"/>
</svg>
