<svg width="137" height="150" viewBox="0 0 137 150" fill="none" xmlns="http://www.w3.org/2000/svg">
<path d="M18.7431 79.6892C22.2912 79.3659 26.0651 78.9995 27.7639 77.3505C31.1507 74.074 32.9247 75.2272 37.2685 74.1387C39.6339 73.5459 40.8918 67.8336 43.9131 64.3308C46.429 61.41 50.2567 59.3945 54.3962 59.8472C56.525 60.0736 60.7397 61.2052 64.2986 64.4925C66.621 66.6265 67.7714 70.6574 70.2981 73.5566C72.5345 76.1326 74.6311 79.021 76.8137 81.9095C78.9641 84.7656 82.3187 86.8242 84.2002 89.7019C86.2861 92.8813 87.7698 96.2871 89.2536 99.154C91.2857 103.077 91.0169 106.925 91.3072 109.447C91.7373 113.111 90.9954 115.881 88.6622 118.964C86.6839 121.594 84.3508 124.299 81.3402 126.735C78.62 128.955 76.3514 132.026 73.4914 134.258C70.5562 136.553 68.0617 139.032 65.6963 141.511C62.374 144.992 59.6108 147.363 57.2991 148.603C54.3101 150.209 51.3426 147.46 46.8054 146.329C44.1174 145.66 40.3973 146.361 36.1503 145.046C32.2689 143.85 28.6563 142.729 25.8285 140.821C22.6245 138.655 19.0656 136.715 16.7002 134.031C14.2165 131.207 13.1521 127.22 10.9802 124.299C8.75462 121.303 7.1956 117.746 4.60441 115.148C2.31427 112.863 0.292923 110.503 0.0348816 107.367C-0.20166 104.414 0.809013 101.245 1.66916 98.184C2.51855 95.1124 3.78727 92.17 5.08824 89.5941C6.95906 85.8757 9.81905 83.8926 10.9587 82.7394C12.7113 80.9503 15.2702 80.0018 18.7431 79.6892Z" fill="#FF7272" fill-opacity="0.8"/>
<path d="M96.3176 100.695C94.8661 98.1625 97.8981 95.2633 101.586 92.9137C104.543 91.0384 107.758 88.9906 109.854 87.4709C111.467 86.3069 113.994 83.4184 116.811 80.1635C119.079 77.5337 121.993 75.2057 124.444 73.298C127.788 70.7005 130.594 69.7844 133.067 72.6729C136.357 76.5098 136.798 80.6593 134.809 84.3992C132.863 88.0637 128.949 91.1461 125.627 93.1508C123.488 94.4442 120.316 96.8692 116.553 98.5182C113.327 99.9301 109.489 100.372 106.349 101.202C101.683 102.441 97.5648 102.883 96.3176 100.695Z" fill="#FF7272" fill-opacity="0.8"/>
<path d="M113.929 59.1036C109.134 63.016 104.618 65.635 104.123 66.2816C100.221 71.3796 96.6186 66.0876 95.3714 61.2376C94.8446 59.1683 96.5649 55.687 100.221 51.7423C102.618 49.1664 105.048 45.9439 107.833 43.2386C110.811 40.361 114.101 38.0114 116.219 35.6187C119.488 31.9219 123.176 31.1459 125.767 32.1806C128.81 33.3877 130.885 37.2893 130.186 41.234C129.756 43.7129 126.993 47.636 123.229 51.2573C120.402 53.9841 116.95 56.6463 113.929 59.1036Z" fill="#FF7272" fill-opacity="0.8"/>
<path d="M96.6294 75.6477C97.0057 78.2775 96.5004 81.0474 95.3285 83.4077C93.7049 86.6949 91.189 89.3247 89.4579 88.4194C86.5012 86.8674 80.9855 82.7718 83.91 77.1673C85.3507 74.3974 87.9204 71.024 90.6514 69.9031C93.4469 68.7606 95.8015 69.8923 96.6294 75.6477Z" fill="#FF7272" fill-opacity="0.8"/>
<path d="M104.747 34.972C103.059 37.6557 101.962 40.9537 100.081 43.7021C98.1992 46.4504 95.5543 48.6922 93.6619 51.225C91.5331 54.0919 89.4472 56.754 87.5442 58.9419C84.3939 62.574 81.5554 65.4733 79.9856 65.7212C75.6956 66.3786 72.6744 63.6626 72.9647 59.6425C73.1474 57.2606 73.8033 53.5961 75.8999 49.8454C77.3299 47.3126 81.3511 45.0062 83.91 41.2447C85.9744 38.2162 86.8023 33.9374 89.1354 30.8118C91.5546 27.5677 95.5973 25.7139 97.8659 23.041C101.446 18.8161 103.812 15.5396 105.478 15.0115C110.489 13.4272 113.284 10.5064 114.51 17.2317C114.703 18.2664 111.209 21.3704 108.672 25.8971C107.252 28.4191 106.65 31.9542 104.747 34.972Z" fill="#FF7272" fill-opacity="0.8"/>
<path d="M67.4382 45.9546C65.9867 49.4358 65.019 52.7877 63.46 55.0726C60.5462 59.3299 57.7938 58.3706 56.482 54.5553C55.6111 52.0441 57.1056 48.2072 57.0304 44.866C56.9444 41.1261 56.5035 37.6018 57.5142 35.6618C58.7184 33.3338 60.4495 30.0573 62.5138 26.5222C64.1911 23.6337 66.5565 20.8423 68.2876 17.8137C70.1691 14.5588 70.4594 10.5926 71.8572 7.89811C73.4377 4.86954 75.6741 2.96187 77.1471 1.69009C79.6953 -0.487034 82.8778 -0.3577 84.9422 1.78709C86.2109 3.10198 85.4905 7.26222 83.953 11.2285C82.9101 13.9121 81.9961 17.1563 80.6629 19.8399C78.8996 23.3535 75.33 25.5306 74.6741 27.0826C73.9215 28.8394 74.3623 33.0859 72.8893 37.2353C71.8142 40.2531 68.7391 42.8398 67.4382 45.9546Z" fill="#FF7272" fill-opacity="0.8"/>
<path d="M15.6573 26.5223C18.7646 25.9295 22.1192 27.1474 24.3556 30.6502C25.9683 33.1506 26.1404 37.4294 25.2695 42.1609C24.5814 45.9439 23.3664 50.0071 21.9687 53.5315C19.8398 58.8988 17.2379 63.016 15.7756 63.3501C13.1091 63.9752 11.2706 60.203 10.0879 55.0404C9.3245 51.6885 9.18473 47.7438 8.91593 44.1117C8.53962 39.3048 7.58271 34.9182 7.8515 33.0428C8.26007 30.1005 12.034 27.2228 15.6573 26.5223Z" fill="#FF7272" fill-opacity="0.8"/>
</svg>
