<svg width="138" height="345" viewBox="0 0 138 345" fill="none" xmlns="http://www.w3.org/2000/svg">
<path fill-rule="evenodd" clip-rule="evenodd" d="M2.26527 228.106C3.36564 233.462 5.70658 240.556 3.76998 246.3C3.45406 246.434 2.98202 246.127 2.80342 246.515C1.32713 249.4 4.13026 245.955 -1.47447 247.561C-1.63144 247.612 -2.00268 247.65 -2.19812 247.822C7.44757 289.03 -39.7579 280.373 -35.8059 311.66C-34.4078 322.903 -27.8731 327.87 -26.1837 335.537C-28.593 334.768 -28.6955 335.407 -31.6835 330.729C-40.123 317.62 -42.6524 300.067 -29.57 289.232C-15.6101 277.654 -7.50221 276.793 -4.96789 265.096C-4.00938 260.702 -3.72835 252.025 -4.90738 247.893C-7.20814 239.695 -24.7464 239.521 -2.5475 226.476C-13.6528 217.067 -16.451 216.61 -24.4835 200.517C-29.7114 190.041 -33.9365 178.309 -36.9563 165.518C-48.6579 116.128 -38.083 52.0074 6.76883 21.2455C25.2248 8.57442 56.5161 -1.52046 83.4103 12.8053C106.053 24.8914 119.643 41.5575 127.054 67.3207C145.096 129.962 104.692 197.204 44.0256 222.494C28.1725 229.095 20.7623 228.189 2.32255 228.171L2.26527 228.106Z" fill="#FFC305" fill-opacity="0.5"/>
<path fill-rule="evenodd" clip-rule="evenodd" d="M108.736 106.056C98.2782 106.182 96.3413 103.323 97.472 93.3796C97.3874 87.0448 94.7926 79.5961 95.6812 75.8126C97.5796 67.7924 113.588 63.0755 114.54 88.9152C114.858 97.3544 113.922 102.364 108.736 106.056Z" fill="#FFEEBA"/>
<path fill-rule="evenodd" clip-rule="evenodd" d="M105.765 56.6428C105.625 71.259 92.5356 67.3761 91.8377 60.5409C91.3992 56.3648 94.2646 53.3843 97.0379 52.7943C102.056 51.7035 102.966 54.2814 105.763 56.6734L105.765 56.6428Z" fill="#FFEEBA"/>
</svg>
