<svg width="136" height="53" viewBox="0 0 136 53" fill="none" xmlns="http://www.w3.org/2000/svg">
<path d="M82.0379 8.29675C82.0663 8.25642 82.1285 8.20255 82.1181 8.17855C82.0872 8.10834 82.0266 8.05277 81.9783 7.99128C81.9498 8.03161 81.8876 8.08548 81.898 8.10948C81.9286 8.1779 81.9895 8.23526 82.0379 8.29675ZM86.2799 7.36534C86.3216 7.39289 86.3773 7.45304 86.4021 7.44297C86.4728 7.41345 86.5321 7.35456 86.5957 7.30784C86.554 7.28029 86.4986 7.22193 86.4734 7.23021C86.4027 7.25974 86.3434 7.31862 86.2799 7.36534ZM93.712 6.60045C93.7615 6.65803 93.8113 6.71741 93.863 6.77644C93.8915 6.73611 93.9536 6.68224 93.9432 6.65824C93.9126 6.58982 93.8517 6.53246 93.8034 6.47097C93.7749 6.5113 93.7464 6.55163 93.712 6.60045ZM100.415 5.69638C100.465 5.75396 100.514 5.81333 100.566 5.87236C100.595 5.83203 100.657 5.77817 100.646 5.75417C100.616 5.68574 100.555 5.62839 100.506 5.5669C100.478 5.60722 100.45 5.64756 100.415 5.69638ZM108.503 5.17468C108.552 5.23226 108.602 5.29163 108.654 5.35066C108.682 5.31034 108.745 5.25647 108.734 5.23247C108.704 5.16404 108.643 5.10669 108.594 5.0452C108.566 5.08553 108.537 5.12586 108.503 5.17468ZM105.83 6.22738C105.795 6.2762 105.767 6.31653 105.739 6.35686C105.815 6.37802 105.892 6.41024 105.97 6.41465C105.997 6.4153 106.026 6.33969 106.054 6.29936C105.979 6.27607 105.903 6.251 105.83 6.22738ZM104.983 6.92362C105.042 6.87579 105.104 6.82762 105.165 6.77767C105.123 6.75012 105.067 6.68997 105.042 6.70003C104.972 6.72956 104.912 6.78845 104.849 6.83517C104.891 6.86272 104.932 6.89027 104.983 6.92362ZM111.923 5.90984C111.973 5.9432 112.015 5.97075 112.057 5.9983C112.078 5.92403 112.114 5.85098 112.116 5.77471C112.117 5.74869 112.039 5.72038 111.997 5.69283C111.973 5.76565 111.947 5.8406 111.923 5.90984ZM80.7044 12.1356C80.7539 12.1932 80.8038 12.2526 80.8555 12.3116C80.8839 12.2713 80.9461 12.2174 80.9357 12.1934C80.9051 12.125 80.8442 12.0676 80.7958 12.0061C80.7674 12.0465 80.7389 12.0868 80.7044 12.1356ZM81.157 12.7784C81.2075 12.8117 81.2492 12.8393 81.2909 12.8668C81.3127 12.7926 81.3479 12.7177 81.3505 12.6432C81.3512 12.6172 81.273 12.5889 81.2313 12.5614C81.2072 12.6342 81.1813 12.7073 81.157 12.7784ZM81.7809 13.4565C81.721 13.5026 81.66 13.5525 81.599 13.6025C81.6407 13.63 81.6961 13.6884 81.7209 13.6783C81.7916 13.6488 81.8509 13.5899 81.9148 13.545C81.8731 13.5174 81.8314 13.4899 81.7809 13.4565ZM86.2668 14.0198C86.3085 14.0473 86.3642 14.1075 86.389 14.0974C86.4598 14.0679 86.519 14.009 86.5826 13.9623C86.5409 13.9347 86.4852 13.8746 86.4603 13.8846C86.3896 13.9142 86.3303 13.973 86.2668 14.0198ZM76.3186 19.5214C76.2841 19.5703 76.2556 19.6106 76.2272 19.6509C76.304 19.6721 76.3814 19.7061 76.4584 19.7087C76.4853 19.7094 76.5145 19.6337 76.543 19.5934C76.4673 19.5683 76.392 19.5451 76.3186 19.5214ZM87.2295 19.1868C87.179 19.1535 87.1373 19.1259 87.0956 19.0984C87.0737 19.1726 87.0405 19.2471 87.0359 19.322C87.0353 19.348 87.1135 19.3763 87.1552 19.4038C87.1792 19.331 87.2051 19.2579 87.2292 19.185L87.2295 19.1868ZM72.9668 25.8366C72.9324 25.8854 72.9039 25.9257 72.8755 25.9661C72.9523 25.9872 73.0297 26.0212 73.1067 26.0239C73.1336 26.0245 73.1628 25.9489 73.1913 25.9086C73.116 25.8853 73.0403 25.8602 72.9668 25.8366ZM84.952 23.8136C85.0025 23.8469 85.0443 23.8745 85.086 23.902C85.1078 23.8278 85.1433 23.7547 85.1456 23.6784C85.1463 23.6524 85.0681 23.6241 85.0263 23.5966C85.0023 23.6694 84.9768 23.7443 84.952 23.8136ZM89.2822 26.9395C89.3106 26.8991 89.3728 26.8453 89.3624 26.8213C89.3315 26.7511 89.2709 26.6955 89.2226 26.634C89.1941 26.6743 89.1338 26.7279 89.1442 26.7519C89.1748 26.8203 89.2338 26.878 89.2822 26.9395ZM83.5737 28.5004C83.6242 28.5338 83.666 28.5613 83.7077 28.5889C83.7295 28.5146 83.7646 28.4398 83.7673 28.3653C83.768 28.3393 83.6898 28.311 83.6477 28.2816C83.6237 28.3545 83.5981 28.4294 83.5734 28.4986L83.5737 28.5004ZM76.2433 34.5873C76.2938 34.6207 76.3355 34.6482 76.3772 34.6758C76.3991 34.6015 76.4327 34.5288 76.4369 34.4522C76.4375 34.4262 76.3593 34.3978 76.3176 34.3703C76.2936 34.4431 76.2677 34.5163 76.2433 34.5873ZM6.92479 48.7007C6.97429 48.7583 7.02414 48.8176 7.07582 48.8767C7.10429 48.8363 7.16645 48.7825 7.15603 48.7585C7.1251 48.6883 7.06454 48.6327 7.01619 48.5712C6.98773 48.6115 6.95926 48.6519 6.92479 48.7007ZM76.5365 38.2447C76.486 38.2114 76.4443 38.1838 76.4025 38.1563C76.3807 38.2305 76.3452 38.3036 76.3448 38.3795C76.3441 38.4055 76.4223 38.4338 76.4622 38.4617C76.4881 38.3886 76.5121 38.3158 76.5365 38.2447ZM69.238 1.5019C69.2489 1.44997 69.2756 1.33226 69.3027 1.21633C69.2089 1.19641 69.0961 1.13742 69.0257 1.16874C68.9293 1.21403 68.8654 1.32741 68.7878 1.40998C68.8816 1.4299 68.9753 1.44982 69.2361 1.50224L69.238 1.5019ZM96.8876 5.52652C96.6648 5.66882 96.5847 5.71857 96.5048 5.7701C96.6086 5.8215 96.7105 5.90283 96.8173 5.91113C96.8929 5.91588 96.9776 5.82091 97.0574 5.76938C96.9881 5.66916 96.9192 5.57072 96.8876 5.52652ZM84.2499 25.3602C84.1746 25.2685 84.0862 25.1588 83.9997 25.0488C83.9615 25.1371 83.8759 25.2378 83.8969 25.3061C83.9372 25.4338 84.0406 25.5426 84.119 25.6597C84.1575 25.5731 84.1942 25.4869 84.2495 25.3585L84.2499 25.3602ZM81.9568 32.1412C82.0527 32.2403 82.1229 32.3551 82.1591 32.3448C82.2978 32.3103 82.4247 32.2354 82.5562 32.1745C82.5045 32.1155 82.4439 32.0007 82.3989 32.0052C82.2605 32.0212 82.1256 32.0846 81.9583 32.1391L81.9568 32.1412ZM104.453 5.03332C104.569 5.22497 104.619 5.30287 104.667 5.3829C104.82 5.21631 104.973 5.0515 105.126 4.88669C105.037 4.84935 104.928 4.76366 104.862 4.78682C104.712 4.84187 104.584 4.95027 104.453 5.03332ZM104.224 6.17021C104.267 6.068 104.359 5.94031 104.33 5.90292C104.229 5.77525 104.091 5.66893 103.947 5.58785C103.926 5.57692 103.798 5.74093 103.72 5.82351C103.888 5.93907 104.054 6.05319 104.224 6.17021ZM83.932 10.6712C84.0493 10.8607 84.0974 10.9407 84.1452 11.019C84.2986 10.8542 84.4516 10.6876 84.6049 10.5228C84.5154 10.4854 84.4069 10.3997 84.3406 10.4229C84.1907 10.4779 84.0627 10.5863 83.932 10.6712ZM72.6974 26.9937C72.8232 27.178 72.8747 27.2555 72.928 27.3328C73.0704 27.1607 73.215 26.9901 73.3592 26.8177C73.2685 26.7843 73.157 26.7028 73.0933 26.7292C72.9485 26.7908 72.8252 26.9038 72.6992 26.9934L72.6974 26.9937ZM89.0642 25.6658C89.0301 25.8144 88.9701 25.9678 88.9717 26.1229C88.9717 26.1913 89.0937 26.2579 89.1607 26.3271C89.2676 26.13 89.3727 25.9333 89.4777 25.7366C89.3828 25.7206 89.2897 25.7043 89.0623 25.6661L89.0642 25.6658ZM73.7918 30.8955C73.9073 31.0854 73.9573 31.1651 74.0054 31.2451C74.1587 31.0803 74.3117 30.9137 74.4651 30.7489C74.3756 30.7116 74.267 30.6259 74.2011 30.6508C74.0512 30.7059 73.9232 30.8143 73.7921 30.8973L73.7918 30.8955ZM6.52227 46.5505C6.415 46.4516 6.29859 46.3452 6.18219 46.2387C6.17175 46.3812 6.11953 46.535 6.16277 46.6585C6.21167 46.8012 6.34495 46.9157 6.44049 47.0426C6.46304 46.9035 6.48745 46.764 6.52193 46.5487L6.52227 46.5505ZM110.611 7.26589C110.774 7.16784 110.936 7.0698 111.097 6.9721C110.93 6.86011 110.709 6.62097 110.61 6.66123C110.424 6.73763 110.308 6.97521 110.164 7.14761C110.301 7.18369 110.438 7.21978 110.611 7.26589ZM74.4476 26.5345C74.3377 26.8042 74.2297 27.0643 74.1379 27.3289C74.1371 27.3346 74.3075 27.4238 74.3975 27.4241C74.4893 27.424 74.6558 27.366 74.6596 27.3264C74.6744 27.0888 74.6594 26.8455 74.6285 26.6088C74.623 26.571 74.4869 26.5495 74.4476 26.5345ZM133.446 24.2652C133.52 24.3904 133.539 24.4609 133.568 24.463C133.639 24.4705 133.75 24.4743 133.777 24.4343C133.888 24.2772 133.993 24.1101 134.061 23.9311C134.086 23.8637 134.005 23.7583 133.972 23.6681C133.871 23.7198 133.734 23.7464 133.675 23.8257C133.568 23.971 133.503 24.1493 133.445 24.2634L133.446 24.2652ZM5.22583 46.9437C5.42976 47.136 5.12222 47.6378 5.61745 47.8233C5.58663 47.4792 5.56322 47.1339 5.52097 46.7901C5.49669 46.5873 5.45694 46.3837 5.39606 46.1895C5.38365 46.1455 5.25155 46.1251 5.17198 46.1193C5.14878 46.1179 5.08849 46.2011 5.09431 46.2407C5.12229 46.4428 5.16725 46.6436 5.22618 46.9455L5.22583 46.9437ZM74.4603 32.3998C74.3179 31.6507 74.2716 31.5407 73.9998 31.6476C73.2326 31.95 74.4509 32.0186 74.1188 32.3159C74.0912 32.3413 74.1161 32.42 74.0889 32.4471C73.6913 32.8303 74.1397 33.0206 74.3331 33.0316C74.7843 33.0604 74.4402 32.718 74.487 32.5467C74.4978 32.504 74.4697 32.4481 74.4603 32.3998ZM76.7967 27.311C76.6906 27.1102 76.5996 26.9381 76.509 26.7677C76.3708 26.9612 76.1757 27.1374 76.1084 27.3512C76.0113 27.6667 76.0192 28.0112 75.9569 28.3389C75.7864 29.2486 75.5648 30.151 75.8327 31.0826C75.8997 31.3183 75.9907 31.6273 75.8912 31.8137C75.5211 32.5138 75.7881 32.7944 76.5035 32.9121C76.6238 32.9309 76.7076 33.1542 76.8093 33.2837C76.8194 33.1394 76.8594 32.9916 76.8344 32.8537C76.7389 32.2958 76.5799 31.7457 76.5257 31.184C76.4744 30.6569 76.4952 30.1166 76.5373 29.5873C76.5988 28.8251 76.7068 28.0655 76.7945 27.3096L76.7967 27.311ZM89.5676 13.6167C89.3803 13.3623 89.1927 13.0875 88.9818 12.8299C88.8741 12.6997 88.6797 12.4872 88.6012 12.5163C88.4294 12.5771 88.2185 12.7506 88.1824 12.9088C88.1203 13.1884 88.0637 13.5742 88.21 13.7751C89.0124 14.8777 88.8959 16.2012 89.206 17.4174C89.296 17.771 88.9759 18.375 89.1549 18.5274C89.8001 19.0795 89.4621 19.6701 89.4947 20.2876C89.5705 21.7537 89.5819 23.2037 89.3431 24.6549C89.3273 24.7503 89.501 24.8759 89.5875 24.9859C89.7196 24.8694 89.9796 24.7314 89.9621 24.6421C89.8305 23.9483 89.6895 23.2748 90.1186 22.6121C90.2079 22.4719 90.1936 22.2026 90.118 22.0406C89.8829 21.5321 90.2541 21.0724 90.1969 20.5833C90.1794 20.4348 90.2667 20.2747 90.2548 20.1252C90.2415 19.9592 90.1469 18.0341 90.1539 17.8941C90.1731 17.5317 90.5884 17.2194 90.1214 16.7772C89.8347 16.5038 89.9454 15.8658 89.6909 15.5218C89.4512 15.1955 89.3399 14.9586 89.4533 14.5791C89.5356 14.3051 89.5268 14.0052 89.5695 13.6164L89.5676 13.6167ZM84.7318 17.8842C84.821 18.3415 84.8955 18.8015 85.0085 19.2527C85.0515 19.4243 85.1825 19.5762 85.2733 19.7372C85.3928 19.5656 85.5416 19.4072 85.6278 19.2213C85.7271 19.0053 85.7799 18.7663 85.836 18.5341C85.8422 18.5071 85.7017 18.405 85.6607 18.4199C85.1907 18.5795 85.1302 18.289 85.0727 17.9553C84.9768 17.3956 84.864 16.8372 84.7423 16.2822C84.7258 16.2075 84.6099 16.1528 84.5399 16.0878C84.506 16.1791 84.4312 16.2759 84.4436 16.3588C84.5297 16.8685 84.6342 17.3748 85.7876 18.247C85.7963 18.2916 85.8053 18.3381 85.8141 18.3827C85.8901 18.3411 85.9793 18.3082 86.0364 18.2479C86.0539 18.2299 85.9794 18.1325 85.9484 18.0715C85.8947 18.1294 85.8413 18.1891 84.7355 17.8836L84.7318 17.8842ZM71.9104 31.0846C71.9585 31.3311 71.987 31.5849 72.0695 31.8214C72.0906 31.8805 72.2986 31.9369 72.3863 31.9062C72.5007 31.865 72.6757 31.674 72.6613 31.6489C72.3639 31.2036 72.0962 30.7529 72.0326 30.2114C72.0281 30.1789 71.9525 30.1538 71.9086 30.1248C71.8613 30.1963 71.7675 30.2744 71.7749 30.3415C71.8027 30.5917 71.8619 30.8362 71.9908 33.1621C72.0588 33.5104 72.1179 33.8622 72.201 34.2097C72.2211 34.293 72.3162 34.3589 72.3766 34.433C72.4257 34.3612 72.5272 34.2835 72.5172 34.2224C72.3937 33.5216 72.2556 32.8235 72.1081 32.127C72.0984 32.077 71.9929 32.0462 71.9311 32.0039C71.8929 32.0922 71.8115 32.1847 71.8216 32.2661C71.8614 32.5678 71.931 32.8659 71.9111 31.0881L71.9104 31.0846ZM82.5247 30.0733C82.3996 29.9906 82.2744 29.9079 82.1493 29.8253C82.1197 29.6734 82.0275 29.4072 82.0694 29.3866C82.6263 29.104 82.6268 28.5582 82.7995 28.0809C83.2104 26.9332 83.168 25.7163 83.4155 24.5447C83.4961 24.1637 83.7264 23.8055 83.5231 23.3911C83.4622 23.2653 83.4995 23.2604 83.8591 23.3485C83.9513 23.3705 84.1175 23.3107 84.1718 23.236C84.3743 22.9605 84.4471 22.7161 84.9673 22.9414C85.5044 23.1747 85.1284 22.3756 85.4834 22.2443C85.6171 22.1941 85.9683 22.2689 85.739 21.937C85.6026 21.738 85.4373 21.5572 85.2857 21.3684C85.2315 21.4337 85.1267 21.5046 85.1345 21.5642C85.2364 22.4484 84.4091 21.8942 84.128 22.1785C84.0988 22.0784 84.018 21.9581 84.0491 21.8821C84.1438 21.6521 84.3902 21.4352 84.3808 21.2205C84.3638 20.7611 84.1953 20.309 84.1433 19.8468C84.1034 19.4859 84.3048 18.9794 84.1187 18.7802C83.7166 18.3465 84.447 17.9342 84.0215 17.577C83.8868 17.4646 83.7823 17.2136 83.6617 17.2133C83.254 17.2117 83.3484 17.509 83.3979 17.7627C83.4793 18.1696 83.5677 18.5734 83.6306 18.9837C83.6515 19.1205 83.5961 19.2675 83.576 19.4099C83.4943 19.3045 83.3704 19.2087 83.3396 19.0904C83.2484 18.7407 83.2064 18.3784 83.1167 18.0266C83.0813 17.8943 82.969 17.7797 82.8934 17.6566C82.7556 17.7446 82.6197 17.8322 82.4835 17.9181C82.4197 17.7872 82.3559 17.6564 82.2921 17.5256C82.2259 17.6079 82.1315 17.6825 82.098 17.7755C82.0177 18.001 81.9642 18.2364 81.9001 18.4664C81.7765 18.7053 81.6942 18.9793 81.5231 19.1806C80.317 20.5952 79.7561 22.327 78.9918 23.9572C78.4129 25.1947 78.0786 26.5393 77.8945 27.84C77.6456 29.602 77.6933 31.4339 78.2192 33.1972C78.3194 33.5341 78.2883 33.9135 78.7105 34.0974C78.8426 34.1566 78.918 34.3371 79.0206 34.4609C79.0306 34.3166 78.982 34.1164 79.0621 34.0371C79.5007 33.5891 80.0217 33.2112 80.4156 32.7307C80.7587 32.3131 80.9643 31.7891 81.2416 31.3187C81.5377 30.8172 81.8488 30.324 82.1555 29.8279C82.2807 29.9105 82.4058 29.9932 83.0021 30.3045C83.8404 30.1704 83.994 29.9575 83.7063 29.4438C83.6795 29.395 83.5144 29.4214 83.4132 29.412C83.5788 30.0645 83.0389 29.9538 82.6842 30.0572C82.6298 30.0726 82.5941 30.1642 82.5647 30.2288C82.5609 30.2387 82.6394 30.3077 82.6836 30.3089C82.8324 30.3169 82.98 30.3085 82.5295 30.0779L82.5247 30.0733ZM77.6828 24.7467C77.738 24.4907 77.7769 24.3763 77.7811 24.2608C77.7858 24.1675 77.7479 24.0708 77.7294 23.9761C77.638 24.0667 77.4838 24.1485 77.4705 24.2471C77.4545 24.361 77.5659 24.4906 77.6129 23.7125C77.7151 23.8048 77.7961 23.877 77.8771 23.9492C77.9189 23.8695 78.0118 23.7767 77.993 23.7098C77.9608 23.5844 77.8684 23.4735 77.7997 23.3566C77.7436 23.4611 77.6879 23.5675 77.681 24.7471L77.6828 24.7467ZM86.8788 14.7056C86.8326 14.714 86.7846 14.7228 86.7384 14.7312C86.7837 14.8062 86.8155 14.891 86.8798 14.9459C86.8984 14.9629 86.9991 14.8909 87.0618 14.8591C87.0019 14.8071 86.9405 14.7573 85.9412 14.6839C86.2079 14.7371 86.3243 14.7751 86.4437 14.7793C86.5403 14.7839 86.6402 14.7472 86.7381 14.7294C86.6443 14.641 86.5601 14.4936 86.4578 14.4789C86.34 14.4633 86.2079 14.5706 86.8785 14.7038L86.8788 14.7056ZM115.913 6.55964C115.988 6.6421 116.076 6.74075 116.166 6.83728C116.205 6.78209 116.293 6.7032 116.277 6.67273C116.205 6.52862 116.105 6.39525 116.015 6.25987C115.986 6.34475 115.956 6.42963 116.516 6.64967C116.409 6.83566 116.338 6.90405 116.349 6.95194C116.38 7.08312 116.447 7.20792 116.5 7.33327C116.567 7.30263 116.693 7.26302 116.689 7.24516C116.655 7.08115 116.599 6.92117 115.915 6.5593L115.913 6.55964ZM85.4823 8.30598C85.4021 8.35572 85.3201 8.40581 85.2396 8.45377C85.3418 8.50729 85.4419 8.55937 85.6686 8.59394C85.6442 8.63538 85.5623 8.73538 85.5801 8.75803C85.7641 8.98536 85.9533 9.2099 86.1663 9.40974C86.2156 9.45626 86.3803 9.42812 86.4616 9.38374C86.5379 9.34393 86.6291 9.23299 86.6222 9.1584C86.5965 8.78201 86.0499 8.45053 85.5416 8.60966C85.5217 8.50784 85.5018 8.40602 85.4551 8.16664C85.4638 8.2113 85.4729 8.25775 85.4816 8.30241C85.5577 8.26082 85.6469 8.22793 85.7036 8.1658C85.7211 8.14781 85.647 8.05217 85.6138 7.98977C85.56 8.04765 85.5067 8.10732 85.4813 8.30062L85.4823 8.30598ZM106.555 4.29914C107.166 3.55896 107.975 3.39313 108.629 3.52009C110.011 3.78657 111.412 3.7349 112.784 3.98095C112.936 4.00865 113.053 4.18712 113.202 4.27467C113.287 4.32407 113.427 4.38729 113.493 4.35129C114.331 3.90272 115.085 4.40725 115.871 4.53244C115.909 5.34319 116.283 4.59613 116.492 4.64512C117.702 4.92969 118.907 5.17463 120.08 5.64916C121.204 6.10319 122.316 6.56671 123.427 7.04877C124.957 7.71188 126.281 8.64904 127.544 9.62153C129.027 10.7629 130.277 12.2059 131.364 13.7172C132.183 14.8556 132.798 16.1365 133.441 17.3846C134.131 18.7223 134.67 20.1039 134.958 21.5962C135.237 23.0364 135.336 23.7305 135.183 24.4946C135.021 25.3028 134.605 25.7171 133.76 25.8266C132.732 25.9583 131.735 26.2693 130.664 26.0757C129.514 25.867 129.117 24.9515 129.83 23.9985C129.897 23.9105 130.045 23.7762 130.023 23.7414C129.357 22.701 129.114 21.4872 128.527 20.3992C127.949 19.3279 127.334 18.2913 126.702 17.2519C125.153 14.7055 122.972 12.7996 120.413 11.2696C119.685 10.8341 118.838 10.5906 118.066 10.2207C117.686 10.0383 117.272 9.8102 117.721 9.28998C117.779 9.22217 117.675 9.02459 117.645 8.88772C117.543 8.95255 117.447 9.04027 117.334 9.07754C117.094 9.15441 116.708 9.33021 116.622 9.24407C116.095 8.70745 115.437 9.0104 114.861 8.88038C114.279 8.74957 113.728 8.40592 113.216 8.07911C112.727 7.765 112.265 7.50861 111.642 7.56845C111.492 7.58285 111.395 7.43775 111.173 7.61321C110.765 7.93352 110.297 7.90772 109.732 7.74787C109.319 7.63247 109.259 7.50098 109.178 7.2049C109.148 7.09762 109.018 7.01776 108.933 6.92592C108.919 7.07086 108.943 7.2312 108.884 7.35462C108.759 7.616 108.244 7.60999 108.299 7.48902C108.451 7.15415 108.5 6.74577 108.078 7.09445C107.501 7.56941 107.135 7.59535 106.585 7.1943C106.398 7.05999 106.119 7.03305 105.876 6.98476C105.777 6.96406 105.664 7.02164 105.555 7.04505C105.689 7.59233 105.464 7.31322 105.128 7.3245C104.048 7.3583 102.953 7.21367 101.874 7.51736C101.404 7.64911 100.917 7.84877 100.333 7.6388C100.029 7.52958 99.5477 7.90577 99.137 8.03603C98.8163 8.13697 98.4902 8.19079 98.4511 7.6966C98.4498 7.68019 98.0351 7.61326 97.9317 7.70053C97.5406 8.02887 97.2252 8.47105 96.5909 8.19992C96.5556 8.18599 96.3417 8.39327 96.3488 8.48818C96.3843 8.90532 96.277 8.87491 95.9415 8.71402C95.8209 8.65459 95.5554 8.92119 95.3379 8.99225C93.7625 9.50475 92.3311 10.2944 90.9004 11.0969C90.6262 11.2504 90.3528 11.339 90.1809 11.6145C89.9234 12.0295 90.3882 12.0984 90.5105 12.3333C90.6141 12.5309 90.6121 12.8439 90.5246 13.0522C90.4088 13.3211 90.3471 13.5044 90.6225 13.7003C90.8112 13.8343 90.9711 14.0068 91.143 14.1623C90.9778 14.2664 90.8111 14.3726 90.6462 14.4785C90.777 14.6193 90.9059 14.7604 90.9719 15.0592C90.9605 15.1575 91.0116 15.0964 91.0635 15.0388C91.0086 15.0026 90.9516 14.9649 90.8967 14.9286C90.8605 14.9981 90.8163 15.0653 90.7922 15.1382C90.7869 15.1502 90.865 15.1878 90.9722 15.061C91.1583 14.9661 91.3764 15.0152 91.3848 15.0876C91.4776 15.9254 91.9618 16.7307 91.5844 17.6189C91.4992 17.8194 91.6414 18.1264 91.7183 18.3733C92.1614 19.791 91.782 21.2178 91.7606 22.6369C91.7337 24.3214 91.2808 25.9596 90.7422 27.5505C90.6122 27.933 91.1139 28.6611 90.2271 28.7431C90.0875 29.2032 89.9481 29.6651 89.804 30.1224C89.6585 30.5817 89.5613 31.0637 89.3464 31.4913C89.1164 31.9494 88.7749 32.3557 88.4778 32.7834C88.1789 33.2115 87.8986 33.6566 87.5682 34.0608C87.1869 34.5279 86.7118 34.9252 86.3672 35.4134C86.0079 35.9246 85.2993 35.9001 84.9364 36.51C84.6993 36.9121 83.814 36.9031 83.3468 37.2434C82.7823 37.6533 82.266 38.0654 81.5837 38.3229C81.2805 38.4354 81.1226 38.6158 80.7946 38.4055C80.4993 38.2151 80.362 38.4916 80.1728 38.6685C79.9742 38.8564 79.7029 38.9169 79.5841 38.4649C79.5796 38.4417 79.5887 38.4882 79.5974 38.5328C79.6731 38.4894 79.7626 38.4583 79.8175 38.3965C79.835 38.3786 79.7605 38.2811 79.7299 38.222C79.6761 38.2798 79.6227 38.3395 79.5823 38.4653C79.2354 38.9909 78.7438 38.7456 78.3 38.8134C77.3661 38.9576 76.4908 38.8043 75.6261 38.5973C75.265 38.5114 74.6693 38.6439 74.5495 38.0201C74.54 37.9719 74.1634 37.9331 73.9855 37.9822C73.483 38.1218 73.1633 38.0912 73.1585 37.4687C73.1541 37.0051 72.5059 37.3784 72.3104 36.8276C72.101 36.235 71.8333 35.6474 71.7068 35.0192C71.4728 33.8594 71.2517 32.6973 71.025 31.5362C71.5974 30.7253 71.6699 29.9407 70.9086 29.1859C70.847 29.1249 70.8592 28.9914 70.8356 28.8902C70.9446 28.8704 71.0534 28.8302 71.161 28.8328C71.4613 28.8429 71.7688 28.8406 72.0529 28.9146C72.1114 28.9299 72.0815 29.2572 72.0927 29.442C72.5576 29.4129 72.9282 28.8034 72.7889 28.3052C72.7694 28.2348 72.7754 28.1578 72.7726 28.0844C72.7661 27.9727 72.7618 27.8625 72.7556 27.7526C72.6186 27.8053 72.4289 27.8232 72.3582 27.9212C72.2841 28.0216 72.3494 28.2095 72.3026 28.342C72.2782 28.413 72.1346 28.5002 72.0632 28.4873C71.9345 28.4645 71.7524 28.394 71.7169 28.3006C71.626 28.06 71.5991 27.7949 71.5548 27.5384C71.4942 27.1887 72.2797 27.0586 71.7992 26.5764C71.2776 26.0498 72.1527 25.8202 72.1128 25.4001C72.0621 24.8858 72.4099 24.7374 72.7753 24.5026C72.9283 24.4044 72.8051 23.9496 72.8646 23.6668C73.0561 22.757 73.0646 22.761 73.9042 23.1723C74.0079 23.2237 74.141 23.2199 74.2617 23.2404C74.2617 23.1424 74.2783 23.0413 74.258 22.947C74.2257 22.8012 74.1872 22.6528 74.1156 22.5215C73.7567 21.8488 73.7419 21.6554 74.372 21.4538C74.8688 21.2949 74.8921 21.1204 74.8297 20.7026C74.7999 20.5009 74.9769 20.1338 75.1513 20.0669C75.5159 19.9265 75.6041 19.7903 75.5619 19.4076C75.5337 19.1556 75.7854 18.6418 75.8859 18.6475C76.6651 18.6906 76.5119 17.9842 76.8163 17.6624C77.6112 16.8258 78.3985 15.9795 79.2098 15.1585C79.6248 14.737 80.0251 14.2109 80.5461 13.9995C81.236 13.7222 80.9914 13.3117 80.7569 13.0806C80.2618 12.5917 79.9331 11.9856 79.3564 11.5394C78.7928 11.1018 78.2666 10.5909 77.8616 9.91729C77.5275 9.36211 76.6056 9.0971 75.9029 8.79956C75.2693 8.53201 74.5469 8.45636 73.9189 8.17853C73.4017 7.94898 72.8603 7.86996 72.3546 7.69935C71.8452 7.52942 71.4213 7.42531 70.8738 7.4325C70.5114 7.43744 70.1454 6.96391 69.7778 6.70712C69.6896 6.64733 69.5906 6.60061 69.4983 6.54897C69.1063 7.25484 68.4076 6.70315 67.8628 6.90039C67.3113 7.10254 66.5309 7.22982 66.0572 6.99789C65.3614 6.65657 64.749 7.32117 64.0693 6.88626C63.7769 6.70088 63.1547 6.99175 62.6811 7.07426C61.9952 7.19544 61.2976 7.2762 60.6279 7.46102C59.9949 7.63733 59.3034 7.49499 58.7183 8.06398C58.2875 8.48279 57.3279 8.05445 56.8939 8.76056C55.7547 8.90138 54.8142 9.57022 53.7766 9.89788C52.11 10.4233 50.7961 11.482 49.2676 12.195C47.6986 12.9265 46.3753 14.0442 44.9523 15.0044C43.8183 15.7695 42.8913 16.8502 41.5199 17.2812C40.6615 18.5271 39.3261 19.2992 38.2424 20.3216C37.0066 21.4863 35.8131 22.6914 34.5855 23.8583C33.9625 24.449 33.5075 25.1553 32.8636 25.7368C31.4847 26.9812 30.3076 28.4368 29.0851 29.8359C28.308 30.7247 27.6504 31.7157 26.8423 32.5731C25.9742 33.4952 25.2607 34.5333 24.3469 35.4267C23.5858 36.172 23.0978 37.1599 22.2968 37.9162C21.6295 38.5445 21.0155 39.2594 20.5365 40.0292C20.0662 40.7845 19.4735 41.4714 18.9228 42.1284C18.3336 42.8332 17.8518 43.6276 17.2064 44.2797C16.6091 44.8842 16.1705 45.6355 15.4218 46.1011C15.362 46.1379 15.3461 46.2425 15.311 46.3174C15.4084 46.3366 15.5104 46.3884 15.6012 46.3737C16.0761 46.2983 16.5475 46.1755 17.0261 46.129C17.4262 46.0914 17.7889 45.9217 18.258 46.0712C18.5761 46.1724 19.0404 45.7975 19.4545 45.6851C19.8668 45.573 20.295 45.5228 20.7179 45.4458C21.1926 45.3594 21.6672 45.273 22.1419 45.1865C22.563 45.1099 22.9841 45.0332 23.407 44.9562C23.8817 44.8698 24.3677 44.822 24.8267 44.6848C25.2025 44.5719 25.5302 44.2811 25.9093 44.2046C26.3268 44.1194 26.9342 44.3603 27.1765 44.1515C27.5498 43.8301 28.0246 43.9601 28.313 43.7226C28.7501 43.3656 29.2318 44.138 29.6934 43.5342C29.9055 43.2588 30.6243 43.3943 31.0685 43.2302C32.1994 42.8116 33.2983 43.2386 34.41 43.2803C34.5139 43.2836 34.6597 43.4328 34.7027 43.5452C34.9736 44.247 34.8067 44.5289 34.1037 44.9936C33.3751 45.474 32.6363 45.8434 31.7495 45.9938C31.1069 46.1015 30.5043 46.4147 29.8804 46.6282C29.2569 46.8435 28.4784 46.6374 28.0071 47.2801C27.9618 47.3419 27.8028 47.321 27.7001 47.3434C25.7068 47.8117 23.7104 48.264 21.726 48.7585C21.0363 48.9284 20.385 49.2468 19.6966 49.4239C18.9735 49.6092 18.1421 49.5534 17.5045 49.873C16.4939 50.3788 15.3268 50.3176 14.3755 50.7645C12.7557 51.5293 11.0072 51.5665 9.3217 51.9362C8.3738 52.1458 7.3208 52.3264 6.98316 50.9691C6.94614 50.8186 6.62656 50.7491 6.48666 50.6007C6.36169 50.4699 6.29967 50.2796 6.21194 50.1143C6.37339 50.1478 6.53394 50.1962 6.69536 50.2001C6.73001 50.2012 6.82442 49.9991 6.79329 49.9474C6.69262 49.7844 6.52296 49.6599 6.42045 49.4973C6.16546 49.0924 6.45415 48.4941 5.92573 48.1778C5.97343 48.6279 6.02297 49.0776 6.06327 49.529C6.06725 49.569 6.00732 49.6539 5.98375 49.6508C5.9035 49.6414 5.77323 49.6207 5.75643 49.5738C5.46956 48.7215 5.20415 47.8615 4.91692 47.0074C4.69497 46.3504 4.40422 45.7133 4.22219 45.0454C4.03021 44.346 4.11169 43.519 3.75184 42.9297C3.13246 41.9122 3.26199 40.7436 2.8187 39.7366C1.99789 37.8734 1.84763 35.8789 1.3752 33.9486C1.32158 33.7326 0.976002 33.5495 0.987642 33.3643C0.998641 33.205 1.34105 33.078 1.50328 32.9097C1.54618 32.8649 1.4767 32.7147 1.45278 32.6118C1.31824 32.0499 1.54027 32.139 1.88858 32.3752C2.08689 32.5093 2.44514 32.9435 2.37041 32.208C2.3539 32.0352 2.58988 31.8332 2.56334 31.6678C2.4607 31.0539 2.46321 30.763 3.25918 31.1175C3.69462 31.3102 3.92937 30.8864 3.69653 30.3793C3.42627 29.7885 3.47825 29.7217 4.22764 29.6611C4.30106 29.6551 4.38772 29.619 4.43915 29.5689C4.71858 29.3053 4.74004 29.2977 4.7681 29.4906C4.82053 29.8473 4.87755 30.1884 5.25593 30.3729C4.74521 30.8821 5.43946 30.8722 5.58847 31.0967C5.66969 31.2188 5.77086 31.3354 5.81064 31.4706C6.3484 33.2947 7.13002 35.0355 7.60766 36.8946C7.98424 38.3633 8.2467 39.8841 8.77134 41.2981C9.18255 42.4053 9.45474 43.5156 9.70456 44.6484C9.72245 44.7303 9.83084 44.7956 9.89675 44.8687C9.95738 44.7874 10.0408 44.7149 10.0768 44.6251C10.147 44.4458 10.2766 44.228 10.2259 44.0763C9.98832 43.3685 10.2334 42.5173 9.52913 41.9371C9.40129 41.8308 9.43394 41.5474 9.38161 41.3479C8.99783 39.9305 8.75771 38.4555 8.17694 37.1165C7.76328 36.1633 7.72395 35.129 7.29963 34.2388C6.73373 33.0544 6.61572 31.8031 6.2861 30.5849C6.12044 29.9713 5.66532 29.4622 5.59701 28.7791C5.54108 28.2085 5.65934 28.4126 6.09369 28.4038C6.90524 28.3874 7.08793 29.0294 7.32533 29.3931C7.75084 30.0445 7.88573 30.8727 8.14199 31.627C8.39826 32.3813 8.6656 33.1336 8.90709 33.8907C9.13362 34.6004 8.99129 35.4292 9.64508 36.0057C9.70751 36.0609 9.68564 36.2036 9.71106 36.3045C10.1845 38.181 10.6542 40.0581 11.1442 41.9316C11.2174 42.2087 11.3585 42.4808 11.5221 42.7211C11.5892 42.8199 11.9157 43.0916 11.9261 42.7234C11.9534 41.6973 13.1651 41.5655 13.4449 40.7062C13.5728 40.3129 14.0227 40.0016 14.2313 39.5715C14.3173 39.3949 14.6472 39.3311 14.9362 39.2045C14.9602 39.2001 14.9122 39.2089 14.866 39.2173C14.9109 39.2905 14.945 39.3768 15.0074 39.432C15.026 39.449 15.1267 39.377 15.1897 39.347C15.1298 39.2951 15.0681 39.2434 14.9384 39.206C15.3662 38.1939 15.9524 37.2381 17.0524 36.6031C17.0764 36.5987 17.0284 36.6075 16.9823 36.6159C17.0253 36.6894 17.0612 36.7754 17.1236 36.8306C17.1422 36.8476 17.2411 36.7759 17.3059 36.7456C17.2464 36.6954 17.1844 36.642 17.0546 36.6046C17.1623 36.0781 17.3608 35.5666 18.0554 35.4604C18.1632 35.4445 18.3057 35.2928 18.3335 35.1804C18.5704 34.1698 19.3887 33.6786 20.2038 33.1806C20.2877 33.1302 20.4603 33.0839 20.4555 33.0497C20.414 32.641 20.9472 32.4625 20.9516 32.299C20.9826 31.2722 22.062 31.0405 22.4678 30.2878C22.8623 29.5555 23.5735 28.9858 24.1443 28.3436C24.4796 27.9643 24.8032 27.5743 25.1476 27.2027C25.4524 26.8734 25.785 26.5687 26.0946 26.2441C26.5101 25.8058 26.8364 25.1453 27.3456 24.9712C27.8888 24.7853 27.5676 24.3647 27.8548 24.17C28.1404 23.9774 28.4049 23.7257 28.6074 23.4502C29.1132 22.7588 29.7226 22.1576 30.4338 21.6859C31.2074 21.1714 31.7019 20.4321 32.3122 19.7864C32.6528 19.4247 32.9691 18.9971 33.3916 18.7611C34.0886 18.3734 34.5473 17.8625 35.0035 17.2208C35.5349 16.4748 36.3344 15.8871 37.0315 15.2552C38.2623 14.1432 39.6359 13.1753 40.9858 12.1933C41.8967 11.5299 42.839 10.8996 43.7062 10.1886C44.55 9.49479 45.4969 8.97647 46.4424 8.46027C46.9694 8.17193 47.2173 7.62919 47.8807 7.41222C48.8967 7.08111 49.7841 6.40527 50.7155 5.85648C51.6024 5.33429 52.5324 4.87639 53.4306 4.36324C54.1188 3.96971 54.9728 3.84752 55.7397 3.57286C56.1117 3.44039 56.4456 3.21125 56.8181 3.07131C58.599 2.40669 60.385 1.77813 62.2729 1.40667C63.3244 1.19858 64.3104 0.508499 65.4029 0.588921C66.4195 0.662809 67.3636 0.394723 68.3372 0.365465C69.2819 0.33589 70.259 0.422537 71.1934 0.398555C73.2351 0.344997 75.1597 0.749334 77.0873 1.27706C78.7907 1.74386 80.3918 2.46051 81.979 3.20376C82.3516 3.37825 82.6638 3.67472 82.9897 3.93355C83.0983 4.01923 83.1321 4.2221 83.2463 4.26792C84.7829 4.90936 85.8825 5.67293 86.8251 6.76846C87.2403 7.24967 87.6529 7.7369 88.0961 8.19452C88.204 8.30622 88.4387 8.38187 88.5971 8.36044C89.6364 8.21746 90.4872 7.71663 91.232 7.01498C91.4324 6.8268 91.704 6.76811 91.7466 7.30975C91.7352 7.40802 91.7867 7.34869 91.8383 7.28936C91.7834 7.25311 91.7263 7.21541 91.6714 7.17916C91.6352 7.24864 91.591 7.31589 91.5669 7.38871C91.5616 7.40077 91.6401 7.44013 91.747 7.31154C92.4632 6.71867 93.1139 6.28017 93.7708 5.8535C93.8522 5.79985 94.0019 5.76334 94.0796 5.79913C94.3363 5.91888 94.5735 6.07549 94.8174 6.21791C94.9309 5.98636 94.7325 5.66547 95.238 5.56049C97.711 5.04178 100.11 4.21103 102.635 3.91963C102.942 3.88413 103.337 3.74551 103.544 3.87612C104.499 4.47732 105.267 4.14527 106.108 3.62758C106.556 3.35191 106.546 3.86981 106.556 4.30093C106.542 4.39775 106.596 4.33987 106.647 4.28054C106.592 4.24429 106.535 4.20659 106.48 4.16855C106.444 4.23803 106.4 4.30528 106.375 4.3781C106.372 4.38983 106.449 4.42952 106.557 4.30059L106.555 4.29914Z" fill="#FFC305" fill-opacity="0.5"/>
</svg>
