<svg width="61" height="66" viewBox="0 0 61 66" fill="none" xmlns="http://www.w3.org/2000/svg">
<path d="M52.5943 35.1602C51.0028 35.0174 49.3101 34.8555 48.5482 34.1271C47.0291 32.6797 46.2334 33.1892 44.2851 32.7083C43.2241 32.4465 42.6599 29.9231 41.3047 28.3758C40.1763 27.0856 38.4595 26.1953 36.6028 26.3953C35.6479 26.4952 33.7575 26.9951 32.1613 28.4472C31.1196 29.3899 30.6036 31.1705 29.4703 32.4512C28.4672 33.5891 27.5268 34.865 26.5479 36.141C25.5833 37.4026 24.0787 38.312 23.2348 39.5832C22.2992 40.9877 21.6337 42.4921 20.9682 43.7585C20.0567 45.4915 20.1773 47.1912 20.0471 48.3053C19.8542 49.924 20.187 51.1476 21.2334 52.5092C22.1208 53.6709 23.1673 54.8659 24.5176 55.9419C25.7377 56.9227 26.7552 58.2795 28.038 59.2651C29.3546 60.2792 30.4734 61.3742 31.5343 62.4692C33.0245 64.007 34.2639 65.0544 35.3007 65.6019C36.6414 66.3113 37.9724 65.0973 40.0075 64.5974C41.2131 64.3022 42.8817 64.6116 44.7866 64.0308C46.5275 63.5023 48.1479 63.0072 49.4162 62.1645C50.8533 61.2075 52.4496 60.3506 53.5105 59.1651C54.6245 57.9177 55.102 56.1561 56.0761 54.8659C57.0744 53.5424 57.7736 51.9712 58.9359 50.8238C59.9631 49.8145 60.8697 48.7719 60.9854 47.3864C61.0915 46.0819 60.6382 44.6822 60.2524 43.3301C59.8714 41.9732 59.3024 40.6734 58.7189 39.5356C57.8797 37.893 56.5969 37.017 56.0858 36.5076C55.2997 35.7173 54.1519 35.2983 52.5943 35.1602Z" fill="#FDB1F3"/>
<path d="M17.8001 44.4383C18.4511 43.3195 17.0912 42.0388 15.4371 41.0009C14.1109 40.1725 12.6689 39.2679 11.7285 38.5966C11.0052 38.0824 9.87187 36.8065 8.60837 35.3687C7.59082 34.207 6.28392 33.1786 5.18438 32.3359C3.68458 31.1885 2.4259 30.7838 1.31672 32.0598C-0.158965 33.7547 -0.356688 35.5877 0.535477 37.2397C1.40835 38.8585 3.16375 40.2201 4.65391 41.1056C5.61359 41.677 7.03623 42.7482 8.72411 43.4766C10.1709 44.1003 11.8925 44.2955 13.3007 44.6621C15.3936 45.2096 17.2407 45.4048 17.8001 44.4383Z" fill="#FDB1F3"/>
<path d="M9.90045 26.0669C12.0513 27.7952 14.0768 28.9521 14.2986 29.2377C16.0492 31.4897 17.6647 29.152 18.2241 27.0096C18.4604 26.0955 17.6888 24.5577 16.0492 22.8152C14.9737 21.6773 13.8839 20.2538 12.6348 19.0588C11.299 17.7876 9.82329 16.7497 8.87326 15.6928C7.40721 14.0597 5.75309 13.717 4.59086 14.174C3.22609 14.7072 2.29535 16.4307 2.60881 18.1732C2.80171 19.2683 4.0411 21.0012 5.72898 22.6009C6.9973 23.8055 8.54533 24.9814 9.90045 26.0669Z" fill="#FDB1F3"/>
<path d="M17.6605 33.374C17.4917 34.5357 17.7183 35.7593 18.244 36.8019C18.9722 38.254 20.1007 39.4157 20.8771 39.0158C22.2033 38.3302 24.6772 36.521 23.3655 34.0453C22.7193 32.8217 21.5667 31.3316 20.3418 30.8364C19.0879 30.3318 18.0318 30.8317 17.6605 33.374Z" fill="#FDB1F3"/>
<path d="M14.019 15.407C14.7762 16.5925 15.268 18.0494 16.112 19.2634C16.9559 20.4775 18.1423 21.4678 18.991 22.5866C19.9459 23.853 20.8815 25.029 21.735 25.9954C23.148 27.5999 24.4212 28.8806 25.1253 28.9901C27.0495 29.2805 28.4046 28.0808 28.2744 26.3049C28.1924 25.2527 27.8982 23.634 26.9578 21.9772C26.3164 20.8584 24.5128 19.8395 23.3651 18.1779C22.4391 16.8401 22.0678 14.95 21.0213 13.5693C19.9362 12.1362 18.123 11.3174 17.1054 10.1366C15.4995 8.27034 14.4386 6.823 13.6911 6.58971C11.4438 5.88985 10.1899 4.59962 9.64017 7.57047C9.55337 8.02753 11.1207 9.39869 12.2588 11.3983C12.8954 12.5124 13.1654 14.074 14.019 15.407Z" fill="#FDB1F3"/>
<path d="M30.7537 20.2581C31.4047 21.7959 31.8387 23.2766 32.538 24.2859C33.8449 26.1665 35.0795 25.7427 35.6678 24.0574C36.0584 22.948 35.3881 21.2531 35.4219 19.7772C35.4604 18.1252 35.6582 16.5683 35.2048 15.7114C34.6647 14.683 33.8883 13.2357 32.9624 11.6741C32.2101 10.3981 31.1491 9.16502 30.3727 7.82718C29.5287 6.38937 29.3985 4.63733 28.7716 3.44709C28.0627 2.10925 27.0596 1.26656 26.3989 0.704764C25.256 -0.256954 23.8285 -0.199822 22.9026 0.747612C22.3336 1.32845 22.6567 3.16619 23.3463 4.91823C23.8141 6.10371 24.224 7.53676 24.822 8.72225C25.6129 10.2743 27.2139 11.236 27.5081 11.9216C27.8457 12.6977 27.648 14.5735 28.3087 16.4065C28.7909 17.7395 30.1701 18.8822 30.7537 20.2581Z" fill="#FDB1F3"/>
<path d="M53.9789 11.6747C52.5852 11.4129 51.0806 11.9509 50.0775 13.4982C49.3541 14.6027 49.2769 16.4928 49.6676 18.5829C49.9762 20.254 50.5212 22.0489 51.1481 23.6057C52.1029 25.9767 53.27 27.7954 53.9259 27.943C55.1218 28.2191 55.9465 26.5528 56.477 24.2723C56.8194 22.7916 56.8821 21.0491 57.0026 19.4446C57.1714 17.3213 57.6006 15.3835 57.4801 14.5551C57.2968 13.2554 55.6041 11.9842 53.9789 11.6747Z" fill="#FDB1F3"/>
</svg>
