<svg width="120" height="132" viewBox="0 0 120 132" fill="none" xmlns="http://www.w3.org/2000/svg">
<g clip-path="url(#clip0_803_763)">
<path d="M103.464 70.2183C100.334 69.933 97.0038 69.6098 95.5049 68.1551C92.5165 65.2646 90.9512 66.282 87.1185 65.3217C85.0313 64.7988 83.9214 59.7596 81.2555 56.6695C79.0356 54.0928 75.6583 52.3149 72.0058 52.7142C70.1274 52.9139 66.4085 53.9122 63.2684 56.8121C61.2192 58.6947 60.2041 62.2506 57.9747 64.8083C56.0014 67.0807 54.1514 69.6288 52.2256 72.1769C50.3282 74.6965 47.3683 76.5125 45.7081 79.0511C43.8676 81.856 42.5584 84.8605 41.2492 87.3896C39.4562 90.8505 39.6934 94.2448 39.4372 96.4697C39.0577 99.7023 39.7123 102.146 41.771 104.865C43.5166 107.185 45.5753 109.572 48.2316 111.72C50.6318 113.679 52.6335 116.389 55.157 118.357C57.747 120.382 59.9479 122.569 62.0351 124.756C64.9665 127.827 67.4046 129.919 69.4443 131.012C72.0817 132.429 74.7001 130.004 78.7036 129.006C81.0753 128.416 84.3578 129.034 88.1051 127.874C91.5299 126.819 94.7175 125.83 97.2125 124.147C100.04 122.236 103.18 120.525 105.267 118.157C107.458 115.666 108.398 112.148 110.314 109.572C112.278 106.928 113.653 103.791 115.94 101.499C117.96 99.4837 119.744 97.4014 119.972 94.6346C120.18 92.0294 119.289 89.2341 118.53 86.5339C117.78 83.8241 116.661 81.2284 115.513 78.9561C113.862 75.6758 111.339 73.9264 110.333 72.909C108.787 71.3307 106.529 70.494 103.464 70.2183Z" fill="#FDB1F3"/>
<path d="M35.0166 88.7492C36.2973 86.5148 33.622 83.9572 30.368 81.8845C27.7591 80.2301 24.9225 78.4236 23.0725 77.083C21.6495 76.0561 19.4201 73.508 16.9345 70.6366C14.9328 68.3167 12.3618 66.263 10.1988 64.5801C7.24835 62.2886 4.77227 61.4805 2.59028 64.0286C-0.312718 67.4134 -0.701682 71.074 1.0534 74.3732C2.77053 77.6059 6.22377 80.3252 9.15522 82.0937C11.0431 83.2346 13.8418 85.3739 17.1622 86.8286C20.0083 88.0741 23.3951 88.464 26.1653 89.1961C30.2826 90.2895 33.9161 90.6793 35.0166 88.7492Z" fill="#FDB1F3"/>
<path d="M19.4768 52.0581C23.708 55.5095 27.6925 57.8199 28.1289 58.3904C31.5726 62.8876 34.7508 58.2193 35.8512 53.9407C36.3161 52.1152 34.7982 49.0441 31.5726 45.5642C29.4571 43.2918 27.313 40.449 24.8559 38.0625C22.228 35.5238 19.325 33.4511 17.4561 31.3404C14.5721 28.0791 11.3181 27.3946 9.03174 28.3073C6.34694 29.3722 4.51596 32.8141 5.13261 36.294C5.51209 38.4808 7.95023 41.9417 11.2706 45.1364C13.7657 47.5419 16.811 49.8903 19.4768 52.0581Z" fill="#FDB1F3"/>
<path d="M34.741 66.6528C34.409 68.9727 34.8549 71.4163 35.8889 73.4985C37.3215 76.3984 39.5414 78.7184 41.0688 77.9197C43.6777 76.5506 48.5445 72.9375 45.964 67.9934C44.6928 65.5499 42.4254 62.5739 40.0157 61.5851C37.5492 60.5772 35.4715 61.5756 34.741 66.6528Z" fill="#FDB1F3"/>
<path d="M27.5789 30.7699C29.0684 33.1374 30.036 36.0468 31.6962 38.4713C33.3565 40.8958 35.6902 42.8735 37.3599 45.1079C39.2383 47.637 41.0788 49.9854 42.758 51.9155C45.5377 55.1197 48.0422 57.6773 49.4273 57.896C53.2126 58.476 55.8784 56.08 55.6222 52.5335C55.461 50.4323 54.8823 47.1996 53.0323 43.8908C51.7706 41.6565 48.2225 39.6218 45.9646 36.3035C44.1431 33.6318 43.4126 29.8571 41.3539 27.0998C39.2194 24.238 35.6523 22.6026 33.6505 20.2446C30.4914 16.5175 28.4043 13.6271 26.9338 13.1612C22.5129 11.7636 20.0463 9.18693 18.9648 15.1199C18.794 16.0326 21.8773 18.7709 24.1162 22.7642C25.3685 24.9891 25.8997 28.1077 27.5789 30.7699Z" fill="#FDB1F3"/>
<path d="M60.4982 40.4585C61.7789 43.5295 62.6327 46.4865 64.0083 48.5022C66.5793 52.2578 69.0079 51.4116 70.1653 48.0458C70.9338 45.8304 69.6151 42.4456 69.6815 39.4982C69.7574 36.1989 70.1463 33.0898 69.2546 31.3784C68.192 29.3247 66.6646 26.4343 64.8432 23.3157C63.3632 20.7676 61.2761 18.305 59.7487 15.6333C58.0885 12.7619 57.8323 9.26297 56.599 6.88599C55.2045 4.21427 53.2312 2.53137 51.9315 1.40943C49.6831 -0.511168 46.8749 -0.397073 45.0535 1.495C43.934 2.65497 44.5696 6.32503 45.9263 9.82394C46.8465 12.1914 47.6529 15.0533 48.8292 17.4208C50.3851 20.5204 53.5348 22.441 54.1135 23.8101C54.7775 25.3599 54.3886 29.106 55.6883 32.7666C56.637 35.4288 59.3502 37.7107 60.4982 40.4585Z" fill="#FDB1F3"/>
<path d="M106.188 23.3157C103.446 22.7927 100.486 23.8671 98.5128 26.9572C97.0898 29.1631 96.938 32.9377 97.7064 37.1117C98.3136 40.449 99.3856 44.0334 100.619 47.1425C102.497 51.8775 104.793 55.5095 106.083 55.8043C108.436 56.3557 110.058 53.0279 111.102 48.4736C111.776 45.5167 111.899 42.0368 112.136 38.8326C112.468 34.5921 113.312 30.7224 113.075 29.068C112.715 26.4723 109.385 23.9337 106.188 23.3157Z" fill="#FDB1F3"/>
</g>
<defs>
<clipPath id="clip0_803_763">
<rect width="120" height="131.471" fill="white"/>
</clipPath>
</defs>
</svg>
