<svg width="84" height="345" viewBox="0 0 84 345" fill="none" xmlns="http://www.w3.org/2000/svg">
<path fill-rule="evenodd" clip-rule="evenodd" d="M-51.7347 228.106C-50.6344 233.462 -48.2934 240.556 -50.23 246.3C-50.5459 246.434 -51.018 246.127 -51.1966 246.515C-52.6729 249.4 -49.8697 245.955 -55.4745 247.561C-55.6314 247.612 -56.0027 247.65 -56.1981 247.822C-46.5524 289.03 -93.7579 280.373 -89.8059 311.66C-88.4078 322.903 -81.8731 327.87 -80.1837 335.537C-82.593 334.768 -82.6955 335.407 -85.6835 330.729C-94.123 317.62 -96.6524 300.067 -83.57 289.232C-69.6101 277.654 -61.5022 276.793 -58.9679 265.096C-58.0094 260.702 -57.7284 252.025 -58.9074 247.893C-61.2081 239.695 -78.7464 239.521 -56.5475 226.476C-67.6528 217.067 -70.451 216.61 -78.4835 200.517C-83.7114 190.041 -87.9365 178.309 -90.9563 165.518C-102.658 116.128 -92.083 52.0074 -47.2312 21.2455C-28.7752 8.57442 2.51606 -1.52046 29.4103 12.8053C52.0535 24.8914 65.6429 41.5575 73.054 67.3207C91.096 129.962 50.6922 197.204 -9.97443 222.494C-25.8275 229.095 -33.2377 228.189 -51.6775 228.171L-51.7347 228.106Z" fill="#FFC305" fill-opacity="0.5"/>
<path fill-rule="evenodd" clip-rule="evenodd" d="M54.7362 106.056C44.2782 106.182 42.3413 103.323 43.472 93.3796C43.3874 87.0448 40.7926 79.5961 41.6812 75.8126C43.5796 67.7924 59.5882 63.0755 60.5401 88.9152C60.8583 97.3544 59.9217 102.364 54.7362 106.056Z" fill="#FFEEBA"/>
<path fill-rule="evenodd" clip-rule="evenodd" d="M51.7651 56.6428C51.6249 71.259 38.5356 67.3761 37.8377 60.5409C37.3992 56.3648 40.2646 53.3843 43.0379 52.7943C48.0563 51.7035 48.9664 54.2814 51.7632 56.6734L51.7651 56.6428Z" fill="#FFEEBA"/>
</svg>
