<svg width="75" height="71" viewBox="0 0 75 71" fill="none" xmlns="http://www.w3.org/2000/svg">
<path d="M64.6641 37.5696C62.7075 37.4169 60.6263 37.2439 59.6895 36.4654C57.8218 34.9185 56.8435 35.463 54.4481 34.9491C53.1437 34.6692 52.4499 31.9724 50.7838 30.3186C49.3964 28.9397 47.2856 27.9882 45.0029 28.2019C43.8289 28.3087 41.5046 28.843 39.5421 30.395C38.2614 31.4025 37.6269 33.3055 36.2336 34.6743C35.0003 35.8904 33.8441 37.2541 32.6405 38.6178C31.4546 39.9662 29.6047 40.9381 28.5671 42.2967C27.4168 43.7977 26.5986 45.4057 25.7804 46.7592C24.6598 48.6113 24.808 50.4279 24.6479 51.6186C24.4107 53.3486 24.8198 54.6563 26.1065 56.1116C27.1975 57.3532 28.4841 58.6303 30.1443 59.7803C31.6444 60.8285 32.8954 62.2787 34.4726 63.332C36.0913 64.4158 37.4668 65.5861 38.7713 66.7565C40.6034 68.4 42.1272 69.5195 43.402 70.1046C45.0503 70.8628 46.6868 69.5653 49.1889 69.031C50.6712 68.7155 52.7227 69.0462 55.0647 68.4255C57.2052 67.8606 59.1974 67.3315 60.7568 66.4308C62.5237 65.4081 64.4862 64.4921 65.7906 63.2251C67.1603 61.892 67.7473 60.0093 68.945 58.6303C70.1723 57.2158 71.0321 55.5366 72.461 54.3103C73.7239 53.2316 74.8386 52.1172 74.9809 50.6365C75.1114 49.2423 74.554 47.7463 74.0797 46.3012C73.6113 44.851 72.9116 43.4619 72.1942 42.2458C71.1625 40.4903 69.5853 39.554 68.9568 39.0096C67.9904 38.1649 66.5792 37.7171 64.6641 37.5696Z" fill="#FDB1F3"/>
<path d="M21.8849 47.4845C22.6853 46.2887 21.0133 44.9199 18.9796 43.8106C17.3491 42.9253 15.5762 41.9585 14.42 41.241C13.5307 40.6914 12.1373 39.3278 10.5838 37.7911C9.33278 36.5495 7.72597 35.4504 6.37411 34.5498C4.53013 33.3234 2.98261 32.8909 1.61889 34.2546C-0.195445 36.0661 -0.438542 38.0251 0.65836 39.7908C1.73155 41.5209 3.88978 42.9761 5.7219 43.9226C6.90181 44.5332 8.65092 45.6781 10.7261 46.4566C12.5049 47.1232 14.6216 47.3318 16.353 47.7236C18.9262 48.3088 21.1971 48.5174 21.8849 47.4845Z" fill="#FDB1F3"/>
<path d="M12.1727 27.8487C14.8172 29.6958 17.3074 30.9323 17.5802 31.2376C19.7325 33.6444 21.7187 31.146 22.4065 28.8562C22.6971 27.8793 21.7484 26.2357 19.7325 24.3734C18.4103 23.1572 17.0702 21.6358 15.5346 20.3586C13.8922 19 12.0779 17.8908 10.9098 16.7611C9.10732 15.0158 7.0736 14.6495 5.64466 15.138C3.9667 15.7079 2.82236 17.5498 3.20776 19.4122C3.44493 20.5825 4.96873 22.4347 7.04396 24.1444C8.60334 25.4317 10.5066 26.6886 12.1727 27.8487Z" fill="#FDB1F3"/>
<path d="M21.7122 35.6602C21.5046 36.9018 21.7833 38.2095 22.4296 39.3239C23.3249 40.8758 24.7123 42.1174 25.6669 41.6899C27.2975 40.9572 30.3391 39.0236 28.7264 36.3777C27.9319 35.07 26.5148 33.4773 25.0088 32.9481C23.4672 32.4088 22.1687 32.9431 21.7122 35.6602Z" fill="#FDB1F3"/>
<path d="M17.2366 16.4553C18.1675 17.7223 18.7723 19.2794 19.8099 20.5769C20.8475 21.8744 22.3061 22.9328 23.3496 24.1286C24.5236 25.4821 25.6739 26.7389 26.7233 27.7719C28.4606 29.4866 30.0259 30.8554 30.8916 30.9724C33.2573 31.2828 34.9234 30.0006 34.7633 28.1026C34.6625 26.9781 34.3009 25.248 33.1447 23.4773C32.3561 22.2815 30.1386 21.1926 28.7274 19.4168C27.589 17.9869 27.1324 15.9668 25.8458 14.4912C24.5117 12.9596 22.2824 12.0844 21.0313 10.8225C19.0569 8.82786 17.7524 7.281 16.8334 7.03167C14.0704 6.28368 12.5288 4.90473 11.8529 8.07987C11.7462 8.56836 13.6731 10.0338 15.0724 12.1709C15.8551 13.3616 16.1871 15.0306 17.2366 16.4553Z" fill="#FDB1F3"/>
<path d="M37.8099 21.6408C38.6104 23.2844 39.144 24.8668 40.0037 25.9456C41.6105 27.9555 43.1284 27.5026 43.8518 25.7013C44.3321 24.5157 43.5079 22.7043 43.5494 21.1269C43.5968 19.3612 43.8399 17.6973 43.2826 16.7814C42.6185 15.6823 41.6639 14.1354 40.5255 12.4664C39.6005 11.1028 38.2961 9.78486 37.3415 8.35502C36.3039 6.81833 36.1438 4.9458 35.373 3.6737C34.5014 2.24387 33.2682 1.34322 32.4559 0.742793C31.0506 -0.285061 29.2956 -0.224001 28.1572 0.788588C27.4575 1.40937 27.8548 3.37349 28.7027 5.24602C29.2778 6.51302 29.7818 8.04463 30.517 9.31164C31.4894 10.9705 33.4579 11.9983 33.8196 12.731C34.2346 13.5604 33.9915 15.5653 34.8038 17.5243C35.3967 18.949 37.0925 20.1703 37.8099 21.6408Z" fill="#FDB1F3"/>
<path d="M66.3655 12.4682C64.652 12.1883 62.802 12.7633 61.5688 14.417C60.6794 15.5975 60.5845 17.6176 61.0648 19.8514C61.4443 21.6374 62.1143 23.5557 62.8851 25.2196C64.059 27.7536 65.4939 29.6974 66.3003 29.8551C67.7707 30.1503 68.7846 28.3693 69.4368 25.932C69.8578 24.3495 69.9349 22.4872 70.0831 20.7724C70.2906 18.503 70.8183 16.432 70.6701 15.5466C70.4448 14.1575 68.3636 12.7989 66.3655 12.4682Z" fill="#FDB1F3"/>
</svg>
