<svg width="120" height="132" viewBox="0 0 120 132" fill="none" xmlns="http://www.w3.org/2000/svg">
<g clip-path="url(#clip0_803_763)">
<path d="M103.465 70.2183C100.335 69.9331 97.0048 69.6098 95.5059 68.1551C92.5175 65.2647 90.9521 66.282 87.1194 65.3217C85.0323 64.7988 83.9223 59.7596 81.2565 56.6695C79.0366 54.0929 75.6592 52.3149 72.0068 52.7142C70.1284 52.9139 66.4095 53.9122 63.2693 56.8121C61.2202 58.6947 60.2051 62.2507 57.9756 64.8083C56.0024 67.0807 54.1524 69.6288 52.2266 72.1769C50.3292 74.6965 47.3693 76.5126 45.7091 79.0512C43.8686 81.856 42.5594 84.8605 41.2502 87.3896C39.4572 90.8505 39.6943 94.2448 39.4382 96.4697C39.0587 99.7024 39.7133 102.146 41.772 104.865C43.5176 107.185 45.5762 109.572 48.2326 111.72C50.6328 113.679 52.6345 116.389 55.158 118.357C57.7479 120.382 59.9489 122.569 62.036 124.756C64.9675 127.827 67.4056 129.919 69.4453 131.012C72.0827 132.429 74.7011 130.004 78.7045 129.006C81.0763 128.416 84.3587 129.034 88.1061 127.874C91.5308 126.819 94.7185 125.83 97.2135 124.147C100.041 122.236 103.181 120.525 105.268 118.157C107.459 115.666 108.399 112.148 110.315 109.572C112.279 106.928 113.654 103.791 115.941 101.499C117.961 99.4837 119.745 97.4015 119.973 94.6347C120.181 92.0295 119.29 89.2342 118.531 86.5339C117.781 83.8241 116.662 81.2285 115.514 78.9561C113.863 75.6759 111.34 73.9264 110.334 72.909C108.788 71.3307 106.53 70.494 103.465 70.2183Z" fill="#FDB1F3"/>
<path d="M35.0175 88.7492C36.2983 86.5149 33.623 83.9572 30.3689 81.8845C27.76 80.2301 24.9235 78.4236 23.0735 77.083C21.6505 76.0562 19.421 73.508 16.9355 70.6366C14.9337 68.3167 12.3628 66.263 10.1998 64.5801C7.24933 62.2887 4.77325 61.4805 2.59126 64.0286C-0.311741 67.4134 -0.700705 71.074 1.05437 74.3732C2.77151 77.6059 6.22474 80.3252 9.1562 82.0937C11.0441 83.2346 13.8427 85.3739 17.1632 86.8286C20.0092 88.0742 23.3961 88.464 26.1662 89.1961C30.2836 90.2895 33.9171 90.6793 35.0175 88.7492Z" fill="#FDB1F3"/>
<path d="M19.4778 52.0582C23.709 55.5095 27.6935 57.82 28.1299 58.3904C31.5736 62.8877 34.7517 58.2193 35.8522 53.9407C36.3171 52.1152 34.7992 49.0441 31.5736 45.5642C29.458 43.2919 27.314 40.449 24.8569 38.0625C22.229 35.5239 19.326 33.4512 17.4571 31.3404C14.5731 28.0792 11.3191 27.3946 9.03271 28.3074C6.34791 29.3723 4.51694 32.8141 5.13359 36.294C5.51307 38.4808 7.9512 41.9417 11.2716 45.1364C13.7667 47.5419 16.812 49.8903 19.4778 52.0582Z" fill="#FDB1F3"/>
<path d="M34.742 66.6528C34.41 68.9728 34.8558 71.4163 35.8899 73.4985C37.3224 76.3985 39.5424 78.7184 41.0698 77.9197C43.6787 76.5506 48.5455 72.9376 45.965 67.9935C44.6938 65.5499 42.4264 62.5739 40.0167 61.5851C37.5501 60.5773 35.4725 61.5756 34.742 66.6528Z" fill="#FDB1F3"/>
<path d="M27.5799 30.7699C29.0693 33.1374 30.037 36.0468 31.6972 38.4714C33.3574 40.8959 35.6912 42.8735 37.3609 45.1079C39.2393 47.637 41.0798 49.9854 42.759 51.9156C45.5386 55.1197 48.0432 57.6774 49.4283 57.896C53.2135 58.476 55.8794 56.08 55.6232 52.5336C55.4619 50.4323 54.8832 47.1996 53.0333 43.8909C51.7715 41.6565 48.2234 39.6218 45.9655 36.3035C44.1441 33.6318 43.4136 29.8572 41.3549 27.0999C39.2203 24.238 35.6533 22.6026 33.6515 20.2447C30.4924 16.5176 28.4053 13.6272 26.9348 13.1613C22.5139 11.7636 20.0473 9.18696 18.9658 15.1199C18.795 16.0327 21.8783 18.7709 24.1172 22.7643C25.3694 24.9891 25.9007 28.1077 27.5799 30.7699Z" fill="#FDB1F3"/>
<path d="M60.4991 40.4585C61.7799 43.5296 62.6337 46.4865 64.0093 48.5022C66.5802 52.2578 69.0089 51.4116 70.1663 48.0458C70.9347 45.8305 69.6161 42.4456 69.6825 39.4982C69.7584 36.1989 70.1473 33.0899 69.2556 31.3784C68.193 29.3247 66.6656 26.4343 64.8441 23.3157C63.3642 20.7676 61.2771 18.305 59.7497 15.6333C58.0895 12.7619 57.8333 9.26301 56.6 6.88602C55.2054 4.2143 53.2322 2.5314 51.9324 1.40946C49.684 -0.511137 46.8759 -0.397042 45.0544 1.49503C43.935 2.655 44.5706 6.32506 45.9272 9.82397C46.8475 12.1914 47.6538 15.0533 48.8302 17.4208C50.3861 20.5204 53.5357 22.441 54.1144 23.8101C54.7785 25.3599 54.3896 29.106 55.6893 32.7666C56.638 35.4288 59.3512 37.7107 60.4991 40.4585Z" fill="#FDB1F3"/>
<path d="M106.189 23.3157C103.447 22.7928 100.487 23.8672 98.5138 26.9572C97.0907 29.1631 96.9389 32.9377 97.7074 37.1117C98.3145 40.449 99.3866 44.0335 100.62 47.1426C102.498 51.8775 104.794 55.5095 106.084 55.8043C108.437 56.3557 110.059 53.028 111.103 48.4737C111.776 45.5167 111.9 42.0368 112.137 38.8326C112.469 34.5921 113.313 30.7224 113.076 29.068C112.716 26.4723 109.386 23.9337 106.189 23.3157Z" fill="#FDB1F3"/>
</g>
<defs>
<clipPath id="clip0_803_763">
<rect width="120" height="131.471" fill="white" transform="translate(0.000976562)"/>
</clipPath>
</defs>
</svg>
