<svg width="177" height="318" viewBox="0 0 177 318" fill="none" xmlns="http://www.w3.org/2000/svg">
<path fill-rule="evenodd" clip-rule="evenodd" d="M124.505 214.129C123.018 219.141 120.14 225.726 121.753 231.291C122.069 231.437 122.575 231.174 122.734 231.553C124.062 234.379 121.405 230.941 127.066 232.806C127.224 232.864 127.604 232.923 127.793 233.097C115.144 271.587 164.288 266.255 158.153 295.683C155.971 306.26 148.919 310.572 146.673 317.74C149.203 317.157 149.266 317.769 152.65 313.515C162.201 301.598 165.964 285.107 153.22 274.035C139.621 262.205 131.335 260.894 129.501 249.647C128.805 245.422 129.09 237.177 130.576 233.331C133.486 225.697 151.543 226.6 129.564 212.877C141.613 204.631 144.523 204.369 153.852 189.596C159.924 179.981 165.047 169.113 169 157.167C184.306 111.044 177.665 49.5943 133.549 17.6896C115.397 4.54893 83.8671 -6.93094 55.247 5.01512C31.1492 15.0964 16.0644 30.0727 6.73515 54.0522C-15.9712 112.355 21.1559 178.583 81.9064 206.263C97.7819 213.488 105.467 213.081 124.441 214.188L124.505 214.129Z" fill="#FFC305" fill-opacity="0.5"/>
<path fill-rule="evenodd" clip-rule="evenodd" d="M23.0218 91.9007C33.7741 92.6583 35.9562 90.0651 35.4502 80.5665C35.9562 74.5644 39.1186 67.659 38.4545 64.0169C37.0314 56.2956 20.8713 50.8471 18.1833 75.2928C17.2978 83.2762 17.9303 88.0838 23.0218 91.9007Z" fill="#FFEEBA"/>
<path fill-rule="evenodd" clip-rule="evenodd" d="M29.3451 45.2237C28.5228 59.0927 42.2479 56.2082 43.418 49.769C44.1453 45.8355 41.394 42.8345 38.5794 42.106C33.4879 40.7658 32.381 43.155 29.3451 45.2528V45.2237Z" fill="#FFEEBA"/>
</svg>
