<svg width="190" height="334" viewBox="0 0 190 334" fill="none" xmlns="http://www.w3.org/2000/svg">
<path fill-rule="evenodd" clip-rule="evenodd" d="M55.733 216.738C47.1376 218.713 35.9223 224.6 47.9387 229.907C38.5854 251.298 29.1672 244.713 45.7736 281.708C49.6491 290.348 52.0307 301.123 49.9305 311.22C47.2891 323.791 37.8709 327.642 35.2079 333.768C42.1362 332.411 49.2594 322.234 52.009 314.093C59.5003 292.124 40.599 270.354 39.7329 258.761C38.7586 245.691 46.6612 240.104 49.714 232.022C55.0402 232.841 58.7425 235.315 64.5883 234.177C65.9307 228.511 64.0254 224.32 63.4191 218.693C120.946 223.163 170.418 184.831 184.751 136.463C192.979 108.687 188.692 79.4745 176.892 55.6694C170.938 43.6372 163.1 34.8375 156.194 26.2972C152.621 21.8675 147.512 17.8567 142.619 14.6042C135.95 10.1545 133.114 8.53822 125.189 5.3855C97.1081 -5.82862 63.6573 1.93346 42.9156 15.2627C22.6503 28.2926 9.33489 46.5106 2.73133 76.0225C-3.54747 104.078 1.45392 134.887 13.0805 158.193C18.9696 170.006 24.8154 179.683 31.8736 189.281C38.4988 198.28 54.9103 215.441 55.733 216.758V216.738Z" fill="#FFA6AB"/>
<path fill-rule="evenodd" clip-rule="evenodd" d="M45.9462 38.6887C27.0232 47.2489 23.2992 75.4637 41.2695 68.4998C45.1451 67.0033 45.0801 63.8506 47.7215 59.6603C49.1289 57.4454 47.6566 59.6203 49.1072 57.8045C49.3021 57.5651 50.8393 55.7493 51.0991 55.45C53.0477 53.295 53.1343 53.6142 55.0612 51.6987C62.4226 44.3357 54.953 34.5982 45.9245 38.6887H45.9462Z" fill="#FFD8DA"/>
<path fill-rule="evenodd" clip-rule="evenodd" d="M60.842 27.275C50.7959 32.1038 59.543 42.34 67.1425 38.6486C74.7204 34.9771 69.6757 23.0049 60.842 27.275Z" fill="#FFD8DA"/>
</svg>
