<svg width="89" height="89" viewBox="0 0 89 89" fill="none" xmlns="http://www.w3.org/2000/svg">
<g clip-path="url(#clip0_803_702)">
<path d="M76.7375 47.5348C74.4156 47.3417 71.9459 47.1229 70.8342 46.1381C68.6178 44.1814 67.4568 44.8701 64.6142 44.22C63.0663 43.866 62.2431 40.4547 60.2659 38.3628C58.6194 36.6186 56.1146 35.4149 53.4057 35.6853C52.0125 35.8204 49.2544 36.4963 46.9254 38.4594C45.4056 39.7338 44.6527 42.141 42.9992 43.8725C41.5357 45.4108 40.1637 47.1357 38.7354 48.8607C37.3281 50.5664 35.1329 51.7957 33.9015 53.5143C32.5365 55.413 31.5655 57.447 30.5946 59.1591C29.2647 61.5019 29.4406 63.7997 29.2506 65.3059C28.9692 67.4943 29.4547 69.1484 30.9815 70.9893C32.2762 72.5598 33.803 74.1753 35.7731 75.63C37.5533 76.9559 39.0379 78.7903 40.9095 80.1226C42.8304 81.4936 44.4628 82.974 46.0107 84.4543C48.1849 86.5333 49.9932 87.9494 51.5059 88.6895C53.462 89.6486 55.4039 88.0073 58.3732 87.3314C60.1322 86.9324 62.5667 87.3508 65.346 86.5655C67.886 85.8511 70.2502 85.1817 72.1007 84.0424C74.1974 82.7487 76.5264 81.5901 78.0743 79.9874C79.6997 78.3011 80.3963 75.9196 81.8176 74.1753C83.274 72.386 84.2943 70.2619 85.99 68.7108C87.4887 67.3462 88.8115 65.9366 88.9803 64.0636C89.1351 62.3 88.4737 60.4077 87.9109 58.5798C87.355 56.7454 86.5247 54.9882 85.6734 53.4499C84.4491 51.2293 82.5775 50.045 81.8316 49.3563C80.6847 48.2879 79.0102 47.7215 76.7375 47.5348Z" fill="#FDB1F3"/>
<path d="M25.9716 60.0795C26.9215 58.5669 24.9373 56.8355 22.5239 55.4323C20.5889 54.3124 18.4851 53.0895 17.1131 52.1819C16.0577 51.4868 14.4042 49.7618 12.5607 47.818C11.0761 46.2475 9.16931 44.8572 7.56507 43.718C5.37684 42.1668 3.54041 41.6197 1.9221 43.3447C-0.230956 45.636 -0.519437 48.1141 0.782247 50.3475C2.05579 52.5359 4.61694 54.3767 6.7911 55.5739C8.19129 56.3463 10.2669 57.7945 12.7296 58.7793C14.8404 59.6225 17.3523 59.8864 19.4069 60.382C22.4606 61.1222 25.1554 61.3861 25.9716 60.0795Z" fill="#FDB1F3"/>
<path d="M14.4463 35.2412C17.5844 37.5776 20.5396 39.1417 20.8633 39.5278C23.4174 42.5723 25.7745 39.412 26.5907 36.5156C26.9354 35.2798 25.8097 33.2008 23.4174 30.8451C21.8483 29.3067 20.2582 27.3822 18.4358 25.7667C16.4868 24.0482 14.3337 22.645 12.9476 21.2161C10.8086 19.0084 8.39524 18.545 6.69954 19.1629C4.70831 19.8838 3.35034 22.2138 3.80769 24.5695C4.08913 26.0499 5.89742 28.3928 8.36006 30.5554C10.2106 32.1838 12.4692 33.7737 14.4463 35.2412Z" fill="#FDB1F3"/>
<path d="M25.7678 45.1211C25.5215 46.6916 25.8522 48.3458 26.6191 49.7554C27.6816 51.7185 29.328 53.289 30.4609 52.7483C32.3958 51.8215 36.0053 49.3756 34.0915 46.0287C33.1487 44.3745 31.467 42.3599 29.6798 41.6905C27.8505 41.0082 26.3095 41.6841 25.7678 45.1211Z" fill="#FDB1F3"/>
<path d="M20.4554 20.8299C21.56 22.4326 22.2777 24.4022 23.509 26.0435C24.7404 27.6848 26.4713 29.0235 27.7096 30.5361C29.1028 32.2482 30.4678 33.838 31.7132 35.1446C33.7748 37.3137 35.6323 39.0451 36.6596 39.1931C39.467 39.5858 41.4441 37.9638 41.2542 35.563C41.1346 34.1405 40.7053 31.9521 39.3333 29.7122C38.3975 28.1997 35.766 26.8223 34.0914 24.576C32.7405 22.7673 32.1987 20.212 30.6718 18.3455C29.0887 16.4081 26.4431 15.301 24.9585 13.7048C22.6155 11.1817 21.0675 9.22499 19.9769 8.90961C16.6981 7.96345 14.8687 6.21917 14.0666 10.2355C13.9399 10.8534 16.2267 12.7071 17.8872 15.4104C18.816 16.9166 19.21 19.0277 20.4554 20.8299Z" fill="#FDB1F3"/>
<path d="M44.8705 27.3887C45.8204 29.4677 46.4536 31.4695 47.4739 32.834C49.3806 35.3764 51.1819 34.8035 52.0403 32.525C52.6102 31.0253 51.6322 28.734 51.6815 26.7387C51.7377 24.5052 52.0262 22.4005 51.3648 21.2419C50.5768 19.8517 49.444 17.895 48.093 15.7838C46.9954 14.0588 45.4474 12.3918 44.3146 10.5832C43.0833 8.63935 42.8933 6.27073 41.9786 4.66161C40.9443 2.85297 39.4808 1.71372 38.5169 0.954215C36.8493 -0.34595 34.7666 -0.268712 33.4157 1.01214C32.5854 1.79739 33.0568 4.28186 34.063 6.65048C34.7455 8.25316 35.3436 10.1905 36.216 11.7932C37.37 13.8915 39.706 15.1917 40.1352 16.1185C40.6277 17.1677 40.3392 19.7036 41.3032 22.1817C42.0068 23.9839 44.0191 25.5286 44.8705 27.3887Z" fill="#FDB1F3"/>
<path d="M78.7562 15.7837C76.7228 15.4297 74.5275 16.1571 73.064 18.2489C72.0086 19.7422 71.896 22.2974 72.4659 25.1231C72.9162 27.3822 73.7113 29.8088 74.626 31.9135C76.0192 35.1189 77.7219 37.5776 78.6788 37.7771C80.4238 38.1504 81.627 35.8977 82.4009 32.8146C82.9005 30.8129 82.992 28.4571 83.1679 26.2881C83.4142 23.4174 84.0404 20.7977 83.8645 19.6778C83.5971 17.9207 81.1274 16.2021 78.7562 15.7837Z" fill="#FDB1F3"/>
</g>
<defs>
<clipPath id="clip0_803_702">
<rect width="89" height="89" fill="white" transform="translate(0.000976562)"/>
</clipPath>
</defs>
</svg>
