<svg width="124" height="109" viewBox="0 0 124 109" fill="none" xmlns="http://www.w3.org/2000/svg">
<g clip-path="url(#clip0_803_683)">
<path d="M61.4757 91.4387C61.4757 88.6569 61.4757 85.6854 62.7336 84.2523C65.2493 81.3651 64.1287 80.0585 64.7004 76.6023C65.0206 74.7267 69.7319 73.3148 72.4535 70.7226C74.7176 68.5309 76.1127 65.4119 75.4037 62.2086C75.0378 60.5648 73.7571 57.3615 70.7153 54.8326C68.7256 53.1888 65.2264 52.5776 62.5735 50.8074C60.2407 49.2479 57.6335 47.8359 55.0263 46.3396C52.4419 44.8644 50.4293 42.3987 47.8678 41.1553C45.009 39.7644 42.013 38.8372 39.4973 37.8888C36.021 36.6033 32.7734 37.088 30.6236 37.0459C27.5132 36.9826 25.2262 37.7413 22.8019 39.7855C20.7436 41.5347 18.6624 43.5367 16.8328 46.0657C15.1632 48.3417 12.7619 50.3437 11.1152 52.7251C9.39991 55.1908 7.50167 57.3193 5.60343 59.3425C2.9276 62.1664 1.14371 64.5057 0.274642 66.4024C-0.846005 68.847 1.71547 70.9544 3.01908 74.4106C3.79668 76.4548 3.49936 79.4052 4.94019 82.6296C6.26667 85.5589 7.50167 88.2986 9.3313 90.3639C11.4125 92.7031 13.3336 95.3374 15.7807 96.9812C18.3651 98.7093 21.7956 99.2572 24.4486 100.732C27.1473 102.25 30.2805 103.219 32.6591 105.053C34.786 106.654 36.9358 108.066 39.6116 108.045C42.1045 108.024 44.7117 106.992 47.2275 106.106C49.7432 105.221 52.1217 104.02 54.2029 102.819C57.1989 101.091 58.6398 98.7093 59.5317 97.7399C60.8811 96.2436 61.4986 94.1783 61.4757 91.4387Z" fill="#A1EB7C"/>
<path d="M37.6214 32.4939C39.8855 33.4423 42.0811 30.8712 43.7735 27.8365C45.1228 25.3919 46.5865 22.7365 47.7072 20.9873C48.5763 19.6386 50.7947 17.4679 53.3333 15.0444C55.3688 13.0845 57.1069 10.6399 58.5249 8.59566C60.446 5.79277 60.9949 3.53782 58.3648 1.80973C54.8656 -0.466294 51.3436 -0.508443 48.3476 1.30395C45.3973 3.09526 43.1103 6.36178 41.6694 9.10144C40.7546 10.8717 38.9707 13.506 37.8729 16.5828C36.9353 19.196 36.8438 22.2097 36.4092 24.7175C35.7231 28.4476 35.6774 31.6931 37.6214 32.4939Z" fill="#A1EB7C"/>
<path d="M71.3328 15.7398C68.4054 19.765 66.5529 23.4951 66.0497 23.9166C62.0474 27.3307 66.8045 29.7542 71.0126 30.3654C72.7736 30.6393 75.5867 29.0377 78.6284 25.8976C80.6182 23.8534 83.1339 21.7249 85.1922 19.3646C87.4106 16.8356 89.1259 14.096 90.9784 12.2625C93.8372 9.43856 94.2031 6.50923 93.1282 4.57039C91.8704 2.29437 88.4169 0.945613 85.1236 1.78859C83.0653 2.29437 79.9778 4.73899 77.2333 7.94228C75.1521 10.3448 73.1624 13.2109 71.3328 15.7398Z" fill="#A1EB7C"/>
<path d="M58.7311 30.4496C56.4898 30.3443 54.1799 30.9343 52.2817 32.0091C49.6516 33.5265 47.639 35.6761 48.531 36.9616C50.0633 39.1533 53.9512 43.1574 58.4567 40.4599C60.698 39.1533 63.3281 36.8984 64.0599 34.6856C64.8146 32.4095 63.6483 30.6604 58.7311 30.4496Z" fill="#A1EB7C"/>
<path d="M92.4188 21.1559C90.2918 22.6732 87.5931 23.7691 85.4205 25.434C83.2478 27.0988 81.5782 29.3327 79.5885 30.9765C77.3244 32.8521 75.2432 34.6645 73.5507 36.3083C70.7377 39.0269 68.5193 41.4504 68.4278 42.6938C68.222 46.0868 70.7377 48.2574 74.1225 47.7306C76.1122 47.4145 79.154 46.6347 82.15 44.7169C84.1855 43.4314 85.8092 40.1227 88.7824 37.8467C91.1609 36.0343 94.7058 35.0649 97.1758 33.0207C99.7144 30.8922 100.972 27.6046 103.031 25.6658C106.324 22.5678 108.908 20.4815 109.206 19.1327C110.143 15.1075 112.407 12.7261 106.621 12.2625C105.752 12.1782 103.397 15.1286 99.783 17.4468C97.7476 18.7323 94.8202 19.4488 92.4188 21.1559Z" fill="#A1EB7C"/>
<path d="M86.1071 51.0392C83.2711 52.4301 80.5267 53.4206 78.72 54.7905C75.358 57.3826 76.3872 59.469 79.7034 60.2066C81.8989 60.6913 85.0093 59.2582 87.8452 59.0686C91.0013 58.8789 94.0202 58.9632 95.5754 58.0359C97.4508 56.919 100.081 55.3384 102.894 53.4628C105.204 51.9454 107.376 49.9012 109.778 48.3207C112.385 46.6347 115.701 46.1078 117.874 44.8223C120.298 43.3893 121.739 41.4926 122.7 40.2492C124.323 38.1207 123.98 35.6339 121.991 34.1798C120.779 33.2947 117.325 34.1587 114.1 35.6339C111.928 36.6455 109.252 37.5938 107.102 38.8372C104.266 40.4599 102.711 43.4103 101.453 44.0215C100.035 44.738 96.4216 44.6959 93.0368 46.15C90.5668 47.2248 88.6228 49.7959 86.1071 51.0392Z" fill="#A1EB7C"/>
<path d="M106.599 89.9845C106.85 87.5189 105.547 85.011 102.414 83.5147C100.172 82.4399 96.5587 82.6085 92.6479 83.6412C89.4917 84.442 86.1755 85.6854 83.2939 87.0341C78.9256 89.0994 75.678 91.4176 75.4951 92.5767C75.1978 94.7052 78.514 95.8643 82.9737 96.4122C85.8554 96.7494 89.1944 96.5808 92.2819 96.5387C96.3757 96.4754 100.149 96.8969 101.705 96.5597C104.152 96.0329 106.301 92.8717 106.599 89.9845Z" fill="#A1EB7C"/>
</g>
<defs>
<clipPath id="clip0_803_683">
<rect width="123.729" height="108.064" fill="white"/>
</clipPath>
</defs>
</svg>
