<svg width="124" height="129" viewBox="0 0 124 129" fill="none" xmlns="http://www.w3.org/2000/svg">
<path d="M16.0478 54.205C19.2645 54.8998 22.674 55.6591 24.0237 57.2586C26.697 60.4253 28.485 59.6659 32.3239 61.1039C34.4187 61.8874 34.8306 66.8556 37.1445 70.1757C39.0727 72.9385 42.3244 75.0954 46.1897 75.2085C48.1705 75.2731 52.1848 74.8288 55.8747 72.4861C58.2762 70.9593 59.8626 67.7038 62.5534 65.555C64.9374 63.6485 67.2425 61.4593 69.609 59.2943C71.958 57.1374 75.2973 55.8045 77.4096 53.5992C79.7235 51.1757 81.529 48.4695 83.2644 46.2399C85.6397 43.1702 85.8939 39.8904 86.4899 37.7981C87.3576 34.7607 87.0333 32.3372 85.2979 29.4533C83.8166 26.9975 82.0286 24.4367 79.592 22.0213C77.3745 19.824 75.6917 16.9562 73.3603 14.7347C70.9675 12.4486 68.9955 10.0574 67.1549 7.68242C64.5605 4.33803 62.3343 2.01149 60.3622 0.68666C57.8292 -1.01785 54.7528 0.937086 50.4493 1.34908C47.89 1.59142 44.5682 0.54933 40.5014 1.14712C36.7851 1.69644 33.3231 2.21345 30.4921 3.48173C27.2667 4.91966 23.7433 6.13948 21.2278 8.11865C18.5896 10.1948 17.0908 13.4341 14.7244 15.6314C12.2878 17.8933 10.3858 20.7126 7.67753 22.5868C5.28476 24.2428 3.11987 25.9958 2.48005 28.6132C1.87528 31.0689 2.3924 33.864 2.78682 36.5541C3.17246 39.236 3.94376 41.8776 4.8027 44.2042C6.04729 47.5647 8.41376 49.5843 9.299 50.691C10.6838 52.4117 12.9013 53.5184 16.0478 54.205Z" fill="#E3ECFF"/>
<path d="M89.9426 45.779C88.2861 47.7501 90.6876 50.5451 93.7728 52.9767C96.2357 54.9155 98.9265 57.0239 100.644 58.5587C101.977 59.7381 103.922 62.4686 106.078 65.5625C107.823 68.0506 110.198 70.361 112.196 72.2594C114.922 74.8606 117.385 75.9592 120.023 73.8265C123.547 70.983 124.484 67.5417 123.143 64.1408C121.837 60.8206 118.647 57.7509 115.86 55.6587C114.054 54.3096 111.469 51.8861 108.226 50.0443C105.447 48.469 101.994 47.6289 99.2157 46.5545C95.0963 44.9469 91.3713 44.0826 89.9426 45.779Z" fill="#E3ECFF"/>
<path d="M100.705 82.9795C96.8138 79.1101 93.0099 76.3474 92.6418 75.7496C89.7144 70.9754 85.7264 75.0145 83.9559 78.9566C83.2022 80.6288 84.3241 83.7712 87.1726 87.5437C89.0307 89.9994 90.845 93.0126 93.0537 95.6218C95.4027 98.4169 98.1198 100.792 99.75 103.062C102.274 106.568 105.561 107.674 108.076 107.109C111.021 106.455 113.432 103.417 113.3 100C113.221 97.8595 111.197 94.2162 108.217 90.7103C105.973 88.0768 103.159 85.411 100.705 82.9795Z" fill="#E3ECFF"/>
<path d="M86.981 66.9522C87.6734 64.7711 87.5595 62.3719 86.7969 60.2473C85.7364 57.2745 83.7643 54.7622 82.064 55.3115C79.1453 56.2647 73.5534 59.0598 75.508 64.141C76.4633 66.6534 78.3916 69.8039 80.7493 71.0721C83.1683 72.3808 85.4735 71.7023 86.981 66.9522Z" fill="#E3ECFF"/>
<path d="M89.1453 102.23C87.9446 99.7742 87.3661 96.8579 85.9988 94.3052C84.6315 91.7606 82.4929 89.5552 81.0906 87.1883C79.5041 84.5225 77.9353 82.0263 76.4716 79.9502C74.0525 76.5089 71.8263 73.7219 70.4239 73.3261C66.5762 72.2597 63.4472 74.1823 63.193 77.6156C63.044 79.6432 63.1755 82.818 64.6217 86.227C65.5945 88.5373 68.9953 90.9608 70.8534 94.4425C72.3521 97.2457 72.5537 100.954 74.2891 103.87C76.0859 106.899 79.5567 108.951 81.2834 111.471C84.0267 115.462 85.7622 118.516 87.2346 119.162C91.6258 121.093 93.8082 123.896 95.8065 118.37C96.1045 117.522 93.3086 114.477 91.5644 110.357C90.5915 108.062 90.5039 105.009 89.1453 102.23Z" fill="#E3ECFF"/>
<path d="M56.3481 88.4968C55.4629 85.3866 55.0159 82.4381 53.8852 80.3296C51.7641 76.3874 49.1084 76.8721 47.4081 79.9257C46.2862 81.9372 47.1539 85.3543 46.6543 88.1575C46.0934 91.308 45.2344 94.2323 45.9005 95.9853C46.7157 98.0938 47.8726 101.067 49.3013 104.298C50.467 106.931 52.2725 109.573 53.482 112.336C54.7704 115.309 54.525 118.693 55.4629 121.125C56.5146 123.872 58.3202 125.754 59.5122 126.998C61.5631 129.131 64.4993 129.413 66.6729 127.854C68.0052 126.893 67.8912 123.298 66.9885 119.768C66.3837 117.377 65.963 114.533 65.0865 112.11C63.9296 108.935 60.932 106.665 60.5289 105.283C60.0731 103.716 61.0372 100.186 60.2133 96.5023C59.6173 93.8284 57.1369 91.2757 56.3481 88.4968Z" fill="#E3ECFF"/>
<path d="M6.31938 98.6754C9.08903 99.5479 12.3232 98.9258 14.8387 96.2358C16.6354 94.3213 17.3454 90.7264 17.1701 86.6389C17.0211 83.3591 16.4339 79.7885 15.61 76.6542C14.3566 71.8638 12.5073 68.0832 11.2013 67.6227C8.84362 66.7826 6.66997 69.7392 4.91702 73.948C3.77761 76.6865 3.13779 79.9985 2.41032 83.036C1.45496 87.0428 0.00878324 90.6214 1.85254e-05 92.2371C-0.00874619 94.7736 3.09396 97.6576 6.31938 98.6754Z" fill="#E3ECFF"/>
</svg>
