<svg width="217" height="239" viewBox="0 0 217 239" fill="none" xmlns="http://www.w3.org/2000/svg">
<path d="M174.632 239H15.3677C6.88033 239 0 232.124 0 223.643V39.3571C0 30.8756 6.88033 24 15.3676 24H118.75L190 95.2013V223.643C190 232.124 183.12 239 174.632 239Z" fill="#B199F9" fill-opacity="0.5"/>
<path d="M174.632 239H15.3677C6.88033 239 0 232.124 0 223.643V39.3571C0 30.8756 6.88033 24 15.3676 24H118.75L190 95.2013V223.643C190 232.124 183.12 239 174.632 239Z" fill="#FF7272" fill-opacity="0.8"/>
<g filter="url(#filter0_d_2301_2711)">
<path d="M190 95.2013H140.75C128.6 95.2013 118.75 85.3516 118.75 73.2013V24L190 95.2013Z" fill="#D73131"/>
</g>
<defs>
<filter id="filter0_d_2301_2711" x="95.75" y="0" width="121.25" height="121.201" filterUnits="userSpaceOnUse" color-interpolation-filters="sRGB">
<feFlood flood-opacity="0" result="BackgroundImageFix"/>
<feColorMatrix in="SourceAlpha" type="matrix" values="0 0 0 0 0 0 0 0 0 0 0 0 0 0 0 0 0 0 127 0" result="hardAlpha"/>
<feOffset dx="2" dy="1"/>
<feGaussianBlur stdDeviation="12.5"/>
<feColorMatrix type="matrix" values="0 0 0 0 0 0 0 0 0 0 0 0 0 0 0 0 0 0 0.33 0"/>
<feBlend mode="normal" in2="BackgroundImageFix" result="effect1_dropShadow_2301_2711"/>
<feBlend mode="normal" in="SourceGraphic" in2="effect1_dropShadow_2301_2711" result="shape"/>
</filter>
</defs>
</svg>
