<svg width="199" height="74" viewBox="0 0 199 74" fill="none" xmlns="http://www.w3.org/2000/svg">
<path d="M120.279 12.1119C120.321 12.0552 120.412 11.9794 120.397 11.9456C120.351 11.8469 120.262 11.7687 120.191 11.6822C120.149 11.7389 120.057 11.8147 120.072 11.8485C120.118 11.9447 120.207 12.0254 120.279 12.1119ZM126.537 10.8018C126.598 10.8405 126.68 10.9251 126.717 10.911C126.821 10.8694 126.909 10.7866 127.003 10.7209C126.941 10.6821 126.859 10.6 126.822 10.6117C126.718 10.6532 126.63 10.736 126.537 10.8018ZM137.501 9.72585C137.574 9.80685 137.647 9.89036 137.723 9.97339C137.765 9.91666 137.857 9.8409 137.842 9.80714C137.797 9.71089 137.707 9.63022 137.635 9.54372C137.593 9.60045 137.551 9.65718 137.501 9.72585ZM147.389 8.45416C147.462 8.53516 147.536 8.61867 147.612 8.7017C147.654 8.64498 147.746 8.56921 147.73 8.53545C147.685 8.4392 147.595 8.35853 147.524 8.27204C147.482 8.32876 147.44 8.38549 147.389 8.45416ZM159.32 7.72032C159.393 7.80132 159.467 7.88483 159.543 7.96786C159.585 7.91114 159.677 7.83537 159.661 7.80161C159.616 7.70536 159.526 7.62469 159.455 7.5382C159.413 7.59492 159.371 7.65165 159.32 7.72032ZM155.377 9.20105C155.326 9.26972 155.284 9.32645 155.242 9.38318C155.356 9.41295 155.469 9.45826 155.583 9.46447C155.623 9.46538 155.666 9.35902 155.708 9.3023C155.597 9.26954 155.486 9.23428 155.377 9.20105ZM154.127 10.1804C154.215 10.1131 154.306 10.0453 154.396 9.97508C154.334 9.93633 154.252 9.85173 154.215 9.86589C154.111 9.90742 154.024 9.99025 153.93 10.056C153.991 10.0947 154.053 10.1335 154.127 10.1804ZM164.365 8.75439C164.44 8.8013 164.501 8.84005 164.563 8.87881C164.595 8.77434 164.647 8.67159 164.651 8.56431C164.652 8.52771 164.536 8.48789 164.475 8.44914C164.439 8.55157 164.402 8.65698 164.365 8.75439ZM118.312 17.5116C118.385 17.5926 118.458 17.6761 118.534 17.7592C118.576 17.7024 118.668 17.6267 118.653 17.5929C118.608 17.4967 118.518 17.416 118.447 17.3295C118.405 17.3862 118.363 17.4429 118.312 17.5116ZM118.979 18.4157C119.054 18.4626 119.115 18.5014 119.177 18.5401C119.209 18.4356 119.261 18.3304 119.265 18.2256C119.266 18.189 119.15 18.1492 119.089 18.1105C119.053 18.2129 119.015 18.3158 118.979 18.4157ZM119.9 19.3696C119.811 19.4343 119.721 19.5046 119.631 19.5749C119.693 19.6136 119.775 19.6957 119.811 19.6815C119.916 19.64 120.003 19.5572 120.097 19.494C120.036 19.4552 119.974 19.4165 119.9 19.3696ZM126.517 20.1618C126.579 20.2006 126.661 20.2852 126.698 20.271C126.802 20.2295 126.89 20.1466 126.983 20.0809C126.922 20.0422 126.84 19.9576 126.803 19.9717C126.699 20.0133 126.611 20.0961 126.517 20.1618ZM111.842 27.9004C111.791 27.9691 111.749 28.0258 111.707 28.0826C111.82 28.1123 111.934 28.1602 112.048 28.1639C112.088 28.1648 112.131 28.0584 112.173 28.0017C112.061 27.9664 111.95 27.9337 111.842 27.9004ZM127.938 27.4298C127.863 27.3828 127.802 27.3441 127.74 27.3053C127.708 27.4098 127.659 27.5146 127.652 27.6198C127.651 27.6564 127.766 27.6963 127.828 27.735C127.863 27.6326 127.902 27.5297 127.937 27.4272L127.938 27.4298ZM106.897 36.7833C106.846 36.852 106.804 36.9087 106.762 36.9654C106.876 36.9952 106.99 37.043 107.103 37.0467C107.143 37.0476 107.186 36.9413 107.228 36.8845C107.117 36.8518 107.005 36.8165 106.897 36.7833ZM124.578 33.9377C124.652 33.9846 124.714 34.0234 124.775 34.0621C124.808 33.9577 124.86 33.8549 124.863 33.7476C124.864 33.711 124.749 33.6712 124.687 33.6325C124.652 33.7349 124.614 33.8403 124.578 33.9377ZM130.966 38.3345C131.008 38.2778 131.099 38.2021 131.084 38.1683C131.038 38.0695 130.949 37.9914 130.878 37.9049C130.836 37.9616 130.747 38.0369 130.762 38.0707C130.807 38.1669 130.894 38.248 130.966 38.3345ZM122.545 40.5302C122.619 40.5771 122.681 40.6159 122.742 40.6546C122.774 40.5502 122.826 40.4449 122.83 40.3401C122.831 40.3035 122.716 40.2637 122.654 40.2224C122.618 40.3249 122.581 40.4303 122.544 40.5277L122.545 40.5302ZM111.731 49.092C111.805 49.1389 111.867 49.1776 111.928 49.2164C111.96 49.1119 112.01 49.0096 112.016 48.9019C112.017 48.8653 111.902 48.8255 111.84 48.7867C111.805 48.8892 111.767 48.9921 111.731 49.092ZM9.47089 68.944C9.5439 69.025 9.61743 69.1085 9.69367 69.1915C9.73568 69.1348 9.82738 69.059 9.812 69.0252C9.76639 68.9265 9.67703 68.8483 9.60571 68.7618C9.56372 68.8186 9.52173 68.8753 9.47089 68.944ZM112.163 54.2365C112.089 54.1895 112.027 54.1508 111.966 54.112C111.933 54.2165 111.881 54.3193 111.88 54.4261C111.879 54.4627 111.995 54.5025 112.054 54.5417C112.092 54.4388 112.127 54.3364 112.163 54.2365ZM101.396 2.55436C101.412 2.48131 101.452 2.31574 101.492 2.15268C101.353 2.12466 101.187 2.04168 101.083 2.08573C100.941 2.14943 100.846 2.30892 100.732 2.42506C100.87 2.45308 101.009 2.48111 101.393 2.55483L101.396 2.55436ZM142.185 8.21526C141.857 8.41542 141.738 8.48539 141.621 8.55787C141.774 8.63018 141.924 8.74458 142.082 8.75625C142.193 8.76293 142.318 8.62935 142.436 8.55686C142.334 8.41588 142.232 8.27742 142.185 8.21526ZM123.542 36.1132C123.431 35.9842 123.301 35.8299 123.173 35.6751C123.117 35.7994 122.99 35.941 123.021 36.0371C123.081 36.2167 123.233 36.3698 123.349 36.5345C123.406 36.4127 123.46 36.2914 123.541 36.1107L123.542 36.1132ZM120.159 45.6513C120.301 45.7906 120.404 45.9522 120.458 45.9377C120.662 45.8892 120.849 45.7838 121.044 45.6981C120.967 45.6151 120.878 45.4537 120.811 45.46C120.607 45.4824 120.408 45.5716 120.162 45.6483L120.159 45.6513ZM153.346 7.52151C153.517 7.79107 153.59 7.90065 153.661 8.01322C153.887 7.77889 154.113 7.54707 154.339 7.31525C154.207 7.26272 154.047 7.14221 153.949 7.17478C153.728 7.2522 153.539 7.40468 153.346 7.52151ZM153.008 9.12064C153.071 8.97688 153.207 8.79727 153.165 8.74468C153.015 8.5651 152.812 8.41555 152.6 8.3015C152.569 8.28613 152.379 8.51683 152.264 8.63297C152.512 8.79553 152.757 8.95604 153.008 9.12064ZM123.073 15.4517C123.246 15.7183 123.317 15.8309 123.388 15.9409C123.614 15.7091 123.84 15.4748 124.066 15.243C123.934 15.1904 123.774 15.0699 123.676 15.1025C123.455 15.1799 123.266 15.3324 123.073 15.4517ZM106.5 38.4109C106.685 38.6701 106.761 38.7792 106.84 38.8878C107.05 38.6458 107.263 38.4058 107.476 38.1633C107.342 38.1163 107.178 38.0018 107.084 38.0389C106.87 38.1254 106.688 38.2845 106.502 38.4104L106.5 38.4109ZM130.644 36.543C130.594 36.7521 130.505 36.9678 130.508 37.1859C130.508 37.2822 130.688 37.3759 130.787 37.4732C130.944 37.196 131.099 36.9193 131.254 36.6426C131.114 36.6201 130.977 36.5971 130.641 36.5435L130.644 36.543ZM108.114 43.8992C108.284 44.1662 108.358 44.2783 108.429 44.3909C108.655 44.1591 108.881 43.9247 109.107 43.6929C108.975 43.6404 108.815 43.5199 108.718 43.555C108.497 43.6324 108.308 43.7849 108.115 43.9017L108.114 43.8992ZM8.87708 65.9195C8.71883 65.7804 8.5471 65.6307 8.37538 65.481C8.35998 65.6814 8.28294 65.8977 8.34671 66.0714C8.41887 66.2722 8.61547 66.4332 8.75642 66.6117C8.7897 66.416 8.82571 66.2198 8.87656 65.917L8.87708 65.9195ZM162.431 10.6618C162.671 10.5239 162.91 10.386 163.148 10.2486C162.901 10.091 162.575 9.75465 162.429 9.81129C162.155 9.91875 161.983 10.2529 161.77 10.4954C161.973 10.5462 162.175 10.5969 162.431 10.6618ZM109.082 37.7649C108.919 38.1443 108.76 38.5102 108.625 38.8824C108.624 38.8904 108.875 39.0159 109.008 39.0163C109.143 39.0162 109.389 38.9345 109.394 38.8789C109.416 38.5447 109.394 38.2024 109.348 37.8695C109.34 37.8163 109.139 37.7861 109.082 37.7649ZM196.116 34.5728C196.226 34.749 196.254 34.848 196.297 34.851C196.401 34.8616 196.566 34.8668 196.605 34.8106C196.769 34.5897 196.924 34.3546 197.025 34.1029C197.062 34.008 196.941 33.8598 196.892 33.7329C196.744 33.8056 196.542 33.8431 196.455 33.9545C196.297 34.159 196.201 34.4097 196.116 34.5703L196.116 34.5728ZM6.96454 66.4727C7.26536 66.7431 6.81172 67.4489 7.54227 67.7098C7.49682 67.2259 7.46226 66.7401 7.39994 66.2566C7.36412 65.9714 7.30548 65.6849 7.21568 65.4117C7.19736 65.3498 7.00248 65.3212 6.8851 65.313C6.85087 65.3111 6.76194 65.428 6.77053 65.4838C6.81181 65.768 6.87811 66.0505 6.96505 66.4752L6.96454 66.4727ZM109.1 46.0151C108.89 44.9614 108.822 44.8067 108.421 44.957C107.289 45.3824 109.086 45.4789 108.596 45.897C108.556 45.9327 108.593 46.0434 108.552 46.0816C107.966 46.6206 108.627 46.8882 108.913 46.9037C109.578 46.9443 109.071 46.4626 109.14 46.2216C109.156 46.1616 109.114 46.083 109.1 46.0151ZM112.547 38.8572C112.39 38.5747 112.256 38.3326 112.123 38.093C111.919 38.3652 111.631 38.6129 111.532 38.9138C111.388 39.3576 111.4 39.8421 111.308 40.303C111.057 41.5826 110.73 42.8519 111.125 44.1623C111.224 44.4938 111.358 44.9285 111.211 45.1907C110.665 46.1754 111.059 46.5701 112.114 46.7356C112.292 46.762 112.416 47.0762 112.566 47.2583C112.581 47.0554 112.64 46.8474 112.603 46.6535C112.462 45.8687 112.227 45.095 112.147 44.3049C112.072 43.5634 112.102 42.8035 112.164 42.059C112.255 40.9868 112.414 39.9184 112.544 38.8551L112.547 38.8572ZM131.387 19.5949C131.11 19.237 130.834 18.8505 130.523 18.4882C130.364 18.305 130.077 18.0061 129.961 18.047C129.708 18.1326 129.397 18.3766 129.343 18.5992C129.252 18.9924 129.168 19.5351 129.384 19.8177C130.568 21.3685 130.396 23.2301 130.853 24.9409C130.986 25.4382 130.514 26.2878 130.778 26.5021C131.73 27.2788 131.231 28.1095 131.279 28.9781C131.391 31.0402 131.408 33.0799 131.056 35.1211C131.032 35.2553 131.288 35.432 131.416 35.5867C131.611 35.4228 131.995 35.2287 131.969 35.1031C131.775 34.1272 131.567 33.1798 132.2 32.2477C132.331 32.0505 132.31 31.6717 132.199 31.4438C131.852 30.7286 132.4 30.082 132.315 29.3941C132.289 29.1852 132.418 28.9599 132.4 28.7496C132.381 28.5162 132.241 25.8084 132.252 25.6114C132.28 25.1017 132.893 24.6623 132.204 24.0403C131.781 23.6558 131.944 22.7584 131.569 22.2746C131.215 21.8156 131.051 21.4824 131.218 20.9486C131.34 20.5632 131.327 20.1414 131.39 19.5944L131.387 19.5949ZM124.253 25.5975C124.385 26.2408 124.494 26.8878 124.661 27.5224C124.725 27.7638 124.918 27.9774 125.052 28.2039C125.228 27.9626 125.448 27.7397 125.575 27.4783C125.721 27.1744 125.799 26.8383 125.882 26.5117C125.891 26.4737 125.684 26.3301 125.623 26.351C124.93 26.5754 124.841 26.1668 124.756 25.6976C124.614 24.9103 124.448 24.1248 124.268 23.3441C124.244 23.2391 124.073 23.1621 123.97 23.0707C123.92 23.1991 123.81 23.3353 123.828 23.4519C123.955 24.1688 124.109 24.881 125.81 26.1078C125.823 26.1706 125.837 26.2359 125.85 26.2987C125.962 26.2402 126.093 26.1939 126.177 26.1091C126.203 26.0838 126.093 25.9467 126.048 25.861C125.968 25.9424 125.89 26.0263 124.258 25.5966L124.253 25.5975ZM105.339 44.165C105.41 44.5118 105.452 44.8688 105.573 45.2015C105.604 45.2846 105.911 45.364 106.041 45.3207C106.209 45.2628 106.468 44.9942 106.446 44.9589C106.008 44.3325 105.613 43.6985 105.519 42.9368C105.512 42.8911 105.401 42.8559 105.336 42.8151C105.266 42.9157 105.128 43.0255 105.139 43.1199C105.18 43.4719 105.267 43.8158 105.457 47.0873C105.558 47.5773 105.645 48.0721 105.767 48.5608C105.797 48.678 105.937 48.7707 106.026 48.8749C106.099 48.7739 106.249 48.6646 106.234 48.5787C106.052 47.5929 105.848 46.611 105.63 45.6313C105.616 45.561 105.46 45.5177 105.369 45.4581C105.313 45.5824 105.193 45.7125 105.208 45.827C105.266 46.2514 105.369 46.6707 105.34 44.1701L105.339 44.165ZM120.997 42.7425C120.812 42.6263 120.628 42.51 120.443 42.3937C120.399 42.1802 120.264 41.8057 120.325 41.7767C121.147 41.3791 121.148 40.6114 121.402 39.9401C122.009 38.3257 121.946 36.6141 122.311 34.9661C122.43 34.4303 122.77 33.9263 122.47 33.3435C122.38 33.1666 122.435 33.1596 122.965 33.2835C123.102 33.3145 123.347 33.2303 123.427 33.1253C123.726 32.7378 123.833 32.3939 124.6 32.7109C125.393 33.0391 124.838 31.915 125.362 31.7304C125.559 31.6598 126.077 31.765 125.739 31.2981C125.538 31.0182 125.294 30.7639 125.07 30.4983C124.99 30.5903 124.836 30.6899 124.847 30.7738C124.997 32.0175 123.777 31.238 123.362 31.6378C123.319 31.497 123.2 31.3277 123.246 31.2209C123.385 30.8974 123.749 30.5923 123.735 30.2903C123.71 29.6442 123.461 29.0082 123.385 28.358C123.326 27.8504 123.623 27.138 123.348 26.8578C122.755 26.2478 123.833 25.6679 123.205 25.1654C123.006 25.0073 122.852 24.6542 122.674 24.6538C122.073 24.6516 122.212 25.0697 122.285 25.4265C122.405 25.999 122.536 26.567 122.628 27.1441C122.659 27.3365 122.577 27.5433 122.548 27.7435C122.427 27.5953 122.245 27.4605 122.199 27.2941C122.065 26.8022 122.003 26.2926 121.87 25.7978C121.818 25.6117 121.652 25.4505 121.541 25.2774C121.338 25.4011 121.137 25.5244 120.936 25.6451C120.842 25.4611 120.748 25.2771 120.654 25.0931C120.556 25.2089 120.417 25.3138 120.367 25.4446C120.249 25.7618 120.17 26.0929 120.075 26.4164C119.893 26.7525 119.772 27.1378 119.519 27.421C117.74 29.4108 116.913 31.8468 115.785 34.1397C114.931 35.8804 114.438 37.7717 114.167 39.6012C113.799 42.0796 113.87 44.6563 114.646 47.1366C114.793 47.6106 114.747 48.1441 115.37 48.4029C115.565 48.4862 115.676 48.7401 115.828 48.9141C115.843 48.7112 115.771 48.4296 115.889 48.318C116.536 47.6879 117.305 47.1564 117.886 46.4805C118.392 45.8931 118.695 45.1561 119.104 44.4944C119.541 43.7889 120 43.0952 120.452 42.3973C120.637 42.5136 120.822 42.6299 121.701 43.0678C122.938 42.8791 123.164 42.5796 122.74 41.8571C122.701 41.7885 122.457 41.8256 122.308 41.8125C122.552 42.7302 121.756 42.5744 121.232 42.7199C121.152 42.7416 121.099 42.8705 121.056 42.9613C121.05 42.9753 121.166 43.0722 121.231 43.0739C121.451 43.0853 121.669 43.0735 121.004 42.7491L120.997 42.7425ZM113.854 35.2503C113.936 34.8901 113.993 34.7292 113.999 34.5668C114.006 34.4355 113.95 34.2995 113.923 34.1664C113.788 34.2938 113.561 34.4088 113.541 34.5475C113.517 34.7077 113.682 34.89 113.751 33.7955C113.902 33.9254 114.021 34.027 114.141 34.1285C114.203 34.0163 114.339 33.8859 114.312 33.7918C114.264 33.6153 114.128 33.4594 114.027 33.2949C113.944 33.442 113.862 33.5916 113.851 35.2508L113.854 35.2503ZM127.42 21.1265C127.352 21.1383 127.281 21.1506 127.213 21.1625C127.28 21.268 127.327 21.3873 127.422 21.4645C127.449 21.4884 127.598 21.3871 127.69 21.3425C127.602 21.2693 127.511 21.1992 126.037 21.096C126.43 21.1708 126.602 21.2243 126.778 21.2301C126.921 21.2366 127.068 21.185 127.213 21.16C127.074 21.0357 126.95 20.8283 126.799 20.8076C126.625 20.7857 126.431 20.9367 127.42 21.124L127.42 21.1265ZM170.252 9.66837C170.363 9.78436 170.493 9.92313 170.625 10.0589C170.683 9.98127 170.812 9.8703 170.789 9.82743C170.683 9.62474 170.534 9.43714 170.402 9.24671C170.359 9.36611 170.316 9.48551 171.141 9.795C170.983 10.0566 170.878 10.1528 170.895 10.2202C170.941 10.4047 171.039 10.5802 171.118 10.7566C171.216 10.7135 171.402 10.6577 171.397 10.6326C171.347 10.4019 171.264 10.1769 170.254 9.6679L170.252 9.66837ZM125.36 12.1249C125.242 12.1948 125.121 12.2653 125.002 12.3327C125.153 12.408 125.3 12.4813 125.635 12.5299C125.599 12.5882 125.478 12.7288 125.504 12.7607C125.776 13.0805 126.055 13.3963 126.369 13.6774C126.442 13.7428 126.685 13.7033 126.805 13.6408C126.917 13.5848 127.052 13.4288 127.042 13.3239C127.004 12.7944 126.197 12.3282 125.448 12.552C125.418 12.4088 125.389 12.2656 125.32 11.9289C125.333 11.9917 125.346 12.057 125.359 12.1198C125.471 12.0613 125.603 12.0151 125.686 11.9277C125.712 11.9024 125.603 11.7678 125.554 11.6801C125.475 11.7615 125.396 11.8454 125.359 12.1173L125.36 12.1249ZM156.447 6.4888C157.348 5.44766 158.542 5.21442 159.507 5.39299C161.545 5.76781 163.612 5.69514 165.635 6.04122C165.86 6.08018 166.033 6.33121 166.253 6.45436C166.377 6.52385 166.585 6.61277 166.681 6.56213C167.918 5.93118 169.031 6.64084 170.19 6.81693C170.246 7.95733 170.798 6.90652 171.105 6.97542C172.892 7.3757 174.669 7.72022 176.4 8.38769C178.057 9.02631 179.697 9.6783 181.337 10.3564C183.593 11.2891 185.548 12.6073 187.41 13.9752C189.598 15.5806 191.442 17.6102 193.045 19.7361C194.253 21.3374 195.161 23.1391 196.11 24.8946C197.127 26.7761 197.923 28.7196 198.347 30.8186C198.759 32.8443 198.905 33.8207 198.679 34.8954C198.441 36.0323 197.827 36.6151 196.58 36.769C195.063 36.9543 193.593 37.3917 192.013 37.1195C190.317 36.8259 189.731 35.5381 190.783 34.1977C190.882 34.0738 191.1 33.885 191.067 33.8361C190.085 32.3726 189.727 30.6654 188.861 29.1349C188.008 27.6281 187.1 26.1699 186.168 24.708C183.883 21.1262 180.665 18.4454 176.89 16.2933C175.816 15.6808 174.567 15.3383 173.428 14.8179C172.867 14.5614 172.257 14.2406 172.92 13.5088C173.005 13.4135 172.852 13.1355 172.807 12.943C172.656 13.0342 172.515 13.1576 172.348 13.21C171.995 13.3182 171.425 13.5654 171.298 13.4443C170.52 12.6895 169.55 13.1156 168.699 12.9327C167.841 12.7487 167.028 12.2653 166.274 11.8056C165.551 11.3638 164.871 11.0032 163.951 11.0874C163.73 11.1076 163.586 10.9035 163.259 11.1503C162.657 11.6009 161.967 11.5646 161.133 11.3397C160.525 11.1774 160.436 10.9925 160.317 10.576C160.272 10.4251 160.08 10.3128 159.954 10.1836C159.934 10.3875 159.969 10.613 159.883 10.7866C159.699 11.1543 158.938 11.1458 159.019 10.9757C159.244 10.5046 159.316 9.9302 158.694 10.4207C157.843 11.0887 157.303 11.1252 156.491 10.5611C156.215 10.3722 155.804 10.3343 155.446 10.2664C155.299 10.2373 155.132 10.3183 154.972 10.3512C155.169 11.121 154.838 10.7284 154.342 10.7443C152.749 10.7918 151.133 10.5884 149.541 11.0155C148.849 11.2009 148.13 11.4817 147.268 11.1864C146.819 11.0327 146.11 11.5619 145.504 11.7451C145.031 11.8871 144.55 11.9628 144.492 11.2677C144.49 11.2446 143.878 11.1504 143.726 11.2732C143.149 11.735 142.683 12.357 141.748 11.9756C141.696 11.956 141.38 12.2476 141.39 12.3811C141.443 12.9679 141.285 12.9251 140.79 12.6988C140.612 12.6152 140.22 12.9902 139.899 13.0901C137.575 13.811 135.464 14.9218 133.353 16.0506C132.948 16.2665 132.545 16.3911 132.292 16.7786C131.912 17.3624 132.597 17.4593 132.778 17.7896C132.931 18.0675 132.928 18.5078 132.799 18.8008C132.628 19.1791 132.537 19.4369 132.943 19.7124C133.221 19.9009 133.457 20.1436 133.711 20.3623C133.467 20.5087 133.221 20.6581 132.978 20.807C133.171 21.0051 133.361 21.2036 133.458 21.6239C133.442 21.7621 133.517 21.6761 133.594 21.5952C133.513 21.5442 133.428 21.4912 133.347 21.4402C133.294 21.5379 133.229 21.6325 133.193 21.7349C133.186 21.7519 133.301 21.8048 133.459 21.6264C133.733 21.4929 134.055 21.5619 134.068 21.6638C134.204 22.8422 134.919 23.9749 134.362 25.2243C134.236 25.5063 134.446 25.9382 134.559 26.2854C135.213 28.2795 134.653 30.2865 134.622 32.2825C134.582 34.652 133.914 36.9562 133.12 39.194C132.928 39.7321 133.668 40.7562 132.36 40.8715C132.154 41.5187 131.948 42.1684 131.736 42.8116C131.521 43.4577 131.378 44.1357 131.061 44.7372C130.721 45.3815 130.218 45.9529 129.779 46.5546C129.338 47.1568 128.925 47.7828 128.437 48.3514C127.875 49.0084 127.174 49.5672 126.666 50.2539C126.136 50.973 125.09 50.9385 124.555 51.7964C124.205 52.3619 122.899 52.3493 122.21 52.828C121.377 53.4045 120.615 53.9843 119.609 54.3463C119.162 54.5046 118.929 54.7585 118.445 54.4626C118.009 54.1947 117.807 54.5838 117.527 54.8326C117.235 55.0968 116.834 55.1819 116.659 54.5462C116.652 54.5135 116.666 54.5789 116.679 54.6417C116.79 54.5807 116.922 54.5369 117.003 54.45C117.029 54.4247 116.919 54.2877 116.874 54.2044C116.795 54.2858 116.716 54.3698 116.656 54.5467C116.145 55.286 115.419 54.9409 114.765 55.0364C113.387 55.2391 112.096 55.0235 110.82 54.7324C110.287 54.6115 109.409 54.7979 109.232 53.9205C109.218 53.8527 108.662 53.7982 108.4 53.8672C107.659 54.0635 107.187 54.0205 107.18 53.1449C107.173 52.4929 106.217 53.018 105.929 52.2432C105.62 51.4096 105.225 50.583 105.038 49.6995C104.693 48.0682 104.367 46.4335 104.033 44.8003C104.877 43.6598 104.984 42.5562 103.861 41.4944C103.77 41.4087 103.788 41.2208 103.753 41.0785C103.914 41.0506 104.074 40.9941 104.233 40.9978C104.676 41.012 105.13 41.0087 105.549 41.1128C105.635 41.1343 105.591 41.5947 105.608 41.8546C106.293 41.8136 106.84 40.9563 106.635 40.2557C106.606 40.1566 106.615 40.0484 106.61 39.945C106.601 39.788 106.595 39.6329 106.586 39.4784C106.383 39.5525 106.104 39.5777 105.999 39.7155C105.89 39.8567 105.986 40.121 105.917 40.3073C105.881 40.4073 105.669 40.5299 105.564 40.5118C105.374 40.4797 105.106 40.3806 105.053 40.2492C104.919 39.9108 104.879 39.5378 104.814 39.1771C104.725 38.6852 105.883 38.5022 105.175 37.8239C104.405 37.0832 105.696 36.7602 105.637 36.1694C105.562 35.446 106.076 35.2372 106.615 34.9069C106.84 34.7688 106.658 34.1291 106.746 33.7313C107.029 32.4516 107.041 32.4572 108.28 33.0358C108.433 33.1081 108.629 33.1026 108.807 33.1316C108.807 32.9937 108.832 32.8515 108.802 32.7188C108.754 32.5137 108.697 32.305 108.592 32.1204C108.062 31.1741 108.041 30.9021 108.97 30.6184C109.703 30.3949 109.737 30.1496 109.645 29.5619C109.601 29.2781 109.862 28.7618 110.12 28.6677C110.658 28.4703 110.788 28.2786 110.725 27.7404C110.684 27.3859 111.055 26.6632 111.203 26.6712C112.353 26.7319 112.127 25.7381 112.576 25.2855C113.749 24.1088 114.91 22.9184 116.107 21.7635C116.719 21.1707 117.31 20.4307 118.078 20.1333C119.096 19.7433 118.735 19.1658 118.389 18.8408C117.659 18.1532 117.174 17.3006 116.323 16.673C115.492 16.0575 114.715 15.3388 114.118 14.3913C113.625 13.6104 112.265 13.2377 111.228 12.8192C110.294 12.4428 109.228 12.3364 108.301 11.9456C107.538 11.6227 106.74 11.5116 105.994 11.2716C105.242 11.0326 104.617 10.8862 103.809 10.8963C103.275 10.9032 102.735 10.2372 102.193 9.87596C102.062 9.79186 101.916 9.72615 101.78 9.65352C101.202 10.6464 100.171 9.87039 99.3675 10.1478C98.5539 10.4322 97.4027 10.6112 96.7039 10.285C95.6773 9.80488 94.774 10.7397 93.7713 10.128C93.3398 9.86721 92.4219 10.2763 91.7234 10.3924C90.7115 10.5629 89.6824 10.6765 88.6945 10.9364C87.7606 11.1844 86.7406 10.9842 85.8774 11.7846C85.2418 12.3736 83.8263 11.7711 83.186 12.7644C81.5054 12.9624 80.118 13.9032 78.5872 14.3641C76.1287 15.1032 74.1905 16.5923 71.9355 17.5952C69.6209 18.6241 67.6687 20.1963 65.5695 21.5469C63.8967 22.6231 62.5291 24.1433 60.5061 24.7495C59.2397 26.5019 57.2698 27.588 55.671 29.0261C53.848 30.6643 52.0874 32.3594 50.2763 34.0008C49.3573 34.8317 48.686 35.8251 47.7362 36.6431C45.7019 38.3935 43.9655 40.4408 42.162 42.4088C41.0157 43.659 40.0455 45.0529 38.8535 46.259C37.5728 47.556 36.5203 49.0162 35.1722 50.2729C34.0494 51.3212 33.3295 52.7108 32.1478 53.7745C31.1635 54.6584 30.2577 55.6639 29.5511 56.7466C28.8573 57.809 27.9829 58.7752 27.1705 59.6994C26.3013 60.6908 25.5905 61.8081 24.6384 62.7254C23.7573 63.5757 23.1103 64.6325 22.0057 65.2874C21.9176 65.3391 21.8941 65.4863 21.8423 65.5916C21.9861 65.6187 22.1364 65.6914 22.2704 65.6708C22.9711 65.5648 23.6664 65.392 24.3725 65.3267C24.9627 65.2737 25.4978 65.035 26.1898 65.2454C26.6591 65.3877 27.344 64.8603 27.9549 64.7022C28.5631 64.5445 29.1948 64.4739 29.8187 64.3656C30.5189 64.244 31.2192 64.1225 31.9194 64.0009C32.5406 63.8931 33.1618 63.7852 33.7858 63.6769C34.486 63.5554 35.203 63.4881 35.8801 63.2951C36.4345 63.1364 36.9178 62.7273 37.4771 62.6198C38.093 62.4999 38.989 62.8387 39.3465 62.5451C39.8972 62.093 40.5977 62.2758 41.0231 61.9418C41.6679 61.4395 42.3785 62.5261 43.0595 61.6767C43.3724 61.2893 44.4328 61.48 45.0881 61.2491C46.7563 60.6603 48.3775 61.2609 50.0175 61.3197C50.1708 61.3243 50.3859 61.5341 50.4493 61.6922C50.8489 62.6793 50.6028 63.0759 49.5657 63.7295C48.4908 64.4052 47.4009 64.9249 46.0927 65.1364C45.1447 65.288 44.2558 65.7285 43.3354 66.0288C42.4155 66.3316 41.2671 66.0418 40.5719 66.9456C40.5051 67.0327 40.2705 67.0032 40.1189 67.0347C37.1784 67.6935 34.2333 68.3296 31.3059 69.0252C30.2883 69.2643 29.3276 69.7121 28.3121 69.9612C27.2453 70.2218 26.0189 70.1433 25.0782 70.5928C23.5875 71.3044 21.8656 71.2182 20.4623 71.8469C18.0727 72.9227 15.4933 72.9749 13.0068 73.495C11.6085 73.7898 10.0551 74.0439 9.557 72.1346C9.50238 71.923 9.03094 71.8253 8.82456 71.6165C8.64019 71.4325 8.5487 71.1648 8.41927 70.9323C8.65745 70.9794 8.8943 71.0476 9.13242 71.0531C9.18352 71.0546 9.32282 70.7702 9.27689 70.6975C9.1284 70.4683 8.87811 70.2932 8.72689 70.0645C8.3507 69.4949 8.77657 68.6534 7.99705 68.2085C8.0674 68.8415 8.1405 69.4741 8.19995 70.1091C8.20581 70.1653 8.11741 70.2848 8.08265 70.2804C7.96426 70.2671 7.77209 70.238 7.7473 70.1721C7.3241 68.9732 6.93256 67.7636 6.50885 66.5622C6.1814 65.6381 5.75248 64.742 5.48396 63.8025C5.20072 62.8186 5.32093 61.6555 4.79006 60.8266C3.87634 59.3954 4.06741 57.7516 3.41347 56.3352C2.20259 53.7144 1.98092 50.9089 1.28398 48.1938C1.20486 47.8901 0.695065 47.6325 0.712256 47.3719C0.728472 47.1479 1.23359 46.9692 1.47293 46.7325C1.5362 46.6695 1.43371 46.4583 1.39843 46.3135C1.19994 45.5231 1.52748 45.6484 2.04131 45.9807C2.33386 46.1693 2.86237 46.7801 2.75211 45.7454C2.72777 45.5025 3.07587 45.2183 3.03672 44.9857C2.88531 44.1221 2.88901 43.713 4.06326 44.2116C4.7056 44.4826 5.05193 43.8865 4.70841 43.1733C4.30974 42.3423 4.38643 42.2483 5.49193 42.1631C5.60024 42.1547 5.72809 42.1038 5.80395 42.0334C6.21616 41.6626 6.24783 41.6519 6.28925 41.9232C6.36658 42.4249 6.4507 42.9047 7.00888 43.1643C6.25546 43.8805 7.27963 43.8666 7.49945 44.1823C7.61926 44.3541 7.76853 44.5181 7.8272 44.7083C8.62052 47.274 9.77358 49.7227 10.4782 52.3376C11.0338 54.4034 11.4209 56.5427 12.1949 58.5315C12.8015 60.0889 13.2031 61.6506 13.5716 63.2441C13.598 63.3592 13.7579 63.4511 13.8551 63.5539C13.9446 63.4395 14.0676 63.3375 14.1207 63.2112C14.2243 62.9591 14.4155 62.6527 14.3408 62.4393C13.9902 61.4437 14.3517 60.2465 13.3128 59.4303C13.1242 59.2809 13.1724 58.8822 13.0952 58.6016C12.529 56.6079 12.1748 54.5332 11.318 52.6498C10.7078 51.309 10.6498 49.8542 10.0238 48.602C9.18895 46.936 9.01487 45.176 8.52863 43.4625C8.28422 42.5994 7.61282 41.8833 7.51204 40.9225C7.42953 40.1198 7.604 40.4069 8.24476 40.3946C9.44197 40.3715 9.71147 41.2744 10.0617 41.7861C10.6894 42.7023 10.8884 43.8672 11.2665 44.9283C11.6445 45.9893 12.0389 47.0475 12.3951 48.1123C12.7293 49.1107 12.5194 50.2764 13.4839 51.0873C13.5759 51.165 13.5437 51.3657 13.5812 51.5075C14.2795 54.147 14.9725 56.7874 15.6954 59.4226C15.8034 59.8123 16.0115 60.1951 16.2528 60.5331C16.3518 60.6721 16.8335 61.0542 16.8488 60.5363C16.8891 59.0931 18.6766 58.9076 19.0894 57.6989C19.2781 57.1458 19.9417 56.7079 20.2496 56.1029C20.3765 55.8545 20.8631 55.7648 21.2894 55.5867C21.3248 55.5805 21.254 55.5928 21.1859 55.6047C21.2521 55.7077 21.3023 55.829 21.3944 55.9067C21.4219 55.9306 21.5704 55.8293 21.6634 55.7872C21.575 55.714 21.484 55.6414 21.2926 55.5887C21.9238 54.1652 22.7884 52.8208 24.4113 51.9276C24.4467 51.9214 24.3759 51.9337 24.3078 51.9455C24.3713 52.049 24.4243 52.1699 24.5163 52.2476C24.5438 52.2715 24.6896 52.1707 24.7853 52.1281C24.6975 52.0574 24.6059 51.9823 24.4146 51.9296C24.5733 51.1891 24.8662 50.4696 25.8908 50.3203C26.0499 50.2979 26.2601 50.0845 26.3011 49.9264C26.6506 48.5049 27.8578 47.814 29.0602 47.1135C29.1839 47.0426 29.4387 46.9775 29.4316 46.9293C29.3704 46.3545 30.1569 46.1035 30.1634 45.8734C30.2092 44.4291 31.8015 44.1033 32.4001 43.0444C32.9821 42.0145 34.0312 41.2131 34.8733 40.3097C35.3679 39.7763 35.8453 39.2277 36.3533 38.705C36.803 38.2418 37.2937 37.8132 37.7504 37.3566C38.3634 36.7402 38.8447 35.811 39.5959 35.5661C40.3972 35.3047 39.9234 34.7131 40.347 34.4392C40.7684 34.1683 41.1586 33.8143 41.4574 33.4268C42.2034 32.4542 43.1025 31.6086 44.1517 30.9451C45.2929 30.2214 46.0224 29.1815 46.9227 28.2732C47.4251 27.7645 47.8917 27.1631 48.515 26.8311C49.5432 26.2857 50.22 25.5672 50.8929 24.6646C51.6769 23.6152 52.8563 22.7886 53.8847 21.8997C55.7004 20.3356 57.7268 18.9742 59.7181 17.5929C61.0619 16.6597 62.452 15.7731 63.7313 14.773C64.9761 13.7972 66.373 13.0681 67.7677 12.342C68.5452 11.9364 68.9109 11.173 69.8895 10.8678C71.3883 10.4021 72.6975 9.45146 74.0715 8.67953C75.3799 7.94502 76.7518 7.30094 78.0769 6.57914C79.0921 6.02561 80.352 5.85373 81.4833 5.46739C82.032 5.28106 82.5247 4.95876 83.0741 4.76191C85.7013 3.82706 88.3361 2.94293 91.1212 2.42043C92.6723 2.12773 94.1269 1.15706 95.7386 1.27018C97.2383 1.3741 98.6311 0.997016 100.067 0.955861C101.461 0.914258 102.902 1.03613 104.281 1.00239C107.293 0.927047 110.132 1.49578 112.976 2.23806C115.488 2.89465 117.85 3.90269 120.192 4.94813C120.741 5.19357 121.202 5.61058 121.683 5.97465C121.843 6.09517 121.893 6.38052 122.061 6.44496C124.328 7.3472 125.95 8.42123 127.341 9.9622C127.954 10.6391 128.562 11.3244 129.216 11.9681C129.375 12.1252 129.721 12.2316 129.955 12.2015C131.488 12.0003 132.743 11.2959 133.842 10.3089C134.138 10.0442 134.538 9.96168 134.601 10.7236C134.584 10.8618 134.66 10.7783 134.736 10.6949C134.655 10.6439 134.571 10.5909 134.49 10.5399C134.437 10.6376 134.372 10.7322 134.336 10.8346C134.328 10.8516 134.444 10.9069 134.602 10.7261C135.658 9.89214 136.618 9.27535 137.587 8.6752C137.707 8.59973 137.928 8.54838 138.043 8.59872C138.422 8.76716 138.771 8.98744 139.131 9.18777C139.299 8.86207 139.006 8.41071 139.752 8.26305C143.4 7.53343 146.939 6.36489 150.664 5.95501C151.116 5.90507 151.7 5.71008 152.006 5.8938C153.415 6.73944 154.546 6.27237 155.788 5.54419C156.448 5.15643 156.433 5.88491 156.448 6.49132C156.427 6.62751 156.507 6.54609 156.583 6.46264C156.502 6.41165 156.418 6.35862 156.336 6.30511C156.283 6.40284 156.217 6.49744 156.182 6.59987C156.177 6.61636 156.29 6.6722 156.45 6.49084L156.447 6.4888Z" fill="#FFC305" fill-opacity="0.5"/>
</svg>
