<svg width="41" height="41" viewBox="0 0 41 41" fill="none" xmlns="http://www.w3.org/2000/svg">
<path d="M24.2583 4.91064C22.1628 4.91064 20.1531 5.74307 18.6714 7.22481C17.1897 8.70654 16.3573 10.7162 16.3573 12.8117V17.2106H12.1291C11.9168 17.2106 11.7448 17.3827 11.7448 17.595V23.4034C11.7448 23.6156 11.9168 23.7877 12.1291 23.7877H16.3573V35.7034C16.3573 35.9156 16.5293 36.0877 16.7416 36.0877H22.55C22.7622 36.0877 22.9343 35.9156 22.9343 35.7034V23.7877H27.1999C27.3763 23.7877 27.53 23.6677 27.5728 23.4966L29.0249 17.6882C29.0855 17.4456 28.9021 17.2106 28.652 17.2106H22.9343V12.8117C22.9343 12.4606 23.0738 12.1238 23.3221 11.8755C23.5704 11.6272 23.9072 11.4877 24.2583 11.4877H28.7C28.9122 11.4877 29.0843 11.3156 29.0843 11.1034V5.29502C29.0843 5.08274 28.9122 4.91064 28.7 4.91064H24.2583Z" fill="white"/>
</svg>
