<svg width="19" height="32" viewBox="0 0 19 32" fill="none" xmlns="http://www.w3.org/2000/svg">
<path d="M13.2582 0.334717C11.1627 0.334717 9.15302 1.16715 7.67129 2.64888C6.18956 4.13061 5.35713 6.14027 5.35713 8.23576V12.6347H1.129C0.916719 12.6347 0.744629 12.8068 0.744629 13.0191V18.8274C0.744629 19.0397 0.916719 19.2118 1.129 19.2118H5.35713V31.1274C5.35713 31.3397 5.52922 31.5118 5.7415 31.5118H11.5498C11.7621 31.5118 11.9342 31.3397 11.9342 31.1274V19.2118H16.1998C16.3762 19.2118 16.5299 19.0918 16.5727 18.9206L18.0248 13.1123C18.0854 12.8697 17.9019 12.6347 17.6519 12.6347H11.9342V8.23576C11.9342 7.88462 12.0737 7.54787 12.322 7.29958C12.5703 7.05129 12.907 6.9118 13.2582 6.9118H17.6998C17.9121 6.9118 18.0842 6.73971 18.0842 6.52742V0.719092C18.0842 0.506808 17.9121 0.334717 17.6998 0.334717H13.2582Z" fill="white"/>
</svg>
