<svg width="23" height="26" viewBox="0 0 23 26" fill="none" xmlns="http://www.w3.org/2000/svg">
<path fill-rule="evenodd" clip-rule="evenodd" d="M2.80468 9.7117C2.7959 10.1985 2.7959 10.7422 2.7959 11.3516V14.1567C2.7959 16.9851 2.7959 18.3993 3.67458 19.278C4.55326 20.1567 5.96747 20.1567 8.7959 20.1567H13.5731C16.4015 20.1567 17.8157 20.1567 18.6944 19.278C19.5731 18.3993 19.5731 16.9851 19.5731 14.1567V11.3516C19.5731 10.7422 19.5731 10.1985 19.5643 9.7117L12.251 14.3215C11.5993 14.7322 10.7697 14.7322 10.118 14.3215L2.80468 9.7117ZM2.99773 7.54439C3.11219 7.56795 3.22444 7.61213 3.32913 7.67812L11.1845 12.6295L19.0399 7.67812C19.1446 7.61213 19.2568 7.56796 19.3713 7.54439C19.2435 6.99179 19.035 6.5708 18.6944 6.23024C17.8157 5.35156 16.4015 5.35156 13.5731 5.35156H8.7959C5.96747 5.35156 4.55326 5.35156 3.67458 6.23024C3.33403 6.5708 3.12546 6.99179 2.99773 7.54439Z" fill="#775CA6"/>
</svg>
