<svg width="23" height="28" viewBox="0 0 23 28" fill="none" xmlns="http://www.w3.org/2000/svg">
<path d="M6.67962 4.00788L7.29289 3.39461C7.68342 3.00408 8.31658 3.00408 8.70711 3.39461L11.2929 5.98039C11.6834 6.37092 11.6834 7.00408 11.2929 7.39461L9.50048 9.18702C9.2016 9.4859 9.1275 9.9425 9.31653 10.3206C10.4093 12.5061 12.1814 14.2782 14.3669 15.371C14.745 15.56 15.2016 15.4859 15.5005 15.187L17.2929 13.3946C17.6834 13.0041 18.3166 13.0041 18.7071 13.3946L21.2929 15.9804C21.6834 16.3709 21.6834 17.0041 21.2929 17.3946L20.6796 18.0079C18.5683 20.1192 15.2257 20.3568 12.837 18.5652L11.6286 17.6589C9.88504 16.3513 8.33622 14.8025 7.02857 13.0589L6.12226 11.8505C4.33072 9.4618 4.56827 6.11923 6.67962 4.00788Z" fill="#775CA6"/>
</svg>
