<svg width="17" height="23" viewBox="0 0 17 23" fill="none" xmlns="http://www.w3.org/2000/svg">
<path fill-rule="evenodd" clip-rule="evenodd" d="M8.61684 17.4841C10.1409 16.6042 15.1753 13.2821 15.1753 7.78886C15.1753 3.52279 12.0456 0.0644531 8.18483 0.0644531C4.32409 0.0644531 1.19434 3.52279 1.19434 7.78886C1.19434 13.2821 6.22875 16.6042 7.75283 17.4841C8.02285 17.6399 8.34682 17.6399 8.61684 17.4841ZM8.18483 11.0993C9.83944 11.0993 11.1808 9.61718 11.1808 7.78886C11.1808 5.96054 9.83944 4.4784 8.18483 4.4784C6.53023 4.4784 5.18891 5.96054 5.18891 7.78886C5.18891 9.61718 6.53023 11.0993 8.18483 11.0993Z" fill="#775CA6"/>
<path d="M14.2388 16.0654C14.8523 16.5686 15.1753 17.1395 15.1753 17.7206C15.1753 18.3017 14.8523 18.8726 14.2388 19.3758C13.6252 19.8791 12.7428 20.297 11.6801 20.5876C10.6174 20.8781 9.41192 21.0311 8.18483 21.0311C6.95775 21.0311 5.75228 20.8781 4.68959 20.5876C3.6269 20.297 2.74443 19.8791 2.13089 19.3758C1.51734 18.8726 1.19434 18.3017 1.19434 17.7206C1.19434 17.1395 1.51734 16.5686 2.13088 16.0654" stroke="#775CA6" stroke-width="2" stroke-linecap="round"/>
</svg>
