<svg width="40" height="41" viewBox="0 0 40 41" fill="none" xmlns="http://www.w3.org/2000/svg">
<path d="M4.06163 36.44C3.92821 36.9474 4.36929 37.4157 4.85531 37.2827L12.3684 35.2268C14.74 36.5726 17.4101 37.2876 20.1287 37.2876H20.1367C29.0826 37.2876 36.3749 29.6922 36.3749 20.3558C36.3749 15.8306 34.6888 11.5744 31.6236 8.37808C28.5583 5.18188 24.4846 3.41553 20.1366 3.41553C11.1908 3.41553 3.89844 11.0109 3.89844 20.3474C3.89742 23.3176 4.64577 26.2358 6.06836 28.809L4.06163 36.44ZM14.9901 12.2474C15.2885 12.2557 15.6192 12.2726 15.9339 13.0044C16.1426 13.4916 16.4941 14.3885 16.7805 15.1191L16.7805 15.1191C17.0034 15.6876 17.1867 16.1554 17.2326 16.2512C17.3375 16.4699 17.402 16.7222 17.2649 17.0165C17.2487 17.0512 17.2334 17.0844 17.2187 17.1164C17.1087 17.3556 17.0304 17.5258 16.8455 17.7483C16.7694 17.8398 16.6902 17.9401 16.6112 18.04C16.4724 18.2158 16.3344 18.3904 16.2162 18.5138C16.0065 18.7323 15.7886 18.968 16.0306 19.4054C16.2727 19.8427 17.1197 21.2811 18.3701 22.4418C19.7143 23.6955 20.8832 24.2239 21.474 24.491L21.4741 24.491C21.5888 24.5428 21.6817 24.5848 21.7499 24.6204C22.1694 24.839 22.4194 24.8054 22.6614 24.511C22.9035 24.2166 23.7101 23.2324 23.9925 22.7951C24.2668 22.3578 24.5491 22.4251 24.9363 22.5764C25.3235 22.7278 27.3885 23.7876 27.808 24.0063C27.8909 24.0495 27.9684 24.0885 28.0403 24.1246C28.3321 24.2712 28.5305 24.3709 28.6146 24.5194C28.7195 24.7044 28.7195 25.5792 28.3727 26.6054C28.0178 27.6316 26.3076 28.6157 25.5332 28.6914C25.4599 28.6986 25.3869 28.7079 25.3119 28.7174L25.3118 28.7174C24.6021 28.8073 23.7012 28.9215 20.4915 27.5979C16.5365 25.9686 13.9257 21.926 13.3979 21.1087C13.3562 21.0442 13.3275 20.9997 13.3122 20.9782L13.3032 20.9657C13.0631 20.629 11.5939 18.5696 11.5939 16.4447C11.5939 14.4118 12.5499 13.3533 12.9859 12.8706C13.0135 12.84 13.0391 12.8117 13.0622 12.7856C13.4493 12.3483 13.9011 12.239 14.1834 12.239C14.4658 12.239 14.7481 12.239 14.9901 12.2474Z" fill="white"/>
<path d="M4.06163 36.44C3.92821 36.9474 4.36929 37.4157 4.85531 37.2827L12.3684 35.2268C14.74 36.5726 17.4101 37.2876 20.1287 37.2876H20.1367C29.0826 37.2876 36.3749 29.6922 36.3749 20.3558C36.3749 15.8306 34.6888 11.5744 31.6236 8.37808C28.5583 5.18188 24.4846 3.41553 20.1366 3.41553C11.1908 3.41553 3.89844 11.0109 3.89844 20.3474C3.89742 23.3176 4.64577 26.2358 6.06836 28.809L4.06163 36.44ZM14.9901 12.2474C15.2885 12.2557 15.6192 12.2726 15.9339 13.0044C16.1426 13.4916 16.4941 14.3885 16.7805 15.1191L16.7805 15.1191C17.0034 15.6876 17.1867 16.1554 17.2326 16.2512C17.3375 16.4699 17.402 16.7222 17.2649 17.0165C17.2487 17.0512 17.2334 17.0844 17.2187 17.1164C17.1087 17.3556 17.0304 17.5258 16.8455 17.7483C16.7694 17.8398 16.6902 17.9401 16.6112 18.04C16.4724 18.2158 16.3344 18.3904 16.2162 18.5138C16.0065 18.7323 15.7886 18.968 16.0306 19.4054C16.2727 19.8427 17.1197 21.2811 18.3701 22.4418C19.7143 23.6955 20.8832 24.2239 21.474 24.491L21.4741 24.491C21.5888 24.5428 21.6817 24.5848 21.7499 24.6204C22.1694 24.839 22.4194 24.8054 22.6614 24.511C22.9035 24.2166 23.7101 23.2324 23.9925 22.7951C24.2668 22.3578 24.5491 22.4251 24.9363 22.5764C25.3235 22.7278 27.3885 23.7876 27.808 24.0063C27.8909 24.0495 27.9684 24.0885 28.0403 24.1246C28.3321 24.2712 28.5305 24.3709 28.6146 24.5194C28.7195 24.7044 28.7195 25.5792 28.3727 26.6054C28.0178 27.6316 26.3076 28.6157 25.5332 28.6914C25.4599 28.6986 25.3869 28.7079 25.3119 28.7174L25.3118 28.7174C24.6021 28.8073 23.7012 28.9215 20.4915 27.5979C16.5365 25.9686 13.9257 21.926 13.3979 21.1087C13.3562 21.0442 13.3275 20.9997 13.3122 20.9782L13.3032 20.9657C13.0631 20.629 11.5939 18.5696 11.5939 16.4447C11.5939 14.4118 12.5499 13.3533 12.9859 12.8706C13.0135 12.84 13.0391 12.8117 13.0622 12.7856C13.4493 12.3483 13.9011 12.239 14.1834 12.239C14.4658 12.239 14.7481 12.239 14.9901 12.2474Z" />
</svg>
