<svg width="80" height="63" viewBox="0 0 80 63" fill="none" xmlns="http://www.w3.org/2000/svg">
<path fill-rule="evenodd" clip-rule="evenodd" d="M19.4225 54.2684V30.8192H30.2374C34.8212 31.6194 39.405 34.0457 43.9888 36.8593H52.3881C56.1906 37.0816 58.183 40.8416 54.4847 43.3123C51.5417 45.4209 47.6545 45.3003 43.6698 44.9509C40.9221 44.8176 40.8049 48.4188 43.6698 48.4315C44.666 48.5077 45.7468 48.279 46.6909 48.279C51.6654 48.2727 55.7543 47.3454 58.2611 43.5155L59.5177 40.6511L72.0125 34.6109C78.2631 32.6039 82.7037 38.9807 78.1003 43.4203C69.0499 49.8415 59.7717 55.1258 50.2785 59.3939C43.3833 63.4842 36.4881 63.3444 29.5993 59.3939L19.4225 54.2684ZM0 28.5645H16.167V56.6247H0V28.5645Z" fill="white"/>
<path fill-rule="evenodd" clip-rule="evenodd" d="M45.9586 11.1418H45.9462C43.7781 10.9012 40.8677 11.1448 39.5192 11.1418C37.2707 11.2362 34.9294 13.1574 33.5531 16.0164C32.7458 17.6941 32.5324 18.9576 32.3994 20.751C32.1303 22.5596 31.9912 24.3499 32.0004 26.1159C32.4427 28.8653 35.9841 28.0493 36.2841 26.1159L36.714 20.5744C36.7789 19.7371 36.8377 19.1708 37.181 18.3731C37.3418 17.9986 37.5367 17.6789 37.7656 17.414L37.979 27.5378L37.8584 28.3842H47.5978L47.4679 27.4403L47.6566 16.2752C48.6463 15.8825 49.5 15.6998 50.2515 15.6693C50.2144 15.7454 50.1742 15.8216 50.1371 15.8977C49.3298 17.5753 49.1164 18.8389 48.9834 20.6323C48.7175 22.4378 48.5752 24.2281 48.5845 25.9941C49.0267 28.7435 52.5681 27.9275 52.8681 25.9941L53.298 20.4526C53.363 19.6153 53.4217 19.049 53.765 18.2513C53.9259 17.8768 54.1207 17.5571 54.3496 17.2922L54.563 27.416L54.4207 28.4025H64.2004L64.052 27.3216L64.2035 18.6075V18.778L64.2344 17.2952C64.4633 17.5601 64.6551 17.8798 64.819 18.2543C65.1654 19.052 65.2211 19.6184 65.286 20.4557L65.7159 25.9971C66.1304 28.64 69.9996 28.6917 69.9996 25.9971C70.0088 24.2281 69.8697 22.4408 69.6006 20.6353C69.4676 18.8419 69.2542 17.5784 68.4469 15.9007C67.0335 12.9625 65.2056 11.4067 62.4313 11.087C60.7209 10.95 57.8476 11.1052 56.1342 11.0565C55.7074 11.1144 55.2867 11.1996 54.8785 11.3214C53.8114 11.1753 52.4011 10.9956 50.9938 10.9895C48.937 10.9834 46.8927 11.3305 45.9586 11.1418ZM59.3106 0.396851C62.0973 0.396851 64.3582 2.62256 64.3582 5.36588C64.3582 8.1092 62.0973 10.3349 59.3106 10.3349C56.5239 10.3349 54.263 8.1092 54.263 5.36588C54.263 2.62256 56.5239 0.396851 59.3106 0.396851ZM42.6894 0.396851C45.4761 0.396851 47.737 2.62256 47.737 5.36588C47.737 8.1092 45.4761 10.3349 42.6894 10.3349C39.9027 10.3349 37.6418 8.1092 37.6418 5.36588C37.6418 2.62256 39.9027 0.396851 42.6894 0.396851Z" fill="white"/>
</svg>
