<svg width="137" height="129" viewBox="0 0 137 129" fill="none" xmlns="http://www.w3.org/2000/svg">
<path d="M67.575 109.036C67.575 105.718 67.575 102.174 68.9576 100.465C71.7229 97.0215 70.4911 95.4632 71.1196 91.3411C71.4715 89.1041 76.6501 87.4201 79.6416 84.3286C82.1303 81.7146 83.6637 77.9946 82.8844 74.1742C82.4822 72.2137 81.0745 68.3932 77.731 65.3771C75.544 63.4166 71.6978 62.6877 68.7817 60.5764C66.2175 58.7164 63.3517 57.0324 60.4859 55.2478C57.6453 53.4884 55.4331 50.5476 52.6175 49.0647C49.4752 47.4058 46.182 46.2999 43.4168 45.1688C39.5957 43.6356 36.026 44.2137 33.663 44.1635C30.2441 44.088 27.7303 44.9929 25.0656 47.431C22.8031 49.5171 20.5155 51.9049 18.5044 54.9211C16.6693 57.6356 14.0297 60.0234 12.2197 62.8636C10.3343 65.8044 8.24784 68.343 6.16133 70.7559C3.22011 74.1239 1.2593 76.9139 0.304027 79.176C-0.927766 82.0916 1.88776 84.605 3.32066 88.7271C4.17538 91.1652 3.84858 94.684 5.43231 98.5296C6.89035 102.023 8.24784 105.291 10.2589 107.754C12.5465 110.544 14.6582 113.686 17.348 115.646C20.1887 117.707 23.9595 118.361 26.8756 120.12C29.8419 121.93 33.2859 123.086 35.9003 125.273C38.2382 127.183 40.6013 128.867 43.5425 128.842C46.2826 128.817 49.1484 127.585 51.9136 126.53C54.6789 125.474 57.2933 124.041 59.5809 122.609C62.8741 120.548 64.4578 117.707 65.4382 116.551C66.9214 114.767 67.6002 112.303 67.575 109.036Z" fill="#FFC305" fill-opacity="0.5"/>
<path d="M41.3554 38.7344C43.8441 39.8654 46.2574 36.799 48.1176 33.1796C49.6008 30.264 51.2097 27.0971 52.4415 25.0109C53.3968 23.4023 55.8352 20.8134 58.6256 17.9229C60.8629 15.5854 62.7735 12.6698 64.3321 10.2317C66.4437 6.88883 67.047 4.19942 64.1561 2.13839C60.3099 -0.576152 56.4385 -0.626421 53.1454 1.53516C49.9025 3.6716 47.3886 7.56746 45.8049 10.835C44.7993 12.9463 42.8385 16.0881 41.6319 19.7577C40.6012 22.8744 40.5006 26.4687 40.023 29.4597C39.2689 33.9085 39.2186 37.7793 41.3554 38.7344Z" fill="#FFC305" fill-opacity="0.5"/>
<path d="M78.4098 18.7524C75.1921 23.5531 73.1558 28.0019 72.6028 28.5046C68.2035 32.5764 73.4324 35.4669 78.0579 36.1958C79.9936 36.5225 83.0856 34.6123 86.4291 30.8673C88.6161 28.4292 91.3814 25.8906 93.6438 23.0755C96.0823 20.0594 97.9677 16.7919 100.004 14.6052C103.146 11.2371 103.548 7.74341 102.367 5.43102C100.984 2.71649 97.1884 1.10787 93.5684 2.11325C91.3059 2.71649 87.9122 5.6321 84.8956 9.45256C82.608 12.3179 80.4209 15.7362 78.4098 18.7524Z" fill="#FFC305" fill-opacity="0.5"/>
<path d="M64.5583 36.2961C62.0947 36.1705 59.5557 36.8742 57.4692 38.1561C54.5782 39.9658 52.366 42.5295 53.3464 44.0627C55.0307 46.6767 59.3043 51.4523 64.2566 48.2351C66.7202 46.6767 69.6111 43.9873 70.4156 41.3482C71.2451 38.6336 69.9631 36.5475 64.5583 36.2961Z" fill="#FFC305" fill-opacity="0.5"/>
<path d="M101.587 25.2119C99.2496 27.0216 96.2832 28.3286 93.895 30.3143C91.5069 32.2999 89.6718 34.9642 87.4847 36.9247C84.996 39.1617 82.7084 41.3232 80.8481 43.2837C77.756 46.5261 75.3176 49.4166 75.217 50.8995C74.9908 54.9462 77.756 57.5351 81.4766 56.9067C83.6636 56.5297 87.0071 55.5997 90.3002 53.3124C92.5376 51.7792 94.3224 47.8331 97.5904 45.1186C100.205 42.957 104.101 41.8008 106.816 39.3627C109.607 36.8241 110.989 32.9031 113.252 30.5907C116.872 26.896 119.712 24.4076 120.039 22.799C121.07 17.9983 123.559 15.1581 117.199 14.6051C116.243 14.5046 113.654 18.0234 109.682 20.7882C107.445 22.3215 104.227 23.176 101.587 25.2119Z" fill="#FFC305" fill-opacity="0.5"/>
<path d="M94.6494 60.8528C91.5322 62.5117 88.5156 63.6931 86.5296 65.3268C82.8342 68.4184 83.9655 70.9067 87.6106 71.7864C90.0239 72.3645 93.4427 70.6553 96.5599 70.4291C100.029 70.2029 103.347 70.3035 105.057 69.1975C107.118 67.8654 110.009 65.9803 113.101 63.7433C115.64 61.9336 118.028 59.4956 120.668 57.6105C123.534 55.5997 127.179 54.9713 129.567 53.4381C132.232 51.729 133.815 49.4669 134.871 47.9839C136.656 45.4453 136.279 42.4794 134.092 40.7452C132.76 39.6895 128.964 40.72 125.419 42.4794C123.031 43.6859 120.09 44.817 117.727 46.2999C114.609 48.2353 112.9 51.7541 111.517 52.483C109.959 53.3376 105.987 53.2873 102.266 55.0216C99.5514 56.3035 97.4146 59.3699 94.6494 60.8528Z" fill="#FFC305" fill-opacity="0.5"/>
<path d="M117.174 107.301C117.45 104.361 116.017 101.37 112.573 99.5851C110.11 98.3033 106.138 98.5043 101.839 99.7359C98.3698 100.691 94.7247 102.174 91.5572 103.783C86.7558 106.246 83.1861 109.011 82.985 110.393C82.6582 112.932 86.3033 114.314 91.2053 114.968C94.3728 115.37 98.043 115.169 101.437 115.118C105.937 115.043 110.084 115.546 111.794 115.143C114.484 114.515 116.847 110.745 117.174 107.301Z" fill="#FFC305" fill-opacity="0.5"/>
</svg>
