<svg width="149" height="133" viewBox="0 0 149 133" fill="none" xmlns="http://www.w3.org/2000/svg">
<path fill-rule="evenodd" clip-rule="evenodd" d="M65.0682 16.4561V18.9727C65.0682 21.4857 66.7161 25.0501 64.7971 27.2217L62.9378 29.0409C58.3807 32.5873 50.8114 32.3525 46.5885 28.349C46.5596 28.3219 46.5199 28.2804 46.491 28.2533L45.2405 26.9868C45.0508 26.77 44.9876 26.6779 44.8141 26.4448L42.3711 23.0809C42.1452 22.7738 42.1597 22.81 41.9374 22.5462C41.7387 22.3095 41.6863 22.2409 41.4984 22.0169C41.4731 21.9861 41.4369 21.941 41.4098 21.9103C40.2461 20.5445 38.544 19.1678 36.6015 19.1678C35.8661 19.1678 36.5021 19.1353 36.0992 19.4388C34.388 20.7306 33.6146 23.2905 36.0703 25.3139L36.9358 25.9968C38.9307 27.3771 41.3899 28.3635 43.1138 30.0815C44.478 31.4419 45.3164 33.6207 45.3164 35.6242C45.3164 38.6503 43.0325 44.1424 39.8938 44.1424C36.8111 44.1424 36.569 43.996 33.7104 43.3547C31.6415 42.8904 28.1269 42.0431 26.5531 44.1622C25.2449 45.9255 26.9398 48.5451 28.1631 49.8675C28.201 49.9091 28.3149 50.0229 28.3528 50.0644L30.1308 51.965C31.8655 53.6849 31.9541 54.6026 31.9541 57.112C31.9541 58.7253 30.5266 60.1182 29.2346 60.783C26.2369 62.3259 22.305 62.0079 19.0073 61.717C16.9817 61.5382 17.0088 62.2139 13.0931 61.6412C11.962 61.4768 11.5843 61.5761 10.5345 61.2943C8.09874 60.6421 4.00962 60.2392 1.60457 61.2311C0.524015 61.6773 0.113838 61.8652 0 62.7287V64.5859C0.0144556 64.6726 0.0469806 64.763 0.117452 64.9292C0.428247 65.6518 1.37328 66.1523 2.05269 66.4793C3.9536 67.397 7.88191 67.4819 9.79908 66.5208L11.2952 65.8867C12.9161 65.3519 15.1549 65.3808 16.9925 65.6753L19.927 66.6129C19.9668 66.6328 20.0174 66.6563 20.0589 66.6744C20.1005 66.6942 20.1529 66.7141 20.1944 66.7322L26.3525 70.8368L28.7178 73.3118C29.2165 73.9713 29.4316 74.6072 29.4316 75.5014C29.4316 76.5475 27.7818 77.4345 26.7013 77.9982C24.4173 79.1905 21.369 78.9864 18.7814 78.9864C18.7362 78.9864 14.1177 77.0425 13.366 80.3576C12.0776 86.0412 20.0047 84.7946 23.4289 84.7946C24.4643 84.7946 25.5593 85.8949 25.5593 86.9246C25.5593 88.1423 24.5383 90.135 25.6623 92.8232L26.5061 94.1095C28.3094 96.0787 30.5555 97.1301 33.0888 97.9829C33.6544 98.1726 34.4422 98.3514 35.0439 98.5447C35.5517 98.7073 36.5762 98.8753 37.1798 98.9259C36.5853 101.153 33.9941 102.134 33.6273 104.481C33.3906 105.995 35.0602 107.46 36.5744 107.054C38.1176 106.64 41.9772 103.959 42.7957 103.959C44.7418 103.959 45.3074 104.23 46.2036 105.972C46.4873 106.523 46.5452 106.94 46.912 107.392C47.2824 107.849 47.4884 108.015 47.8859 108.548C48.5183 109.392 49.0659 110.167 49.4272 111.265C50.5313 114.618 50.1825 117.697 48.5202 120.719C48.1407 121.409 47.8118 121.796 47.4396 122.35C47.745 122.988 47.9961 123.629 48.6322 124.065C49.2917 124.516 49.9928 124.553 50.824 124.191C52.9255 123.277 54.0621 121.182 55.5528 119.621C55.5799 119.592 55.6215 119.552 55.6486 119.523L58.4222 117.263C61.2501 115.411 62.889 115.666 64.8568 118.488C65.8524 119.913 66.5246 121.546 67.5058 123.003C67.5292 123.037 67.56 123.086 67.5835 123.118L68.5447 124.094C69.2946 123.893 68.5429 124.115 69.2296 123.81L73.0531 122.02C73.0965 122.002 73.1488 121.984 73.1922 121.966C77.1422 120.345 81.3994 119.308 85.671 120.137C87.8809 120.565 88.1411 121.288 89.5993 122.793C91.3954 124.645 93.8492 127.474 96.8867 126.103L98.0124 125.279C99.0243 124.191 97.3385 122.703 99.1888 117.563C99.6604 116.251 100.398 114.976 101.552 114.118C104.505 111.917 108.623 113.83 111.454 116.436C111.483 116.463 111.525 116.504 111.554 116.531C111.583 116.558 111.622 116.6 111.651 116.627L112.781 117.628C112.81 117.655 112.849 117.697 112.876 117.725L118.836 124.545C121.944 128.807 126.454 122.925 121.515 119.93L117.298 115.821C115.701 114.291 112.425 111.195 114.483 109.045C115.562 107.919 117.215 108.051 118.313 105.132C118.494 104.651 118.547 104.048 118.675 103.558C119.519 100.335 118.892 95.7878 121.823 93.3453C123.823 91.6778 126.145 91.5116 128.573 92.3499C129.07 92.5215 129.114 92.5703 129.625 92.8485C131.979 94.1276 135.505 97.9377 136.873 100.124C137.191 100.633 137.021 100.581 137.418 101.126C139.576 104.084 144.646 102.581 144.646 99.9015C144.646 98.2033 144.42 97.4969 143.096 96.4165L130.787 86.0719L128.653 82.5906C127.258 80.0722 125.037 75.057 127.818 72.815C129.162 71.7311 132.388 71.4474 133.812 71.6118C136.434 71.9135 140.575 73.4546 142.933 71.8593C145.36 70.2189 143.813 67.1188 141.354 66.2137C138.656 65.22 135.742 65.4405 132.84 65.0466L130.03 64.1776C129.05 63.7621 128.131 63.7784 127.195 63.1406C124.285 61.157 122.728 56.6278 127.149 55.4969C127.961 55.2891 128.615 55.2783 129.278 54.9152L130.433 53.9396C130.772 53.4807 130.704 54.2576 130.704 52.0824C130.704 51.4736 129.77 50.6552 129.321 50.3679C124.28 47.1377 123.062 54.0191 120.442 54.0191C119.159 54.0191 118.211 51.8512 117.977 50.8684C117.367 48.2795 116.769 45.3022 116.769 42.5905C116.769 41.6456 116.817 41.8028 116.514 41.1037L114.45 37.3586C108.728 28.4411 114.951 30.6868 117.56 21.7097C118.337 19.0396 117.388 15.56 116.304 14.402C115.755 13.8149 115.464 13.9431 114.633 13.9431C113.494 13.9431 112.938 14.9277 112.522 15.7046C111.653 17.3341 111.301 19.6231 110.374 21.2996C110.115 21.7657 109.98 22.015 109.693 22.5552C108.48 24.8424 106.843 26.882 104.881 28.5857L104.673 28.7645C104.629 28.8007 104.507 28.9054 104.463 28.9416C103.431 29.7853 101.668 30.7843 100.304 30.7843C98.4389 30.7843 95.9616 30.9072 94.3733 29.937C92.8283 28.994 93.8637 27.7402 95.1466 26.0149C95.1701 25.9824 95.2045 25.9354 95.2279 25.9029C95.2514 25.8703 95.2858 25.8252 95.3111 25.7909C96.3031 24.4467 98.6539 21.5237 96.5741 19.9935C96.1983 19.717 96.5416 19.9609 96.2127 19.7749L95.9598 19.6412C95.6381 19.4695 95.3147 19.1696 94.8828 19.1696C91.9592 19.1696 86.2944 25.9462 80.5537 25.9462C79.4714 25.9462 76.2857 25.4042 75.2973 25.0068C71.1775 23.3501 74.1607 16.2845 71.3455 13.4698C69.4049 11.5277 66.5318 12.6514 65.6103 14.8771C65.4223 15.3306 65.0628 15.878 65.0628 16.4597L65.0682 16.4561Z" fill="#B199F9" fill-opacity="0.5"/>
<path fill-rule="evenodd" clip-rule="evenodd" d="M133.036 50.5307C135.244 50.5307 136.524 50.3211 138.3 49.5967C139.736 49.0113 143.963 47.3438 145.244 47.2463C146.158 47.1758 146.764 47.2788 147.463 46.9482C148.166 46.614 148.565 46.0033 148.722 45.2897V43.7324C148.422 42.1625 147.288 40.6558 145.818 40.6558C143.612 40.6558 143.581 41.3079 142.349 42.6087C141.227 43.7938 138.338 45.2662 136.881 46.0485C136.245 46.3899 135.821 46.6718 135.246 47.1234C134.339 47.8334 133.152 49.1558 133.038 50.5307H133.036Z" fill="#B199F9" fill-opacity="0.5"/>
<path fill-rule="evenodd" clip-rule="evenodd" d="M19.7557 115.003C19.7557 117.875 20.0141 118.488 22.4661 118.488C24.985 118.488 27.2058 115.854 28.3658 113.931C28.4706 113.756 28.4724 113.736 28.5754 113.561L31.2587 108.757C31.266 108.429 31.4792 108.333 29.6813 108.658C28.9856 108.784 28.7507 109.019 27.8852 109.193C26.969 109.375 26.9564 109.505 26.1433 109.774L22.9865 111.265C21.9475 111.959 21.2934 112.371 20.4929 113.418C20.155 113.861 19.7539 114.32 19.7539 115.003H19.7557Z" fill="#B199F9" fill-opacity="0.5"/>
<path fill-rule="evenodd" clip-rule="evenodd" d="M114.834 10.0682C115.511 9.91104 115.737 9.64909 115.994 9.09807C116.962 7.01686 118.218 2.3793 116.53 0.433586C116.342 0.214986 116.115 0.0686511 115.871 0H115.213C114.745 0.126462 114.279 0.527529 113.939 1.23572L113.82 1.5049C113.652 1.86622 113.773 1.58981 113.632 1.89694C112.989 3.29706 112.721 6.22557 113.419 7.80273C113.63 8.28148 113.892 8.44769 114.127 8.83611C114.532 9.50636 114.272 9.53346 114.834 10.0664V10.0682Z" fill="#B199F9" fill-opacity="0.5"/>
<path fill-rule="evenodd" clip-rule="evenodd" d="M40.0869 128.943C40.0869 130.444 40.1032 130.688 41.4801 131.81C41.5108 131.835 41.5542 131.871 41.5867 131.896C41.9228 132.16 42.3022 132.339 42.6943 132.428H43.8056C44.1616 132.346 44.5085 132.185 44.8265 131.938C45.0867 131.737 44.9964 131.799 45.1409 131.672C45.1717 131.645 45.215 131.609 45.2439 131.582C45.2729 131.555 45.318 131.519 45.3469 131.49C45.3759 131.463 45.4192 131.425 45.4463 131.396C45.9613 130.863 46.0896 130.675 46.0896 128.941C46.0896 126.063 42.9871 126.191 41.3753 127.326C41.3427 127.349 41.2976 127.383 41.265 127.409C40.9597 127.647 40.0869 128.489 40.0869 128.941V128.943Z" fill="#B199F9" fill-opacity="0.5"/>
</svg>
